<svg xmlns="http://www.w3.org/2000/svg" width="13" height="13.029" viewBox="0 0 13 13.029">
    <g id="ico_sns_facebook" transform="translate(.5 -505.5)">
        <path id="빼기_2" stroke="rgba(0,0,0,0)" stroke-miterlimit="10" d="M-6196.937 33.928a6.008 6.008 0 0 1-3.606-2.01A6 6 0 0 1-6202 28a6.007 6.007 0 0 1 6-6 6.007 6.007 0 0 1 6 6 6 6 0 0 1-1.455 3.918 6 6 0 0 1-3.606 2.009v-4.193h1.4l.261-1.734h-1.664v-1.126a.865.865 0 0 1 .978-.937h.756V24.46a9.49 9.49 0 0 0-1.343-.117 2.114 2.114 0 0 0-2.266 2.335V28h-1.524v1.734h1.524v4.193z" transform="translate(6202 484)"/>
    </g>
</svg>
