<svg xmlns="http://www.w3.org/2000/svg" width="34.1" height="34.1" viewBox="0 0 34.1 34.1">
    <defs>
        <style>
            .prefix__cls-2{fill:none;stroke-miterlimit:10;stroke:#222;stroke-width:2.5px}
        </style>
    </defs>
    <g id="prefix__ico_seat" transform="translate(.05 .05)">
        <path id="prefix__area" d="M0 0H34V34H0z" style="stroke:red;stroke-width:.1px;opacity:0;fill:none;stroke-miterlimit:10"/>
        <g id="prefix__ico_seat-2" transform="translate(2.695 4.023)">
            <path id="prefix__패스_1070" d="M199.493 162.45l-6.023-10.48a3.8 3.8 0 0 0-5.207-1.4 3.838 3.838 0 0 0-1.4 5.23l9.835 17.122h13.05a5.226 5.226 0 0 0 5.214-5.239 5.226 5.226 0 0 0-5.217-5.238z" class="prefix__cls-2" transform="translate(-186.356 -150.055)"/>
            <path id="prefix__패스_1071" d="M207.685 167.474l2.531 4.931a.224.224 0 0 1-.2.326h-16.709" class="prefix__cls-2" transform="translate(-184.313 -144.739)"/>
            <path id="prefix__선_336" d="M0 0L17.116 0" class="prefix__cls-2" transform="translate(4.297 12.329)"/>
        </g>
    </g>
</svg>
