<svg xmlns="http://www.w3.org/2000/svg" width="34.1" height="34.1" viewBox="0 0 34.1 34.1">
    <defs>
        <style>
            .prefix__cls-1{fill:none;stroke-miterlimit:10;stroke:#222;stroke-width:2.5px}
        </style>
    </defs>
    <g id="prefix__ico_restaurant" transform="translate(.05 .05)">
        <g id="prefix__ico_restaurant-2" transform="translate(7.802 1.313)">
            <path id="prefix__선_344" d="M0 0L0 31.342" class="prefix__cls-1" transform="translate(3.933)"/>
            <path id="prefix__선_345" d="M0 0L0 31.342" class="prefix__cls-1" transform="translate(13.133)"/>
            <path id="prefix__패스_1078" d="M488.332 148v6.565a3.934 3.934 0 0 0 3.934 3.933 3.934 3.934 0 0 0 3.933-3.933V148" class="prefix__cls-1" transform="translate(-488.332 -148.004)"/>
            <path id="prefix__사각형_1002" d="M0 0h2.966a3 3 0 0 1 3 3v3.292a3 3 0 0 1-3 3H0V0z" class="prefix__cls-1" transform="translate(13.133 1.197)"/>
        </g>
        <path id="prefix__area" d="M0 0H34V34H0z" style="stroke:red;stroke-width:.1px;opacity:0;fill:none;stroke-miterlimit:10"/>
    </g>
</svg>
