<svg xmlns="http://www.w3.org/2000/svg" width="11.997" height="11.997" viewBox="0 0 11.997 11.997">
    <g transform="translate(-4.079 -4.079)">
        <path d="M10.078 5.16c1.6 0 1.791.006 2.424.035a3.32 3.32 0 0 1 1.114.207 1.987 1.987 0 0 1 1.138 1.138 3.32 3.32 0 0 1 .207 1.114c.029.633.035.822.035 2.424s-.006 1.791-.035 2.424a3.32 3.32 0 0 1-.207 1.114 1.987 1.987 0 0 1-1.138 1.138 3.32 3.32 0 0 1-1.114.207c-.632.029-.822.035-2.424.035s-1.791-.006-2.424-.035a3.32 3.32 0 0 1-1.114-.207 1.987 1.987 0 0 1-1.14-1.139 3.32 3.32 0 0 1-.205-1.115c-.029-.633-.035-.822-.035-2.424s.006-1.791.035-2.424A3.32 3.32 0 0 1 5.4 6.54 1.987 1.987 0 0 1 6.54 5.4a3.32 3.32 0 0 1 1.114-.207c.633-.029.822-.035 2.424-.035m0-1.081c-1.629 0-1.833.007-2.473.036a4.4 4.4 0 0 0-1.456.279 3.067 3.067 0 0 0-1.755 1.756A4.4 4.4 0 0 0 4.115 7.6c-.029.64-.036.844-.036 2.473s.007 1.833.036 2.473a4.4 4.4 0 0 0 .279 1.456 3.067 3.067 0 0 0 1.754 1.754 4.4 4.4 0 0 0 1.452.284c.64.029.844.036 2.473.036s1.833-.007 2.473-.036a4.4 4.4 0 0 0 1.456-.279 3.067 3.067 0 0 0 1.754-1.754 4.4 4.4 0 0 0 .279-1.456c.029-.64.036-.844.036-2.473s-.002-1.834-.031-2.478a4.4 4.4 0 0 0-.279-1.456 3.067 3.067 0 0 0-1.754-1.754 4.4 4.4 0 0 0-1.456-.279c-.64-.029-.844-.036-2.473-.036z" />
        <path d="M10.077 6.997a3.08 3.08 0 1 0 3.08 3.08 3.08 3.08 0 0 0-3.08-3.08zm0 5.08a2 2 0 1 1 2-2 2 2 0 0 1-2 2z" />
        <circle cx=".72" cy=".72" r=".72" transform="translate(12.56 6.156)"/>
    </g>
</svg>
