<svg xmlns="http://www.w3.org/2000/svg" id="prefix__ico_bag" width="34" height="34" viewBox="0 0 34 34">
    <defs>
        <style>
            .prefix__cls-1{fill:none;stroke:#222;stroke-miterlimit:10;stroke-width:2.5px}
        </style>
    </defs>
    <g id="prefix__ico_bag-2" transform="translate(7.846 2.615)">
        <path id="prefix__패스_1072" d="M248.287 175.761h18.308v-13.089a9.148 9.148 0 0 0-9.154-9.142 9.148 9.148 0 0 0-9.154 9.142z" class="prefix__cls-1" transform="translate(-248.287 -148.335)"/>
        <path id="prefix__선_337" d="M0 0L0 2.67" class="prefix__cls-1" transform="translate(4.385 27.425)"/>
        <path id="prefix__선_338" d="M0 0L0 2.67" class="prefix__cls-1" transform="translate(13.539 27.425)"/>
        <path id="prefix__선_339" d="M2.14 0L0 2.14" class="prefix__cls-1" transform="translate(11.985 12.465)"/>
        <path id="prefix__선_340" d="M0 0L0 5.364" class="prefix__cls-1" transform="translate(6.523 .018)"/>
        <path id="prefix__선_341" d="M0 0L0 5.364" class="prefix__cls-1" transform="translate(11.769 .018)"/>
        <path id="prefix__선_342" d="M0 0L13.088 0" class="prefix__cls-1" transform="translate(2.604)"/>
    </g>
    <path id="prefix__area" d="M0 0H34V34H0z" style="fill:#fff;opacity:0"/>
</svg>
