<svg xmlns="http://www.w3.org/2000/svg" width="26" height="26" viewBox="0 0 26 26">
    <g id="img_c105" transform="translate(-35 -388)">
        <g id="box" fill="#fff" stroke="#e5e5e5" transform="translate(35 388)">
            <rect width="26" height="26" stroke="none" rx="13"/>
            <rect width="25" height="25" x=".5" y=".5" fill="none" rx="12.5"/>
        </g>
        <g id="그룹_3272"  transform="translate(39.1 395.399)">
            <path id="패스_3110" fill="#e21836" d="M3.478 0h4.431a.864.864 0 0 1 .859 1.125L6.705 9.984a1.506 1.506 0 0 1-1.384 1.123H.89a.863.863 0 0 1-.859-1.123l2.064-8.858A1.5 1.5 0 0 1 3.478 0" />
            <path id="패스_3111" fill="#00447c" d="M61.953 0h5.1c.618 0 .34.5.194 1.125L65.18 9.984c-.145.619-.1 1.123-.719 1.123h-5.1a.861.861 0 0 1-.858-1.123l2.063-8.858A1.505 1.505 0 0 1 61.953 0"  transform="translate(-54.412)"/>
            <path id="패스_3112" fill="#007b84" d="M132.39 0h4.432a.863.863 0 0 1 .859 1.125l-2.063 8.858a1.507 1.507 0 0 1-1.385 1.123H129.8a.862.862 0 0 1-.859-1.123l2.063-8.858A1.5 1.5 0 0 1 132.39 0"  transform="translate(-119.956)"/>
            <path id="패스_3113" fill="#fefefe" d="M31.35 40.647a4.763 4.763 0 0 1-.633-.01l-.325 1.5a1.038 1.038 0 0 1-.278.624.5.5 0 0 1-.327.114.3.3 0 0 1-.34-.291v-.065l.062-.387c0-.003.323-1.293.381-1.464a.122.122 0 0 0 0-.019 4.749 4.749 0 0 1-.747-.01c0 .014-.02.094-.02.094l-.33 1.457-.028.124-.055.4a.6.6 0 0 0 .07.3c.15.262.578.3.821.3a1.593 1.593 0 0 0 .8-.187 1.19 1.19 0 0 0 .514-.8l.037-.145s.332-1.343.389-1.517a.061.061 0 0 1 .009-.018zm1.131 1.083a.878.878 0 0 0-.358.084c-.048.025-.093.053-.141.081l.043-.155-.025-.027c-.279.056-.341.064-.6.1l-.022.014a7.62 7.62 0 0 1-.167.922c-.042.18-.086.361-.13.541l.012.023c.264-.014.344-.014.574-.01l.019-.02c.029-.149.033-.184.1-.487.03-.143.094-.459.125-.571a.427.427 0 0 1 .168-.053c.129 0 .113.112.108.157-.006.075-.052.32-.1.531l-.034.14-.069.3.01.02c.26-.014.34-.014.562-.01l.026-.02c.04-.233.052-.3.123-.635l.036-.156c.07-.306.1-.46.052-.587a.3.3 0 0 0-.312-.182zm1.264.32c-.138.027-.227.044-.314.056s-.172.027-.305.045l-.011.01-.01.008c-.014.1-.024.186-.042.287s-.04.224-.079.394a1.553 1.553 0 0 1-.063.222 1.913 1.913 0 0 0-.07.219l.008.012.007.011c.125-.006.207-.01.291-.011h.305l.012-.01.013-.011c.019-.116.022-.147.034-.2l.082-.369.074-.318c.024-.107.052-.213.077-.318v-.013zm0-.431a.507.507 0 0 0-.495.052c-.148.1-.165.243-.04.318a.506.506 0 0 0 .492-.053c.151-.103.17-.244.046-.318zm.76 1.719a.945.945 0 0 0 .711-.278 1.261 1.261 0 0 0 .244-.523.665.665 0 0 0-.059-.6.655.655 0 0 0-.534-.2.98.98 0 0 0-.67.232 1.1 1.1 0 0 0-.3.579c-.048.21-.1.587.244.728a1.017 1.017 0 0 0 .367.061zm-.02-.771c.059-.259.128-.477.3-.477.138 0 .149.162.087.422a1.163 1.163 0 0 1-.13.364.215.215 0 0 1-.167.108c-.019 0-.129 0-.131-.164a1.121 1.121 0 0 1 .044-.254zm1.615.733l.02-.02c.028-.149.033-.184.1-.487.031-.143.1-.459.126-.571a.422.422 0 0 1 .169-.053c.128 0 .112.112.107.157a5.112 5.112 0 0 1-.1.531l-.03.136c-.023.1-.049.2-.071.3l.01.02c.261-.014.338-.014.561-.01l.027-.02c.039-.233.05-.3.123-.636l.035-.156c.07-.306.105-.46.054-.586a.307.307 0 0 0-.313-.176.874.874 0 0 0-.358.084c-.047.024-.094.053-.14.081l.04-.155-.022-.026c-.279.057-.343.064-.6.1l-.02.014a7.9 7.9 0 0 1-.168.922c-.042.18-.086.361-.13.541l.012.023c.26-.013.338-.013.568-.013zm1.919.01l.115-.555c.001 0 .083-.349.088-.361a.207.207 0 0 1 .052-.051h.038a1.786 1.786 0 0 0 1.094-.236 1.166 1.166 0 0 0 .435-.692 1.045 1.045 0 0 0 .03-.241.506.506 0 0 0-.087-.308c-.164-.229-.49-.233-.866-.235h-.186c-.482.006-.675 0-.755-.005l-.019.1-.173.8-.433 1.781c.422-.001.594-.001.667.007zm.32-1.421l.183-.8.006-.041v-.031l.073.008.387.033a.315.315 0 0 1 .168.4.583.583 0 0 1-.3.4.956.956 0 0 1-.425.066h-.1zm1.143.688c-.049.207-.1.584.241.719a.675.675 0 0 0 .309.056.51.51 0 0 0 .3-.135l-.025.094.016.02c.249-.01.326-.01.595-.008l.024-.019c.039-.231.076-.456.179-.9l.151-.633-.008-.023c-.278.051-.352.063-.62.1l-.02.017-.008.063a.382.382 0 0 0-.195-.16.744.744 0 0 0-.638.232 1.084 1.084 0 0 0-.302.581zm.584.013c.06-.255.128-.47.305-.47.112 0 .171.1.159.28l-.032.143-.056.226a.551.551 0 0 1-.065.132.306.306 0 0 1-.217.1c-.018 0-.127 0-.131-.161a1.1 1.1 0 0 1 .036-.246zm3.049-.841l-.021-.025c-.275.056-.325.065-.578.1l-.019.019v.012c-.188.434-.183.34-.336.682v-.042l-.038-.741-.024-.025c-.288.056-.3.065-.561.1l-.021.019a.2.2 0 0 0 0 .029 3.725 3.725 0 0 1 .059.4c.016.132.036.264.052.394.026.218.041.325.073.657-.18.3-.222.409-.4.669l-.122.193a.092.092 0 0 1-.044.04.184.184 0 0 1-.08.011h-.068l-.1.334.344.006a.424.424 0 0 0 .4-.222l.217-.371.023-.026c.136-.31 1.244-2.21 1.244-2.21zm-3.633 4.384h-.146l.541-1.788h.179l.057-.184.005.2c-.007.127.093.239.355.22h.3l.1-.344h-.114c-.065 0-.1-.017-.092-.052l-.005-.208h-.56a7.843 7.843 0 0 0-.832.047.979.979 0 0 0-.272.135l.055-.184h-.524l-.109.366-.548 1.815h-.106l-.1.342h1.044l-.035.114h.514l.034-.114h.144zm-.428-1.425a2.334 2.334 0 0 0-.24.094l.139-.457h.416l-.1.333a1.355 1.355 0 0 0-.216.033zm.008.653s-.131.016-.217.036a2.119 2.119 0 0 0-.244.107l.143-.475h.419zm-.233.776h-.419l.121-.4h.416zm1.006-1.109h.6l-.087.28h-.61l-.092.306h.534l-.4.569a.166.166 0 0 1-.082.068.24.24 0 0 1-.108.031h-.148l-.1.335h.387a.471.471 0 0 0 .408-.212l.277-.379.06.385a.181.181 0 0 0 .1.131.359.359 0 0 0 .136.058h.324l.114-.376h-.075a.314.314 0 0 1-.13-.021.2.2 0 0 1-.019-.08l-.06-.386h-.254l.108-.129h.609l.094-.306h-.564l.088-.28h.562l.1-.346h-1.671zm-5.085 1.187l.141-.468h.578l.105-.348h-.578l.088-.288h.565l.1-.337h-1.411l-.1.337h.321l-.086.288h-.322l-.107.354h.321l-.187.618a.148.148 0 0 0 .035.151.155.155 0 0 0 .1.075.622.622 0 0 0 .148.02h.651l.116-.385-.289.04c-.053.004-.208-.002-.191-.054zm.066-2.238l-.146.265a.307.307 0 0 1-.085.11.281.281 0 0 1-.131.02h-.076l-.1.338h.254a.575.575 0 0 0 .26-.067c.048-.026.061-.011.1-.047l.086-.074h.792l.105-.352h-.58l.1-.192zm1.169 2.245c-.013-.019 0-.054.017-.125l.216-.716h.77c.112 0 .193 0 .246-.007a.5.5 0 0 0 .185-.062.346.346 0 0 0 .135-.124 1.056 1.056 0 0 0 .133-.3l.272-.907h-.8a2.529 2.529 0 0 0-.354.076 1.451 1.451 0 0 0-.266.17l.072-.249h-.494l-.691 2.292a1.418 1.418 0 0 0-.045.192c0 .042.053.083.088.114a.315.315 0 0 0 .161.031c.062 0 .149.008.271.008h.379l.116-.393-.34.032a.089.089 0 0 1-.072-.029zm.373-1.325h.809l-.051.161a.579.579 0 0 0-.107 0h-.7zm.162-.541h.816l-.059.194s-.384 0-.446.008a.91.91 0 0 0-.429.192zm.613 1.241a.086.086 0 0 1-.032.05.16.16 0 0 1-.083.014H36.9l.007-.2h-.477l-.019.96c0 .069.006.109.057.141a.963.963 0 0 0 .417.045h.3l.108-.359-.261.014-.087.005a.1.1 0 0 1-.036-.022c-.011-.011-.03 0-.027-.073v-.246l.274-.011a.356.356 0 0 0 .265-.094.294.294 0 0 0 .088-.163l.046-.218h-.375z"  transform="translate(-26.715 -37.807)"/>
        </g>
    </g>
</svg>
