<svg xmlns="http://www.w3.org/2000/svg" width="26" height="26" viewBox="0 0 26 26">
    <defs>
        <radialGradient id="radial-gradient" cx=".561" cy=".334" r=".469" gradientTransform="matrix(1 0 0 -.984 0 .663)" gradientUnits="objectBoundingBox">
            <stop offset="0" stop-color="#fff"/>
            <stop offset="1" stop-color="#d2a143"/>
        </radialGradient>
        <radialGradient id="radial-gradient-2" cx=".577" cy=".365" r="1.02" gradientTransform="matrix(1 0 0 -1.012 0 .733)" gradientUnits="objectBoundingBox">
            <stop offset="0" stop-color="#00b8ee"/>
            <stop offset=".219" stop-color="#0092d3"/>
            <stop offset=".296" stop-color="#007ac2"/>
            <stop offset=".38" stop-color="#0069b5"/>
            <stop offset=".469" stop-color="#005ead"/>
            <stop offset=".573" stop-color="#005bab"/>
            <stop offset="1" stop-color="#005bab"/>
        </radialGradient>
        <clipPath id="clip-path">
            <path id="패스_1" d="M8.691 2.11a6.894 6.894 0 1 0 .32-.01c-.106 0-.212 0-.319.007" class="c005-cls-1" transform="translate(-2.103 -2.103)"/>
        </clipPath>
        <clipPath id="clip-path-2">
            <path id="패스_2" d="M7.335 14.845a4.387 4.387 0 0 1-2.5-1.016 4.815 4.815 0 0 1-1.42-2.289c-.228-.791-.323-1.714.052-1.641.116.021.316.529.533.9a2.383 2.383 0 0 0 .578.722c.077.058.341-.528.726-.862.224-.184.466-.248.508.3.046.674-.075 1.476.122 1.476.182 0 .6-.138 1.509-.216.343-.029.539.035.211.495a3.424 3.424 0 0 1-.9.927c.775.725 1.7.637 1.721.946.011.177-.336.275-.791.275a3.39 3.39 0 0 1-.352-.019m2.61-6.516a1.11 1.11 0 0 1-.855-.791 2.329 2.329 0 0 1-.024-.88A5.879 5.879 0 0 1 9.6 4.941c.316-.8-.451-1.26-.326-1.553.172-.4.721.107 1.334.145.527.029.844 0 1.254.057a2.543 2.543 0 0 1 1.487.6c.267.312-.142.691-.628.454-.357-.175-.807-.068-.542.3a1.2 1.2 0 0 0 .793.449.821.821 0 0 1 .3 1.53c-.685.5-1.382.295-1.66-.691-.139-.492-.485-.743-.842-.6s-.144.785.126 1.386c.466 1.189-.476 1.314-.838 1.314a1.093 1.093 0 0 1-.119-.005m-.509 6.742c-.007-.157.224-.2.224-.2 2.071-.409 1.465-1.766.733-2.459-.309-.289-3.19-2.777-3.19-2.777C4.45 7.27 4.67 5.424 4.67 5.424 4.805 3.15 6.792 2.588 8.3 2.719c.177.015.275.121.242.269s-.265.171-.265.171a2.445 2.445 0 0 0-1.233.3c-1.213.815-.857 2.2.761 3.75.2.194.421.4.644.609 0 0 .322.286.971.9 1.245 1.145 1.924 1.764 1.924 1.764 2.194 1.826 1.442 3.495.607 4.075a4.163 4.163 0 0 1-2.276.7H9.65a.207.207 0 0 1-.218-.187M8.594 1.922a7.016 7.016 0 1 0 .321-.006c-.107 0-.214 0-.321.006" class="c005-cls-1" transform="translate(-1.914 -1.916)"/>
        </clipPath>
        <style>
            .c005-cls-1{fill:none}
        </style>
    </defs>
    <g id="img_c005" transform="translate(-35 -388)">
        <g id="box" fill="#fff" stroke="#e5e5e5" transform="translate(35 388)">
            <rect width="26" height="26" stroke="none" rx="13"/>
            <rect width="25" height="25" x=".5" y=".5" class="c005-cls-1" rx="12.5"/>
        </g>
        <g id="symbol" transform="translate(39.088 392.086)">
            <g id="그룹_10"  transform="translate(1.914 1.916)">
                <g id="그룹_9" >
                    <g id="그룹_8" >
                        <g id="그룹_7" >
                            <g id="그룹_6" >
                                <g id="그룹_5" >
                                    <g id="그룹_2"  transform="translate(.097 .096)">
                                        <g id="그룹_1" clip-path="url(#clip-path)" >
                                            <path id="사각형_1" fill="url(#radial-gradient)" d="M0 0H14.133V13.967H0z"  transform="translate(-.165)"/>
                                        </g>
                                    </g>
                                    <g id="그룹_4" >
                                        <g id="그룹_3" clip-path="url(#clip-path-2)" >
                                            <path id="사각형_2" fill="url(#radial-gradient-2)" d="M0 0H14.331V14.162H0z"  transform="translate(-.167)"/>
                                        </g>
                                    </g>
                                </g>
                            </g>
                        </g>
                    </g>
                </g>
            </g>
        </g>
    </g>
</svg>
