<svg xmlns="http://www.w3.org/2000/svg" width="26" height="26" viewBox="0 0 26 26">
    <defs>
        <radialGradient id="radial-gradient" cx=".583" cy=".298" r=".722" gradientTransform="matrix(1 0 0 .964 0 .011)" gradientUnits="objectBoundingBox">
            <stop offset="0" stop-color="#ee402f"/>
            <stop offset=".174" stop-color="#e5392c"/>
            <stop offset=".457" stop-color="#cc2827"/>
            <stop offset=".6" stop-color="#be1e24"/>
            <stop offset="1" stop-color="#7a1113"/>
        </radialGradient>
        <radialGradient id="radial-gradient-2" cx=".67" cy=".114" r=".772" gradientTransform="matrix(.84 0 0 1 .08 0)" gradientUnits="objectBoundingBox">
            <stop offset=".006" stop-color="#e6e7e7"/>
            <stop offset="1" stop-color="#899196"/>
        </radialGradient>
    </defs>
    <g id="img_c024" transform="translate(-35 -388)">
        <g id="box" fill="#fff" stroke="#e5e5e5" transform="translate(35 388)">
            <rect width="26" height="26" stroke="none" rx="13"/>
            <rect width="25" height="25" x=".5" y=".5" fill="none" rx="12.5"/>
        </g>
        <g id="그룹_3" transform="translate(40.999 393.998)">
            <g id="그룹_2" transform="translate(0 .001)">
                <g id="그룹_1" transform="translate(1.157)">
                    <path id="패스_1" fill="url(#radial-gradient)" d="M3.674 3.705c-.222.542-1.15.921-1.64 1.412C.9 6.252 1.2 8.352 2.371 8.755c1.077.366.059-1.587 1.077-2.435 1.078-.827 3.86.619 1.631 2.5a5.866 5.866 0 0 0-.941.852C2.314 11.5 5.273 13.568 7.442 13.3c1.92-.235 2.447-1.494 2.713-3.29.242-1.636-.085-2.207.17-3.4.816-2.252 3.451-.334 3.822.759.007-.125.02-.248.02-.375A7 7 0 0 0 1.7 2.639c1.476-.924 2.434-.039 1.974 1.066z" transform="translate(-1.323 -.001)"/>
                </g>
                <path id="패스_2" fill="url(#radial-gradient-2)" d="M10.159 6.938c-.255 1.189.072 1.761-.17 3.4-.266 1.8-.793 3.056-2.713 3.29-2.169.264-5.128-1.8-3.3-3.629a5.866 5.866 0 0 1 .941-.852c2.229-1.884-.553-3.33-1.631-2.5-1.019.849 0 2.8-1.077 2.435-1.168-.4-1.472-2.5-.337-3.638.49-.491 1.418-.87 1.64-1.412.459-1.11-.5-1.99-1.978-1.067A7 7 0 1 0 13.982 7.7c-.372-1.1-3.006-3.014-3.823-.762zM9.885 4.81c.67.481 1.474.515 1.8.065s.043-1.2-.627-1.684-1.476-.518-1.8-.07-.04 1.206.627 1.689z" transform="translate(0 -.322)"/>
            </g>
        </g>
    </g>
</svg>
