<svg xmlns="http://www.w3.org/2000/svg" width="26" height="26" viewBox="0 0 26 26">
    <defs>
        <style>
            .c004-cls-2{fill:#df2534}
        </style>
    </defs>
    <g id="img_c004" transform="translate(-35 -413)">
        <g id="box" fill="#fff" stroke="#e5e5e5" transform="translate(35 413)">
            <rect width="26" height="26" stroke="none" rx="13"/>
            <rect width="25" height="25" x=".5" y=".5" fill="none" rx="12.5"/>
        </g>
        <g id="그룹_3063"  transform="translate(-123.229 310.858)">
            <path id="패스_2990" d="M174.19 143.074a1.109 1.109 0 0 0-.972.3.079.079 0 0 1-.086.016.078.078 0 0 1-.047-.079l-.013-.154a.157.157 0 0 1 .05-.131 2.71 2.71 0 0 0 1.072-1.969c0-.116-.024-.265-.116-.3-.112-.046-.318.061-.538.274l-.045.049-.4.432a.629.629 0 0 0-.122.285 10.2 10.2 0 0 0 .317 3.667c.02.052.028.071.058.087a.074.074 0 0 0 .057 0l.482-.237.013-.006a1.271 1.271 0 0 0 .8-1.477c-.093-.415-.261-.671-.51-.757z" class="c004-cls-2"  transform="translate(-7.681 -28.763)"/>
            <path id="패스_2991" d="M171.229 108.182a7 7 0 1 0 7 7 7 7 0 0 0-7-7zm-2.909 7.132a2.776 2.776 0 0 1-.1.56 1.74 1.74 0 0 1-.541.83 2.089 2.089 0 0 1-.6.328l-.293.129-.241.106-.248.111-.064.032a.943.943 0 0 1-.8.148.8.8 0 0 1-.416-.523 8.744 8.744 0 0 1-.25-3.387 3.428 3.428 0 0 1 .635-1.5l.417-.467c.695-.71 1.132-.755 1.371-.666a.713.713 0 0 1 .416.669 1.224 1.224 0 0 1 .007.148 2.3 2.3 0 0 1-.708 1.556 1.08 1.08 0 0 1 .721.133 1.5 1.5 0 0 1 .669 1.037 2.613 2.613 0 0 1 .025.756zm6.268-1.148a.7.7 0 0 1-.237.547 3.83 3.83 0 0 1-1.718.807 4.036 4.036 0 0 1-3.113-.481 3.126 3.126 0 0 1-1.323-2.111 3.214 3.214 0 0 1 .578-2.5 3.429 3.429 0 0 1 2.147-1.3 3.707 3.707 0 0 1 1.772.122c.064.021.286.119.422.585.043.195-.156.137-.156.137a2.811 2.811 0 0 0-1.487-.182 2.259 2.259 0 0 0-1.556.908 2.214 2.214 0 0 0-.313 1.74 2.5 2.5 0 0 0 3.183 1.933 2.552 2.552 0 0 0 1.472-.778c.01-.012.061-.068.11-.068.067 0 .108.029.135.124a1.987 1.987 0 0 1 .084.518z" class="c004-cls-2" />
        </g>
    </g>
</svg>
