<svg xmlns="http://www.w3.org/2000/svg" width="26" height="26" viewBox="0 0 26 26">
    <g id="img_c101" transform="translate(-35 -384)">
        <rect id="box" width="26" height="26" fill="#1a1f70" rx="13" transform="translate(35 384)"/>
        <g id="그룹_3273" transform="translate(-711.533 -17.849)">
            <path id="패스_3114" fill="#fff" d="M759.261 412.243l-1.1 5.127h-1.326l1.1-5.127zm5.581 3.311l.7-1.925.4 1.925zm1.48 1.817h1.227l-1.071-5.127h-1.133a.6.6 0 0 0-.565.376l-1.99 4.751h1.393l.276-.766h1.7zm-3.462-1.671c.006-1.353-1.872-1.428-1.859-2.032 0-.184.179-.379.563-.43a2.5 2.5 0 0 1 1.308.23l.233-1.087a3.557 3.557 0 0 0-1.241-.227c-1.311 0-2.234.7-2.242 1.7-.008.738.659 1.15 1.161 1.4s.69.412.688.637c0 .344-.412.5-.794.5a2.772 2.772 0 0 1-1.363-.324l-.24 1.123a4.019 4.019 0 0 0 1.475.272c1.393 0 2.3-.688 2.31-1.754m-5.494-3.453l-2.149 5.127h-1.4l-1.057-4.092a.562.562 0 0 0-.315-.45 5.541 5.541 0 0 0-1.308-.436l.032-.149h2.257a.618.618 0 0 1 .612.523l.559 2.967 1.38-3.49z" />
        </g>
    </g>
</svg>
