<svg xmlns="http://www.w3.org/2000/svg" width="26" height="26" viewBox="0 0 26 26">
    <defs>
        <style>
            .c023-cls-2{fill:#002865}
        </style>
    </defs>
    <g id="img_c023" transform="translate(-592 -160)">
        <g id="box" fill="#fff" stroke="none">
            <path d="M13 25.5c-3.339 0-6.478-1.3-8.839-3.661C1.801 19.478.5 16.339.5 13c0-3.339 1.3-6.478 3.661-8.839C6.522 1.801 9.661.5 13 .5c3.339 0 6.478 1.3 8.839 3.661C24.199 6.522 25.5 9.661 25.5 13c0 3.339-1.3 6.478-3.661 8.839-2.361 2.36-5.5 3.661-8.839 3.661z" transform="translate(592 160)"/>
            <path fill="#e5e5e5" d="M13 1C9.795 1 6.781 2.248 4.515 4.515 2.248 6.78 1 9.795 1 13c0 3.205 1.248 6.219 3.515 8.485C6.78 23.752 9.795 25 13 25c3.205 0 6.219-1.248 8.485-3.515C23.752 19.22 25 16.205 25 13c0-3.205-1.248-6.219-3.515-8.485C19.22 2.248 16.205 1 13 1m0-1c7.18 0 13 5.82 13 13s-5.82 13-13 13S0 20.18 0 13 5.82 0 13 0z" transform="translate(592 160)"/>
        </g>
        <g id="그룹_3313" transform="translate(391.539 -163.575)">
            <g id="그룹_3305" transform="translate(205.421 335.26)">
                <path id="패스_3131" d="M278.081 392.3a1.416 1.416 0 0 0-1.03.388 1.966 1.966 0 0 0 0 2.476 1.555 1.555 0 0 0 2.065 0 1.983 1.983 0 0 0 0-2.476 1.427 1.427 0 0 0-1.035-.388zm.6 2.525a.741.741 0 0 1-.6.272.734.734 0 0 1-.592-.272 1.856 1.856 0 0 1 0-1.8.73.73 0 0 1 .592-.267.738.738 0 0 1 .6.267 1.865 1.865 0 0 1 0 1.8z" class="c023-cls-2" transform="translate(-270.656 -392.305)"/>
                <path id="패스_3132" d="M362.946 392.693a1.569 1.569 0 0 0-2.067 0 1.977 1.977 0 0 0 0 2.476 1.558 1.558 0 0 0 2.067 0 1.983 1.983 0 0 0 0-2.476zm-.439 2.137a.784.784 0 0 1-1.188 0 1.86 1.86 0 0 1 0-1.8.794.794 0 0 1 1.188 0 1.871 1.871 0 0 1 0 1.8z" class="c023-cls-2" transform="translate(-347.474 -392.305)"/>
                <path id="패스_3133" d="M240.516 396.239a.3.3 0 0 1-.079-.218v-1.13l1.054-1.766h-.722c.052.052.057.135-.006.235l-.571.988c-.48-.869-.479-.894-.566-1.051-.068-.119-.125-.172-.254-.172h-.572a1.236 1.236 0 0 1 .189.266l.84 1.492v1.138a.3.3 0 0 1-.079.218z" class="c023-cls-2" transform="translate(-236.011 -393.057)"/>
                <path id="패스_3134" d="M323.737 396.239a.3.3 0 0 0 .079-.218v-2.678a.3.3 0 0 0-.079-.218h1.031c.495 0 .926.239.926.7a.688.688 0 0 1-.319.6.842.842 0 0 1 .572.8.969.969 0 0 1-.375.767 1.231 1.231 0 0 1-.8.252zm.683-1.938a1.012 1.012 0 0 0 .44-.053.333.333 0 0 0 .211-.323.374.374 0 0 0-.4-.352.787.787 0 0 0-.25.032zm.675 1.413a.493.493 0 0 0 .22-.457.528.528 0 0 0-.589-.5 2.238 2.238 0 0 0-.305.018v1a.983.983 0 0 0 .674-.06z" class="c023-cls-2" transform="translate(-313.838 -393.057)"/>
                <path id="패스_3135" d="M205.5 396.022a.3.3 0 0 1-.079.218h.761a.3.3 0 0 1-.079-.218v-1.216l.884 1.262a.3.3 0 0 0 .273.171h.611a1.442 1.442 0 0 1-.22-.266l-1-1.414 1.02-1.433h-.751c.039.051.044.115-.029.237l-.791 1.137v-1.16a.3.3 0 0 1 .079-.218h-.761a.3.3 0 0 1 .079.218z" class="c023-cls-2" transform="translate(-205.421 -393.057)"/>
            </g>
            <path id="패스_3136" fill="#4ca223" d="M349.761 331.064a.721.721 0 0 0-1.031.056 1.233 1.233 0 0 1-.974.5c-.466-.02-.7-.38-.935-.835a1.228 1.228 0 0 0-1.107-.739 1.208 1.208 0 0 0-1.2 1.283 2.195 2.195 0 0 0 1.239 1.926 3.024 3.024 0 0 0 1.306.321 3.915 3.915 0 0 1-.179.81h.857a3.835 3.835 0 0 1-.182-.837 2.737 2.737 0 0 0 2.179-1.277 1.374 1.374 0 0 0 .224-.708.7.7 0 0 0-.197-.5zm-4.041.651a.439.439 0 1 1 .408-.465.438.438 0 0 1-.408.466z" transform="translate(-127.456)"/>
        </g>
    </g>
</svg>
