<svg xmlns="http://www.w3.org/2000/svg" xmlns:xlink="http://www.w3.org/1999/xlink" width="26" height="26" viewBox="0 0 26 26">
    <defs>
        <linearGradient id="linear-gradient" x1="-1.263" x2=".152" y1="-.9" y2="-.9" gradientUnits="objectBoundingBox">
            <stop offset="0" stop-color="#007940"/>
            <stop offset=".228" stop-color="#00873f"/>
            <stop offset=".743" stop-color="#40a737"/>
            <stop offset="1" stop-color="#5cb531"/>
        </linearGradient>
        <linearGradient id="linear-gradient-2" x1="-.235" x2=".253" y1=".472" y2=".472" xlink:href="#linear-gradient"/>
        <linearGradient id="linear-gradient-3" x1="-1.378" x2=".166" y1="1.441" y2="1.441" xlink:href="#linear-gradient"/>
        <linearGradient id="linear-gradient-4" x1=".912" x2="1.408" y1=".472" y2=".472" gradientUnits="objectBoundingBox">
            <stop offset="0" stop-color="#1f286f"/>
            <stop offset=".475" stop-color="#004e94"/>
            <stop offset=".826" stop-color="#0066b1"/>
            <stop offset="1" stop-color="#006fbc"/>
        </linearGradient>
        <linearGradient id="linear-gradient-5" x1=".333" x2=".815" y1=".471" y2=".471" gradientUnits="objectBoundingBox">
            <stop offset="0" stop-color="#6c2c2f"/>
            <stop offset=".174" stop-color="#882730"/>
            <stop offset=".573" stop-color="#be1833"/>
            <stop offset=".859" stop-color="#dc0436"/>
            <stop offset="1" stop-color="#e60039"/>
        </linearGradient>
    </defs>
    <g id="img_c104" transform="translate(-35 -413)">
        <g id="box" fill="#fff" stroke="#e5e5e5" transform="translate(35 413)">
            <rect width="26" height="26" stroke="none" rx="13"/>
            <rect width="25" height="25" x=".5" y=".5" fill="none" rx="12.5"/>
        </g>
        <g id="g6321" transform="translate(38.8 418.72)">
            <g id="g6323" transform="translate(1 1)">
                <path id="path6325" fill="#fff" d="M17.4 11.084a2.55 2.55 0 0 1-2.546 2.546H1V3.546A2.55 2.55 0 0 1 3.546 1H17.4v10.084z" transform="translate(-1 -1)"/>
                <g id="g6327" transform="translate(10.986 .852)">
                    <path id="path6338" fill="url(#linear-gradient)" d="M217.032 120.725h1.053c.03 0 .1-.01.13-.01a.47.47 0 0 0 .371-.471.486.486 0 0 0-.371-.471.53.53 0 0 0-.13-.01h-1.053v.962z" transform="translate(-216.13 -114.079)"/>
                    <path id="path6349" fill="url(#linear-gradient-2)" d="M202.472 16.483a1.825 1.825 0 0 0-1.824 1.824V20.2h2.576a1.032 1.032 0 0 1 .18.01c.581.03 1.012.331 1.012.852a.852.852 0 0 1-.832.832v.02c.591.04 1.042.371 1.042.882 0 .551-.5.912-1.163.912h-2.827v3.709h2.676a1.825 1.825 0 0 0 1.824-1.824v-9.11z" transform="translate(-200.638 -16.483)"/>
                    <path id="path6360" fill="url(#linear-gradient-3)" d="M218.455 94.338a.426.426 0 0 0-.371-.431c-.02 0-.07-.01-.1-.01h-.952v.882h.952a.28.28 0 0 0 .1-.01.426.426 0 0 0 .371-.431z" transform="translate(-216.13 -89.637)"/>
                </g>
                <path id="path6371" fill="url(#linear-gradient-4)" d="M19.228 16.483a1.825 1.825 0 0 0-1.828 1.824v4.5a3.608 3.608 0 0 0 1.574.411.873.873 0 0 0 .972-.9v-2.126h1.564v2.115c0 .822-.511 1.494-2.245 1.494a7.694 7.694 0 0 1-1.874-.231v3.839h2.679a1.825 1.825 0 0 0 1.824-1.824v-9.1z" transform="translate(-16.492 -15.631)"/>
                <path id="path6384" fill="url(#linear-gradient-5)" d="M111.022 16.483a1.825 1.825 0 0 0-1.824 1.824v2.386a3.643 3.643 0 0 1 2.556-.581 8.132 8.132 0 0 1 1.433.221v.767a3.469 3.469 0 0 0-1.383-.4c-.982-.07-1.574.411-1.574 1.253s.591 1.333 1.574 1.253a3.641 3.641 0 0 0 1.383-.4v.772a7.941 7.941 0 0 1-1.433.221 3.644 3.644 0 0 1-2.556-.581v4.21h2.676A1.825 1.825 0 0 0 113.7 25.6v-9.117z" transform="translate(-103.244 -15.631)"/>
            </g>
        </g>
    </g>
</svg>
