<svg xmlns="http://www.w3.org/2000/svg" width="26" height="26" viewBox="0 0 26 26">
    <defs>
        <style>
            .prefix__cls-2{fill:#fff}
        </style>
    </defs>
    <g id="prefix__img_hd" transform="translate(-35 -389)">
        <rect id="prefix__box" width="26" height="26" rx="13" transform="translate(35 389)" style="fill:#221e1f"/>
        <path id="prefix__패스_2978" d="M324.185 323.492a1.179 1.179 0 0 0-1.177 1.177v3.139h.392v-3.139a.785.785 0 0 1 .785-.785h19.336a.785.785 0 0 1 .785.785v3.139h.392v-3.139a1.179 1.179 0 0 0-1.177-1.177z" class="prefix__cls-2" transform="translate(-285.858 76.508)"/>
        <g id="prefix__그룹_3060" transform="translate(39.112 401.282)">
            <g id="prefix__그룹_3058">
                <path id="prefix__패스_2979" d="M342.379 338.827c0 .031-.02.042-.053.042h-.291c-.033 0-.045-.011-.045-.045v-.792a.055.055 0 0 0-.062-.056h-.764a.049.049 0 0 0-.053.056v.792c0 .034-.019.045-.05.045h-.3c-.028 0-.039-.011-.039-.042v-1.967c0-.031.011-.048.039-.048h.3a.045.045 0 0 1 .05.048v.761a.047.047 0 0 0 .053.053h.764c.036 0 .062-.017.062-.053v-.761c0-.031.011-.048.045-.048h.291c.034 0 .053.017.053.048z" class="prefix__cls-2" transform="translate(-340.725 -336.62)"/>
                <path id="prefix__패스_2980" d="M359.368 342.807a.32.32 0 0 1-.327-.322v-1.222c0-.036.014-.053.048-.053h.28c.028 0 .047.017.047.053v1.181c0 .034.014.05.053.05h.512c.034 0 .056-.017.056-.05v-1.181c0-.036.014-.053.047-.053h.28a.047.047 0 0 1 .05.053v1.782a.3.3 0 0 1-.034.129l-.19.311a.083.083 0 0 1-.07.045h-.036c-.033 0-.047-.019-.047-.05v-.789c0-.034-.02-.048-.05-.039l-.537.151a.392.392 0 0 1-.082.004z" class="prefix__cls-2" transform="translate(-357.013 -340.529)"/>
                <path id="prefix__패스_2981" d="M375.153 342.8a.324.324 0 0 1-.322-.322v-1.22c0-.036.014-.053.047-.053h.283c.025 0 .045.017.045.053v1.181c0 .034.017.048.056.048h.512c.034 0 .056-.014.056-.048v-1.181c0-.036.011-.053.045-.053h.28a.046.046 0 0 1 .05.053v1.474c0 .031-.02.042-.05.042h-.28c-.033 0-.045-.011-.045-.045v-.045c0-.036-.022-.05-.053-.039l-.537.145a.3.3 0 0 1-.087.01z" class="prefix__cls-2" transform="translate(-371.054 -340.529)"/>
                <path id="prefix__패스_2982" d="M392 341.308v1.226c0 .031-.02.042-.05.042h-.28c-.033 0-.045-.011-.045-.045v-1.181a.052.052 0 0 0-.056-.056h-.512a.049.049 0 0 0-.056.056v1.181a.04.04 0 0 1-.045.045h-.283c-.034 0-.048-.011-.048-.042v-1.474c0-.036.014-.053.048-.053h.283c.025 0 .045.017.045.053v.048c0 .031.014.045.056.034l.534-.146a.413.413 0 0 1 .081-.014.33.33 0 0 1 .328.326z" class="prefix__cls-2" transform="translate(-385.097 -340.326)"/>
                <path id="prefix__패스_2983" d="M405.905 337.022v-.705a.359.359 0 0 1 .2-.339l.3-.173a.348.348 0 0 1 .2-.056h.257c.036 0 .053-.014.053-.048v-.579c0-.031.014-.053.042-.053h.285c.033 0 .048.022.048.053v2.154c0 .031-.014.042-.048.042h-.285c-.028 0-.042-.011-.042-.045v-.045c0-.036-.017-.05-.053-.039l-.54.145a.294.294 0 0 1-.084.008.331.331 0 0 1-.333-.32zm1-.039v-.883c0-.039-.017-.059-.056-.059h-.517c-.039 0-.053.02-.053.059v.887c0 .034.014.048.053.048h.517c.041-.005.057-.019.057-.052z" class="prefix__cls-2" transform="translate(-398.687 -335.069)"/>
                <path id="prefix__패스_2984" d="M421.536 342.8a.324.324 0 0 1-.325-.322v-.705a.362.362 0 0 1 .2-.339l.3-.173a.343.343 0 0 1 .193-.056h.641c.031 0 .047.017.047.053v1.474c0 .031-.017.042-.047.042h-.285c-.031 0-.042-.011-.042-.045v-.045c0-.036-.019-.05-.056-.039l-.537.145a.293.293 0 0 1-.089.01zm.677-.361v-.887c0-.039-.019-.059-.056-.059h-.518c-.039 0-.053.02-.053.059v.887c0 .034.014.048.053.048h.518c.036.003.056-.011.056-.044z" class="prefix__cls-2" transform="translate(-412.298 -340.529)"/>
                <path id="prefix__패스_2985" d="M437.4 335.352c0 .033-.02.045-.048.045h-.28c-.036 0-.047-.011-.047-.045v-.23c0-.031.011-.053.047-.053h.28a.049.049 0 0 1 .048.053zm0 1.925c0 .031-.02.042-.048.042h-.28c-.036 0-.047-.011-.047-.042V335.8c0-.036.011-.053.047-.053h.28c.028 0 .048.017.048.053z" class="prefix__cls-2" transform="translate(-426.363 -335.069)"/>
            </g>
            <g id="prefix__그룹_3059" transform="translate(11.823)">
                <path id="prefix__패스_2986" d="M447.5 338.466v-1.06a.391.391 0 0 1 .2-.358l.327-.182a.372.372 0 0 1 .193-.053h.694a.045.045 0 0 1 .051.05v.2c0 .031-.017.045-.051.045h-.971c-.034 0-.048.02-.048.056v1.348c0 .036.014.053.048.053h1c.031 0 .05.014.05.042a.079.079 0 0 1-.045.073l-.241.134a.4.4 0 0 1-.2.05h-.6a.4.4 0 0 1-.407-.398z" class="prefix__cls-2" transform="translate(-447.498 -336.62)"/>
                <path id="prefix__패스_2987" d="M463.44 342.8a.324.324 0 0 1-.325-.322v-.705a.361.361 0 0 1 .2-.339l.3-.173a.343.343 0 0 1 .193-.056h.641c.031 0 .048.017.048.053v1.474c0 .031-.017.042-.048.042h-.285c-.031 0-.042-.011-.042-.045v-.045c0-.036-.02-.05-.056-.039l-.537.145a.292.292 0 0 1-.089.01zm.677-.361v-.887a.051.051 0 0 0-.056-.059h-.518c-.039 0-.053.02-.053.059v.887c0 .034.014.048.053.048h.518c.039.003.056-.011.056-.044z" class="prefix__cls-2" transform="translate(-461.386 -340.529)"/>
                <path id="prefix__패스_2988" d="M479.96 341.32c0 .028-.02.042-.05.042h-.551c-.037 0-.05.02-.05.056v1.182c0 .034-.022.045-.05.045h-.283c-.034 0-.045-.011-.045-.042v-1.474c0-.036.011-.053.045-.053h.283a.048.048 0 0 1 .05.053v.045c0 .031.014.045.05.045a.066.066 0 0 0 .031-.006l.162-.106a.4.4 0 0 1 .193-.048h.165a.045.045 0 0 1 .05.048z" class="prefix__cls-2" transform="translate(-475.449 -340.394)"/>
                <path id="prefix__패스_2989" d="M488.734 337.022v-.705a.359.359 0 0 1 .2-.339l.3-.173a.347.347 0 0 1 .2-.056h.258c.036 0 .053-.014.053-.048v-.579c0-.031.014-.053.042-.053h.285c.034 0 .048.022.048.053v2.154c0 .031-.014.042-.048.042h-.285c-.028 0-.042-.011-.042-.045v-.045c0-.036-.017-.05-.053-.039l-.54.145a.294.294 0 0 1-.084.008.331.331 0 0 1-.334-.32zm1-.039v-.883c0-.039-.017-.059-.056-.059h-.517c-.039 0-.053.02-.053.059v.887c0 .034.014.048.053.048h.517c.041-.005.058-.019.058-.052z" class="prefix__cls-2" transform="translate(-484.168 -335.069)"/>
            </g>
        </g>
    </g>
</svg>
