<svg xmlns="http://www.w3.org/2000/svg" width="26" height="26" viewBox="0 0 26 26">
    <g id="prefix__img_sh" transform="translate(-35 -388)">
        <rect id="prefix__box" width="26" height="26" rx="13" transform="translate(35 388)" style="fill:#066baf"/>
        <path id="prefix__패스_3085" d="M129.241 240.636c0-3.1 3.525-5.615 7.876-5.615s7.876 2.513 7.876 5.615-3.526 5.445-7.876 5.445-7.876-2.346-7.876-5.445zm5.3 3.146a7.544 7.544 0 0 0 3.845.537c.716 0 .2-.425.2-.425a.722.722 0 0 1-.157-1.14 2.448 2.448 0 0 1 1.363-.76 8.649 8.649 0 0 1 3.22-.247c.536.09.088-.379.088-.379-.335-.269-.133-.851-.133-.851a2.874 2.874 0 0 1 1.871-1l-.051-.164-.042-.118a5.448 5.448 0 0 0-1.331-.211 6.939 6.939 0 0 0-3.889.469c-2.078 1.051 0 2.046 0 2.046a9.489 9.489 0 0 0-3.488.033 3.846 3.846 0 0 0-1.631.615c-1.232.857.132 1.594.132 1.594zm-5.294-2.954l.043.071c.995 1.566 4.525 1.1 4.525 1.1.494-.066.112-.313.112-.313-.983-.894.269-1.565.269-1.565a7.011 7.011 0 0 1 4.056-.659c.537.01.223-.225.223-.225a.816.816 0 0 1-.211-.86c.356-.849 1.832-1.128 1.832-1.128.414-.167 0-.325 0-.325-3.578-.737-5.342.291-5.342.291-2.135 1.106.122 2.046.122 2.046a12.238 12.238 0 0 0-2.571-.157c-2.771.223-3.049 1.285-3.049 1.285s-.012.134-.012.252m6.369 2.324a.482.482 0 1 0-.482-.482.481.481 0 0 0 .479.477zm-4.705-2.253a.482.482 0 1 0-.483-.482.483.483 0 0 0 .48.476zm4.626-2.41a.482.482 0 1 0-.482-.482.482.482 0 0 0 .479.48zm4.717 2.28a.482.482 0 1 0-.482-.481.48.48 0 0 0 .479.474z" transform="translate(-89.141 160.379)" style="fill:#fff"/>
    </g>
</svg>
