<svg xmlns="http://www.w3.org/2000/svg" width="26" height="26" viewBox="0 0 26 26">
    <defs>
        <linearGradient id="linear-gradient" x1=".5" x2=".5" y2="1" gradientUnits="objectBoundingBox">
            <stop offset="0" stop-color="#94c51b"/>
            <stop offset=".591" stop-color="#92b637"/>
            <stop offset="1" stop-color="#007260"/>
        </linearGradient>
        <style>
            .c017-cls-3{fill:#fff}
        </style>
    </defs>
    <g id="img_c017" transform="translate(-35 -388)">
        <g id="box" fill="#fff" stroke="none">
            <path d="M13 25.5c-3.339 0-6.478-1.3-8.839-3.661C1.801 19.478.5 16.339.5 13c0-3.339 1.3-6.478 3.661-8.839C6.522 1.801 9.661.5 13 .5c3.339 0 6.478 1.3 8.839 3.661C24.199 6.522 25.5 9.661 25.5 13c0 3.339-1.3 6.478-3.661 8.839-2.361 2.36-5.5 3.661-8.839 3.661z" transform="translate(35 388)"/>
            <path fill="#e5e5e5" d="M13 1C9.795 1 6.781 2.248 4.515 4.515 2.248 6.78 1 9.795 1 13c0 3.205 1.248 6.219 3.515 8.485C6.78 23.752 9.795 25 13 25c3.205 0 6.219-1.248 8.485-3.515C23.752 19.22 25 16.205 25 13c0-3.205-1.248-6.219-3.515-8.485C19.22 2.248 16.205 1 13 1m0-1c7.18 0 13 5.82 13 13s-5.82 13-13 13S0 20.18 0 13 5.82 0 13 0z" transform="translate(35 388)"/>
        </g>
        <g id="그룹_3310" transform="translate(36.395 389.309)">
            <path id="패스_3122" fill="url(#linear-gradient)" d="M4.605 14.435c0 2.341 1.433 4.256 6.862 4.256h.278c5.429 0 6.862-1.915 6.862-4.256V8.948c0-2.341-1.433-4.256-6.862-4.256h-.278c-5.429 0-6.862 1.915-6.862 4.256z" />
            <path id="패스_3123" d="M24.984 22.97c.39 0 .759-.01 1.109-.03v-2.37a3.144 3.144 0 0 0 2.921-1.691 2.648 2.648 0 0 0-.663-3.262 2.691 2.691 0 0 0 .327-2.518 2.906 2.906 0 0 0-2.929-1.83h-.775v11.7zm1.109-10.509h.152a1.625 1.625 0 0 1 1.532 1.621 1.97 1.97 0 0 1-1.168 1.694 2.021 2.021 0 0 1 1.512 1.806 1.918 1.918 0 0 1-2.027 1.807z" class="c017-cls-3"  transform="translate(-13.24 -4.275)"/>
            <path id="패스_3124" d="M14.521 15.7a2.2 2.2 0 0 1-.858-1.611 1.51 1.51 0 0 1 .871-1.411 3.594 3.594 0 0 1 1.4-.21h.083v-1.189h-.061a4.652 4.652 0 0 0-1.889.294 2.725 2.725 0 0 0-1.607 2.493 3.257 3.257 0 0 0 1.264 2.543c.805.695 1.216 1.1 1.014 1.97a5.007 5.007 0 0 1-1.676 1.977h1.647a3.58 3.58 0 0 0 1.2-1.728c.375-1.613-.603-2.456-1.388-3.128z" class="c017-cls-3"  transform="translate(-5.106 -4.281)"/>
        </g>
    </g>
</svg>
