<svg xmlns="http://www.w3.org/2000/svg" width="26" height="26" viewBox="0 0 26 26">
    <defs>
        <style>
            .prefix__cls-2{fill:#fcc800}
        </style>
    </defs>
    <g id="prefix__img_nh" transform="translate(-35 -413)">
        <rect id="prefix__box" width="26" height="26" rx="13" transform="translate(35 413)" style="fill:#1ead4b"/>
        <g id="prefix__symbol_nh" transform="translate(43.45 420.15)">
            <path id="prefix__패스_1270" d="M78.587 139.051l-2.2 1.1-.013.007-2.208-1.111 2.208 4.2c.052-.088 2.136-4.047 2.213-4.196z" class="prefix__cls-2" transform="translate(-71.845 -139.051)"/>
            <path id="prefix__패스_1271" d="M65.4 144.332l-.034-.028 1.577-.663v-2.216l-2.743 1.167c-.009.016-1.483 2.808-1.516 2.873a2.3 2.3 0 1 1-.539 0c-.034-.065-1.5-2.857-1.516-2.873l-2.729-1.167v2.216l1.575.663-.034.028a4.533 4.533 0 1 0 5.961 0z" class="prefix__cls-2" transform="translate(-57.884 -141.086)"/>
        </g>
    </g>
</svg>
