<svg xmlns="http://www.w3.org/2000/svg" width="30" height="30" viewBox="0 0 30 30">
    <defs>
        <clipPath id="clip-path">
            <path id="area" fill="#fff" d="M0 0H18.333V19.833H0z"/>
        </clipPath>
        <style>
            .map_legend_toilet_cls-4{fill:none;stroke:#a2aaba;stroke-linejoin:round;stroke-width:1.6px}
        </style>
    </defs>
    <g id="img_map_legend_toilet" transform="translate(-20 -2359)">
        <rect id="사각형_30029" width="30" height="30" fill="#e4e8f0" rx="8" transform="translate(20 2359)"/>
        <g id="ico_seatmap_toilet" transform="translate(25.792 2364.083)">
            <g id="마스크_그룹_1" clip-path="url(#clip-path)">
                <rect id="사각형_1139" width="2.263" height="2.263" class="map_legend_toilet_cls-4" rx="1.132" transform="translate(3.161 1.917)"/>
                <path id="패스_1114" d="M1019.58 264.6v3.591a2.376 2.376 0 0 1-2.376 2.376 2.376 2.376 0 0 1-2.376-2.376V264.6" class="map_legend_toilet_cls-4" transform="translate(-1012.911 -258.01)"/>
                <rect id="사각형_1140" width="2.263" height="2.263" class="map_legend_toilet_cls-4" rx="1.132" transform="translate(12.084 1.917)"/>
                <path id="패스_1115" d="M1026.3 272.627h1.327v-5.871a2.376 2.376 0 0 1 2.373-2.376 2.377 2.377 0 0 1 2.376 2.376v5.871h1.324" class="map_legend_toilet_cls-4" transform="translate(-1016.786 -257.935)"/>
                <path id="선_363" d="M0 0L0 6.065" class="map_legend_toilet_cls-4" transform="translate(4.293 12.412)"/>
                <path id="선_364" d="M0 0L0 4.447" class="map_legend_toilet_cls-4" transform="translate(13.216 14.03)"/>
            </g>
        </g>
    </g>
</svg>
