<svg xmlns="http://www.w3.org/2000/svg" xmlns:xlink="http://www.w3.org/1999/xlink" width="26" height="26" viewBox="0 0 26 26">
    <defs>
        <linearGradient id="linear-gradient" x1=".601" x2=".37" y1="1.005" y2="-.001" gradientUnits="objectBoundingBox">
            <stop offset=".15" stop-color="#38b8ef"/>
            <stop offset=".297" stop-color="#34b2ea"/>
            <stop offset=".49" stop-color="#2ba1df"/>
            <stop offset=".708" stop-color="#1b86cb"/>
            <stop offset=".943" stop-color="#0561b1"/>
            <stop offset="1" stop-color="#0057aa"/>
        </linearGradient>
        <linearGradient id="linear-gradient-2" x1="-.033" x2=".909" y1=".675" y2=".212" xlink:href="#linear-gradient"/>
        <linearGradient id="linear-gradient-3" x1=".627" x2=".396" y1=".045" y2="1.018" xlink:href="#linear-gradient"/>
    </defs>
    <g id="img_c019" transform="translate(-35 -388)">
        <g id="box" fill="#fff" stroke="#e5e5e5" transform="translate(35 388)">
            <rect width="26" height="26" stroke="none" rx="13"/>
            <rect width="25" height="25" x=".5" y=".5" fill="none" rx="12.5"/>
        </g>
        <g id="그룹_3316" transform="translate(40.004 393.5)">
            <path id="패스_3125" fill="url(#linear-gradient)" d="M238.258 282.628a2.195 2.195 0 0 1-1.612-3.685 4.87 4.87 0 0 1-.593-2.336q0-.2.015-.389a4.748 4.748 0 1 0 3.932 8.61v-3.064a2.194 2.194 0 0 1-1.742.864z" transform="translate(-232.945 -271.718)"/>
            <path id="패스_3126" fill="url(#linear-gradient-2)" d="M249.93 261.336a2.191 2.191 0 0 1 .708.118 2.367 2.367 0 1 1 4.126-2.293 4.76 4.76 0 0 1 2.724.156 4.89 4.89 0 1 0-9.171 2.724 2.189 2.189 0 0 1 1.613-.705z" transform="translate(-244.617 -254.816)"/>
            <path id="패스_3127" fill="url(#linear-gradient-3)" d="M277.748 274.862a4.756 4.756 0 0 0-1.1.129 2.369 2.369 0 0 1-.174 2.292 2.2 2.2 0 1 1-1.038 3.409v3.064a4.748 4.748 0 1 0 2.313-8.894z" transform="translate(-266.499 -270.646)"/>
        </g>
    </g>
</svg>
