<svg xmlns="http://www.w3.org/2000/svg" width="140" height="140" viewBox="0 0 140 140">
    <defs>
        <clipPath id="prefix__clip-path">
            <path id="prefix__bg" d="M406.166-199.5c0 19.975-16.518 36.167-36.891 36.167s-36.9-16.193-36.9-36.167v-37.171c0-19.975 16.518-36.17 36.9-36.17s36.891 16.2 36.891 36.17z" class="prefix__cls-1" transform="translate(371.162 508.844)"/>
        </clipPath>
        <style>
            .prefix__cls-1{fill:#e0e4e5}.prefix__cls-3{fill:#aaa09c}.prefix__cls-4{fill:none;stroke:#19213f;stroke-linecap:round;stroke-linejoin:round;stroke-width:2px}.prefix__cls-5{fill:#fff}.prefix__cls-6{fill:#a8cab7}.prefix__cls-7{fill:#ff5800}.prefix__cls-8{fill:#c9ecfc}
        </style>
    </defs>
    <g id="prefix__img_illust_checkin" transform="translate(-890 -948)">
        <g id="prefix__그룹_3126" transform="translate(28 7)">
            <g id="prefix__img_mask">
                <path id="prefix__bg-2" d="M406.166-199.5c0 19.975-16.518 36.167-36.891 36.167s-36.9-16.193-36.9-36.167v-37.171c0-19.975 16.518-36.17 36.9-36.17s36.891 16.2 36.891 36.17z" class="prefix__cls-1" transform="translate(563.162 1236.844)"/>
                <g id="prefix__마스크_그룹_53" transform="translate(192 728)">
                    <g id="prefix__그룹_3125" transform="translate(371.543 349.164)">
                        <path id="prefix__패스_2969" d="M391.427-26.178c1.243-6.667-.211-14.476.642-20.75 1.277-9.387 4.749-18.464 6.58-27.766 1.05-5.33 3.221-13.347-2.394-16.946-2.646-1.7-6.519-1.162-9.467-.957-4.1.285-8.332-.02-12.364.317-9.795.818-14.133 15.154-15.579 23.084-1.229 6.741-1.8 13.643-2.683 20.441a81.352 81.352 0 0 0-.882 8.963c-.049 2.647 1.085 5.471.938 8-.154 2.657-2.63 3.992-4.369 5.841A29.825 29.825 0 0 0 346.71-19c-2.623 5.273 2.739 10.654 7.015 13.22 5.15 3.091 12.337 3.492 17.614.545 6.184-3.451 13.166-8.367 17.321-14.109a16.644 16.644 0 0 0 2.767-6.831" class="prefix__cls-3" transform="translate(.766 1.798)"/>
                        <path id="prefix__패스_2970" d="M391.427-26.178c1.243-6.667-.211-14.476.642-20.75 1.277-9.387 4.749-18.464 6.58-27.766 1.05-5.33 3.221-13.347-2.394-16.946-2.646-1.7-6.519-1.162-9.467-.957-4.1.285-8.332-.02-12.364.317-9.795.818-14.133 15.154-15.579 23.084-1.229 6.741-1.8 13.643-2.683 20.441a81.352 81.352 0 0 0-.882 8.963c-.049 2.647 1.085 5.471.938 8-.154 2.657-2.63 3.992-4.369 5.841A29.825 29.825 0 0 0 346.71-19c-2.623 5.273 2.739 10.654 7.015 13.22 5.15 3.091 12.337 3.492 17.614.545 6.184-3.451 13.166-8.367 17.321-14.109a16.644 16.644 0 0 0 2.767-6.834z" class="prefix__cls-4" transform="translate(.766 1.798)"/>
                        <path id="prefix__패스_2971" d="M355.006-38.61c-3.562 2.42-7.306 4.792-10.949 7.207-3.365 2.231-6.664 4.419-9.221 7.524-5.158 6.265-2.2 17.913-.839 25.3.646 3.51 1.141 8.693 3.672 11.412 2.933 3.149 6.606 2.183 8.37-1.692 1.811-3.981.842-9.727.29-13.9-.452-3.417-1.984-8.225.033-11.4 2.341-3.687 8.126-6.24 11.942-8.168a19.937 19.937 0 0 1 4.558-1.6c-2.333 2.053-4.9 3.868-7.341 5.8-2.932 2.324-3.275 4.147-3.5 7.815a101.644 101.644 0 0 0 .758 15.374c.374 4.078-.058 10.411 2.5 13.935 3.1 4.268 7.123-.684 8.127-4.036 1.91-6.379 1.987-12.3 2.869-18.79.828-6.1 3.511-9.844 8.8-13.046 3.638-2.2 7.453-4.654 9.729-8.36 3-4.886.794-16.263-5.963-17.107-3-.374-6.157.845-9.138 1.123-3.631.338-9.5-1.007-12.6 1.175q-1.033.724-2.092 1.442" class="prefix__cls-5" transform="translate(0 4.537)"/>
                        <path id="prefix__패스_2972" d="M355.006-38.61c-3.562 2.42-7.306 4.792-10.949 7.207-3.365 2.231-6.664 4.419-9.221 7.524-5.158 6.265-2.2 17.913-.839 25.3.646 3.51 1.141 8.693 3.672 11.412 2.933 3.149 6.606 2.183 8.37-1.692 1.811-3.981.842-9.727.29-13.9-.452-3.417-1.984-8.225.033-11.4 2.341-3.687 8.126-6.24 11.942-8.168a19.937 19.937 0 0 1 4.558-1.6c-2.333 2.053-4.9 3.868-7.341 5.8-2.932 2.324-3.275 4.147-3.5 7.815a101.644 101.644 0 0 0 .758 15.374c.374 4.078-.058 10.411 2.5 13.935 3.1 4.268 7.123-.684 8.127-4.036 1.91-6.379 1.987-12.3 2.869-18.79.828-6.1 3.511-9.844 8.8-13.046 3.638-2.2 7.453-4.654 9.729-8.36 3-4.886.794-16.263-5.963-17.107-3-.374-6.157.845-9.138 1.123-3.631.338-9.5-1.007-12.6 1.175q-1.038.716-2.097 1.434z" class="prefix__cls-4" transform="translate(0 4.537)"/>
                        <path id="prefix__패스_2973" d="M364.272-88.733c2.02-.308 3.965-.48 5.625-.593 4.589-.315 11.22 1.133 14.276 4.823 2.109 2.544 1.719 6 1 9.012a73.373 73.373 0 0 0-1.865 19.018c.044 3.233-1.527 5.958-1.735 9.05-.174 2.582 2.488 5.269 1.6 7.688-.45 1.22-4.007 4.056-5.18 4.867-4.256 2.943-10.67 3.008-15.619 2.511-2.8-.28-4.913-1.675-7.38-2.8-2.017-.916-2.815-1.617-1.821-3.991 1.243-2.967-.079-4.31-1.047-6.988-.618-1.711-.247-3.722-.412-5.516a10.427 10.427 0 0 0-1.607-4.587c-1.277-2.122-3.79-4.512-2.964-7.187s2.09-5.049 2.023-7.973c-.067-2.9-.185-5.941.687-8.73 1.734-5.544 8.409-7.69 14.424-8.608" class="prefix__cls-6" transform="translate(.818 1.987)"/>
                        <path id="prefix__패스_2974" d="M364.272-88.733c2.02-.308 3.965-.48 5.625-.593 4.589-.315 11.22 1.133 14.276 4.823 2.109 2.544 1.719 6 1 9.012a73.373 73.373 0 0 0-1.865 19.018c.044 3.233-1.527 5.958-1.735 9.05-.174 2.582 2.488 5.269 1.6 7.688-.45 1.22-4.007 4.056-5.18 4.867-4.256 2.943-10.67 3.008-15.619 2.511-2.8-.28-4.913-1.675-7.38-2.8-2.017-.916-2.815-1.617-1.821-3.991 1.243-2.967-.079-4.31-1.047-6.988-.618-1.711-.247-3.722-.412-5.516a10.427 10.427 0 0 0-1.607-4.587c-1.277-2.122-3.79-4.512-2.964-7.187s2.09-5.049 2.023-7.973c-.067-2.9-.185-5.941.687-8.73 1.729-5.539 8.404-7.686 14.419-8.604z" class="prefix__cls-4" transform="translate(.818 1.987)"/>
                        <path id="prefix__패스_2975" d="M345.295-75.638c-2.058 2.209-2.587 5.42-3.7 8.121-1.161 2.807-2.55 5.393-3.464 8.3-1.266 4.033-.836 11.295 4.736 11.683 6.652.464 6.963-9.9 7.745-14.186.431-2.36 1.992-18.325-4.159-14.85a4.857 4.857 0 0 0-1.154.928" class="prefix__cls-6" transform="translate(.306 2.655)"/>
                        <path id="prefix__패스_2976" d="M345.295-75.638c-2.058 2.209-2.587 5.42-3.7 8.121-1.161 2.807-2.55 5.393-3.464 8.3-1.266 4.033-.836 11.295 4.736 11.683 6.652.464 6.963-9.9 7.745-14.186.431-2.36 1.992-18.325-4.159-14.85a4.857 4.857 0 0 0-1.158.932z" class="prefix__cls-4" transform="translate(.306 2.655)"/>
                        <path id="prefix__패스_2977" d="M359.876-87.355c-1.793 1.971-3.888 5.51-2.245 6.409 1.2.654 6.623-4.22 7.717-5.083 1.219 1.6 4.476 4.763 6.726 4.781 3.1.025.529-6.243-.345-7.442-2.2-3.026-7.378-1.195-10.329.052a5.416 5.416 0 0 0-1.525 1.283" class="prefix__cls-6" transform="translate(1.365 1.934)"/>
                        <path id="prefix__패스_2978" d="M359.876-87.355c-1.793 1.971-3.888 5.51-2.245 6.409 1.2.654 6.623-4.22 7.717-5.083 1.219 1.6 4.476 4.763 6.726 4.781 3.1.025.529-6.243-.345-7.442-2.2-3.026-7.378-1.195-10.329.052a5.416 5.416 0 0 0-1.524 1.283z" class="prefix__cls-4" transform="translate(1.365 1.934)"/>
                        <path id="prefix__패스_2979" d="M354.3-97.52a37.08 37.08 0 0 1 1.4 6.181c.358 4.168-3.6 2.724-6.029 1.79-3.158-1.211-5.151-3.438-4.361-7.01.564-2.548 3.069-4.655 3.143-7.35.063-2.3-1.4-4.228-1.184-6.734.236-2.772 1.056-5.881 3.537-7.462 1.139-.726 2.469-.727 3.727-1.1a8.423 8.423 0 0 0 3.2-1.985c1.666-1.423 4.082-3.461 6.176-4.143a14.729 14.729 0 0 1 10.914.969c3.647 2.134 3.462 5.661 4.632 9.2.943 2.857 4.361 3.569 4.88 6.78.445 2.745-1.3 5.492.637 7.917 1.778 2.222 3.277 2.991 2.686 6.173-.768 4.135-4.5 9.124-9.35 8.109-3.051-.639-2.907-3.447-4.328-5.624a7.869 7.869 0 0 0-4.157-2.951 4.387 4.387 0 0 1-2.548-2.422 60.145 60.145 0 0 0-4.547-7.067c-1.195-1.545-3.051-4.069-5.2-4.27-2.407-.225-3.249 2.767-3.658 4.6a13.287 13.287 0 0 0 .432 6.389" class="prefix__cls-7" transform="translate(.719)"/>
                        <path id="prefix__패스_2980" d="M354.3-97.52a37.08 37.08 0 0 1 1.4 6.181c.358 4.168-3.6 2.724-6.029 1.79-3.158-1.211-5.151-3.438-4.361-7.01.564-2.548 3.069-4.655 3.143-7.35.063-2.3-1.4-4.228-1.184-6.734.236-2.772 1.056-5.881 3.537-7.462 1.139-.726 2.469-.727 3.727-1.1a8.423 8.423 0 0 0 3.2-1.985c1.666-1.423 4.082-3.461 6.176-4.143a14.729 14.729 0 0 1 10.914.969c3.647 2.134 3.462 5.661 4.632 9.2.943 2.857 4.361 3.569 4.88 6.78.445 2.745-1.3 5.492.637 7.917 1.778 2.222 3.277 2.991 2.686 6.173-.768 4.135-4.5 9.124-9.35 8.109-3.051-.639-2.907-3.447-4.328-5.624a7.869 7.869 0 0 0-4.157-2.951 4.387 4.387 0 0 1-2.548-2.422 60.145 60.145 0 0 0-4.547-7.067c-1.195-1.545-3.051-4.069-5.2-4.27-2.407-.225-3.249 2.767-3.658 4.6a13.287 13.287 0 0 0 .43 6.399z" class="prefix__cls-4" transform="translate(.719)"/>
                        <path id="prefix__패스_2981" d="M360.62-111.589a12.472 12.472 0 0 0-6.875 4.426c-1.7 2-.657 4.469-.3 6.889a44.811 44.811 0 0 1 .867 6.826c-.023 3.942 3.1 6.567 6.558 7.8a9.609 9.609 0 0 0 10.744-2.379c2.142-2.246 3.638-6.828 2.94-9.99-.4-1.808-1.476-3.1-2.367-4.655a14.035 14.035 0 0 0-4.454-4.971c-2.038-1.389-4.251-4.493-7.044-3.96l-.07.014" class="prefix__cls-5" transform="translate(1.135 .776)"/>
                        <path id="prefix__패스_2982" d="M360.62-111.589a12.472 12.472 0 0 0-6.875 4.426c-1.7 2-.657 4.469-.3 6.889a44.811 44.811 0 0 1 .867 6.826c-.023 3.942 3.1 6.567 6.558 7.8a9.609 9.609 0 0 0 10.744-2.379c2.142-2.246 3.638-6.828 2.94-9.99-.4-1.808-1.476-3.1-2.367-4.655a14.035 14.035 0 0 0-4.454-4.971c-2.038-1.389-4.251-4.493-7.044-3.96z" class="prefix__cls-4" transform="translate(1.135 .776)"/>
                        <path id="prefix__패스_2983" d="M373.95-111.457c.967 1.429 2.1 2.68 2.53 4.481m-22-6.818c-1.305.3-2.37 3.2-2.92 4.481m.779-6.624a21.094 21.094 0 0 0-2.92 2.534m10.512 20.453c1.777.672 2.8.459 4.673 0m2.336-8.767a.47.47 0 0 0 0 .584m-9.93.585v.39m8.761-4.871a12.69 12.69 0 0 1 2.531.2m-13.045 1.168a18.1 18.1 0 0 0 2.726-.389m3.7 2.337a10.575 10.575 0 0 1 0 5.261" class="prefix__cls-4" transform="translate(.951 .544)"/>
                        <path id="prefix__패스_2984" d="M379.189-87.321c1.609 1.1 3.645.1 5.3 1.43 1.809 1.453 2.55 4.924 3.283 7a86.376 86.376 0 0 1 2.795 9.812c.68 3.032 2.5 5.654 3.263 8.664a17.179 17.179 0 0 1 .176 5.513c-.149 2.312-.675 3.906-2.753 5.171a8.64 8.64 0 0 1-6.157.911c-4.013-.815-7.418-3.24-11.267-4.523-2.3-.768-5.938-1.124-7.914-2.555-2.062-1.492-.835-6.873 1.226-8.019 1.735-.965 6.133 1.268 8.277 1.351a55.215 55.215 0 0 1 7.493.824c-1.212-1.092-1.381-2.793-2.11-4.173-.774-1.467-2.695-3.374-2.113-5.175" class="prefix__cls-6" transform="translate(1.789 2.098)"/>
                        <path id="prefix__패스_2985" d="M379.189-87.321c1.609 1.1 3.645.1 5.3 1.43 1.809 1.453 2.55 4.924 3.283 7a86.376 86.376 0 0 1 2.795 9.812c.68 3.032 2.5 5.654 3.263 8.664a17.179 17.179 0 0 1 .176 5.513c-.149 2.312-.675 3.906-2.753 5.171a8.64 8.64 0 0 1-6.157.911c-4.013-.815-7.418-3.24-11.267-4.523-2.3-.768-5.938-1.124-7.914-2.555-2.062-1.492-.835-6.873 1.226-8.019 1.735-.965 6.133 1.268 8.277 1.351a55.215 55.215 0 0 1 7.493.824c-1.212-1.092-1.381-2.793-2.11-4.173-.774-1.467-2.695-3.374-2.113-5.175" class="prefix__cls-4" transform="translate(1.789 2.098)"/>
                        <path id="prefix__패스_2986" d="M369.99-63.138a11.233 11.233 0 0 1-1.072 5.34" class="prefix__cls-4" transform="translate(2.01 3.411)"/>
                        <path id="prefix__패스_2987" d="M361.882-66.9c-2.724-4.286-6.327-14.333-9.926-17.536-1.751-1.558-18.683-.2-19.468 1.724-.805 1.975 10.656 19.468 12.072 19.9 2.53.78 11.095-.779 15.182-1.558 2.449-.467 3.816.1 2.14-2.534" class="prefix__cls-3" transform="translate(.029 2.218)"/>
                        <path id="prefix__패스_2988" d="M361.882-66.9c-2.724-4.286-6.327-14.333-9.926-17.536-1.751-1.558-18.683-.2-19.468 1.724-.805 1.975 10.656 19.468 12.072 19.9 2.53.78 11.095-.779 15.182-1.558 2.449-.467 3.816.102 2.14-2.53z" class="prefix__cls-4" transform="translate(.029 2.218)"/>
                        <path id="prefix__패스_2989" d="M379.957-63.505c1.575.07 5.16-.207 5.921 1.459" class="prefix__cls-4" transform="translate(2.609 3.391)"/>
                        <path id="prefix__패스_2990" d="M366.586-64.479c-2.342-3.975-9.274-7.635-11.305-3.742-1.435 2.749 1.6 4.253 3.147 5.793 1.464 1.46 3.363 4.59 6.025 3.68 3.315-1.141 3.455-3.486 2.133-5.731" class="prefix__cls-5" transform="translate(1.249 3.045)"/>
                        <path id="prefix__패스_2991" d="M366.586-64.479c-2.342-3.975-9.274-7.635-11.305-3.742-1.435 2.749 1.6 4.253 3.147 5.793 1.464 1.46 3.363 4.59 6.025 3.68 3.315-1.14 3.455-3.485 2.133-5.731z" class="prefix__cls-4" transform="translate(1.249 3.045)"/>
                        <path id="prefix__패스_2992" d="M362.111-51.084c2.025 2.441 1.612 10.418 1.445 13.413m-.413-46.071c1.381 2.3.266 7.032 0 9.639-.17 1.662-.413 4.062-.413 5.33" class="prefix__cls-4" transform="translate(1.64 2.292)"/>
                        <path id="prefix__패스_2993" d="M356.795-118.608c1.273 1.444.756 2.964-.2 4.449-.834 1.3-1.462 2.558-3.121 2.839-3.311.564-4.516-3.341-3.1-5.72 1.284-2.161 4.418-3.843 6.422-1.569" class="prefix__cls-8" transform="translate(.971 .34)"/>
                        <path id="prefix__패스_2994" d="M356.795-118.608c1.273 1.444.756 2.964-.2 4.449-.834 1.3-1.462 2.558-3.121 2.839-3.311.564-4.516-3.341-3.1-5.72 1.283-2.16 4.417-3.842 6.421-1.568z" class="prefix__cls-4" transform="translate(.971 .34)"/>
                        <path id="prefix__패스_2995" d="M367.431-114.964a5.3 5.3 0 0 0-3.148-6.285c-1.331-.434-3.759.007-4.534 1.333-.717 1.225.1 3.471.822 4.548 1.158 1.721 3.751 3.9 5.766 2.107a3.749 3.749 0 0 0 1.093-1.7" class="prefix__cls-8" transform="translate(1.497 .246)"/>
                        <path id="prefix__패스_2996" d="M367.431-114.964a5.3 5.3 0 0 0-3.148-6.285c-1.331-.434-3.759.007-4.534 1.333-.717 1.225.1 3.471.822 4.548 1.158 1.721 3.751 3.9 5.766 2.107a3.749 3.749 0 0 0 1.094-1.703z" class="prefix__cls-4" transform="translate(1.497 .246)"/>
                        <path id="prefix__패스_2997" d="M368.365-116.993c2.445 1.092 5.781 2.272 3.455 2.276m-14.8-2.782c1.491-.425 1.358-.615 2.961-.506" class="prefix__cls-4" transform="translate(1.363 .43)"/>
                        <path id="prefix__패스_2998" d="M368.523-69.621c1.12-.208 2.306-.246 3.453-.421 1.006-.153 2.33-.779 3.267-.533" class="prefix__cls-4" transform="translate(1.988 3.004)"/>
                    </g>
                </g>
            </g>
            <g id="prefix__img_cover" transform="translate(563.543 1077.164)">
                <path id="prefix__패스_1544" d="M364.272-88.733c2.02-.308 3.965-.48 5.625-.593 4.589-.315 11.22 1.133 14.276 4.823 2.109 2.544 1.719 6 1 9.012a73.373 73.373 0 0 0-1.865 19.018c.044 3.233-1.527 5.958-1.735 9.05-.174 2.582 2.488 5.269 1.6 7.688-.45 1.22-4.007 4.056-5.18 4.867-4.256 2.943-10.67 3.008-15.619 2.511-2.8-.28-4.913-1.675-7.38-2.8-2.017-.916-2.815-1.617-1.821-3.991 1.243-2.967-.079-4.31-1.047-6.988-.618-1.711-.247-3.722-.412-5.516a10.427 10.427 0 0 0-1.607-4.587c-1.277-2.122-3.79-4.512-2.964-7.187s2.09-5.049 2.023-7.973c-.067-2.9-.185-5.941.687-8.73 1.734-5.544 8.409-7.69 14.424-8.608" class="prefix__cls-6" transform="translate(.818 1.987)"/>
                <path id="prefix__패스_1545" d="M364.272-88.733c2.02-.308 3.965-.48 5.625-.593 4.589-.315 11.22 1.133 14.276 4.823 2.109 2.544 1.719 6 1 9.012a73.373 73.373 0 0 0-1.865 19.018c.044 3.233-1.527 5.958-1.735 9.05-.174 2.582 2.488 5.269 1.6 7.688-.45 1.22-4.007 4.056-5.18 4.867-4.256 2.943-10.67 3.008-15.619 2.511-2.8-.28-4.913-1.675-7.38-2.8-2.017-.916-2.815-1.617-1.821-3.991 1.243-2.967-.079-4.31-1.047-6.988-.618-1.711-.247-3.722-.412-5.516a10.427 10.427 0 0 0-1.607-4.587c-1.277-2.122-3.79-4.512-2.964-7.187s2.09-5.049 2.023-7.973c-.067-2.9-.185-5.941.687-8.73 1.729-5.539 8.404-7.686 14.419-8.604z" class="prefix__cls-4" transform="translate(.818 1.987)"/>
                <path id="prefix__패스_1546" d="M345.295-75.638c-2.058 2.209-2.587 5.42-3.7 8.121-1.161 2.807-2.55 5.393-3.464 8.3-1.266 4.033-.836 11.295 4.736 11.683 6.652.464 6.963-9.9 7.745-14.186.431-2.36 1.992-18.325-4.159-14.85a4.857 4.857 0 0 0-1.154.928" class="prefix__cls-6" transform="translate(.306 2.655)"/>
                <path id="prefix__패스_1547" d="M345.295-75.638c-2.058 2.209-2.587 5.42-3.7 8.121-1.161 2.807-2.55 5.393-3.464 8.3-1.266 4.033-.836 11.295 4.736 11.683 6.652.464 6.963-9.9 7.745-14.186.431-2.36 1.992-18.325-4.159-14.85a4.857 4.857 0 0 0-1.158.932z" class="prefix__cls-4" transform="translate(.306 2.655)"/>
                <path id="prefix__패스_1548" d="M359.876-87.355c-1.793 1.971-3.888 5.51-2.245 6.409 1.2.654 6.623-4.22 7.717-5.083 1.219 1.6 4.476 4.763 6.726 4.781 3.1.025.529-6.243-.345-7.442-2.2-3.026-7.378-1.195-10.329.052a5.416 5.416 0 0 0-1.525 1.283" class="prefix__cls-6" transform="translate(1.365 1.934)"/>
                <path id="prefix__패스_1549" d="M359.876-87.355c-1.793 1.971-3.888 5.51-2.245 6.409 1.2.654 6.623-4.22 7.717-5.083 1.219 1.6 4.476 4.763 6.726 4.781 3.1.025.529-6.243-.345-7.442-2.2-3.026-7.378-1.195-10.329.052a5.416 5.416 0 0 0-1.524 1.283z" class="prefix__cls-4" transform="translate(1.365 1.934)"/>
                <path id="prefix__패스_1550" d="M354.3-97.52a37.08 37.08 0 0 1 1.4 6.181c.358 4.168-3.6 2.724-6.029 1.79-3.158-1.211-5.151-3.438-4.361-7.01.564-2.548 3.069-4.655 3.143-7.35.063-2.3-1.4-4.228-1.184-6.734.236-2.772 1.056-5.881 3.537-7.462 1.139-.726 2.469-.727 3.727-1.1a8.423 8.423 0 0 0 3.2-1.985c1.666-1.423 4.082-3.461 6.176-4.143a14.729 14.729 0 0 1 10.914.969c3.647 2.134 3.462 5.661 4.632 9.2.943 2.857 4.361 3.569 4.88 6.78.445 2.745-1.3 5.492.637 7.917 1.778 2.222 3.277 2.991 2.686 6.173-.768 4.135-4.5 9.124-9.35 8.109-3.051-.639-2.907-3.447-4.328-5.624a7.869 7.869 0 0 0-4.157-2.951 4.387 4.387 0 0 1-2.548-2.422 60.145 60.145 0 0 0-4.547-7.067c-1.195-1.545-3.051-4.069-5.2-4.27-2.407-.225-3.249 2.767-3.658 4.6a13.287 13.287 0 0 0 .432 6.389" class="prefix__cls-7" transform="translate(.719)"/>
                <path id="prefix__패스_1551" d="M354.3-97.52a37.08 37.08 0 0 1 1.4 6.181c.358 4.168-3.6 2.724-6.029 1.79-3.158-1.211-5.151-3.438-4.361-7.01.564-2.548 3.069-4.655 3.143-7.35.063-2.3-1.4-4.228-1.184-6.734.236-2.772 1.056-5.881 3.537-7.462 1.139-.726 2.469-.727 3.727-1.1a8.423 8.423 0 0 0 3.2-1.985c1.666-1.423 4.082-3.461 6.176-4.143a14.729 14.729 0 0 1 10.914.969c3.647 2.134 3.462 5.661 4.632 9.2.943 2.857 4.361 3.569 4.88 6.78.445 2.745-1.3 5.492.637 7.917 1.778 2.222 3.277 2.991 2.686 6.173-.768 4.135-4.5 9.124-9.35 8.109-3.051-.639-2.907-3.447-4.328-5.624a7.869 7.869 0 0 0-4.157-2.951 4.387 4.387 0 0 1-2.548-2.422 60.145 60.145 0 0 0-4.547-7.067c-1.195-1.545-3.051-4.069-5.2-4.27-2.407-.225-3.249 2.767-3.658 4.6a13.287 13.287 0 0 0 .43 6.399z" class="prefix__cls-4" transform="translate(.719)"/>
                <path id="prefix__패스_1552" d="M360.62-111.589a12.472 12.472 0 0 0-6.875 4.426c-1.7 2-.657 4.469-.3 6.889a44.811 44.811 0 0 1 .867 6.826c-.023 3.942 3.1 6.567 6.558 7.8a9.609 9.609 0 0 0 10.744-2.379c2.142-2.246 3.638-6.828 2.94-9.99-.4-1.808-1.476-3.1-2.367-4.655a14.035 14.035 0 0 0-4.454-4.971c-2.038-1.389-4.251-4.493-7.044-3.96l-.07.014" class="prefix__cls-5" transform="translate(1.135 .776)"/>
                <path id="prefix__패스_1553" d="M360.62-111.589a12.472 12.472 0 0 0-6.875 4.426c-1.7 2-.657 4.469-.3 6.889a44.811 44.811 0 0 1 .867 6.826c-.023 3.942 3.1 6.567 6.558 7.8a9.609 9.609 0 0 0 10.744-2.379c2.142-2.246 3.638-6.828 2.94-9.99-.4-1.808-1.476-3.1-2.367-4.655a14.035 14.035 0 0 0-4.454-4.971c-2.038-1.389-4.251-4.493-7.044-3.96z" class="prefix__cls-4" transform="translate(1.135 .776)"/>
                <path id="prefix__패스_1554" d="M373.95-111.457c.967 1.429 2.1 2.68 2.53 4.481m-22-6.818c-1.305.3-2.37 3.2-2.92 4.481m.779-6.624a21.094 21.094 0 0 0-2.92 2.534m10.512 20.453c1.777.672 2.8.459 4.673 0m2.336-8.767a.47.47 0 0 0 0 .584m-9.93.585v.39m8.761-4.871a12.69 12.69 0 0 1 2.531.2m-13.045 1.168a18.1 18.1 0 0 0 2.726-.389m3.7 2.337a10.575 10.575 0 0 1 0 5.261" class="prefix__cls-4" transform="translate(.951 .544)"/>
                <path id="prefix__패스_1555" d="M379.189-87.321c1.609 1.1 3.645.1 5.3 1.43 1.809 1.453 2.55 4.924 3.283 7a86.376 86.376 0 0 1 2.795 9.812c.68 3.032 2.5 5.654 3.263 8.664a17.179 17.179 0 0 1 .176 5.513c-.149 2.312-.675 3.906-2.753 5.171a8.64 8.64 0 0 1-6.157.911c-4.013-.815-7.418-3.24-11.267-4.523-2.3-.768-5.938-1.124-7.914-2.555-2.062-1.492-.835-6.873 1.226-8.019 1.735-.965 6.133 1.268 8.277 1.351a55.215 55.215 0 0 1 7.493.824c-1.212-1.092-1.381-2.793-2.11-4.173-.774-1.467-2.695-3.374-2.113-5.175" class="prefix__cls-6" transform="translate(1.789 2.098)"/>
                <path id="prefix__패스_1556" d="M379.189-87.321c1.609 1.1 3.645.1 5.3 1.43 1.809 1.453 2.55 4.924 3.283 7a86.376 86.376 0 0 1 2.795 9.812c.68 3.032 2.5 5.654 3.263 8.664a17.179 17.179 0 0 1 .176 5.513c-.149 2.312-.675 3.906-2.753 5.171a8.64 8.64 0 0 1-6.157.911c-4.013-.815-7.418-3.24-11.267-4.523-2.3-.768-5.938-1.124-7.914-2.555-2.062-1.492-.835-6.873 1.226-8.019 1.735-.965 6.133 1.268 8.277 1.351a55.215 55.215 0 0 1 7.493.824c-1.212-1.092-1.381-2.793-2.11-4.173-.774-1.467-2.695-3.374-2.113-5.175" class="prefix__cls-4" transform="translate(1.789 2.098)"/>
                <path id="prefix__패스_1557" d="M369.99-63.138a11.233 11.233 0 0 1-1.072 5.34" class="prefix__cls-4" transform="translate(2.01 3.411)"/>
                <path id="prefix__패스_1558" d="M361.882-66.9c-2.724-4.286-6.327-14.333-9.926-17.536-1.751-1.558-18.683-.2-19.468 1.724-.805 1.975 10.656 19.468 12.072 19.9 2.53.78 11.095-.779 15.182-1.558 2.449-.467 3.816.1 2.14-2.534" class="prefix__cls-3" transform="translate(.029 2.218)"/>
                <path id="prefix__패스_1559" d="M361.882-66.9c-2.724-4.286-6.327-14.333-9.926-17.536-1.751-1.558-18.683-.2-19.468 1.724-.805 1.975 10.656 19.468 12.072 19.9 2.53.78 11.095-.779 15.182-1.558 2.449-.467 3.816.102 2.14-2.53z" class="prefix__cls-4" transform="translate(.029 2.218)"/>
                <path id="prefix__패스_1560" d="M379.957-63.505c1.575.07 5.16-.207 5.921 1.459" class="prefix__cls-4" transform="translate(2.609 3.391)"/>
                <path id="prefix__패스_1561" d="M366.586-64.479c-2.342-3.975-9.274-7.635-11.305-3.742-1.435 2.749 1.6 4.253 3.147 5.793 1.464 1.46 3.363 4.59 6.025 3.68 3.315-1.141 3.455-3.486 2.133-5.731" class="prefix__cls-5" transform="translate(1.249 3.045)"/>
                <path id="prefix__패스_1562" d="M366.586-64.479c-2.342-3.975-9.274-7.635-11.305-3.742-1.435 2.749 1.6 4.253 3.147 5.793 1.464 1.46 3.363 4.59 6.025 3.68 3.315-1.14 3.455-3.485 2.133-5.731z" class="prefix__cls-4" transform="translate(1.249 3.045)"/>
                <path id="prefix__패스_1563" d="M362.111-51.084c2.025 2.441 1.612 10.418 1.445 13.413m-.413-46.071c1.381 2.3.266 7.032 0 9.639-.17 1.662-.413 4.062-.413 5.33" class="prefix__cls-4" transform="translate(1.64 2.292)"/>
                <path id="prefix__패스_1564" d="M356.795-118.608c1.273 1.444.756 2.964-.2 4.449-.834 1.3-1.462 2.558-3.121 2.839-3.311.564-4.516-3.341-3.1-5.72 1.284-2.161 4.418-3.843 6.422-1.569" class="prefix__cls-8" transform="translate(.971 .34)"/>
                <path id="prefix__패스_1565" d="M356.795-118.608c1.273 1.444.756 2.964-.2 4.449-.834 1.3-1.462 2.558-3.121 2.839-3.311.564-4.516-3.341-3.1-5.72 1.283-2.16 4.417-3.842 6.421-1.568z" class="prefix__cls-4" transform="translate(.971 .34)"/>
                <path id="prefix__패스_1566" d="M367.431-114.964a5.3 5.3 0 0 0-3.148-6.285c-1.331-.434-3.759.007-4.534 1.333-.717 1.225.1 3.471.822 4.548 1.158 1.721 3.751 3.9 5.766 2.107a3.749 3.749 0 0 0 1.093-1.7" class="prefix__cls-8" transform="translate(1.497 .246)"/>
                <path id="prefix__패스_1567" d="M367.431-114.964a5.3 5.3 0 0 0-3.148-6.285c-1.331-.434-3.759.007-4.534 1.333-.717 1.225.1 3.471.822 4.548 1.158 1.721 3.751 3.9 5.766 2.107a3.749 3.749 0 0 0 1.094-1.703z" class="prefix__cls-4" transform="translate(1.497 .246)"/>
                <path id="prefix__패스_1568" d="M368.365-116.993c2.445 1.092 5.781 2.272 3.455 2.276m-14.8-2.782c1.491-.425 1.358-.615 2.961-.506" class="prefix__cls-4" transform="translate(1.363 .43)"/>
                <path id="prefix__패스_1569" d="M368.523-69.621c1.12-.208 2.306-.246 3.453-.421 1.006-.153 2.33-.779 3.267-.533" class="prefix__cls-4" transform="translate(1.988 3.004)"/>
            </g>
        </g>
        <path id="prefix__mask" d="M0 0H140V140H0z" transform="translate(890 948)" style="fill:none"/>
    </g>
</svg>
