<?xml version="1.0" encoding="utf-8"?>
<!-- Generator: Adobe Illustrator 24.2.0, SVG Export Plug-In . SVG Version: 6.00 Build 0)  -->
<svg version="1.1" id="레이어_1" xmlns="http://www.w3.org/2000/svg" xmlns:xlink="http://www.w3.org/1999/xlink" x="0px"
	 y="0px" viewBox="0 0 26 26" style="enable-background:new 0 0 26 26;" xml:space="preserve">
<style type="text/css">
	.st0{fill:#FFFFFF;}
	.st1{fill:#FFFFFF;stroke:#E5E5E5;}
	.st2{clip-path:url(#XMLID_2_);fill:url(#XMLID_3_);}
	.st3{clip-path:url(#XMLID_4_);fill:url(#XMLID_5_);}
</style>
<g id="prefix__img_jj" transform="translate(-35 -388)">
	<g id="prefix__box" transform="translate(35 388)">
		<path class="st0" d="M13,0L13,0c7.2,0,13,5.8,13,13l0,0c0,7.2-5.8,13-13,13l0,0C5.8,26,0,20.2,0,13l0,0C0,5.8,5.8,0,13,0z"/>
		<path class="st1" d="M13,0.5L13,0.5c6.9,0,12.5,5.6,12.5,12.5l0,0c0,6.9-5.6,12.5-12.5,12.5l0,0C6.1,25.5,0.5,19.9,0.5,13l0,0
			C0.5,6.1,6.1,0.5,13,0.5z"/>
	</g>
</g>
<g>
	<g id="XMLID_127456_">
		<g id="XMLID_127457_">
			<g id="XMLID_127458_">
				<g id="XMLID_127459_">
					<g id="XMLID_127460_">
						<g id="XMLID_127461_">
							<g id="XMLID_127469_">
								<defs>
									<path id="XMLID_127470_" d="M12.7,6.1c-3.8,0.2-6.8,3.4-6.6,7.2c0.2,3.8,3.4,6.8,7.2,6.6c3.8-0.2,6.8-3.4,6.6-7.2
										C19.7,9,16.7,6.1,13,6.1C12.9,6.1,12.8,6.1,12.7,6.1"/>
								</defs>
								<clipPath id="XMLID_2_">
									<use xlink:href="#XMLID_127470_"  style="overflow:visible;"/>
								</clipPath>
								
									<radialGradient id="XMLID_3_" cx="-283.3103" cy="429.8793" r="0.4124" gradientTransform="matrix(15.8934 0 0 -15.8934 4516.6313 6843.0234)" gradientUnits="userSpaceOnUse">
									<stop  offset="0" style="stop-color:#FFFFFF"/>
									<stop  offset="1" style="stop-color:#D2A143"/>
								</radialGradient>
								<rect id="XMLID_127471_" x="5.9" y="6.1" class="st2" width="14.1" height="14"/>
							</g>
							<g id="XMLID_127462_">
								<defs>
									<path id="XMLID_127463_" d="M11.4,18.9c-0.8-0.1-1.7-0.3-2.5-1c-0.7-0.6-1.2-1.5-1.4-2.3c-0.2-0.8-0.3-1.7,0.1-1.6
										c0.1,0,0.3,0.5,0.5,0.9c0.2,0.4,0.4,0.6,0.6,0.7c0.1,0.1,0.3-0.5,0.7-0.9c0.2-0.2,0.5-0.2,0.5,0.3c0,0.7-0.1,1.5,0.1,1.5
										c0.2,0,0.6-0.1,1.5-0.2c0.3,0,0.5,0,0.2,0.5c-0.2,0.2-0.4,0.6-0.9,0.9c0.8,0.7,1.7,0.6,1.7,0.9c0,0.2-0.3,0.3-0.8,0.3
										C11.7,19,11.5,18.9,11.4,18.9 M14,12.4c-0.7-0.1-0.9-0.8-0.9-0.8c-0.1-0.2-0.1-0.5,0-0.9c0.1-0.8,0.3-1.1,0.5-1.7
										c0.3-0.8-0.5-1.3-0.3-1.6c0.2-0.4,0.7,0.1,1.3,0.1c0.5,0,0.8,0,1.3,0.1c0.5,0.1,1.2,0.3,1.5,0.6c0.3,0.3-0.1,0.7-0.6,0.5
										C16.5,8.6,16,8.7,16.3,9c0.3,0.4,0.5,0.4,0.8,0.4C18,9.7,18,10.6,17.4,11c-0.7,0.5-1.4,0.3-1.7-0.7
										c-0.1-0.5-0.5-0.7-0.8-0.6c-0.4,0.1-0.1,0.8,0.1,1.4c0.5,1.2-0.5,1.3-0.8,1.3C14.1,12.4,14.1,12.4,14,12.4 M13.5,19.2
										c0-0.2,0.2-0.2,0.2-0.2c2.1-0.4,1.5-1.8,0.7-2.5c-0.3-0.3-3.2-2.8-3.2-2.8c-2.7-2.4-2.5-4.2-2.5-4.2
										c0.1-2.3,2.1-2.8,3.6-2.7c0.2,0,0.3,0.1,0.2,0.3c0,0.2-0.3,0.2-0.3,0.2c-0.5,0-0.9,0.1-1.2,0.3c-1.2,0.8-0.9,2.2,0.8,3.8
										c0.2,0.2,0.4,0.4,0.6,0.6c0,0,0.3,0.3,1,0.9c1.2,1.1,1.9,1.8,1.9,1.8c2.2,1.8,1.4,3.5,0.6,4.1c-0.6,0.4-1.3,0.7-2.3,0.7
										c0,0,0,0,0,0C13.6,19.3,13.5,19.3,13.5,19.2 M12.7,6C8.8,6.2,5.8,9.5,6,13.3c0.2,3.9,3.4,6.9,7.3,6.7
										c3.9-0.2,6.9-3.4,6.7-7.3C19.8,8.9,16.7,6,13,6C12.9,6,12.8,6,12.7,6"/>
								</defs>
								<clipPath id="XMLID_4_">
									<use xlink:href="#XMLID_127463_"  style="overflow:visible;"/>
								</clipPath>
								
									<radialGradient id="XMLID_5_" cx="-283.1493" cy="432.1717" r="0.4122" gradientTransform="matrix(35.5567 0 0 -35.5567 10081.958 15377.7656)" gradientUnits="userSpaceOnUse">
									<stop  offset="0" style="stop-color:#00B8EE"/>
									<stop  offset="0.2191" style="stop-color:#0092D3"/>
									<stop  offset="0.2955" style="stop-color:#007BC2"/>
									<stop  offset="0.3797" style="stop-color:#0069B5"/>
									<stop  offset="0.4694" style="stop-color:#005EAD"/>
									<stop  offset="0.573" style="stop-color:#005BAB"/>
									<stop  offset="1" style="stop-color:#005BAB"/>
								</radialGradient>
								<rect id="XMLID_127468_" x="5.8" y="6" class="st3" width="14.3" height="14.2"/>
							</g>
						</g>
					</g>
				</g>
			</g>
		</g>
	</g>
</g>
</svg>
