<svg xmlns="http://www.w3.org/2000/svg" width="26" height="26" viewBox="0 0 26 26">
    <defs>
        <clipPath id="prefix__clip-path">
            <path id="prefix__패스_3060" d="M181.3 342.637a6.675 6.675 0 1 0-6.678-6.675 6.674 6.674 0 0 0 6.678 6.675z" class="prefix__cls-1" transform="translate(-174.623 -329.286)"/>
        </clipPath>
        <style>
            .prefix__cls-1{fill:none}.prefix__cls-3{fill:#fff}.prefix__cls-4{fill:#006abd}
        </style>
    </defs>
    <g id="prefix__img_wr" transform="translate(-35 -384)">
        <g id="prefix__box" transform="translate(35 384)" style="stroke:#e5e5e5;fill:#fff">
            <rect width="26" height="26" rx="13" style="stroke:none"/>
            <rect width="25" height="25" x=".5" y=".5" class="prefix__cls-1" rx="12.5"/>
        </g>
        <g id="prefix__그룹_3070" transform="translate(-132.381 61.949)">
            <path id="prefix__패스_2995" d="M187.381 335.049a7 7 0 1 1-7-7 7 7 0 0 1 7 7z" class="prefix__cls-3" >
            <g id="prefix__그룹_3065" transform="translate(173.705 328.373)">
                <path id="prefix__패스_2996" d="M181.3 342.637a6.675 6.675 0 1 0-6.678-6.675 6.674 6.674 0 0 0 6.678 6.675z" class="prefix__cls-4" transform="translate(-174.623 -329.286)"/>
            </g>
            <g id="prefix__그룹_3069" transform="translate(173.705 328.373)">
                <g id="prefix__그룹_3068" 
                    <g id="prefix__그룹_3067" transform="translate(-.382 2.242)">
                        <g id="prefix__그룹_3066" 
                            <path id="prefix__패스_2997" d="M180.28 345.309c2.933 0 5.448.818 6.525 1.977a6.738 6.738 0 0 0 .561-2.7 7.086 7.086 0 0 0-14.169 0 6.745 6.745 0 0 0 .56 2.7c1.075-1.159 3.59-1.977 6.523-1.977z" class="prefix__cls-4" transform="translate(-173.197 -337.651)"/>
                            <path id="prefix__패스_2998" d="M180.326 345.478c2.926 0 5.434.811 6.508 1.961a6.655 6.655 0 0 0 .56-2.681 7.069 7.069 0 0 0-14.133 0 6.662 6.662 0 0 0 .559 2.681c1.072-1.15 3.58-1.961 6.506-1.961z" transform="translate(-173.244 -337.813)" style="fill:#006cbe"/>
                            <path id="prefix__패스_2999" d="M180.372 345.647c2.918 0 5.421.8 6.492 1.945a6.569 6.569 0 0 0 .558-2.659 7.051 7.051 0 0 0-14.1 0 6.58 6.58 0 0 0 .557 2.659c1.072-1.14 3.575-1.945 6.493-1.945z" transform="translate(-173.291 -337.974)" style="fill:#006dbf"/>
                            <path id="prefix__패스_3000" d="M180.419 345.817c2.91 0 5.407.8 6.475 1.929a6.486 6.486 0 0 0 .557-2.638 7.034 7.034 0 0 0-14.06 0 6.493 6.493 0 0 0 .556 2.638c1.065-1.131 3.561-1.929 6.472-1.929z" transform="translate(-173.338 -338.136)" style="fill:#006fc0"/>
                            <path id="prefix__패스_3001" d="M180.465 345.986c2.9 0 5.392.791 6.458 1.913a6.4 6.4 0 0 0 .556-2.616 7.017 7.017 0 0 0-14.024 0 6.409 6.409 0 0 0 .554 2.616c1.063-1.122 3.553-1.913 6.456-1.913z" transform="translate(-173.385 -338.298)" style="fill:#0071c2"/>
                            <path id="prefix__패스_3002" d="M180.51 346.155c2.895 0 5.379.784 6.441 1.9a6.317 6.317 0 0 0 .554-2.594 7 7 0 0 0-13.988 0 6.323 6.323 0 0 0 .553 2.594c1.062-1.116 3.545-1.9 6.44-1.9z" transform="translate(-173.432 -338.46)" style="fill:#0073c3"/>
                            <path id="prefix__패스_3003" d="M180.557 346.324c2.887 0 5.365.778 6.425 1.881a6.235 6.235 0 0 0 .553-2.572 6.983 6.983 0 0 0-13.952 0 6.241 6.241 0 0 0 .551 2.572c1.058-1.105 3.535-1.881 6.423-1.881z" transform="translate(-173.479 -338.621)" style="fill:#0075c4"/>
                            <path id="prefix__패스_3004" d="M180.6 346.493c2.879 0 5.351.771 6.408 1.865a6.148 6.148 0 0 0 .551-2.55 6.967 6.967 0 0 0-13.915 0 6.155 6.155 0 0 0 .55 2.55c1.058-1.093 3.529-1.865 6.406-1.865z" transform="translate(-173.526 -338.783)" style="fill:#0076c6"/>
                            <path id="prefix__패스_3005" d="M180.649 346.663c2.872 0 5.337.765 6.391 1.849a6.07 6.07 0 0 0 .55-2.529 6.95 6.95 0 0 0-13.879 0 6.075 6.075 0 0 0 .549 2.529c1.052-1.084 3.517-1.849 6.389-1.849z" transform="translate(-173.573 -338.946)" style="fill:#0078c7"/>
                            <path id="prefix__패스_3006" d="M180.7 346.832c2.864 0 5.323.758 6.375 1.833a5.988 5.988 0 0 0 .548-2.507 6.934 6.934 0 0 0-13.843 0 5.99 5.99 0 0 0 .547 2.507c1.046-1.075 3.504-1.833 6.373-1.833z" transform="translate(-173.621 -339.107)" style="fill:#007ac8"/>
                            <path id="prefix__패스_3007" d="M180.742 347c2.856 0 5.309.751 6.358 1.817a5.9 5.9 0 0 0 .547-2.485 6.918 6.918 0 0 0-13.807 0 5.91 5.91 0 0 0 .546 2.485c1.047-1.064 3.498-1.817 6.356-1.817z" transform="translate(-173.668 -339.269)" style="fill:#007cc9"/>
                            <path id="prefix__패스_3008" d="M180.788 347.171c2.849 0 5.3.745 6.341 1.8a5.819 5.819 0 0 0 .546-2.463 6.9 6.9 0 0 0-13.771 0 5.825 5.825 0 0 0 .545 2.463c1.044-1.056 3.489-1.8 6.339-1.8z" transform="translate(-173.714 -339.431)" style="fill:#007ecb"/>
                            <path id="prefix__패스_3009" d="M180.835 347.34c2.841 0 5.281.738 6.324 1.785a5.744 5.744 0 0 0 .544-2.441 6.886 6.886 0 0 0-13.734 0 5.746 5.746 0 0 0 .543 2.441c1.041-1.047 3.48-1.785 6.323-1.785z" transform="translate(-173.762 -339.593)" style="fill:#0080cc"/>
                            <path id="prefix__패스_3010" d="M180.881 347.509c2.833 0 5.267.731 6.307 1.769a5.661 5.661 0 0 0 .543-2.42 6.87 6.87 0 0 0-13.7 0 5.662 5.662 0 0 0 .542 2.42c1.04-1.038 3.472-1.769 6.308-1.769z" transform="translate(-173.809 -339.754)" style="fill:#0082cd"/>
                            <path id="prefix__패스_3011" d="M180.926 347.678c2.826 0 5.253.725 6.291 1.753a5.577 5.577 0 0 0 .542-2.4 6.854 6.854 0 0 0-13.662 0 5.583 5.583 0 0 0 .54 2.4c1.036-1.031 3.463-1.753 6.289-1.753z" transform="translate(-173.856 -339.916)" style="fill:#0084ce"/>
                            <path id="prefix__패스_3012" d="M180.973 347.847c2.818 0 5.24.718 6.274 1.738a5.5 5.5 0 0 0 .54-2.376c0-3.369-3.053-6.242-6.814-6.242s-6.811 2.873-6.811 6.242a5.5 5.5 0 0 0 .539 2.376c1.033-1.02 3.452-1.738 6.272-1.738z" transform="translate(-173.903 -340.078)" style="fill:#0086cf"/>
                            <path id="prefix__패스_3013" d="M181.019 348.016c2.81 0 5.226.711 6.257 1.722a5.423 5.423 0 0 0 .539-2.354c0-3.339-3.045-6.2-6.8-6.2s-6.793 2.858-6.793 6.2a5.425 5.425 0 0 0 .537 2.354c1.035-1.01 3.447-1.722 6.26-1.722z" transform="translate(-173.95 -340.24)" style="fill:#0088d1"/>
                            <path id="prefix__패스_3014" d="M181.065 348.185c2.8 0 5.212.705 6.24 1.706a5.341 5.341 0 0 0 .538-2.333c0-3.308-3.037-6.15-6.778-6.15s-6.775 2.842-6.775 6.15a5.343 5.343 0 0 0 .536 2.333c1.028-1 3.434-1.706 6.239-1.706z" transform="translate(-173.997 -340.402)" style="fill:#008ad2"/>
                            <path id="prefix__패스_3015" d="M181.112 348.355c2.795 0 5.2.7 6.224 1.69a5.268 5.268 0 0 0 .536-2.311c0-3.277-3.028-6.1-6.76-6.1s-6.757 2.827-6.757 6.1a5.265 5.265 0 0 0 .534 2.311c1.025-.992 3.425-1.69 6.223-1.69z" transform="translate(-174.045 -340.563)" style="fill:#008dd3"/>
                            <path id="prefix__패스_3016" d="M181.158 348.524c2.787 0 5.184.692 6.207 1.674a5.187 5.187 0 0 0 .535-2.289c0-3.247-3.02-6.058-6.742-6.058s-6.739 2.812-6.739 6.058a5.187 5.187 0 0 0 .533 2.289c1.022-.982 3.416-1.674 6.206-1.674z" transform="translate(-174.091 -340.725)" style="fill:#008fd4"/>
                            <path id="prefix__패스_3017" d="M181.2 348.694c2.779 0 5.17.685 6.19 1.658a5.107 5.107 0 0 0 .533-2.267c0-3.216-3.012-6.011-6.723-6.011s-6.721 2.8-6.721 6.011a5.107 5.107 0 0 0 .532 2.267c1.023-.973 3.41-1.658 6.189-1.658z" transform="translate(-174.138 -340.888)" style="fill:#0091d5"/>
                            <path id="prefix__패스_3018" d="M181.251 348.863c2.772 0 5.156.678 6.174 1.642a5.031 5.031 0 0 0 .532-2.245c0-3.185-3-5.966-6.705-5.966s-6.7 2.781-6.7 5.966a5.028 5.028 0 0 0 .53 2.245c1.013-.964 3.394-1.642 6.169-1.642z" transform="translate(-174.186 -341.049)" style="fill:#0093d7"/>
                            <path id="prefix__패스_3019" d="M181.3 349.032c2.764 0 5.142.672 6.157 1.626a4.956 4.956 0 0 0 .531-2.224c0-3.155-3-5.919-6.688-5.919s-6.684 2.765-6.684 5.919a4.951 4.951 0 0 0 .529 2.224c1.01-.958 3.384-1.626 6.155-1.626z" transform="translate(-174.233 -341.211)" style="fill:#0096d8"/>
                            <path id="prefix__패스_3020" d="M181.342 349.2c2.756 0 5.128.665 6.14 1.61a4.878 4.878 0 0 0 .529-2.2c0-3.124-2.987-5.873-6.669-5.873s-6.666 2.75-6.666 5.873a4.875 4.875 0 0 0 .528 2.2c1.011-.944 3.379-1.61 6.138-1.61z" transform="translate(-174.279 -341.373)" style="fill:#0098d9"/>
                            <path id="prefix__패스_3021" d="M181.389 349.371c2.749 0 5.114.658 6.123 1.594a4.8 4.8 0 0 0 .528-2.18c0-3.093-2.979-5.828-6.651-5.828s-6.648 2.735-6.648 5.828a4.8 4.8 0 0 0 .526 2.18c1.008-.936 3.37-1.594 6.122-1.594z" transform="translate(-174.327 -341.535)" style="fill:#009ada"/>
                            <path id="prefix__패스_3022" d="M181.435 349.54c2.741 0 5.1.652 6.107 1.578a4.728 4.728 0 0 0 .526-2.158c0-3.063-2.971-5.781-6.633-5.781s-6.63 2.719-6.63 5.781a4.723 4.723 0 0 0 .525 2.158c1.005-.927 3.36-1.578 6.105-1.578z" transform="translate(-174.374 -341.696)" style="fill:#009ddb"/>
                            <path id="prefix__패스_3023" d="M181.481 349.709c2.733 0 5.087.645 6.09 1.562a4.652 4.652 0 0 0 .525-2.136c0-3.032-2.963-5.736-6.615-5.736s-6.612 2.7-6.612 5.736a4.646 4.646 0 0 0 .523 2.136c1.008-.917 3.352-1.562 6.089-1.562z" transform="translate(-174.421 -341.858)" style="fill:#009fdd"/>
                            <path id="prefix__패스_3024" d="M181.528 349.878c2.726 0 5.073.639 6.073 1.546a4.578 4.578 0 0 0 .523-2.115c0-3-2.954-5.689-6.6-5.689s-6.594 2.689-6.594 5.689a4.572 4.572 0 0 0 .522 2.115c1.004-.908 3.348-1.546 6.076-1.546z" transform="translate(-174.468 -342.02)" style="fill:#00a2de"/>
                            <path id="prefix__패스_3025" d="M181.574 350.047c2.718 0 5.059.632 6.056 1.53a4.5 4.5 0 0 0 .522-2.093c0-2.97-2.946-5.643-6.579-5.643S175 346.514 175 349.484a4.5 4.5 0 0 0 .52 2.093c.995-.898 3.332-1.53 6.054-1.53z" transform="translate(-174.515 -342.182)" style="fill:#00a4df"/>
                            <path id="prefix__패스_3026" d="M181.62 350.216c2.71 0 5.045.625 6.04 1.514a4.43 4.43 0 0 0 .521-2.071c0-2.94-2.938-5.6-6.56-5.6s-6.558 2.658-6.558 5.6a4.425 4.425 0 0 0 .519 2.071c.993-.889 3.323-1.514 6.038-1.514z" transform="translate(-174.562 -342.343)" style="fill:#00a7e0"/>
                            <path id="prefix__패스_3027" d="M181.666 350.385c2.7 0 5.031.619 6.023 1.5a4.358 4.358 0 0 0 .519-2.049c0-2.909-2.93-5.551-6.543-5.551s-6.539 2.642-6.539 5.551a4.349 4.349 0 0 0 .517 2.049c.993-.885 3.316-1.5 6.023-1.5z" transform="translate(-174.61 -342.505)" style="fill:#00a9e1"/>
                            <path id="prefix__패스_3028" d="M181.712 350.555c2.695 0 5.017.612 6.006 1.482a4.283 4.283 0 0 0 .518-2.027c0-2.879-2.921-5.506-6.524-5.506s-6.521 2.627-6.521 5.506a4.277 4.277 0 0 0 .516 2.027c.993-.87 3.306-1.482 6.005-1.482z" transform="translate(-174.656 -342.667)" style="fill:#10ace3"/>
                            <path id="prefix__패스_3029" d="M181.736 350.72c2.691 0 5.01.608 6 1.473a4.242 4.242 0 0 0 .517-2.014c0-2.86-2.918-5.472-6.515-5.472s-6.512 2.612-6.512 5.472a4.232 4.232 0 0 0 .515 2.014c.986-.865 3.3-1.473 5.995-1.473z" transform="translate(-174.681 -342.815)" style="fill:#23aee4"/>
                            <path id="prefix__패스_3030" d="M181.761 350.886c2.688 0 5 .6 5.99 1.463a4.193 4.193 0 0 0 .517-2c0-2.841-2.914-5.438-6.507-5.438s-6.5 2.6-6.5 5.438a4.185 4.185 0 0 0 .514 2c.983-.859 3.294-1.463 5.986-1.463z" transform="translate(-174.705 -342.964)" style="fill:#31b1e5"/>
                            <path id="prefix__패스_3031" d="M181.785 351.051c2.684 0 5 .6 5.982 1.454a4.153 4.153 0 0 0 .516-1.988c0-2.822-2.91-5.4-6.5-5.4s-6.5 2.582-6.5 5.4a4.143 4.143 0 0 0 .514 1.988c.992-.854 3.303-1.454 5.988-1.454z" transform="translate(-174.729 -343.113)" style="fill:#3cb4e6"/>
                            <path id="prefix__패스_3032" d="M181.809 351.216c2.681 0 4.989.6 5.973 1.444a4.107 4.107 0 0 0 .515-1.975c0-2.8-2.906-5.37-6.488-5.37s-6.486 2.567-6.486 5.37a4.1 4.1 0 0 0 .513 1.975c.984-.848 3.289-1.444 5.973-1.444z" transform="translate(-174.753 -343.26)" style="fill:#46b6e7"/>
                            <path id="prefix__패스_3033" d="M181.833 351.381c2.678 0 4.983.592 5.965 1.434a4.065 4.065 0 0 0 .514-1.961c0-2.785-2.9-5.336-6.479-5.336s-6.477 2.552-6.477 5.336a4.051 4.051 0 0 0 .512 1.961c.982-.841 3.285-1.434 5.965-1.434z" transform="translate(-174.777 -343.409)" style="fill:#4fb9e8"/>
                            <path id="prefix__패스_3034" d="M181.858 351.547c2.674 0 4.976.588 5.957 1.425a4.018 4.018 0 0 0 .514-1.948c0-2.766-2.9-5.3-6.471-5.3s-6.469 2.537-6.469 5.3a4.007 4.007 0 0 0 .511 1.948c.981-.837 3.28-1.425 5.958-1.425z" transform="translate(-174.801 -343.558)" style="fill:#58bce9"/>
                            <path id="prefix__패스_3035" d="M181.882 351.712c2.671 0 4.969.584 5.949 1.415a3.976 3.976 0 0 0 .513-1.934c0-2.748-2.894-5.269-6.462-5.269s-6.46 2.522-6.46 5.269a3.96 3.96 0 0 0 .51 1.934c.98-.827 3.276-1.415 5.95-1.415z" transform="translate(-174.825 -343.705)" style="fill:#60bfea"/>
                            <path id="prefix__패스_3036" d="M181.906 351.877c2.667 0 4.962.58 5.941 1.4a3.933 3.933 0 0 0 .512-1.921c0-2.729-2.89-5.235-6.453-5.235s-6.451 2.507-6.451 5.235a3.917 3.917 0 0 0 .51 1.921c.978-.82 3.271-1.4 5.941-1.4z" transform="translate(-174.85 -343.854)" style="fill:#68c1eb"/>
                            <path id="prefix__패스_3037" d="M181.93 352.043c2.663 0 4.955.576 5.932 1.4a3.892 3.892 0 0 0 .511-1.908c0-2.71-2.887-5.2-6.444-5.2s-6.442 2.492-6.442 5.2a3.876 3.876 0 0 0 .509 1.908c.978-.824 3.268-1.4 5.934-1.4z" transform="translate(-174.874 -344.003)" style="fill:#70c4ec"/>
                            <path id="prefix__패스_3038" d="M181.955 352.208c2.66 0 4.948.572 5.924 1.386a3.848 3.848 0 0 0 .511-1.895c0-2.692-2.883-5.168-6.435-5.168s-6.433 2.477-6.433 5.168a3.829 3.829 0 0 0 .508 1.895c.975-.814 3.263-1.386 5.925-1.386z" transform="translate(-174.899 -344.151)" style="fill:#78c7ed"/>
                            <path id="prefix__패스_3039" d="M181.979 352.373c2.656 0 4.942.568 5.916 1.376a3.805 3.805 0 0 0 .51-1.881c0-2.673-2.879-5.134-6.426-5.134s-6.424 2.462-6.424 5.134a3.786 3.786 0 0 0 .507 1.881c.974-.808 3.259-1.376 5.917-1.376z" transform="translate(-174.923 -344.299)" style="fill:#80caee"/>
                            <path id="prefix__패스_3040" d="M182 352.539c2.653 0 4.935.564 5.908 1.366a3.762 3.762 0 0 0 .509-1.868c0-2.654-2.875-5.1-6.417-5.1s-6.415 2.447-6.415 5.1a3.742 3.742 0 0 0 .506 1.868c.976-.805 3.258-1.366 5.909-1.366z" transform="translate(-174.947 -344.448)" style="fill:#87cdef"/>
                            <path id="prefix__패스_3041" d="M182.028 352.7c2.65 0 4.928.56 5.9 1.357a3.72 3.72 0 0 0 .508-1.855c0-2.635-2.871-5.066-6.408-5.066s-6.407 2.432-6.407 5.066a3.7 3.7 0 0 0 .505 1.855c.974-.793 3.251-1.357 5.902-1.357z" transform="translate(-174.971 -344.596)" style="fill:#8ed0f0"/>
                            <path id="prefix__패스_3042" d="M182.052 352.869c2.646 0 4.921.556 5.891 1.347a3.68 3.68 0 0 0 .508-1.842c0-2.617-2.867-5.033-6.4-5.033s-6.4 2.417-6.4 5.033a3.658 3.658 0 0 0 .5 1.842c.978-.791 3.249-1.347 5.901-1.347z" transform="translate(-174.995 -344.744)" style="fill:#95d2f1"/>
                            <path id="prefix__패스_3043" d="M182.076 353.035c2.642 0 4.914.552 5.883 1.337a3.637 3.637 0 0 0 .507-1.828c0-2.6-2.864-5-6.39-5s-6.389 2.4-6.389 5a3.613 3.613 0 0 0 .5 1.828c.973-.785 3.245-1.337 5.889-1.337z" transform="translate(-175.019 -344.893)" style="fill:#9cd5f2"/>
                            <path id="prefix__패스_3044" d="M182.1 353.2c2.639 0 4.907.548 5.875 1.328a3.6 3.6 0 0 0 .506-1.815c0-2.579-2.86-4.965-6.381-4.965s-6.38 2.387-6.38 4.965a3.572 3.572 0 0 0 .5 1.815c.971-.78 3.24-1.328 5.88-1.328z" transform="translate(-175.044 -345.041)" style="fill:#a3d8f3"/>
                            <path id="prefix__패스_3045" d="M182.124 353.366c2.635 0 4.9.544 5.867 1.318a3.552 3.552 0 0 0 .505-1.8c0-2.56-2.856-4.931-6.372-4.931s-6.371 2.372-6.371 4.931a3.53 3.53 0 0 0 .5 1.8c.969-.774 3.235-1.318 5.871-1.318z" transform="translate(-175.068 -345.19)" style="fill:#aadbf4"/>
                            <path id="prefix__패스_3046" d="M182.149 353.53c2.632 0 4.894.54 5.859 1.309a3.514 3.514 0 0 0 .5-1.788c0-2.542-2.852-4.9-6.363-4.9s-6.363 2.357-6.363 4.9a3.486 3.486 0 0 0 .5 1.788c.97-.768 3.234-1.309 5.867-1.309z" transform="translate(-175.092 -345.338)" style="fill:#b0def5"/>
                            <path id="prefix__패스_3047" d="M182.173 353.7c2.628 0 4.887.536 5.85 1.3a3.472 3.472 0 0 0 .5-1.775c0-2.523-2.848-4.864-6.354-4.864s-6.354 2.342-6.354 4.864a3.446 3.446 0 0 0 .5 1.775c.968-.768 3.229-1.3 5.858-1.3z" transform="translate(-175.116 -345.486)" style="fill:#b7e0f6"/>
                            <path id="prefix__패스_3048" d="M182.2 353.862c2.625 0 4.88.532 5.842 1.289a3.433 3.433 0 0 0 .5-1.762c0-2.5-2.844-4.83-6.345-4.83s-6.345 2.327-6.345 4.83a3.4 3.4 0 0 0 .5 1.762c.962-.758 3.22-1.289 5.848-1.289z" transform="translate(-175.14 -345.635)" style="fill:#bde3f7"/>
                            <path id="prefix__패스_3049" d="M182.221 354.026c2.622 0 4.873.528 5.834 1.28a3.389 3.389 0 0 0 .5-1.749c0-2.486-2.84-4.8-6.336-4.8s-6.336 2.312-6.336 4.8a3.365 3.365 0 0 0 .5 1.749c.962-.752 3.217-1.28 5.838-1.28z" transform="translate(-175.164 -345.783)" style="fill:#c3e6f8"/>
                            <path id="prefix__패스_3050" d="M182.245 354.192c2.618 0 4.866.524 5.826 1.27a3.35 3.35 0 0 0 .5-1.735c0-2.467-2.836-4.762-6.327-4.762s-6.327 2.3-6.327 4.762a3.324 3.324 0 0 0 .5 1.735c.959-.746 3.211-1.27 5.828-1.27z" transform="translate(-175.188 -345.931)" style="fill:#cae8f9"/>
                            <path id="prefix__패스_3051" d="M182.27 354.358c2.615 0 4.859.52 5.817 1.26a3.308 3.308 0 0 0 .5-1.722c0-2.448-2.833-4.729-6.318-4.729s-6.319 2.282-6.319 4.729a3.281 3.281 0 0 0 .5 1.722c.957-.741 3.206-1.26 5.82-1.26z" transform="translate(-175.213 -346.08)" style="fill:#d0ebf9"/>
                            <path id="prefix__패스_3052" d="M182.294 354.523c2.611 0 4.853.516 5.809 1.25a3.271 3.271 0 0 0 .5-1.709c0-2.429-2.828-4.695-6.309-4.695s-6.31 2.267-6.31 4.695a3.241 3.241 0 0 0 .5 1.709c.954-.734 3.2-1.25 5.81-1.25z" transform="translate(-175.237 -346.228)" style="fill:#d6eefa"/>
                            <path id="prefix__패스_3053" d="M182.318 354.688c2.608 0 4.846.512 5.8 1.241a3.229 3.229 0 0 0 .5-1.7c0-2.411-2.824-4.661-6.3-4.661s-6.3 2.253-6.3 4.661a3.2 3.2 0 0 0 .5 1.7c.95-.729 3.194-1.241 5.8-1.241z" transform="translate(-175.261 -346.376)" style="fill:#dcf0fb"/>
                            <path id="prefix__패스_3054" d="M182.342 354.853c2.6 0 4.839.508 5.793 1.231a3.191 3.191 0 0 0 .5-1.682c0-2.392-2.821-4.627-6.291-4.627s-6.292 2.238-6.292 4.627a3.161 3.161 0 0 0 .495 1.682c.953-.723 3.193-1.231 5.795-1.231z" transform="translate(-175.285 -346.525)" style="fill:#e2f3fc"/>
                            <path id="prefix__패스_3055" d="M182.367 355.019c2.6 0 4.832.5 5.784 1.221a3.152 3.152 0 0 0 .5-1.669c0-2.373-2.817-4.593-6.282-4.593s-6.283 2.223-6.283 4.593a3.121 3.121 0 0 0 .494 1.669c.951-.717 3.188-1.221 5.787-1.221z" transform="translate(-175.31 -346.673)" style="fill:#e8f5fd"/>
                            <path id="prefix__패스_3056" d="M182.391 355.184c2.6 0 4.825.5 5.776 1.212a3.113 3.113 0 0 0 .5-1.656c0-2.355-2.813-4.56-6.274-4.56s-6.274 2.208-6.274 4.56a3.082 3.082 0 0 0 .493 1.656c.95-.712 3.188-1.212 5.779-1.212z" transform="translate(-175.334 -346.821)" style="fill:#eef8fd"/>
                            <path id="prefix__패스_3057" d="M182.416 355.349c2.594 0 4.818.5 5.768 1.2a3.075 3.075 0 0 0 .5-1.642c0-2.336-2.809-4.526-6.264-4.526s-6.266 2.193-6.266 4.526a3.04 3.04 0 0 0 .492 1.642c.947-.704 3.178-1.2 5.77-1.2z" transform="translate(-175.358 -346.97)" style="fill:#f4fafe"/>
                            <path id="prefix__패스_3058" d="M182.44 355.515c2.59 0 4.811.492 5.76 1.193a3.035 3.035 0 0 0 .5-1.629c0-2.317-2.805-4.492-6.256-4.492s-6.257 2.178-6.257 4.492a3 3 0 0 0 .491 1.629c.945-.701 3.174-1.193 5.762-1.193z" transform="translate(-175.382 -347.118)" style="fill:#fafdfe"/>
                            <path id="prefix__패스_3059" d="M182.464 355.68c2.587 0 4.8.488 5.752 1.183a3 3 0 0 0 .495-1.616c0-2.3-2.8-4.458-6.247-4.458s-6.248 2.163-6.248 4.458a2.963 2.963 0 0 0 .49 1.616c.948-.695 3.174-1.183 5.758-1.183z" class="prefix__cls-3" transform="translate(-175.407 -347.267)"/>
                        </g>
                    </g>
                </g>
            </g>
            <path id="prefix__패스_3061" d="M182.881 360.476a18.16 18.16 0 0 0-6.114 1 6.776 6.776 0 0 0 12.227 0 18.119 18.119 0 0 0-6.113-1z" class="prefix__cls-4" transform="translate(-2.502 -23.609)"/>
        </g>
    </g>
</svg>
