<svg xmlns="http://www.w3.org/2000/svg" width="26" height="26" viewBox="0 0 26 26">
    <g id="prefix__img_lt" transform="translate(-35 -388)">
        <rect id="prefix__box" width="26" height="26" rx="13" transform="translate(35 388)" style="fill:#e93840"/>
        <g id="prefix__symbol_lt" transform="translate(42.15 395.15)">
            <path id="prefix__제외_2" d="M13859.845-1124.161a3.467 3.467 0 0 1-2.468-1.02l-2.509-2.505a3.5 3.5 0 0 1 0-4.938l2.509-2.509a3.48 3.48 0 0 1 2.468-1.016 3.466 3.466 0 0 1 2.467 1.016l2.506 2.509a3.486 3.486 0 0 1 1.023 2.467 3.472 3.472 0 0 1-1.023 2.471l-2.506 2.505a3.45 3.45 0 0 1-2.467 1.02zm-.143-9.82a1.336 1.336 0 0 0-.964.386 3.018 3.018 0 0 0-.616 2.126 8.159 8.159 0 0 0 1.138 4.2 2.333 2.333 0 0 0 .547.518 1.543 1.543 0 0 0 .877.282 1.731 1.731 0 0 0 .33-.031h.014a3.262 3.262 0 0 0 1.8-1.517.322.322 0 0 0 .042-.25.313.313 0 0 0-.146-.209.345.345 0 0 0-.178-.052.343.343 0 0 0-.282.157 2.7 2.7 0 0 1-1.374 1.225 1.107 1.107 0 0 1-.2.017.9.9 0 0 1-.519-.174 1.709 1.709 0 0 1-.39-.372 7.388 7.388 0 0 1-1-3.8 2.324 2.324 0 0 1 .421-1.642.678.678 0 0 1 .5-.195h.06a.668.668 0 0 1 .5.195 2.34 2.34 0 0 1 .417 1.642 5.756 5.756 0 0 1-.779 2.975.324.324 0 0 0-.036.251.328.328 0 0 0 .151.2.309.309 0 0 0 .17.049.322.322 0 0 0 .285-.164 6.882 6.882 0 0 0 .877-3.306 3 3 0 0 0-.619-2.126 1.314 1.314 0 0 0-.964-.386zm-1.342 6.768h-.019a.381.381 0 0 0-.258.118.379.379 0 0 0-.1.268.367.367 0 0 0 .369.355h.018a.371.371 0 0 0 .258-.12.364.364 0 0 0 .1-.266.366.366 0 0 0-.368-.355z" transform="translate(-13853.851 1136.15)" style="fill:#fff;stroke:transparent;stroke-miterlimit:10"/>
        </g>
    </g>
</svg>
