<svg xmlns="http://www.w3.org/2000/svg" viewBox="0 0 80 80"><defs><style>.cls-1{fill:none;}.cls-2{fill:#222;}.cls-3{fill:#ff4d1d;}</style></defs><g id="레이어_2" data-name="레이어 2"><g id="레이어_1-2" data-name="레이어 1"><polygon class="cls-1" points="13.3 67.58 11.23 71.44 13.05 74.84 19.02 74.84 20.64 71.03 17.15 66.06 13.3 67.58"/><polygon class="cls-1" points="66.94 29.27 65.87 30.34 66.62 31.1 67.92 29.79 66.94 29.27"/><path class="cls-1" d="M24.75,61.26l3.88-2.45c-1.17.15-1.83.76-5,1.3Z"/><polygon class="cls-1" points="72.32 32.14 71.74 32.66 72.48 33.07 73.01 32.62 72.32 32.14"/><path class="cls-2" d="M28.63,58.81l-3.88,2.45-1.14-1.15-.12,0a27.55,27.55,0,0,1-3.32.31l4.2,4.22,8.14-5.14a8,8,0,0,0-2.81-.73A6.21,6.21,0,0,0,28.63,58.81Z"/><path class="cls-2" d="M58.87,38.63l-.12-.29,1.91-10.46L58.85,24l-1-4.72L49.74,9.59l-.45-.46L47.65,2.49,39.91,8.34H32.59l-8.18,8.58v4.56l2.15,3.93-.2.23-2.94-1.58-4.85,3.08v4.22l4.72,1.21.36,3.19c1-.27,1.79-.63,2.58-.9l-.51-4.43-4.49-1.15v-.66l2.3-1.47L26.93,29l2.88-3.19-2.74-5V18l6.66-7H40.8L46,7.06l.86,3.44.85.86,7.66,9.17.91,4.37,1.58,3.35L56,38.63l1.63,3.94,2.05-1.28-2.6,3.48-.7,4.58-3.8,2H46.64L45.28,54h-3L40.7,51.2l-4.27,2.7a4,4,0,0,1,2.48,1.59l.88-.55,1,1.74h6.1L48.26,54h5l5.56-2.93.81-5.26,4-5.39-3.06-2.89Z"/><path class="cls-2" d="M11.42,65.45l-3.21,6,3.24,6.07h9.33l2.9-6.8L18.12,62.8ZM19,74.84h-6l-1.81-3.4,2.06-3.86,3.85-1.52,3.49,5Z"/><path class="cls-2" d="M66.69,27.62,64,30.34,66.62,33l3.52-3.53Zm-.82,2.72,1.06-1.07,1,.52-1.3,1.31Z"/><path class="cls-2" d="M72.23,30.43l-2.81,2.51,3.23,1.73,2.54-2.14Zm.25,2.64-.74-.41.58-.52.69.48Z"/><path class="cls-3" d="M68,42.29a1.27,1.27,0,0,1-1-.44c-.56-.64-1.17-1.3-1.79-2a1.46,1.46,0,0,1,0-2,1.25,1.25,0,0,1,1.84,0c.64.68,1.26,1.37,1.85,2a1.45,1.45,0,0,1-.06,2A1.22,1.22,0,0,1,68,42.29Z"/><path class="cls-3" d="M64.93,69.53a29.82,29.82,0,0,1-5.08-.47,1.4,1.4,0,0,1-1.08-1.6,1.32,1.32,0,0,1,1.5-1.15,27,27,0,0,0,4.66.43h.2a1.39,1.39,0,0,1,0,2.78Zm5.23-.76a1.31,1.31,0,0,1-1.24-1,1.41,1.41,0,0,1,.85-1.74,7.94,7.94,0,0,0,3.68-2.38h0l0-.05a1.27,1.27,0,0,1,1.85-.09,1.47,1.47,0,0,1,.08,2l-1-.94,1,1a10.53,10.53,0,0,1-4.85,3.2A1.32,1.32,0,0,1,70.16,68.77ZM55.1,67.85a1.15,1.15,0,0,1-.37-.06,38.68,38.68,0,0,1-4.94-1.92A1.44,1.44,0,0,1,49.11,64a1.28,1.28,0,0,1,1.72-.72,38.2,38.2,0,0,0,4.64,1.8,1.42,1.42,0,0,1,.88,1.73A1.32,1.32,0,0,1,55.1,67.85ZM45.68,63.7a1.34,1.34,0,0,1-.54-.13l-.48-.24c-1.37-.66-2.79-1.35-4.17-2a1.44,1.44,0,0,1-.61-1.86,1.28,1.28,0,0,1,1.74-.66c1.35.69,2.76,1.38,4.12,2l.48.24a1.42,1.42,0,0,1,.65,1.84A1.31,1.31,0,0,1,45.68,63.7Zm31-2.54-.24,0a1.4,1.4,0,0,1-1-1.63A9.6,9.6,0,0,0,75.57,58a11.89,11.89,0,0,0-.47-3.18A1.41,1.41,0,0,1,76,53.06,1.29,1.29,0,0,1,77.6,54a15,15,0,0,1,.58,4A11.49,11.49,0,0,1,78,60,1.33,1.33,0,0,1,76.72,61.16ZM74.25,50.85a1.3,1.3,0,0,1-1.12-.68,39.78,39.78,0,0,0-2.82-4.3,1.45,1.45,0,0,1,.21-2,1.25,1.25,0,0,1,1.83.22,43,43,0,0,1,3,4.61,1.45,1.45,0,0,1-.45,1.91A1.27,1.27,0,0,1,74.25,50.85Z"/><path class="cls-3" d="M36.53,58.89a1.27,1.27,0,0,1-.67-.2,11.46,11.46,0,0,1-2.37-1.89,1.46,1.46,0,0,1,.06-2,1.24,1.24,0,0,1,1.84.06A8.48,8.48,0,0,0,37.2,56.3a1.44,1.44,0,0,1,.44,1.91A1.27,1.27,0,0,1,36.53,58.89Z"/><path class="cls-3" d="M13.32,37.14l-6.43-5h0L6.69,32a2.9,2.9,0,0,0-4.05.71l-.06.08a.23.23,0,0,1-.07.07A2.92,2.92,0,0,0,2.85,37l.21.16h0l6.44,5,2.6,17.45,1.11-.11,4.8-.51L16.27,47.34l5.26,4.06,1.06,7,5.9-.62-.85-5.64,5.67-.58-.88-5.87-7.07.73L20.1,42.39l11.65-1.23L31,36.39l-.16-1.1Z"/><rect class="cls-1" width="80" height="80"/></g></g></svg>