<svg xmlns="http://www.w3.org/2000/svg" viewBox="0 0 80 80"><defs><style>.cls-1{fill:none;}.cls-2{fill:#000222;}.cls-3{fill:#ff4d1d;}</style></defs><g id="레이어_2" data-name="레이어 2"><g id="레이어_1-2" data-name="레이어 1"><path class="cls-1" d="M55,36a44.13,44.13,0,0,1-1.32,9.7,24.33,24.33,0,0,1,5,2.81A22.42,22.42,0,0,0,63.82,36Z"/><path class="cls-1" d="M35.43,47.2C37,51.79,39.3,55,41.92,55.77V46.1A26.14,26.14,0,0,0,35.43,47.2Z"/><path class="cls-1" d="M44.26,21.38V33.49h8.41a38.7,38.7,0,0,0-2.38-13A28,28,0,0,1,44.26,21.38Z"/><path class="cls-1" d="M44.26,55.77c2.62-.75,5-4,6.5-8.57a26.22,26.22,0,0,0-6.5-1.1Z"/><path class="cls-1" d="M49.38,54.92a20.57,20.57,0,0,0,7.69-4.68A21.86,21.86,0,0,0,53,48,22.1,22.1,0,0,1,49.38,54.92Z"/><path class="cls-1" d="M51.59,17.52A23.79,23.79,0,0,0,55,16a20.23,20.23,0,0,0-7-3.35A16.4,16.4,0,0,1,51.59,17.52Z"/><path class="cls-1" d="M38.1,12.67a20.31,20.31,0,0,0-7,3.35,23.45,23.45,0,0,0,3.46,1.5A16.21,16.21,0,0,1,38.1,12.67Z"/><path class="cls-1" d="M41.92,21.38a28.11,28.11,0,0,1-6-.9,39,39,0,0,0-2.38,13h8.41Z"/><path class="cls-1" d="M44.26,43.63a27.81,27.81,0,0,1,7.18,1.23A42.59,42.59,0,0,0,52.66,36h-8.4Z"/><path class="cls-1" d="M41.92,36H33.53a42,42,0,0,0,1.21,8.9,27.88,27.88,0,0,1,7.18-1.23Z"/><path class="cls-1" d="M55,33.49H63.9A22.36,22.36,0,0,0,57,17.68a25.52,25.52,0,0,1-4.44,2.1A41.15,41.15,0,0,1,55,33.49Z"/><path class="cls-1" d="M41.92,13.19c-1.88.54-3.61,2.35-5,5a26.09,26.09,0,0,0,5,.69Z"/><path class="cls-1" d="M49.27,18.21c-1.4-2.67-3.13-4.48-5-5V18.9A26.3,26.3,0,0,0,49.27,18.21Z"/><path class="cls-2" d="M59.78,50.89c-.25.28-.52.56-.79.83C59.26,51.45,59.53,51.17,59.78,50.89Z"/><path class="cls-2" d="M49.38,54.92a8.88,8.88,0,0,1-5.12,3.38v.08A22.5,22.5,0,0,0,59,51.75a19,19,0,0,0-1.89-1.51A20.57,20.57,0,0,1,49.38,54.92Z"/><path class="cls-2" d="M60.54,50c-.24.3-.49.59-.75.88C60.05,50.6,60.3,50.31,60.54,50Z"/><path class="cls-2" d="M63.9,33.49h1.65V36H63.82a22.42,22.42,0,0,1-5.1,12.51A21.23,21.23,0,0,1,60.56,50,25.32,25.32,0,0,0,59,16.3a22.59,22.59,0,0,1-2,1.38A22.36,22.36,0,0,1,63.9,33.49Z"/><path class="cls-2" d="M31.14,16a20.31,20.31,0,0,1,7-3.35,7.44,7.44,0,0,1,5-2.12,7.44,7.44,0,0,1,5,2.12A20.23,20.23,0,0,1,55,16a21.81,21.81,0,0,0,2.19-1.36,22.15,22.15,0,0,0-28.28,0A21.81,21.81,0,0,0,31.14,16Z"/><path class="cls-2" d="M27.14,16.3A25,25,0,0,0,19.93,34c0,.13,0,.25,0,.38l.69-.22v-.66h1.65a22.44,22.44,0,0,1,6.89-15.81h0A24.11,24.11,0,0,1,27.14,16.3Z"/><path class="cls-2" d="M31.14,16a19.44,19.44,0,0,0-2,1.66,25.28,25.28,0,0,0,4.45,2.1c.3-.79.63-1.55,1-2.26A23.45,23.45,0,0,1,31.14,16Z"/><path class="cls-2" d="M52.57,19.78A25.52,25.52,0,0,0,57,17.68,19.44,19.44,0,0,0,55,16a23.79,23.79,0,0,1-3.45,1.5C51.94,18.23,52.26,19,52.57,19.78Z"/><polygon class="cls-2" points="27.14 16.3 27.14 16.3 27.15 16.3 27.14 16.3"/><path class="cls-2" d="M41.92,18.9a26.09,26.09,0,0,1-5-.69,22.77,22.77,0,0,0-1,2.27,28.11,28.11,0,0,0,6,.9Z"/><polygon class="cls-2" points="28.95 14.66 28.95 14.66 28.95 14.66 28.95 14.66"/><path class="cls-2" d="M44.26,21.38a28,28,0,0,0,6-.9,22.77,22.77,0,0,0-1-2.27,26.3,26.3,0,0,1-5,.69Z"/><path class="cls-2" d="M57,17.68a22.59,22.59,0,0,0,2-1.38c-.29-.29-.58-.57-.88-.84h0c-.3-.27-.61-.54-.92-.79h0A21.81,21.81,0,0,1,55,16,19.44,19.44,0,0,1,57,17.68Z"/><path class="cls-2" d="M59,16.3c-.29-.29-.58-.57-.88-.84.3.27.59.55.88.84Z"/><path class="cls-2" d="M31.14,16A21.81,21.81,0,0,1,29,14.66h0c-.31.26-.62.52-.92.79h0q-.45.4-.87.84h0a24.11,24.11,0,0,0,2,1.38h0a19.44,19.44,0,0,1,2-1.66Z"/><path class="cls-2" d="M44.26,43.63V46.1a26.22,26.22,0,0,1,6.5,1.1c.25-.74.48-1.53.68-2.34A27.81,27.81,0,0,0,44.26,43.63Z"/><path class="cls-2" d="M41.92,43.63a27.88,27.88,0,0,0-7.18,1.23c.21.81.44,1.6.69,2.34a26.14,26.14,0,0,1,6.49-1.1Z"/><path class="cls-2" d="M53,48a21.86,21.86,0,0,1,4.08,2.23,19.75,19.75,0,0,0,1.65-1.77,24.33,24.33,0,0,0-5-2.81C53.47,46.47,53.24,47.26,53,48Z"/><path class="cls-2" d="M58.72,48.47a19.75,19.75,0,0,1-1.65,1.77A19,19,0,0,1,59,51.75l0,0c.27-.27.54-.55.79-.83h0c.26-.29.51-.58.75-.88l0,0A21.23,21.23,0,0,0,58.72,48.47Z"/><path class="cls-2" d="M59,51.75l0,0,0,0Z"/><path class="cls-2" d="M60.56,50l0,0,0,0Z"/><path class="cls-2" d="M50.76,47.2c-1.54,4.59-3.88,7.82-6.5,8.57v.14a20.2,20.2,0,0,0,5.12-1A22.1,22.1,0,0,0,53,48C52.27,47.71,51.53,47.44,50.76,47.2Z"/><path class="cls-2" d="M37.54,55.15a19.88,19.88,0,0,0,4.38.76v-.14c-2.62-.75-5-4-6.49-8.57-.77.24-1.52.51-2.24.81a23.28,23.28,0,0,0,3,6.16A2.8,2.8,0,0,1,37.54,55.15Z"/><path class="cls-2" d="M51.44,44.86a22.81,22.81,0,0,1,2.24.8A44.13,44.13,0,0,0,55,36H52.66A42.59,42.59,0,0,1,51.44,44.86Z"/><path class="cls-2" d="M35.89,20.48c-.78-.2-1.54-.44-2.27-.7a40.89,40.89,0,0,0-2.45,13.71h2.34A39,39,0,0,1,35.89,20.48Z"/><path class="cls-2" d="M33.53,36H31.41a7.63,7.63,0,0,1,.12,4.53,39.53,39.53,0,0,0,1,5.17,23.77,23.77,0,0,1,2.24-.8A42,42,0,0,1,33.53,36Z"/><path class="cls-2" d="M41.92,13.19V12.06a20.16,20.16,0,0,0-3.82.61,16.21,16.21,0,0,0-3.5,4.85,24,24,0,0,0,2.32.69C38.31,15.54,40,13.73,41.92,13.19Z"/><path class="cls-2" d="M44.26,13.19c1.88.54,3.61,2.35,5,5,.79-.19,1.56-.43,2.32-.69a16.4,16.4,0,0,0-3.51-4.85,20,20,0,0,0-3.82-.61Z"/><path class="cls-2" d="M52.67,33.49H55a41.15,41.15,0,0,0-2.44-13.71c-.74.26-1.5.5-2.28.7A38.7,38.7,0,0,1,52.67,33.49Z"/><path class="cls-2" d="M41.92,11h2.34v1a20,20,0,0,1,3.82.61,7.44,7.44,0,0,0-5-2.12,7.44,7.44,0,0,0-5,2.12,20.16,20.16,0,0,1,3.82-.61Z"/><path class="cls-2" d="M37.54,55.15a1.25,1.25,0,0,1,.09.12,3,3,0,0,1,.35.91,8,8,0,0,0,3.94,2.12V55.91A19.88,19.88,0,0,1,37.54,55.15Z"/><path class="cls-2" d="M44.26,58.3a8.88,8.88,0,0,0,5.12-3.38,20.2,20.2,0,0,1-5.12,1Z"/><path class="cls-2" d="M36.92,18.21a24,24,0,0,1-2.32-.69c-.35.71-.68,1.47-1,2.26.73.26,1.49.5,2.27.7A22.77,22.77,0,0,1,36.92,18.21Z"/><path class="cls-2" d="M52.57,19.78c-.31-.79-.63-1.55-1-2.26-.76.26-1.53.5-2.32.69a22.77,22.77,0,0,1,1,2.27C51.07,20.28,51.83,20,52.57,19.78Z"/><path class="cls-2" d="M34.74,44.86a23.77,23.77,0,0,0-2.24.8c.21.81.44,1.6.69,2.35.72-.3,1.47-.57,2.24-.81C35.18,46.46,35,45.67,34.74,44.86Z"/><path class="cls-2" d="M50.76,47.2c.77.24,1.51.51,2.23.81.25-.75.48-1.54.69-2.35a22.81,22.81,0,0,0-2.24-.8C51.24,45.67,51,46.46,50.76,47.2Z"/><path class="cls-2" d="M44.26,43.63V36H41.92v7.67l1.17,0Z"/><path class="cls-2" d="M44.26,21.38l-1.17,0-1.17,0V33.49h2.34Z"/><path class="cls-2" d="M41.92,58.41h1.17l-1.17,0Z"/><path class="cls-2" d="M44.26,18.9V13.19A4.2,4.2,0,0,0,43.09,13a4.32,4.32,0,0,0-1.17.18V18.9c.39,0,.78,0,1.17,0S43.87,18.92,44.26,18.9Z"/><path class="cls-2" d="M44.26,58.41v0l-1.17,0Z"/><path class="cls-2" d="M44.26,46.1l-1.17,0-1.17,0v9.67a4.3,4.3,0,0,0,1.17.17,4.19,4.19,0,0,0,1.17-.17Z"/><path class="cls-2" d="M41.92,58.38l1.17,0a6.62,6.62,0,0,1-1.17-.11Z"/><path class="cls-2" d="M43.09,58.41l1.17,0V58.3A6.45,6.45,0,0,1,43.09,58.41Z"/><path class="cls-2" d="M44.26,21.38V18.9c-.39,0-.77,0-1.17,0s-.78,0-1.17,0v2.48l1.17,0Z"/><path class="cls-2" d="M43.09,43.61l-1.17,0V46.1l1.17,0,1.17,0V43.63Z"/><path class="cls-2" d="M43.09,55.94q.58,0,1.17,0v-.14A4.19,4.19,0,0,1,43.09,55.94Z"/><path class="cls-2" d="M44.26,13.19V12.06q-.59,0-1.17,0t-1.17,0v1.13A4.32,4.32,0,0,1,43.09,13,4.2,4.2,0,0,1,44.26,13.19Z"/><path class="cls-2" d="M41.92,55.91q.59,0,1.17,0a4.3,4.3,0,0,1-1.17-.17Z"/><path class="cls-2" d="M44.26,55.91q-.59,0-1.17,0t-1.17,0V58.3a6.62,6.62,0,0,0,1.17.11,6.45,6.45,0,0,0,1.17-.11Z"/><path class="cls-2" d="M44.26,12.06V11H41.92v1q.59,0,1.17,0T44.26,12.06Z"/><path class="cls-2" d="M41.92,33.49H33.51c0,.33,0,.66,0,1,0,.5,0,1,0,1.48h8.39Z"/><path class="cls-2" d="M44.26,36h8.4c0-.49,0-1,0-1.48,0-.33,0-.66,0-1H44.26Z"/><path class="cls-2" d="M55,34.48c0,.5,0,1,0,1.48h8.82c.06-.65.09-1.31.09-2,0-.17,0-.33,0-.5H55C55,33.82,55,34.15,55,34.48Z"/><path class="cls-2" d="M20.63,34.15c.55-.17,1.1-.34,1.65-.49v-.17H20.63Z"/><path class="cls-2" d="M63.82,36h1.73V33.49H63.9c0,.17,0,.33,0,.5C63.91,34.65,63.88,35.31,63.82,36Z"/><path class="cls-2" d="M33.53,36c0-.49,0-1,0-1.48,0-.33,0-.66,0-1H31.17c0,.33,0,.66,0,1s0,.59,0,.88a5.36,5.36,0,0,1,.24.6Z"/><path class="cls-2" d="M55,33.49H52.67c0,.33,0,.66,0,1,0,.5,0,1,0,1.48H55c0-.49,0-1,0-1.48C55,34.15,55,33.82,55,33.49Z"/><rect class="cls-2" x="41.92" y="33.49" width="2.34" height="2.47"/><path class="cls-2" d="M36.23,54.17q.27.39.57.75l.74.23A2.8,2.8,0,0,0,36.23,54.17Z"/><path class="cls-2" d="M31.41,36h-.23c.05,1.56.16,3.07.35,4.53A7.63,7.63,0,0,0,31.41,36Z"/><path class="cls-2" d="M37.54,55.15l-.74-.23A13,13,0,0,0,38,56.18a3,3,0,0,0-.35-.91A1.25,1.25,0,0,0,37.54,55.15Z"/><path class="cls-2" d="M31.17,35.36c0,.2,0,.4,0,.6h.23A5.36,5.36,0,0,0,31.17,35.36Z"/><path class="cls-3" d="M67.83,43a1.27,1.27,0,0,1-1-.44c-.56-.63-1.16-1.28-1.78-1.94a1.44,1.44,0,0,1,0-2,1.25,1.25,0,0,1,1.84,0c.64.67,1.26,1.35,1.84,2a1.43,1.43,0,0,1,0,2A1.26,1.26,0,0,1,67.83,43Z"/><path class="cls-3" d="M64.79,70a29.71,29.71,0,0,1-5.07-.47A1.38,1.38,0,0,1,58.64,68a1.32,1.32,0,0,1,1.5-1.14,26.82,26.82,0,0,0,4.65.43H65A1.38,1.38,0,0,1,65,70ZM70,69.25a1.32,1.32,0,0,1-1.25-1,1.39,1.39,0,0,1,.86-1.72,8,8,0,0,0,3.66-2.36h0l0,0a1.26,1.26,0,0,1,1.84-.09,1.45,1.45,0,0,1,.08,2l-1-.93,1,.94a10.48,10.48,0,0,1-4.85,3.17A1.31,1.31,0,0,1,70,69.25Zm-15-.91a1.15,1.15,0,0,1-.37-.06,40.65,40.65,0,0,1-4.93-1.9A1.4,1.4,0,0,1,49,64.57a1.26,1.26,0,0,1,1.71-.71,39,39,0,0,0,4.63,1.78,1.38,1.38,0,0,1,.87,1.71A1.31,1.31,0,0,1,55,68.34Zm-9.39-4.12a1.29,1.29,0,0,1-.54-.12l-.49-.24c-1.37-.66-2.78-1.34-4.15-2A1.41,1.41,0,0,1,39.8,60a1.26,1.26,0,0,1,1.73-.65c1.35.68,2.75,1.36,4.11,2l.49.23a1.42,1.42,0,0,1,.64,1.83A1.3,1.3,0,0,1,45.59,64.22Zm31-2.51-.24,0a1.38,1.38,0,0,1-1-1.61,8.54,8.54,0,0,0,.13-1.53,11.68,11.68,0,0,0-.47-3.15,1.39,1.39,0,0,1,.88-1.71,1.29,1.29,0,0,1,1.62.93A14.64,14.64,0,0,1,78,58.55a12.48,12.48,0,0,1-.17,2A1.33,1.33,0,0,1,76.55,61.71ZM74.08,51.49A1.28,1.28,0,0,1,73,50.82a39.49,39.49,0,0,0-2.82-4.26,1.44,1.44,0,0,1,.21-1.94,1.26,1.26,0,0,1,1.83.22,43.53,43.53,0,0,1,3,4.57,1.42,1.42,0,0,1-.45,1.89A1.26,1.26,0,0,1,74.08,51.49Z"/><path class="cls-3" d="M36.45,59.46a1.19,1.19,0,0,1-.67-.2,11.6,11.6,0,0,1-2.36-1.87,1.44,1.44,0,0,1,.06-2,1.26,1.26,0,0,1,1.84.06,8.35,8.35,0,0,0,1.8,1.4,1.42,1.42,0,0,1,.45,1.89A1.3,1.3,0,0,1,36.45,59.46Z"/><path class="cls-3" d="M13.3,37.92,6.88,33h0l-.21-.15a2.91,2.91,0,0,0-4,.69l-.05.09-.07.07a2.87,2.87,0,0,0,.34,4.06l.2.15h0l6.41,4.93,2.61,17.29,1.1-.11L18,59.49,16.25,48l5.24,4,1.06,7,5.89-.62-.86-5.58,5.66-.58-.88-5.82-7,.73-5.24-4,11.61-1.23L31,37.17l-.16-1.09Z"/><rect class="cls-1" width="80" height="80"/></g></g></svg>