<svg xmlns="http://www.w3.org/2000/svg" width="55.57" height="59.059" viewBox="0 0 55.57 59.059">
  <g id="그룹_3382" data-name="그룹 3382" transform="translate(-1708.756 -834.117)">
    <g id="그룹_3223" data-name="그룹 3223" transform="translate(1709.756 862.375)">
      <path id="패스_3123" data-name="패스 3123" d="M727.144,599.878l18.129-12.739a2.822,2.822,0,0,1,3.971.737h0a4.189,4.189,0,0,1-.135,5.038L730.45,615H705.519v-19.51h0a12.823,12.823,0,0,1,12.72-1.49l8.548,2.571v7.388H712.839" transform="translate(-696.633 -586.618)" fill="#fff" stroke="#1f1f1f" stroke-linejoin="round" stroke-width="2"/>
      <rect id="사각형_30143" data-name="사각형 30143" width="8.819" height="22.338" transform="translate(0 7.463)" fill="#ff4d1d" stroke="#1f1f1f" stroke-linejoin="round" stroke-width="2"/>
    </g>
    <g id="그룹_3287" data-name="그룹 3287" transform="translate(1720.266 835.175)">
      <path id="패스_3132" data-name="패스 3132" d="M740.791,580.868l-3.01,1.6a1.9,1.9,0,0,0-.815.845l-1.485,3.057a1.909,1.909,0,0,1-1.974,1.052l-3.384-.462a1.912,1.912,0,0,0-1.159.208l-3.01,1.6a1.914,1.914,0,0,1-2.218-.3l-2.464-2.35a1.9,1.9,0,0,0-1.06-.51l-3.384-.462a1.9,1.9,0,0,1-1.616-1.543l-.6-3.341a1.9,1.9,0,0,0-.555-1.032l-2.465-2.35a1.888,1.888,0,0,1-.4-2.192l1.486-3.056a1.887,1.887,0,0,0,.16-1.16l-.6-3.341a1.893,1.893,0,0,1,.975-2.005l3.01-1.6a1.9,1.9,0,0,0,.815-.844l1.486-3.057a1.905,1.905,0,0,1,1.973-1.051l3.384.461a1.914,1.914,0,0,0,1.158-.207l3.01-1.6a1.913,1.913,0,0,1,2.219.3l2.465,2.35a1.9,1.9,0,0,0,1.06.51l3.383.462a1.9,1.9,0,0,1,1.616,1.543l.6,3.341a1.885,1.885,0,0,0,.556,1.031l2.464,2.351a1.886,1.886,0,0,1,.4,2.192l-1.486,3.056a1.885,1.885,0,0,0-.16,1.159l.6,3.342A1.888,1.888,0,0,1,740.791,580.868Z" transform="translate(-711.001 -557)" fill="#ff4d1d" stroke="#222" stroke-linejoin="round" stroke-width="2"/>
      <g id="그룹_3285" data-name="그룹 3285" transform="translate(10.857 10.287)">
        <g id="그룹_3160" data-name="그룹 3160">
          <line id="선_399" data-name="선 399" y1="10.285" x2="10.285" transform="translate(0.286 0.857)" fill="none" stroke="#fff" stroke-miterlimit="10" stroke-width="3"/>
          <circle id="타원_271" data-name="타원 271" cx="1.429" cy="1.429" r="1.429" fill="#fff"/>
          <circle id="타원_272" data-name="타원 272" cx="1.429" cy="1.429" r="1.429" transform="translate(8 8.571)" fill="#fff"/>
        </g>
      </g>
    </g>
  </g>
</svg>
