<svg xmlns="http://www.w3.org/2000/svg" width="100" height="64" viewBox="0 0 100 64">
  <g id="그룹_3384" data-name="그룹 3384" transform="translate(0 0.207)">
    <g id="그룹_3289" data-name="그룹 3289" transform="translate(19.59 6.934)">
      <rect id="사각형_30144" data-name="사각형 30144" width="32" height="9" rx="2" fill="#fff" stroke="#000" stroke-miterlimit="10" stroke-width="2"/>
      <rect id="사각형_30145" data-name="사각형 30145" width="32" height="9" rx="2" transform="translate(3 10)" fill="#fff" stroke="#000" stroke-miterlimit="10" stroke-width="2"/>
      <rect id="사각형_30146" data-name="사각형 30146" width="41" height="5" rx="2" transform="translate(5 19)" fill="#fff" stroke="#000" stroke-miterlimit="10" stroke-width="2"/>
      <rect id="사각형_30147" data-name="사각형 30147" width="32" height="9" rx="2" transform="translate(0 24)" fill="#fff" stroke="#000" stroke-miterlimit="10" stroke-width="2"/>
      <rect id="사각형_30148" data-name="사각형 30148" width="32" height="9" rx="2" transform="translate(0 34)" fill="#fff" stroke="#000" stroke-miterlimit="10" stroke-width="2"/>
      <rect id="사각형_30149" data-name="사각형 30149" width="32" height="9" rx="2" transform="translate(0 43)" fill="#fff" stroke="#000" stroke-miterlimit="10" stroke-width="2"/>
      <circle id="타원_273" data-name="타원 273" cx="17" cy="17" r="17" transform="translate(26.819 17.385)" fill="#ff4d1d" stroke="#000" stroke-miterlimit="10" stroke-width="2"/>
      <path id="패스_3133" data-name="패스 3133" d="M890.667,556.152a15.2,15.2,0,0,0-3.161-.975,17.19,17.19,0,0,1-2.16-.659,2.831,2.831,0,0,1-1.106-.711,1.455,1.455,0,0,1-.342-1,1.5,1.5,0,0,1,.685-1.344,3.4,3.4,0,0,1,1.9-.474,3.345,3.345,0,0,1,1.844.474,1.787,1.787,0,0,1,.869,1.185.633.633,0,0,0,.632.4h2.081a.448.448,0,0,0,.474-.421.48.48,0,0,0,0-.053,3.494,3.494,0,0,0-.58-1.66,4.882,4.882,0,0,0-1.554-1.5,6.047,6.047,0,0,0-2.45-.843V547.01a.5.5,0,0,0-.471-.527H885.9a.528.528,0,0,0-.369.132.5.5,0,0,0-.158.4v1.528a5.769,5.769,0,0,0-3.4,1.449,3.849,3.849,0,0,0-1.238,2.9,3.559,3.559,0,0,0,1.212,2.9,9.335,9.335,0,0,0,3.794,1.633q1.554.422,2.371.711a3.279,3.279,0,0,1,1.212.685,1.343,1.343,0,0,1,.4,1,1.607,1.607,0,0,1-.79,1.423,4.167,4.167,0,0,1-2.292.527,3.929,3.929,0,0,1-2.134-.5A2.345,2.345,0,0,1,883.477,560a1.015,1.015,0,0,0-.263-.316.715.715,0,0,0-.4,0h-1.973a.473.473,0,0,0-.342.132.449.449,0,0,0-.132.316,3.725,3.725,0,0,0,.632,1.9,4.617,4.617,0,0,0,1.712,1.5,7.073,7.073,0,0,0,2.634.764v1.528a.5.5,0,0,0,.158.4.531.531,0,0,0,.374.121h1.37a.5.5,0,0,0,.527-.472.486.486,0,0,0,0-.055v-1.524a6.532,6.532,0,0,0,3.714-1.423,3.9,3.9,0,0,0,1.37-3.109,3.814,3.814,0,0,0-.553-2.134,4.055,4.055,0,0,0-1.633-1.475Z" transform="translate(-842.795 -522.028)" fill="#fff"/>
    </g>
    <rect id="사각형_30150" data-name="사각형 30150" width="100" height="64" transform="translate(0 -0.207)" fill="none"/>
  </g>
</svg>
