<svg id="img_profile_man_01" xmlns="http://www.w3.org/2000/svg" xmlns:xlink="http://www.w3.org/1999/xlink" width="40" height="54" viewBox="0 0 40 54">
  <defs>
    <clipPath id="clip-path">
      <rect id="사각형_1348" data-name="사각형 1348" width="40" height="54" rx="20" transform="translate(267.665 25.424)" fill="#fff"/>
    </clipPath>
  </defs>
  <rect id="bg" width="40" height="54" rx="20" fill="#d9efff"/>
  <g id="man_01" transform="translate(-267.665 -24.424)">
    <g id="마스크_그룹_79" data-name="마스크 그룹 79" transform="translate(0 -1)" clip-path="url(#clip-path)">
      <g id="그룹_1462" data-name="그룹 1462" transform="translate(-268.98 62.797)">
        <g id="그룹_1442" data-name="그룹 1442" transform="translate(528.593 14.508)">
          <path id="패스_1418" data-name="패스 1418" d="M536.7,36.177c-1.3,2.247-1.139,5.678-1.724,7.985-.491,1.934-1.626,3.643-2.238,5.542-.926,2.875-.639,6.123-2.06,8.786-.869,1.629-2.377,3.456-1.46,5.058a3.2,3.2,0,0,0,1.831,1.3,2.775,2.775,0,0,0,2.5-.121c.824-.6.924-1.767,1.038-2.784.659-5.9,4.076-10.945,6.611-16.157,1.125-2.314,2.9-5.534,2.824-8.19a3.83,3.83,0,0,0-4.753-3.448,4.234,4.234,0,0,0-2.571,2.028" transform="translate(-528.929 -34.013)" fill="#fff"/>
        </g>
        <g id="그룹_1443" data-name="그룹 1443" transform="translate(527.921 13.841)">
          <path id="패스_1419" data-name="패스 1419" d="M532,65.415a4.729,4.729,0,0,1-1.5-.272,3.8,3.8,0,0,1-2.2-1.6c-.94-1.642.056-3.322.936-4.805.18-.3.358-.6.514-.9A14.4,14.4,0,0,0,531,52.974a22.541,22.541,0,0,1,.759-3.809,22.334,22.334,0,0,1,1.067-2.56,16.816,16.816,0,0,0,1.159-2.941,21.852,21.852,0,0,0,.423-2.688,14.5,14.5,0,0,1,1.371-5.468h0a4.918,4.918,0,0,1,2.96-2.333,4.312,4.312,0,0,1,3.758.715,4.378,4.378,0,0,1,1.848,3.352c.076,2.518-1.344,5.377-2.484,7.675-.142.286-.279.561-.407.825-.594,1.221-1.245,2.449-1.874,3.637-2.056,3.882-4.183,7.9-4.675,12.3l-.013.115a4.153,4.153,0,0,1-1.3,3.133A2.655,2.655,0,0,1,532,65.415Zm4.935-29.239a13.378,13.378,0,0,0-1.2,4.955,22.925,22.925,0,0,1-.453,2.859,18.072,18.072,0,0,1-1.244,3.176,20.754,20.754,0,0,0-1,2.405,21.457,21.457,0,0,0-.709,3.586,15.6,15.6,0,0,1-1.4,5.309c-.165.311-.354.629-.545.95-.894,1.508-1.44,2.563-.924,3.464a2.545,2.545,0,0,0,1.466,1,2.25,2.25,0,0,0,1.893-.028c.557-.4.659-1.319.756-2.2l.013-.117c.52-4.658,2.707-8.786,4.822-12.778.623-1.178,1.269-2.4,1.853-3.6.13-.267.268-.546.412-.835,1.075-2.165,2.411-4.859,2.345-7.044a3.04,3.04,0,0,0-1.3-2.315,3,3,0,0,0-2.6-.513,3.583,3.583,0,0,0-2.18,1.723Z" transform="translate(-527.921 -33.011)" fill="#19213f"/>
        </g>
        <g id="그룹_1444" data-name="그룹 1444" transform="translate(565.174 -1.413)">
          <path id="패스_1420" data-name="패스 1420" d="M583.862,10.1c3.621,2.644,5.48,6.913,8.23,10.355a.975.975,0,0,1,.244.447.963.963,0,0,1-.1.489c-.774,1.882-1.962,5.162-3.6,6.449-1.095.861-1.269.611-2.41-.434a10.161,10.161,0,0,1-2.02-2.557" transform="translate(-583.862 -10.105)" fill="#eb3c1e"/>
        </g>
        <g id="그룹_1445" data-name="그룹 1445" transform="translate(564.508 -2.079)">
          <path id="패스_1421" data-name="패스 1421" d="M587.272,28.7c-.566,0-1.037-.4-1.683-.99l-.15-.137a10.805,10.805,0,0,1-2.152-2.725.666.666,0,1,1,1.164-.647,9.48,9.48,0,0,0,1.887,2.389l.152.139a3.726,3.726,0,0,0,.794.64c.02,0,.149-.021.6-.378,1.324-1.04,2.411-3.743,3.132-5.531l.263-.648a1.157,1.157,0,0,0,.06-.172c0,.027-.071-.055-.1-.095-.946-1.183-1.792-2.469-2.611-3.712-1.639-2.488-3.187-4.838-5.493-6.521a.666.666,0,0,1,.786-1.076c2.5,1.826,4.187,4.388,5.82,6.865.8,1.219,1.632,2.478,2.539,3.612a1.363,1.363,0,0,1,.235,1.6l-.259.641c-.82,2.034-1.942,4.821-3.544,6.08A2.433,2.433,0,0,1,587.272,28.7Z" transform="translate(-582.862 -9.105)" fill="#19213f"/>
        </g>
        <g id="그룹_1446" data-name="그룹 1446" transform="translate(534.489 -4.227)">
          <path id="패스_1422" data-name="패스 1422" d="M559.044,5.88c-1.845,0-3.648.986-5.412,1.405a17.492,17.492,0,0,0-5.026,2.091,17.253,17.253,0,0,0-4.359,3.575,23.711,23.711,0,0,0-2.929,4.653,52.762,52.762,0,0,0-3.031,7.569c-.422,1.305-.968,1.917.2,2.72,1.295.888,3.17,1.087,4.661,1.446.875.21,2.733.53,3.3,1.25.637.806.434,3.057.517,4.045a38.782,38.782,0,0,1-.232,9.934,2.447,2.447,0,0,0,.061,1.557,2.318,2.318,0,0,0,1.64.942,37.8,37.8,0,0,0,18.494-.378,4.056,4.056,0,0,0,1.861-.9,4.334,4.334,0,0,0,.837-3.125q.025-7.3.049-14.6c.014-4.052-.17-7.884.884-11.8,2.018-7.49-5.58-10.386-11.519-10.386" transform="translate(-537.784 -5.88)" fill="#eb3c1e"/>
        </g>
        <g id="그룹_1447" data-name="그룹 1447" transform="translate(533.826 -4.893)">
          <path id="패스_1423" data-name="패스 1423" d="M556.6,48.368a38.282,38.282,0,0,1-8.648-.988,2.96,2.96,0,0,1-2.079-1.28,3.045,3.045,0,0,1-.129-1.982,37.36,37.36,0,0,0,.224-9.763c-.023-.268-.026-.624-.029-1.019a6.407,6.407,0,0,0-.346-2.668,6.249,6.249,0,0,0-2.513-.92c-.156-.035-.3-.067-.423-.1-.332-.079-.683-.151-1.043-.224a10.483,10.483,0,0,1-3.84-1.32c-1.391-.956-1.01-1.973-.672-2.871.069-.183.143-.382.215-.6a52.883,52.883,0,0,1,3.069-7.662,24.02,24.02,0,0,1,3.013-4.781,17.7,17.7,0,0,1,4.528-3.72A18.244,18.244,0,0,1,553.146,6.3c.594-.141,1.195-.352,1.832-.573a11.414,11.414,0,0,1,3.734-.85c3.745,0,8.616,1.135,11.056,4.319a7.581,7.581,0,0,1,1.105,6.906,36.907,36.907,0,0,0-.863,9.957c0,.552,0,1.108,0,1.667l-.05,14.6a4.843,4.843,0,0,1-1.03,3.592A4.622,4.622,0,0,1,566.776,47,38.321,38.321,0,0,1,556.6,48.368Zm2.108-42.156a10.292,10.292,0,0,0-3.295.775,20.17,20.17,0,0,1-1.963.611,16.747,16.747,0,0,0-4.837,2.014,16.357,16.357,0,0,0-4.191,3.432,22.82,22.82,0,0,0-2.846,4.524,51.714,51.714,0,0,0-2.993,7.476c-.078.241-.16.459-.235.66-.333.887-.353.94.18,1.305a9.389,9.389,0,0,0,3.352,1.113c.376.077.742.152,1.088.235.118.028.254.059.4.092,1.386.309,2.678.648,3.267,1.392.615.778.625,2.217.634,3.486,0,.356,0,.676.023.916a38.612,38.612,0,0,1-.238,10.1,2.027,2.027,0,0,0-.006,1.133c.172.325.7.487,1.2.6a37.058,37.058,0,0,0,18.167-.371,3.538,3.538,0,0,0,1.566-.729,3.833,3.833,0,0,0,.643-2.658l.05-14.6c0-.557,0-1.11,0-1.659a37.953,37.953,0,0,1,.908-10.308,6.315,6.315,0,0,0-.876-5.749C566.564,7.207,561.982,6.212,558.712,6.212Z" transform="translate(-536.789 -4.88)" fill="#19213f"/>
        </g>
        <g id="그룹_1448" data-name="그룹 1448" transform="translate(552.361 -5.279)">
          <path id="패스_1424" data-name="패스 1424" d="M564.63,4.3a20.913,20.913,0,0,0,.168,3.279,6.114,6.114,0,0,0,.835,2.652c.743,1.109,2.4,2.319,3.788,2.1a3.439,3.439,0,0,0,1.412-.653c2.491-1.761,3.121-3.782,2.659-6.714" transform="translate(-564.622 -4.3)" fill="#fff"/>
        </g>
        <g id="그룹_1449" data-name="그룹 1449" transform="translate(551.695 -5.945)">
          <path id="패스_1425" data-name="패스 1425" d="M568.749,12.687a5.5,5.5,0,0,1-4-2.42,6.744,6.744,0,0,1-.942-2.937,21.622,21.622,0,0,1-.174-3.383.666.666,0,0,1,1.332.036,20.334,20.334,0,0,0,.162,3.175,5.573,5.573,0,0,0,.729,2.367c.661.987,2.115,1.974,3.131,1.811a2.751,2.751,0,0,0,1.131-.538c2.164-1.53,2.832-3.231,2.385-6.067a.666.666,0,0,1,1.317-.208c.525,3.335-.352,5.537-2.933,7.361a4.073,4.073,0,0,1-1.691.767A2.823,2.823,0,0,1,568.749,12.687Z" transform="translate(-563.622 -3.3)" fill="#19213f"/>
        </g>
        <g id="그룹_1450" data-name="그룹 1450" transform="translate(543.099 -0.17)">
          <path id="패스_1426" data-name="패스 1426" d="M553.59,18.78a.666.666,0,0,1-.659-.575c-.278-2.038-.639-3.958-1.973-5.052a.666.666,0,1,1,.844-1.03c1.705,1.4,2.145,3.683,2.449,5.9a.666.666,0,0,1-.569.751A.707.707,0,0,1,553.59,18.78Zm10.54-.9a6.5,6.5,0,0,1-2.624-.547.666.666,0,1,1,.539-1.217,5.221,5.221,0,0,0,4.25-.036.666.666,0,0,1,.561,1.209A6.5,6.5,0,0,1,564.13,17.875Z" transform="translate(-550.714 -11.972)" fill="#19213f"/>
        </g>
        <g id="그룹_1451" data-name="그룹 1451" transform="translate(547.74 -17.624)">
          <path id="패스_1427" data-name="패스 1427" d="M562.516-12.465c-1.748.451-4.239.97-4.687,2.921A10.705,10.705,0,0,0,558.3-4.43c1.331,4.273,8.788,9.178,12.919,5.974,1.588-1.231,1.615-2.68,1.634-4.448.034-3.222,2.3-6.65,1.31-9.9-.514-1.692-2.2-1.57-3.627-1.207-1.777.455-3.6.483-5.373.923-.749.185-1.68.376-2.645.625" transform="translate(-557.683 14.238)" fill="#fff"/>
        </g>
        <g id="그룹_1452" data-name="그룹 1452" transform="translate(547.075 -18.281)">
          <path id="패스_1428" data-name="패스 1428" d="M567.686,2.907a8.64,8.64,0,0,1-2.58-.421c-3.469-1.091-6.886-4.186-7.777-7.048a11.629,11.629,0,0,1-.482-5.461c.511-2.232,3.022-2.87,4.855-3.336l.314-.08h0c.573-.149,1.134-.276,1.653-.394.357-.081.693-.158,1-.233a24.477,24.477,0,0,1,2.711-.463,22.433,22.433,0,0,0,2.656-.458c3.007-.768,4.071.477,4.43,1.658.645,2.124.045,4.244-.535,6.294a15.071,15.071,0,0,0-.747,3.808c-.019,1.815-.038,3.53-1.892,4.967A5.773,5.773,0,0,1,567.686,2.907Zm-5.337-15.057-.319.082c-1.584.4-3.555.9-3.885,2.343a9.962,9.962,0,0,0,.456,4.767c.776,2.489,3.808,5.2,6.905,6.174a5.38,5.38,0,0,0,4.97-.527c1.345-1.043,1.359-2.254,1.376-3.929a16.259,16.259,0,0,1,.8-4.157c.552-1.951,1.073-3.794.542-5.545-.206-.677-.7-1.3-2.825-.755a23.661,23.661,0,0,1-2.812.489,22.915,22.915,0,0,0-2.565.436c-.314.077-.659.155-1.024.238-.507.115-1.055.24-1.615.384Z" transform="translate(-556.683 15.224)" fill="#19213f"/>
        </g>
        <g id="그룹_1453" data-name="그룹 1453" transform="translate(546.557 -11.734)">
          <path id="패스_1429" data-name="패스 1429" d="M560.589-3.98c-.78-.489-1.563-1.568-2.532-1.394-.929.167-1.673,1.424-1.962,2.226-.762,2.122.877,4.207,3.187,3.151" transform="translate(-555.906 5.393)" fill="#fff"/>
        </g>
        <g id="그룹_1454" data-name="그룹 1454" transform="translate(545.892 -12.4)">
          <path id="패스_1430" data-name="패스 1430" d="M557.745.615A2.718,2.718,0,0,1,555.877-.1a3.333,3.333,0,0,1-.742-3.607c.316-.878,1.191-2.426,2.471-2.656a2.976,2.976,0,0,1,2.389,1,5.848,5.848,0,0,0,.615.481.666.666,0,0,1,.21.918.665.665,0,0,1-.918.21,6.932,6.932,0,0,1-.769-.593c-.451-.383-.92-.777-1.292-.71-.533.1-1.169,1.006-1.452,1.8a2.011,2.011,0,0,0,.39,2.177,1.651,1.651,0,0,0,1.894.143.666.666,0,0,1,.882.33.666.666,0,0,1-.328.882A3.576,3.576,0,0,1,557.745.615Z" transform="translate(-554.907 6.394)" fill="#19213f"/>
        </g>
        <g id="그룹_1455" data-name="그룹 1455" transform="translate(556.041 -5.2)">
          <path id="패스_1431" data-name="패스 1431" d="M571.754,5.8c-.334,0-.668-.011-.99-.035a.666.666,0,0,1,.1-1.329,12.413,12.413,0,0,0,1.947-.013.666.666,0,1,1,.117,1.327C572.551,5.78,572.152,5.8,571.754,5.8Z" transform="translate(-570.147 -4.418)" fill="#19213f"/>
        </g>
        <g id="그룹_1456" data-name="그룹 1456" transform="translate(546.995 -23.706)">
          <path id="패스_1432" data-name="패스 1432" d="M557.1-17a9.683,9.683,0,0,1,5.32-5.53,6.886,6.886,0,0,1,7.452.543c1.312.874,3.438,3.177,2.789,4.914-.476,1.276-2.722,1.848-3.878,2.175-2.382.672-4.548,1.609-6.858,2.421-1.175.414-4.108.9-5.076-.116-.616-.65-.083-3.061.086-3.8.047-.206.1-.406.164-.6" transform="translate(-556.564 23.372)" fill="#eb3c1e"/>
        </g>
        <g id="그룹_1457" data-name="그룹 1457" transform="translate(546.328 -24.373)">
          <path id="패스_1433" data-name="패스 1433" d="M558.605-11.651a3.516,3.516,0,0,1-2.57-.816c-.6-.638-.629-2-.08-4.41.051-.225.111-.442.178-.655h0a10.268,10.268,0,0,1,5.664-5.927,7.54,7.54,0,0,1,8.112.589c1.352.9,3.873,3.479,3.043,5.7-.571,1.532-2.81,2.16-4.148,2.535l-.172.048c-1.542.435-2.967.974-4.476,1.544-.774.292-1.55.585-2.342.864A11.051,11.051,0,0,1,558.605-11.651Zm-1.2-5.481c-.057.18-.107.364-.15.553-.613,2.69-.264,3.18-.249,3.2.61.642,3.035.412,4.368-.058.783-.275,1.549-.565,2.313-.853,1.468-.555,2.987-1.129,4.584-1.58l.175-.049c.95-.266,2.925-.82,3.26-1.718.485-1.3-1.363-3.346-2.535-4.127a6.243,6.243,0,0,0-6.792-.5,9.159,9.159,0,0,0-4.976,5.13Z" transform="translate(-555.562 24.373)" fill="#19213f"/>
        </g>
        <g id="그룹_1458" data-name="그룹 1458" transform="translate(552.715 -22.894)">
          <path id="패스_1434" data-name="패스 1434" d="M569.17-8.219a.657.657,0,0,1-.212-.035.666.666,0,0,1-.42-.842l.121-.364a.664.664,0,0,1,.843-.42.665.665,0,0,1,.419.842l-.121.364A.666.666,0,0,1,569.17-8.219Zm4.573-.122A.666.666,0,0,1,573.077-9a.948.948,0,0,1,.383-.776.666.666,0,0,1,.933.127.667.667,0,0,1-.005.814.668.668,0,0,1-.64.5Zm-7.822-8.238A.666.666,0,0,1,565.3-17c-.514-1.278.35-4.428,1.64-5.082a.665.665,0,0,1,.9.292.666.666,0,0,1-.292.9c-.608.308-1.305,2.658-1.008,3.4a.666.666,0,0,1-.369.866A.666.666,0,0,1,565.921-16.579ZM572.3-18.76a.666.666,0,0,1-.6-.386,4.534,4.534,0,0,0-1.111-1.326c-.192-.18-.386-.36-.57-.552a.667.667,0,0,1,.018-.942.667.667,0,0,1,.942.019c.167.174.343.338.517.5a5.623,5.623,0,0,1,1.412,1.74.667.667,0,0,1-.323.884A.671.671,0,0,1,572.3-18.76Z" transform="translate(-565.153 22.152)" fill="#19213f"/>
        </g>
        <g id="그룹_1459" data-name="그룹 1459" transform="translate(551.941 -17.937)">
          <path id="패스_1435" data-name="패스 1435" d="M566.25-12.674c-.739.467-2.271,1.884-2.259,2.8.021,1.606,2.6,1.022,3.691,1.021,2.635,0,5.307-.082,7.933-.182,1.386-.053,4.123-.34,4.6-1.96,1.108-3.739-6.784-3.938-8.861-3.6a14.72,14.72,0,0,0-5.106,1.923" transform="translate(-563.991 14.708)" fill="#fff"/>
        </g>
        <g id="그룹_1460" data-name="그룹 1460" transform="translate(551.274 -18.601)">
          <path id="패스_1436" data-name="패스 1436" d="M565.475-8.41a2.87,2.87,0,0,1-1.964-.562,1.632,1.632,0,0,1-.521-1.221c-.018-1.429,2.055-3.051,2.57-3.376a15.443,15.443,0,0,1,5.356-2.017c1.437-.231,7.131-.347,9.084,1.875a2.606,2.606,0,0,1,.521,2.576c-.438,1.48-2.242,2.323-5.217,2.437-2.185.084-5.064.18-7.957.183-.192,0-.433.021-.7.042C566.277-8.444,565.874-8.41,565.475-8.41Zm7.349-5.967a11.536,11.536,0,0,0-1.7.105,14.032,14.032,0,0,0-4.856,1.828h0c-.82.519-1.956,1.741-1.949,2.234,0,.178.059.228.085.253.332.3,1.46.211,2.134.156.306-.025.584-.047.805-.047,2.871,0,5.734-.1,7.908-.182,2.249-.086,3.741-.641,3.99-1.484A1.284,1.284,0,0,0,579-12.833C577.977-14,574.961-14.377,572.824-14.377Zm-6.908,1.37h0Z" transform="translate(-562.99 15.705)" fill="#19213f"/>
        </g>
        <g id="그룹_1461" data-name="그룹 1461" transform="translate(543.253 13.899)">
          <path id="패스_1437" data-name="패스 1437" d="M556.24,53.776a.664.664,0,0,1-.583-.344,17.6,17.6,0,0,1-1.685-5.962,18.563,18.563,0,0,0-1.187-4.793A.666.666,0,0,1,554,42.13a19.85,19.85,0,0,1,1.289,5.133,16.363,16.363,0,0,0,1.535,5.525.666.666,0,0,1-.583.988Zm-4.629-13.992a.666.666,0,0,1-.366-1.222c.647-.426.834-1.518,1.017-2.576a6.522,6.522,0,0,1,.82-2.6.666.666,0,0,1,1.093.762,5.7,5.7,0,0,0-.6,2.067c-.22,1.275-.469,2.719-1.6,3.462A.664.664,0,0,1,551.611,39.784Z" transform="translate(-550.945 -33.099)" fill="#19213f"/>
        </g>
      </g>
    </g>
  </g>
</svg>
