<svg xmlns="http://www.w3.org/2000/svg" width="60" height="60" viewBox="0 0 60 60">
  <g id="그룹_46" data-name="그룹 46" transform="translate(-3321.313 -960)">
    <rect id="사각형_38" data-name="사각형 38" width="60" height="60" transform="translate(3321.313 960)" fill="#fff"/>
    <g id="그룹_31" data-name="그룹 31">
      <g id="그룹_29" data-name="그룹 29">
        <g id="그룹_27" data-name="그룹 27">
          <path id="패스_24" data-name="패스 24" d="M3346.127,981.487l-5.585-12.978h6.324l8.707,12.978Z" fill="#fff"/>
          <path id="패스_25" data-name="패스 25" d="M3357.448,982.487h-11.98l-6.445-14.977h8.376Zm-10.663-2h6.913l-7.366-10.977h-4.272Z" fill="#222"/>
        </g>
        <g id="그룹_28" data-name="그룹 28">
          <path id="패스_26" data-name="패스 26" d="M3328.3,979.926h38.686a4.147,4.147,0,0,1,4.5,4.5c0,4.849-4.417,4.33-4.417,4.33h-12.544l-7.181,11.334h-6.4l4.888-11.334H3328.3" fill="#fff"/>
          <path id="패스_27" data-name="패스 27" d="M3347.9,1001.093h-8.473l4.889-11.333H3328.3v-2h19.055l-4.889,11.333h4.332l7.181-11.333,13.21.006a3.443,3.443,0,0,0,2.385-.707,3.386,3.386,0,0,0,.916-2.629,3.513,3.513,0,0,0-.934-2.673,3.723,3.723,0,0,0-2.5-.834l-38.758,0v-2h38.687a5.674,5.674,0,0,1,3.918,1.353,5.4,5.4,0,0,1,1.585,4.151,5.265,5.265,0,0,1-1.6,4.133,5.431,5.431,0,0,1-3.866,1.2h-11.949Z" fill="#222"/>
        </g>
      </g>
      <g id="그룹_30" data-name="그룹 30">
        <circle id="타원_3" data-name="타원 3" cx="9.251" cy="9.251" r="9.251" transform="translate(3353.833 990.007)" fill="#1b2b45"/>
        <path id="패스_28" data-name="패스 28" d="M3363.083,1009.51a10.251,10.251,0,1,1,10.252-10.252A10.263,10.263,0,0,1,3363.083,1009.51Zm0-18.5a8.251,8.251,0,1,0,8.252,8.251A8.26,8.26,0,0,0,3363.083,991.007Z" fill="#222"/>
      </g>
      <path id="패스_29" data-name="패스 29" d="M3365.986,1003.506l-3.516-4.018v-6.072h1.228v5.61l3.212,3.671Z" fill="#fff"/>
    </g>
  </g>
</svg>
