<svg xmlns="http://www.w3.org/2000/svg" width="60" height="60" viewBox="0 0 60 60">
  <g id="그룹_47" data-name="그룹 47" transform="translate(-3020.313 -960)">
    <rect id="사각형_37" data-name="사각형 37" width="60" height="60" transform="translate(3020.313 960)" fill="#fff"/>
    <g id="그룹_18" data-name="그룹 18">
      <g id="그룹_16" data-name="그룹 16">
        <g id="그룹_13" data-name="그룹 13">
          <line id="선_6" data-name="선 6" y2="8.391" transform="translate(3050.187 1003.706)" fill="#fff"/>
          <rect id="사각형_11" data-name="사각형 11" width="2" height="8.392" transform="translate(3049.187 1003.706)" fill="#222"/>
        </g>
        <g id="그룹_14" data-name="그룹 14">
          <path id="패스_11" data-name="패스 11" d="M3071.753,1006.159H3028.62a3.716,3.716,0,0,1-3.705-3.706V975.8a3.716,3.716,0,0,1,3.705-3.705h43.133a3.716,3.716,0,0,1,3.705,3.705v26.651A3.716,3.716,0,0,1,3071.753,1006.159Z" fill="#fff"/>
          <path id="패스_12" data-name="패스 12" d="M3071.752,1007.159h-43.131a4.711,4.711,0,0,1-4.706-4.706V975.8a4.71,4.71,0,0,1,4.706-4.7h43.131a4.71,4.71,0,0,1,4.706,4.7v26.65A4.711,4.711,0,0,1,3071.752,1007.159ZM3028.621,973.1a2.708,2.708,0,0,0-2.706,2.7v26.65a2.709,2.709,0,0,0,2.706,2.706h43.131a2.708,2.708,0,0,0,2.706-2.706V975.8a2.708,2.708,0,0,0-2.706-2.7Z" fill="#222"/>
        </g>
        <g id="그룹_15" data-name="그룹 15">
          <line id="선_7" data-name="선 7" x2="17.682" transform="translate(3041.345 1012.097)" fill="#fff"/>
          <rect id="사각형_12" data-name="사각형 12" width="17.683" height="2" transform="translate(3041.345 1011.098)" fill="#222"/>
        </g>
      </g>
      <g id="그룹_17" data-name="그룹 17">
        <circle id="타원_1" data-name="타원 1" cx="10.157" cy="10.157" r="10.157" transform="translate(3040.029 978.971)" fill="#1b2b45"/>
        <path id="패스_13" data-name="패스 13" d="M3050.187,1000.285a11.157,11.157,0,1,1,11.157-11.157A11.17,11.17,0,0,1,3050.187,1000.285Zm0-20.314a9.157,9.157,0,1,0,9.157,9.157A9.168,9.168,0,0,0,3050.187,979.971Z" fill="#222"/>
      </g>
      <path id="패스_14" data-name="패스 14" d="M3049.614,993.176a.741.741,0,0,1-.524-.217l-3.37-3.371a.741.741,0,0,1,1.048-1.048l2.846,2.847,5.656-5.656a.741.741,0,0,1,1.047,1.048l-6.179,6.18A.74.74,0,0,1,3049.614,993.176Z" fill="#fff"/>
    </g>
  </g>
</svg>
