<svg xmlns="http://www.w3.org/2000/svg" width="100.1" height="100.1" viewBox="0 0 100.1 100.1">
  <g id="ico_nav_2-3" transform="translate(0.05 0.05)">
    <rect id="사각형_30123" data-name="사각형 30123" width="100" height="100" transform="translate(0 100) rotate(-90)" fill="none" stroke="red" stroke-miterlimit="10" stroke-width="0.1" opacity="0"/>
    <path id="패스_3088" data-name="패스 3088" d="M76.223,85.1" transform="translate(-26.49 -33.328)" fill="none" stroke="#222" stroke-miterlimit="10" stroke-width="2"/>
    <g id="그룹_898" data-name="그룹 898" transform="translate(73.326 21.5) rotate(90)">
      <path id="패스_821" data-name="패스 821" d="M81.521,135.024v11.849l-15.037,5.78v-8Z" transform="translate(-66.484 -112.407)" fill="none" stroke="#222" stroke-miterlimit="10" stroke-width="2"/>
      <path id="패스_822" data-name="패스 822" d="M84.885,177.888V159.8l15.042,5.78v-7.994l-15.042-9.631V131.324a5.985,5.985,0,0,0-5.983-5.985h0a5.985,5.985,0,0,0-5.983,5.985v52.341" transform="translate(-57.891 -125.339)" fill="none" stroke="#222" stroke-miterlimit="10" stroke-width="2"/>
    </g>
    <g id="그룹_3168" data-name="그룹 3168" transform="translate(-1024.473 -607.444)">
      <ellipse id="타원_260" data-name="타원 260" cx="15.223" cy="15.223" rx="15.223" ry="15.223" transform="translate(1075.473 661.444)" fill="#ff4d1d" stroke="#222" stroke-miterlimit="10" stroke-width="2"/>
      <path id="패스_3096" data-name="패스 3096" d="M1096.121,683.121l-6.339-6.339v-8.965" transform="translate(0.713 0.077)" fill="none" stroke="#fff" stroke-miterlimit="10" stroke-width="2"/>
    </g>
  </g>
</svg>
