<svg xmlns="http://www.w3.org/2000/svg" width="60" height="60" viewBox="0 0 60 60">
  <g id="그룹_48" data-name="그룹 48" transform="translate(-2751.313 -960)">
    <rect id="사각형_36" data-name="사각형 36" width="60" height="60" transform="translate(2751.313 960)" fill="#fff"/>
    <g id="그룹_26" data-name="그룹 26">
      <g id="그룹_19" data-name="그룹 19">
        <rect id="사각형_13" data-name="사각형 13" width="39.942" height="26.011" rx="5" transform="translate(2755.093 973.612)" fill="#fff"/>
        <path id="패스_15" data-name="패스 15" d="M2790.035,1000.623h-29.943a6.007,6.007,0,0,1-6-6v-16.01a6.007,6.007,0,0,1,6-6h29.943a6.007,6.007,0,0,1,6,6v16.01A6.007,6.007,0,0,1,2790.035,1000.623Zm-29.943-26.01a4,4,0,0,0-4,4v16.01a4,4,0,0,0,4,4h29.943a4,4,0,0,0,4-4v-16.01a4,4,0,0,0-4-4Z" fill="#222"/>
      </g>
      <g id="그룹_20" data-name="그룹 20">
        <rect id="사각형_14" data-name="사각형 14" width="12.744" height="26.011" rx="5" transform="translate(2795.035 973.612)" fill="#1b2b45"/>
        <path id="패스_16" data-name="패스 16" d="M2802.779,1000.623h-2.744a6.006,6.006,0,0,1-6-6v-16.01a6.006,6.006,0,0,1,6-6h2.744a6.007,6.007,0,0,1,6,6v16.01A6.007,6.007,0,0,1,2802.779,1000.623Zm-2.744-26.01a4,4,0,0,0-4,4v16.01a4,4,0,0,0,4,4h2.744a4,4,0,0,0,4-4v-16.01a4,4,0,0,0-4-4Z" fill="#222"/>
      </g>
      <g id="그룹_23" data-name="그룹 23">
        <g id="그룹_21" data-name="그룹 21">
          <path id="패스_17" data-name="패스 17" d="M2772.647,985.308l-2.6-6.039h2.943l4.051,6.039Z" fill="#fff"/>
          <path id="패스_18" data-name="패스 18" d="M2778.917,986.308h-6.928l-3.46-8.038h4.995Zm-5.612-2h1.862l-2.71-4.038h-.889Z" fill="#222"/>
        </g>
        <g id="그룹_22" data-name="그룹 22">
          <path id="패스_19" data-name="패스 19" d="M2764.353,984.582h18a1.929,1.929,0,0,1,2.095,2.1,1.824,1.824,0,0,1-2.055,2.015h-5.837l-3.341,5.274h-2.979l2.274-5.274h-8.159" fill="#fff"/>
          <path id="패스_20" data-name="패스 20" d="M2773.766,994.966h-5.049l2.275-5.273h-6.639v-2h9.68l-2.275,5.273h.908l3.342-5.273,6.5.006h0a1.078,1.078,0,0,0,.693-.2,1.164,1.164,0,0,0,.246-.824.917.917,0,0,0-1.032-1.1l-18.065,0v-2h18a3.151,3.151,0,0,1,2.185.772,3.023,3.023,0,0,1,.91,2.323,2.958,2.958,0,0,1-.923,2.323,3.03,3.03,0,0,1-2.175.693h-5.244Z" fill="#222"/>
        </g>
      </g>
      <g id="그룹_25" data-name="그룹 25">
        <g id="그룹_24" data-name="그룹 24">
          <circle id="타원_2" data-name="타원 2" cx="10.172" cy="10.172" r="10.172" transform="translate(2784.414 990.675)" fill="#fff"/>
          <path id="패스_21" data-name="패스 21" d="M2794.584,1012.014a11.169,11.169,0,0,1-.138-22.338,10.975,10.975,0,0,1,7.94,3.173h0a11.167,11.167,0,0,1-7.8,19.165Zm.005-20.339h-.118a9.113,9.113,0,1,0,.118,0Z" fill="#222"/>
        </g>
        <path id="패스_22" data-name="패스 22" d="M2807.675,1014.613a.994.994,0,0,1-.7-.285l-5.807-5.663a1,1,0,0,1,1.4-1.431l5.806,5.663a1,1,0,0,1-.7,1.716Z" fill="#222"/>
      </g>
      <path id="패스_23" data-name="패스 23" d="M2798.583,998.152a1,1,0,0,1-.861-.491,3.4,3.4,0,0,0-3.472-1.616,1,1,0,0,1-.391-1.961,5.38,5.38,0,0,1,5.584,2.558,1,1,0,0,1-.86,1.51Z" fill="#222"/>
    </g>
  </g>
</svg>
