<svg xmlns="http://www.w3.org/2000/svg" width="100.098" height="100.098" viewBox="0 0 100.098 100.098">
  <g id="ico_nav_3-3" transform="translate(0.05 0.05)">
    <g id="그룹_3161" data-name="그룹 3161" transform="translate(10 10)">
      <rect id="사각형_30123" data-name="사각형 30123" width="99.999" height="99.999" transform="translate(-10 89.999) rotate(-90)" fill="none" stroke="red" stroke-miterlimit="10" stroke-width="0.1" opacity="0"/>
      <path id="패스_3088" data-name="패스 3088" d="M76.223,85.1" transform="translate(-36.576 -40.996)" fill="none" stroke="#222" stroke-miterlimit="10" stroke-width="2"/>
      <g id="그룹_3332" data-name="그룹 3332" transform="translate(-1445 -2005)">
        <g id="그룹_3334" data-name="그룹 3334" transform="translate(5.895 3.25)">
          <g id="그룹_3333" data-name="그룹 3333" transform="translate(1439.446 2034.707)">
            <path id="패스_3125" data-name="패스 3125" d="M67.223,89.484V82.346a4.984,4.984,0,0,1,4.968-5h54.063a4.984,4.984,0,0,1,4.968,5v25.013a4.986,4.986,0,0,1-4.968,5H72.191a4.986,4.986,0,0,1-4.968-5v-7.138a2.269,2.269,0,0,1,1.335-2.114,3.532,3.532,0,0,0,0-6.51A2.269,2.269,0,0,1,67.223,89.484Z" transform="translate(-67.223 -77.344)" fill="#fff" stroke="#222" stroke-miterlimit="10" stroke-width="2"/>
            <path id="패스_3183" data-name="패스 3183" d="M807.865,683.461h-5.249l-8.22-7.877-.519.5-2.247,2.153,5.455,5.227H792.8l-3.319-3.167-2.765,2.65,3.9,3.718a2,2,0,0,0,1.379.546h15.873a1.875,1.875,0,1,0,0-3.747Z" transform="translate(-762.615 -664.442)" fill="#ff4d00" stroke="#222" stroke-width="2"/>
          </g>
          <path id="패스_3184" data-name="패스 3184" d="M0,0V34.622" transform="translate(1452.158 2035.377)" fill="none" stroke="#222" stroke-width="2" stroke-dasharray="5"/>
        </g>
        <g id="그룹_3332-2" data-name="그룹 3332" transform="translate(285.709 274.05)">
          <g id="그룹_3329" data-name="그룹 3329" transform="translate(1205.459 1764.078)">
            <path id="패스_3128" data-name="패스 3128" d="M7.2,18.314,5.236,13.078,0,11.115,11.115,0l7.2,7.2Z" transform="translate(0 0)" fill="#fff" stroke="#222" stroke-miterlimit="10" stroke-width="2"/>
            <path id="패스_3129" data-name="패스 3129" d="M11.115,18.314l1.963-5.236,5.236-1.963L7.2,0,0,7.2Z" transform="translate(17.639 0)" fill="#fff" stroke="#222" stroke-miterlimit="10" stroke-width="2"/>
          </g>
          <g id="그룹_3328" data-name="그룹 3328" transform="translate(1204.616 1740.923)">
            <path id="패스_3182" data-name="패스 3182" d="M30.562,24.485,27.474,26.13a1.948,1.948,0,0,0-.836.866l-1.525,3.136a1.956,1.956,0,0,1-2.025,1.079l-3.471-.473a1.963,1.963,0,0,0-1.189.213L15.34,32.6a1.963,1.963,0,0,1-2.276-.31l-2.528-2.411a1.96,1.96,0,0,0-1.087-.523l-3.471-.473A1.949,1.949,0,0,1,4.32,27.3L3.7,23.869a1.94,1.94,0,0,0-.571-1.058L.6,20.4a1.934,1.934,0,0,1-.407-2.248L1.72,15.016a1.933,1.933,0,0,0,.164-1.19L1.265,10.4a1.939,1.939,0,0,1,1-2.056L5.353,6.7a1.948,1.948,0,0,0,.836-.867L7.714,2.694A1.956,1.956,0,0,1,9.739,1.615l3.471.473A1.962,1.962,0,0,0,14.4,1.876L17.486.231a1.962,1.962,0,0,1,2.276.31L22.29,2.952a1.957,1.957,0,0,0,1.087.523l3.471.473a1.949,1.949,0,0,1,1.658,1.581l.62,3.428a1.941,1.941,0,0,0,.57,1.058l2.528,2.411a1.934,1.934,0,0,1,.407,2.248l-1.525,3.136A1.934,1.934,0,0,0,30.942,19l.62,3.428A1.939,1.939,0,0,1,30.562,24.485Z" transform="matrix(0.985, 0.174, -0.174, 0.985, 5.7, 0)" fill="#ff4d1d" stroke="#222" stroke-linejoin="round" stroke-width="2"/>
            <text id="P" transform="translate(19.712 27.228)" fill="#fff" font-size="21" font-family="NotoSansCJKkr-Black, Noto Sans CJK KR" font-weight="800" letter-spacing="-0.02em"><tspan x="-7.214" y="0">P</tspan></text>
          </g>
        </g>
      </g>
    </g>
  </g>
</svg>
