<svg id="ico_nav_4-1" xmlns="http://www.w3.org/2000/svg" width="44" height="44" viewBox="0 0 44 44">
  <rect id="사각형_30145" data-name="사각형 30145" width="44" height="44" fill="#fff"/>
  <g id="그룹_3262" data-name="그룹 3262" transform="translate(-285.098 -156.896)">
    <path id="패스_3163" data-name="패스 3163" d="M301.821,179.222l-7.072-12.248a4.476,4.476,0,0,0-6.115-1.639h0A4.477,4.477,0,0,0,287,171.45l11.548,20.012h15.324a6.124,6.124,0,0,0,6.122-6.122h0a6.122,6.122,0,0,0-6.125-6.122Z" transform="translate(0)" fill="#fff" stroke="#222" stroke-miterlimit="10" stroke-width="2"/>
    <path id="패스_3164" data-name="패스 3164" d="M314.742,182.153l3.818,7.439a.337.337,0,0,1-.3.491H298.347" transform="translate(-1.742 9.309)" fill="none" stroke="#222" stroke-miterlimit="10" stroke-width="2"/>
    <line id="선_429" data-name="선 429" x2="20.006" transform="translate(291.476 179.214)" fill="none" stroke="#222" stroke-miterlimit="10" stroke-width="2"/>
  </g>
  <g id="그룹_3282" data-name="그룹 3282" transform="translate(-1451.682 -170.129)">
    <g id="그룹_3276" data-name="그룹 3276" transform="translate(1476.664 173.11)">
      <g id="그룹_3284" data-name="그룹 3284">
        <circle id="타원_276" data-name="타원 276" cx="8.018" cy="8.018" r="8.018" fill="#ff4d1d" stroke="#222" stroke-miterlimit="10" stroke-width="2"/>
        <g id="그룹_3283" data-name="그룹 3283" transform="translate(4.009 4.009)">
          <line id="선_434" data-name="선 434" y1="8.018" transform="translate(4.009)" fill="none" stroke="#fff" stroke-width="2"/>
          <line id="선_435" data-name="선 435" y1="8.018" transform="translate(8.018 4.009) rotate(90)" fill="none" stroke="#fff" stroke-width="2"/>
        </g>
      </g>
    </g>
  </g>
</svg>
