<svg xmlns="http://www.w3.org/2000/svg" width="100.098" height="100.098" viewBox="0 0 100.098 100.098">
  <g id="ico_nav_2-1" transform="translate(0.05 0.05)">
    <g id="그룹_3161" data-name="그룹 3161" transform="translate(10 10)">
      <rect id="사각형_30123" data-name="사각형 30123" width="99.999" height="99.999" transform="translate(-10 89.999) rotate(-90)" fill="none" stroke="red" stroke-miterlimit="10" stroke-width="0.1" opacity="0"/>
      <path id="패스_3088" data-name="패스 3088" d="M76.223,85.1" transform="translate(-36.576 -40.996)" fill="none" stroke="#222" stroke-miterlimit="10" stroke-width="2"/>
      <g id="그룹_3158" data-name="그룹 3158" transform="translate(-4.545 33.818)">
        <path id="패스_3090" data-name="패스 3090" d="M76.223,85.1" transform="translate(-45.546 -65.155)" fill="none" stroke="#111" stroke-miterlimit="10" stroke-width="4"/>
        <g id="그룹_3248" data-name="그룹 3248" transform="translate(4.416 -18.249)">
          <path id="패스_3088-2" data-name="패스 3088" d="M76.223,85.1" transform="translate(-35.9 -60.972)" fill="none" stroke="#222" stroke-miterlimit="10" stroke-width="2"/>
          <g id="그룹_3243" data-name="그룹 3243" transform="translate(0 0)">
            <path id="패스_3145" data-name="패스 3145" d="M671.966-5.2h-12.06a1.819,1.819,0,0,0-1.7,1.082,2.835,2.835,0,0,1-2.619,1.75,2.832,2.832,0,0,1-2.618-1.75,1.821,1.821,0,0,0-1.7-1.082H602.628A5.506,5.506,0,0,0,597.121.309v30.1a5.507,5.507,0,0,0,5.507,5.507h48.641a1.823,1.823,0,0,0,1.7-1.082,2.833,2.833,0,0,1,5.237,0,1.823,1.823,0,0,0,1.7,1.082h12.06a5.507,5.507,0,0,0,5.507-5.507V.309A5.506,5.506,0,0,0,671.966-5.2Z" transform="translate(-597.121 5.654)" fill="#fff"/>
            <path id="패스_3143" data-name="패스 3143" d="M671.966-5.2h-8.59a1.819,1.819,0,0,0-1.7,1.082,2.835,2.835,0,0,1-2.619,1.75,2.832,2.832,0,0,1-2.618-1.75,1.821,1.821,0,0,0-1.7-1.082H602.628A5.506,5.506,0,0,0,597.121.309v30.1a5.507,5.507,0,0,0,5.507,5.507h52.111a1.823,1.823,0,0,0,1.7-1.082,2.833,2.833,0,0,1,5.237,0,1.823,1.823,0,0,0,1.7,1.082h8.59a5.507,5.507,0,0,0,5.507-5.507V.309A5.506,5.506,0,0,0,671.966-5.2Z" transform="translate(-597.121 5.654)" fill="#fff"/>
            <path id="패스_3144" data-name="패스 3144" d="M4,3.654,7.775,0H17.887a3.654,3.654,0,0,1,3.654,3.654v33.8a3.654,3.654,0,0,1-3.654,3.654H7.083L4,38.785Z" transform="translate(57.937)" fill="#ff4d1d"/>
            <path id="패스_3142" data-name="패스 3142" d="M671.966-5.2h-8.59a1.819,1.819,0,0,0-1.7,1.082,2.835,2.835,0,0,1-2.619,1.75,2.832,2.832,0,0,1-2.618-1.75,1.821,1.821,0,0,0-1.7-1.082H602.628A5.506,5.506,0,0,0,597.121.309v30.1a5.507,5.507,0,0,0,5.507,5.507h52.111a1.823,1.823,0,0,0,1.7-1.082,2.833,2.833,0,0,1,5.237,0,1.823,1.823,0,0,0,1.7,1.082h8.59a5.507,5.507,0,0,0,5.507-5.507V.309A5.506,5.506,0,0,0,671.966-5.2Z" transform="translate(-597.121 5.654)" fill="none" stroke="#222" stroke-linejoin="bevel" stroke-miterlimit="10" stroke-width="2"/>
            <g id="그룹_898" data-name="그룹 898" transform="translate(47.794 10.049) rotate(90)">
              <path id="패스_821" data-name="패스 821" d="M8.106,0V6.388L0,9.5V5.193Z" transform="translate(0 12.193)" fill="#fff" stroke="#222" stroke-miterlimit="10" stroke-width="2"/>
              <path id="패스_822" data-name="패스 822" d="M6.451,28.329V18.579L14.56,21.7V17.386L6.451,12.194V3.227A3.226,3.226,0,0,0,3.225,0h0A3.226,3.226,0,0,0,0,3.227V31.443" transform="translate(8.101 0)" fill="#fff" stroke="#222" stroke-miterlimit="10" stroke-width="2"/>
            </g>
            <line id="선_425" data-name="선 425" y2="35.628" transform="translate(61.937 3.197)" fill="none" stroke="#222" stroke-width="2"/>
          </g>
        </g>
        <path id="패스_3091" data-name="패스 3091" d="M76.223,85.1" transform="translate(-45.546 -65.155)" fill="none" stroke="#111" stroke-miterlimit="10" stroke-width="4"/>
        <g id="그룹_3224" data-name="그룹 3224" transform="translate(46.448 8.127)">
          <path id="패스_3094" data-name="패스 3094" d="M146.789,148.29l-9.476-9.476-.087-.087" transform="translate(-107.768 -108.163)" fill="none" stroke="#222" stroke-miterlimit="10" stroke-width="2"/>
          <ellipse id="타원_258" data-name="타원 258" cx="17" cy="18" rx="17" ry="18" transform="translate(0.098 -0.447)" fill="#fff" stroke="#222" stroke-miterlimit="10" stroke-width="1.974"/>
          <path id="패스_3093" data-name="패스 3093" d="M131.914,131.773a10.677,10.677,0,0,1,9.582,2.087" transform="translate(-118.339 -122.732)" fill="none" stroke="#222" stroke-miterlimit="10" stroke-width="1.5"/>
        </g>
      </g>
    </g>
  </g>
</svg>
