<svg id="ico_nav_4-6" xmlns="http://www.w3.org/2000/svg" width="44" height="44" viewBox="0 0 44 44">
  <rect id="사각형_30145" data-name="사각형 30145" width="44" height="44" fill="#fff"/>
  <g id="그룹_3272" data-name="그룹 3272" transform="translate(-1 -11)">
    <g id="그룹_3255" data-name="그룹 3255" transform="translate(-521.705 -338.184)">
      <circle id="타원_273" data-name="타원 273" cx="4.369" cy="4.369" r="4.369" transform="translate(545.036 354.689)" fill="none" stroke="#1f1f1f" stroke-miterlimit="10" stroke-width="2"/>
      <path id="패스_3149" data-name="패스 3149" d="M537.743,394.922V382.828A11.662,11.662,0,0,1,549.4,371.166h0a11.662,11.662,0,0,1,11.662,11.662v12.094" transform="translate(0 -4.205)" fill="#ff4d1d"/>
      <path id="패스_3147" data-name="패스 3147" d="M543.648,373.73l4.368,5.783,4.368-5.783" transform="translate(1.389 -5.86)" fill="#fff" stroke="#1f1f1f" stroke-miterlimit="10" stroke-width="2"/>
      <path id="패스_3148" data-name="패스 3148" d="M547.587,353.237a3.559,3.559,0,0,1,3.559-3.559h0a3.56,3.56,0,0,1,3.559,3.559h0a9.412,9.412,0,0,1-7.118,0Z" transform="translate(-1.741 2)" fill="#ff4d1d" stroke="#1f1f1f" stroke-miterlimit="10" stroke-width="2"/>
      <path id="패스_3150" data-name="패스 3150" d="M537.743,394.922V382.828A11.662,11.662,0,0,1,549.4,371.166h0a11.662,11.662,0,0,1,11.662,11.662v12.094" transform="translate(0 -4.205)" fill="none" stroke="#1f1f1f" stroke-miterlimit="10" stroke-width="2"/>
    </g>
    <path id="패스_3169" data-name="패스 3169" d="M13.885,92.1c0-6.261-6.132-6.577-6.132-6.577h-3.6" transform="translate(2.152 -50.506)" fill="none" stroke="#1f1f1f" stroke-miterlimit="10" stroke-width="2"/>
    <path id="패스_3170" data-name="패스 3170" d="M1113.26,140.711v2.974a2.186,2.186,0,0,0,2.186,2.186h0a2.185,2.185,0,0,0,2.186-2.186v-2.974Z" transform="translate(-1105.26 -113.411)" fill="none" stroke="#000" stroke-miterlimit="10" stroke-width="2"/>
  </g>
</svg>
