<svg xmlns="http://www.w3.org/2000/svg" width="100.1" height="100.1" viewBox="0 0 100.1 100.1">
  <g id="ico_nav_5-2" transform="translate(0.05 0.05)">
    <g id="그룹_3159" data-name="그룹 3159" transform="translate(-62.64 -56.92)">
      <rect id="사각형_30123" data-name="사각형 30123" width="100" height="100" transform="translate(62.64 156.92) rotate(-90)" fill="none" stroke="red" stroke-miterlimit="10" stroke-width="0.1" opacity="0"/>
      <path id="패스_3088" data-name="패스 3088" d="M76.223,85.1" transform="translate(35.178 43.06)" fill="none" stroke="#222" stroke-miterlimit="10" stroke-width="2"/>
    </g>
    <g id="그룹_3179" data-name="그룹 3179" transform="translate(-103.382 -189.457)">
      <path id="패스_3099" data-name="패스 3099" d="M141.266,218.035h2.977a8.239,8.239,0,0,1,8.239,8.242h0a8.239,8.239,0,0,1-8.239,8.239h-2.977" transform="translate(27.974 15.819)" fill="#ff4d1d"/>
      <path id="패스_3097" data-name="패스 3097" d="M141.266,218.035h2.977a8.239,8.239,0,0,1,8.239,8.242h0a8.239,8.239,0,0,1-8.239,8.239h-2.977" transform="translate(27.974 15.819)" fill="none" stroke="#222" stroke-miterlimit="10" stroke-width="2"/>
      <path id="패스_3100" data-name="패스 3100" d="M0,0H2.977a8.239,8.239,0,0,1,8.239,8.242h0a8.239,8.239,0,0,1-8.239,8.239H0" transform="translate(136.624 250.335) rotate(180)" fill="#ff4d1d"/>
      <path id="패스_3098" data-name="패스 3098" d="M136.45,233.9h-2.957a8.19,8.19,0,0,0-8.183,8.2h0a8.19,8.19,0,0,0,8.183,8.194h2.9v-24.75A16.534,16.534,0,0,1,152.914,209h0a16.53,16.53,0,0,1,16.52,16.542v27.466A16.573,16.573,0,0,1,152.873,269.6h0" transform="translate(0 0)" fill="none" stroke="#222" stroke-miterlimit="10" stroke-width="2"/>
    </g>
  </g>
</svg>
