<svg xmlns="http://www.w3.org/2000/svg" xmlns:xlink="http://www.w3.org/1999/xlink" width="202" height="202" viewBox="0 0 202 202">
  <defs>
    <clipPath id="clip-path">
      <rect id="mask" width="202" height="202" transform="translate(0 0.02)" fill="#fff" stroke="#707070" stroke-width="1"/>
    </clipPath>
  </defs>
  <g id="illust_15_service_03" transform="translate(0 -0.02)" clip-path="url(#clip-path)">
    <g id="illust_15_service_03-2" data-name="illust_15_service_03" transform="translate(38.657 28.86)">
      <path id="패스_2018" data-name="패스 2018" d="M110.838,17.053c-1.166,1.47-3.329,3.15-4.948,3.4m-2.475-8.04c-.691,1.153-2.336,3.062-2.782,3.711M96,9.633a8.671,8.671,0,0,0-1.547,3.4M88.264,8.086c.01,1.664-.407,3.271-.309,4.947m-11.443-.619c.769,1.281,1.335,2.752,2.784,3.094m-9.587,4.019c1.055,1.319,3.283,2.141,4.948,2.473m13.3,20.1c.431-2.216-2.443-8.42-3.442-11.322,1.949,1.765,2.237-.417,3.587-.414,1.737,0,3.136,2.038,4.716.343a4.026,4.026,0,0,0,2.45.859c-1.515,2.188-5.361,9.876-3.911,11.153m-4.948,5.874c1.417,1.462,4.192,1.219,5.876.309M86.1,44.259a16.077,16.077,0,0,0,7.113,0M84.5,41.552c-.8-1.418-2.208-2.348-3.271-3.7-5.173-6.579.791-17.983,9.524-17.026a11.651,11.651,0,0,1,9.717,9.271c1.175,6.3-4.276,8.351-6.173,13.447-.776,2.081-.189,4.153-.534,6.281-.644,3.978-3.489,5.828-6.427,3.312-3.8-3.255-1.058-6.609-2.465-10.762a4.838,4.838,0,0,0-.371-.823" transform="translate(26.551 -8.086)" fill="#cfe1d6"/>
      <path id="패스_2019" data-name="패스 2019" d="M110.838,17.053c-1.166,1.47-3.329,3.15-4.948,3.4m-2.475-8.04c-.691,1.153-2.336,3.062-2.782,3.711M96,9.633a8.671,8.671,0,0,0-1.547,3.4M88.264,8.086c.01,1.664-.407,3.271-.309,4.947m-11.443-.619c.769,1.281,1.335,2.752,2.784,3.094m-9.587,4.019c1.055,1.319,3.283,2.141,4.948,2.473m13.3,20.1c.431-2.216-2.443-8.42-3.442-11.322,1.949,1.765,2.237-.417,3.587-.414,1.737,0,3.136,2.038,4.716.343a4.026,4.026,0,0,0,2.45.859c-1.515,2.188-5.361,9.876-3.911,11.153m-4.948,5.874c1.417,1.462,4.192,1.219,5.876.309M86.1,44.259a16.077,16.077,0,0,0,7.113,0M84.5,41.552c-.8-1.418-2.208-2.348-3.271-3.7-5.173-6.579.791-17.983,9.524-17.026a11.651,11.651,0,0,1,9.717,9.271c1.175,6.3-4.276,8.351-6.173,13.447-.776,2.081-.189,4.153-.534,6.281-.644,3.978-3.489,5.828-6.427,3.312-3.8-3.255-1.058-6.609-2.465-10.762A4.838,4.838,0,0,0,84.5,41.552Z" transform="translate(26.551 -8.086)" fill="none" stroke="#19213f" stroke-linecap="round" stroke-linejoin="round" stroke-width="2"/>
      <path id="패스_2020" data-name="패스 2020" d="M82.995,44.25c-7.276-.893-14.592-2.113-21.9-2.688-6.724-.528-6.589,5.15-8.648,10.325-1.606,4.036-2.685,8.182-4.76,12.032-2.367,4.39-7.035,9.7-7.973,14.522,3.706,1.73,7.771,2.408,11.672,3.543,3.329.967,6.27,2.8,9.583,3.664a23.018,23.018,0,0,0,3.722.39s15.723-32.694,18.3-41.786" transform="translate(16.15 8.172)" fill="#aaa09c"/>
      <path id="패스_2021" data-name="패스 2021" d="M82.995,44.25c-7.276-.893-14.592-2.113-21.9-2.688-6.724-.528-6.589,5.15-8.648,10.325-1.606,4.036-2.685,8.182-4.76,12.032-2.367,4.39-7.035,9.7-7.973,14.522,3.706,1.73,7.771,2.408,11.672,3.543,3.329.967,6.27,2.8,9.583,3.664a23.018,23.018,0,0,0,3.722.39S80.415,53.342,82.995,44.25Z" transform="translate(16.15 8.172)" fill="none" stroke="#19213f" stroke-linecap="round" stroke-linejoin="round" stroke-width="2"/>
      <path id="패스_2022" data-name="패스 2022" d="M9.636,152.5c6.108,11.237-.413,21.5,2.5,32.922a99.35,99.35,0,0,1,2.711,19.908c.317,6.926.307,13.755-1.114,20.6-.655,3.156-2.472,8.061-1.2,11.2,2.336,5.75,14.375,3.83,18.883,1.752,7.066-3.258-3.534-5.613-5.258-9.222-2.216-4.642-1.079-11.67-.543-16.5,1.573-14.154,3.012-28.739,2.31-42.993-.221-4.47.333-8.9.328-13.362-.006-6.711.785-14.874-8.766-14.75-6.416.085-11.628,6.986-8.889,12.994" transform="translate(2.825 52.71)" fill="#fff"/>
      <path id="패스_2023" data-name="패스 2023" d="M9.636,152.5c6.108,11.237-.413,21.5,2.5,32.922a99.35,99.35,0,0,1,2.711,19.908c.317,6.926.307,13.755-1.114,20.6-.655,3.156-2.472,8.061-1.2,11.2,2.336,5.75,14.375,3.83,18.883,1.752,7.066-3.258-3.534-5.613-5.258-9.222-2.216-4.642-1.079-11.67-.543-16.5,1.573-14.154,3.012-28.739,2.31-42.993-.221-4.47.333-8.9.328-13.362-.006-6.711.785-14.874-8.766-14.75-6.416.085-11.628,6.986-8.889,12.994" transform="translate(2.825 52.71)" fill="none" stroke="#19213f" stroke-linecap="round" stroke-linejoin="round" stroke-width="2"/>
      <path id="패스_2024" data-name="패스 2024" d="M55.436,75.843c1.013-3.212-1.2-7.087.566-10.216,2.035-3.61,2.186-.54,4.1.7,3.866,2.509,5.062-2.762,8.541-4.557,4.587-2.365,3.045,3.18,1.765,5.859-1.374,2.874-1.059,10.1-3.7,11.677-1.98,1.179-11.059-2.369-10.622-5.074" transform="translate(23.051 16.886)" fill="#fff"/>
      <path id="패스_2025" data-name="패스 2025" d="M55.436,75.843c1.013-3.212-1.2-7.087.566-10.216,2.035-3.61,2.186-.54,4.1.7,3.866,2.509,5.062-2.762,8.541-4.557,4.587-2.365,3.045,3.18,1.765,5.859-1.374,2.874-1.059,10.1-3.7,11.677-1.98,1.179-11.059-2.369-10.622-5.074" transform="translate(23.051 16.886)" fill="none" stroke="#19213f" stroke-linecap="round" stroke-linejoin="round" stroke-width="2"/>
      <path id="패스_2026" data-name="패스 2026" d="M21.784,206.4c2.436.771,3.661.053,6.009-.417,2.24-.45,11.434.066,11.414,3.574-.025,3.885-12.113,4.632-14.739,5.388-3.658,1.052-4.346,3.372-8.444,2.683-3.333-.56-6.235-1.489-6.394-5.209-.38-8.9,5.681-8.069,12.154-6.019" transform="translate(2.814 80.617)" fill="#eb3c1e"/>
      <path id="패스_2027" data-name="패스 2027" d="M21.784,206.4c2.436.771,3.661.053,6.009-.417,2.24-.45,11.434.066,11.414,3.574-.025,3.885-12.113,4.632-14.739,5.388-3.658,1.052-4.346,3.372-8.444,2.683-3.333-.56-6.235-1.489-6.394-5.209C9.25,203.526,15.31,204.353,21.784,206.4Z" transform="translate(2.814 80.617)" fill="none" stroke="#19213f" stroke-linecap="round" stroke-linejoin="round" stroke-width="2"/>
      <path id="패스_2028" data-name="패스 2028" d="M53.179,79.572A8.132,8.132,0,0,1,64.255,72.09c4.266,1.668,7.551,11.684,1.479,9.423" transform="translate(22.115 21.454)" fill="#fff"/>
      <path id="패스_2029" data-name="패스 2029" d="M53.179,79.572A8.132,8.132,0,0,1,64.255,72.09c4.266,1.668,7.551,11.684,1.479,9.423" transform="translate(22.115 21.454)" fill="none" stroke="#19213f" stroke-linecap="round" stroke-linejoin="round" stroke-width="2"/>
      <path id="패스_2030" data-name="패스 2030" d="M28.207,36.389c2.778-4.967,7.644-16.118,13.443-8.784,2.237,2.83,2.351,7.838,2.861,11.219.378,2.491,1.909,3.958,2.548,6.165a22.728,22.728,0,0,1-.253,10.569c-1.009,3.048-2.433,5.632-5.245,7.123-2.521,1.338-4.434,2.255-5.418,5.006-.59,1.652-.052,3.091-1.423,4.2-1.437,1.162-5.27.965-7,.9A16.5,16.5,0,0,1,21.1,71.291c-4.457-2.241-4.345-7.257-4.277-11.667.072-4.73.823-9.73,3.115-13.935,1.892-3.469,5.28-4.872,7.405-7.885.26-.368.548-.851.864-1.416" transform="translate(6 0.928)" fill="#fff"/>
      <path id="패스_2031" data-name="패스 2031" d="M28.207,36.389c2.778-4.967,7.644-16.118,13.443-8.784,2.237,2.83,2.351,7.838,2.861,11.219.378,2.491,1.909,3.958,2.548,6.165a22.728,22.728,0,0,1-.253,10.569c-1.009,3.048-2.433,5.632-5.245,7.123-2.521,1.338-4.434,2.255-5.418,5.006-.59,1.652-.052,3.091-1.423,4.2-1.437,1.162-5.27.965-7,.9A16.5,16.5,0,0,1,21.1,71.291c-4.457-2.241-4.345-7.257-4.277-11.667.072-4.73.823-9.73,3.115-13.935,1.892-3.469,5.28-4.872,7.405-7.885C27.6,37.437,27.891,36.953,28.207,36.389Z" transform="translate(6 0.928)" fill="none" stroke="#19213f" stroke-linecap="round" stroke-linejoin="round" stroke-width="2"/>
      <path id="패스_2032" data-name="패스 2032" d="M21.359,154.495c6.108,11.238-.413,21.5,2.5,32.922a99.35,99.35,0,0,1,2.711,19.906c.317,6.926.307,13.755-1.114,20.6-.655,3.154-2.472,8.059-1.2,11.2,2.336,5.747,14.375,3.828,18.883,1.75,7.066-3.258-3.534-5.613-5.258-9.224-2.216-4.641-1.079-11.668-.543-16.5,1.573-14.154,3.012-28.74,2.31-42.993-.221-4.47.333-8.9.328-13.364-.007-6.71.785-14.873-8.766-14.747-6.416.084-11.628,6.984-8.889,12.994" transform="translate(8.018 53.592)" fill="#fff"/>
      <path id="패스_2033" data-name="패스 2033" d="M21.359,154.495c6.108,11.238-.413,21.5,2.5,32.922a99.35,99.35,0,0,1,2.711,19.906c.317,6.926.307,13.755-1.114,20.6-.655,3.154-2.472,8.059-1.2,11.2,2.336,5.747,14.375,3.828,18.883,1.75,7.066-3.258-3.534-5.613-5.258-9.224-2.216-4.641-1.079-11.668-.543-16.5,1.573-14.154,3.012-28.74,2.31-42.993-.221-4.47.333-8.9.328-13.364-.007-6.71.785-14.873-8.766-14.747-6.416.084-11.628,6.984-8.889,12.994" transform="translate(8.018 53.592)" fill="none" stroke="#19213f" stroke-linecap="round" stroke-linejoin="round" stroke-width="2"/>
      <path id="패스_2034" data-name="패스 2034" d="M33.508,208.394c2.436.771,3.661.053,6.009-.418,2.24-.449,11.434.068,11.414,3.576-.025,3.883-12.113,4.632-14.739,5.387-3.658,1.053-4.346,3.374-8.444,2.684-3.333-.56-6.235-1.489-6.394-5.209-.381-8.9,5.68-8.069,12.154-6.019" transform="translate(8.008 81.499)" fill="#eb3c1e"/>
      <path id="패스_2035" data-name="패스 2035" d="M33.508,208.394c2.436.771,3.661.053,6.009-.418,2.24-.449,11.434.068,11.414,3.576-.025,3.883-12.113,4.632-14.739,5.387-3.658,1.053-4.346,3.374-8.444,2.684-3.333-.56-6.235-1.489-6.394-5.209C20.972,205.517,27.033,206.344,33.508,208.394Z" transform="translate(8.008 81.499)" fill="none" stroke="#19213f" stroke-linecap="round" stroke-linejoin="round" stroke-width="2"/>
      <path id="패스_2036" data-name="패스 2036" d="M26.005,161.234c.245.789,1.414,1.013,2.688.758" transform="translate(10.076 61.202)" fill="none" stroke="#19213f" stroke-linecap="round" stroke-linejoin="round" stroke-width="2"/>
      <path id="패스_2037" data-name="패스 2037" d="M8.287,115.076a27.8,27.8,0,0,0-2.633,10.9,48.052,48.052,0,0,0,.856,10.042,88.044,88.044,0,0,1,.7,24.3C6.7,164.445,3.26,173.99,7.023,176.9c2.232,1.726,7.642,2.3,10.421,2.949a140.307,140.307,0,0,0,15.18,2.361c6.541.786,11.009-.185,16.973-2.089,6.9-2.2,9.986-4.1,9.631-11.805-.494-10.723-2.322-21.25-3.544-31.906-1.113-9.7.8-20.621-7.54-27.564-6.942-5.779-17.593-6.879-26.175-4.476-6.693,1.872-11.134,5.58-13.683,10.71" transform="translate(0.897 35.481)" fill="#ff5800"/>
      <path id="패스_2038" data-name="패스 2038" d="M8.287,115.076a27.8,27.8,0,0,0-2.633,10.9,48.052,48.052,0,0,0,.856,10.042,88.044,88.044,0,0,1,.7,24.3C6.7,164.445,3.26,173.99,7.023,176.9c2.232,1.726,7.642,2.3,10.421,2.949a140.307,140.307,0,0,0,15.18,2.361c6.541.786,11.009-.185,16.973-2.089,6.9-2.2,9.986-4.1,9.631-11.805-.494-10.723-2.322-21.25-3.544-31.906-1.113-9.7.8-20.621-7.54-27.564-6.942-5.779-17.593-6.879-26.175-4.476C15.277,106.238,10.836,109.946,8.287,115.076Z" transform="translate(0.897 35.481)" fill="none" stroke="#19213f" stroke-linecap="round" stroke-linejoin="round" stroke-width="2"/>
      <path id="패스_2039" data-name="패스 2039" d="M16.17,119.847c2.739-4.921,2.035-8.341-.072-13.42-2.3-5.551-4.537-11.1-7.382-16.414C5.741,84.46,2.744,79.183,1.472,72.926-3.378,49.085,30.518,55.11,43.835,58.011c4.175.909,7.094,1.683,10.566,4.466,6.4,5.136,5.75,15.746,5.75,23.292,0,10.058-8.38,16.929-8.317,26.877.04,6.431,3.105,12.014,4.922,18.058,2.013,6.69,1.915,11.508-5.179,13.916-9.988,3.388-21.872,5.338-32.134,2.019-3.913-1.266-11.065-4.557-11.556-9.316-.242-2.359,1.684-4.765,2.7-6.74,1.85-3.59,3.616-7.2,5.582-10.736" transform="translate(-1.001 14.202)" fill="#6a657a"/>
      <path id="패스_2040" data-name="패스 2040" d="M16.17,119.847c2.739-4.921,2.035-8.341-.072-13.42-2.3-5.551-4.537-11.1-7.382-16.414C5.741,84.46,2.744,79.183,1.472,72.926-3.378,49.085,30.518,55.11,43.835,58.011c4.175.909,7.094,1.683,10.566,4.466,6.4,5.136,5.75,15.746,5.75,23.292,0,10.058-8.38,16.929-8.317,26.877.04,6.431,3.105,12.014,4.922,18.058,2.013,6.69,1.915,11.508-5.179,13.916-9.988,3.388-21.872,5.338-32.134,2.019-3.913-1.266-11.065-4.557-11.556-9.316-.242-2.359,1.684-4.765,2.7-6.74C12.438,126.993,14.2,123.378,16.17,119.847Z" transform="translate(-1.001 14.202)" fill="none" stroke="#19213f" stroke-linecap="round" stroke-linejoin="round" stroke-width="2"/>
      <path id="패스_2041" data-name="패스 2041" d="M48.383,38.567a15.462,15.462,0,0,1-6.156,8.781c-2.27,1.514-5.02,2.657-5.613,5.85-.5,2.7,1.276,5.808,1.631,8.472A11.449,11.449,0,0,1,29.4,74.4c-1.739.413-4.9-.354-6.1,1.4-1.179,1.721.6,5.81,1.023,7.649,1.365,5.906,2.877,11.823,2.913,17.924.014,2.53.087,3.391-2.214,4.429-2.245,1.013-5.636.276-8.13.57-2.717.32-6.1,1.177-8.678-.188-3.131-1.655-.619-6.789.4-9.893,2.247-6.84,7.442-15.619,6.583-23.048-.635-5.5-8.491-2.944-9.88-8.19-.73-2.765,1.479-6.084,2.017-8.82.626-3.189.137-6.348.407-9.582.541-6.472,1.779-13.156,6.4-18.088,3.3-3.527,8.192-5.043,12.355-7.254,7.195-3.824,18.573-1.879,21.544,6.287a18.113,18.113,0,0,1,.339,10.97" transform="translate(0.85 -1.62)" fill="#aaa09c"/>
      <path id="패스_2042" data-name="패스 2042" d="M48.383,38.567a15.462,15.462,0,0,1-6.156,8.781c-2.27,1.514-5.02,2.657-5.613,5.85-.5,2.7,1.276,5.808,1.631,8.472A11.449,11.449,0,0,1,29.4,74.4c-1.739.413-4.9-.354-6.1,1.4-1.179,1.721.6,5.81,1.023,7.649,1.365,5.906,2.877,11.823,2.913,17.924.014,2.53.087,3.391-2.214,4.429-2.245,1.013-5.636.276-8.13.57-2.717.32-6.1,1.177-8.678-.188-3.131-1.655-.619-6.789.4-9.893,2.247-6.84,7.442-15.619,6.583-23.048-.635-5.5-8.491-2.944-9.88-8.19-.73-2.765,1.479-6.084,2.017-8.82.626-3.189.137-6.348.407-9.582.541-6.472,1.779-13.156,6.4-18.088,3.3-3.527,8.192-5.043,12.355-7.254,7.195-3.824,18.573-1.879,21.544,6.287A18.113,18.113,0,0,1,48.383,38.567Z" transform="translate(0.85 -1.62)" fill="none" stroke="#19213f" stroke-linecap="round" stroke-linejoin="round" stroke-width="2"/>
      <path id="패스_2043" data-name="패스 2043" d="M20.808,103.384c-.072,3.853.749,7.671.965,11.508m-3.86,7.994c2.823.007,6.042,1.922,8.687,1.278m-9.33-76.41a15.972,15.972,0,0,1,.322-7.671M12.442,54.469c-2.039-2.322-2.805-6.309-.965-8.951m9.974,10.229c5.593.766,3.763-9.231,6.114-11.508m-14.479,17.9c2.825-1.3,6.535.007,9.009,1.6m-8.043,2.237c1.935-.039,4.283,1.293,5.791,0M18.556,81.325c0,3.76.557,7.864-.322,11.509M15.017,77.488c-.27,4.765-2.195,9.416-3.218,14.068" transform="translate(3.179 7.532)" fill="none" stroke="#19213f" stroke-linecap="round" stroke-linejoin="round" stroke-width="2"/>
      <path id="패스_2044" data-name="패스 2044" d="M29.985,77.561c-2.446,4.556,1.085,13.6,4.156,17.274,5.195,6.206,8.006,12.342,11.18,19.95,2.025,4.847,4.417,8.245,10.055,7.566A14.279,14.279,0,0,0,66.522,114.3c2.72-5.276,3.5-11.214,5.56-16.716,1.325-3.535,5.323-8.935,1.848-12.42-7.768-7.789-12.675,7.483-14.95,11.882-.683,1.317-1.394,3.737-3.081,3.261-2.638-.745-3.04-12.885-3.418-14.912-.872-4.683-1.582-9.724-3.28-14.206-1.219-3.219-2.7-7.45-5.434-9.805a5.222,5.222,0,0,0-8.659,4.659" transform="translate(11.477 16.374)" fill="#6a657a"/>
      <path id="패스_2045" data-name="패스 2045" d="M29.985,77.561c-2.446,4.556,1.085,13.6,4.156,17.274,5.195,6.206,8.006,12.342,11.18,19.95,2.025,4.847,4.417,8.245,10.055,7.566A14.279,14.279,0,0,0,66.522,114.3c2.72-5.276,3.5-11.214,5.56-16.716,1.325-3.535,5.323-8.935,1.848-12.42-7.768-7.789-12.675,7.483-14.95,11.882-.683,1.317-1.394,3.737-3.081,3.261-2.638-.745-3.04-12.885-3.418-14.912-.872-4.683-1.582-9.724-3.28-14.206-1.219-3.219-2.7-7.45-5.434-9.805a5.222,5.222,0,0,0-8.659,4.659" transform="translate(11.477 16.374)" fill="none" stroke="#19213f" stroke-linecap="round" stroke-linejoin="round" stroke-width="2"/>
      <path id="패스_2046" data-name="패스 2046" d="M14.594,208.546c.232.667,1.343.854,2.558.638m10.836-28.341c-.235,4.514-.418,9.442-.32,14.058m-14.082-27.8c2.113,1.76,11.747,2.437,15.042,1.6M64.471,63.911c2,.608,4.9,1.279,6.722.958M67.673,55.6c1.644.394,5.654,1.186,7.68,2.238m-4.8-9.586a22.99,22.99,0,0,0,8.32,1.6m-16.32,56.231a8.454,8.454,0,0,1,3.359,1.431c1.143.975,1.654,3.56,2.4,3.68" transform="translate(4.574 11.152)" fill="none" stroke="#19213f" stroke-linecap="round" stroke-linejoin="round" stroke-width="2"/>
    </g>
  </g>
</svg>
