<svg xmlns="http://www.w3.org/2000/svg" width="107.015" height="130.531" viewBox="0 0 107.015 130.531">
  <g id="그룹_41" data-name="그룹 41" transform="translate(-2627.608 -414.203)">
    <path id="패스_48" data-name="패스 48" d="M2629.86,510.7c-.335.984-2.819,3.449-.611,3.8,1.7.266,3.257-1.7,4.219-2.829,1.106-1.3.475-2.338-1.083-1.333a2.2,2.2,0,0,1-2.525.366" fill="#e95019"/>
    <path id="패스_49" data-name="패스 49" d="M2629.576,515.257a2.767,2.767,0,0,1-.441-.035,1.686,1.686,0,0,1-1.4-.919c-.415-.936.3-2.025.929-2.986a5.939,5.939,0,0,0,.505-.853.735.735,0,0,1,.4-.435.726.726,0,0,1,.59,0c.806.352,1.044.2,1.832-.311,1.513-.975,2.27-.321,2.466-.1.531.606.364,1.6-.424,2.524l-.158.186C2632.867,513.513,2631.39,515.257,2629.576,515.257Zm-.5-1.552c.022,0,.106.038.283.066,1.2.182,2.569-1.426,3.386-2.391l.16-.189a2.067,2.067,0,0,0,.313-.469,2.375,2.375,0,0,0-.439.23,2.97,2.97,0,0,1-2.56.649c-.1.165-.214.338-.334.521a4.993,4.993,0,0,0-.812,1.583Zm0,.017h0Z" fill="#15284c"/>
    <path id="패스_50" data-name="패스 50" d="M2654.243,487.463c-1.086,1.118-3.7,5.43-5.379,4.131-.888-.689-1.07-2.484-1.294-3.487-.544-2.45-1.169-5.509-4.408-4.674-4.307,1.11-1.6,7.473-.273,9.879.826,1.5,2.1,3.8,3.715,4.6,4.348,2.146,7.025-5.736,9.753-7.409.705-.434,1.522-.227,2-.9.679-.959-.013-3.15-1.065-3.659-1.3-.628-2.272.726-3.051,1.529" fill="#fff"/>
    <path id="패스_51" data-name="패스 51" d="M2648.1,499.021a4.074,4.074,0,0,1-1.817-.455c-1.833-.9-3.157-3.309-4.034-4.9-.526-.956-3.088-5.876-1.791-8.881a3.546,3.546,0,0,1,2.525-2.063,3.642,3.642,0,0,1,2.9.294c1.525.936,1.982,3,2.386,4.82l.024.111c.041.181.08.388.122.608a4.814,4.814,0,0,0,.905,2.459c.732.569,2.631-1.865,3.443-2.9.372-.476.694-.887.959-1.16h0c.095-.1.193-.2.294-.315.741-.8,1.98-2.147,3.6-1.364a3.541,3.541,0,0,1,1.614,2.286,2.994,2.994,0,0,1-.269,2.459,2.338,2.338,0,0,1-1.547.882,2.2,2.2,0,0,0-.67.225,12.148,12.148,0,0,0-2.6,2.989C2652.54,496.344,2650.614,499.02,2648.1,499.021Zm-3.919-14.994a3.357,3.357,0,0,0-.831.117,2.12,2.12,0,0,0-1.543,1.224c-.85,1.97.687,5.7,1.729,7.589.74,1.343,1.978,3.591,3.4,4.292,2.158,1.063,3.858-.984,6.024-3.994a12.845,12.845,0,0,1,3.02-3.384,3.537,3.537,0,0,1,1.111-.4c.411-.093.564-.14.676-.3a1.674,1.674,0,0,0,.045-1.243,2.141,2.141,0,0,0-.831-1.33c-.549-.265-1.025.106-1.883,1.037-.111.12-.217.235-.321.342h0c-.21.217-.509.6-.856,1.042-1.439,1.84-3.615,4.622-5.5,3.159-.954-.74-1.24-2.246-1.449-3.345-.038-.2-.074-.395-.112-.563l-.025-.113c-.34-1.535-.726-3.276-1.719-3.885A1.738,1.738,0,0,0,2644.177,484.027Z" fill="#15284c"/>
    <path id="패스_52" data-name="패스 52" d="M2633.691,484.2c1.152-2.68,4.67-1.584,6.339-.155,1.241,1.064,1.066,2.168.6,3.736-1.056,3.545-3.82,6.559-4.691,10.106-.516,2.1-.452,4.211-.788,6.339-.266,1.679-.372,3.827-1.257,5.316-.422.712-3.335,3.439-3.918,2.01-.484-1.186.934-2.11,1.078-3.207a20.243,20.243,0,0,0-.444-3.765,28.766,28.766,0,0,1-.185-5.382c.235-2.354.821-4.722,1.259-7.046a38.335,38.335,0,0,1,2.008-7.952" fill="#fff"/>
    <path id="패스_53" data-name="패스 53" d="M2630.57,512.7c-.038,0-.075,0-.112-.005a1.33,1.33,0,0,1-1.163-.86,2.76,2.76,0,0,1,.556-2.616,2.826,2.826,0,0,0,.474-.965,8.165,8.165,0,0,0-.227-2.2c-.093-.5-.181-.966-.22-1.4l-.043-.464a26.5,26.5,0,0,1-.142-5.058,50.883,50.883,0,0,1,.87-5.117c.137-.666.274-1.33.4-1.991l.161-.868a33.957,33.957,0,0,1,1.894-7.238,3.259,3.259,0,0,1,2.317-1.98,6.468,6.468,0,0,1,5.175,1.557c1.593,1.365,1.3,2.91.826,4.5a24.416,24.416,0,0,1-2.357,4.988,20.462,20.462,0,0,0-2.326,5.084,22.877,22.877,0,0,0-.491,3.629c-.07.863-.143,1.755-.285,2.649-.053.337-.1.693-.148,1.059a12.011,12.011,0,0,1-1.2,4.517C2634.2,510.467,2632.108,512.7,2630.57,512.7Zm.085-1.42h0Zm5.617-27.979a2.666,2.666,0,0,0-.606.065,1.8,1.8,0,0,0-1.3,1.13h0a32.851,32.851,0,0,0-1.8,6.924l-.162.873c-.126.668-.264,1.34-.4,2.014a49.628,49.628,0,0,0-.848,4.969,25.473,25.473,0,0,0,.143,4.776l.043.467c.033.367.115.8.2,1.266a8.957,8.957,0,0,1,.239,2.661,3.918,3.918,0,0,1-.691,1.562c-.384.6-.55.914-.453,1.222a6.64,6.64,0,0,0,2.625-2.058,11,11,0,0,0,1.008-3.959c.05-.379.1-.748.154-1.1.133-.839.2-1.7.272-2.538a24.168,24.168,0,0,1,.528-3.861,21.867,21.867,0,0,1,2.476-5.46,23.275,23.275,0,0,0,2.225-4.68c.471-1.584.483-2.235-.373-2.969A5.563,5.563,0,0,0,2636.272,483.3Zm-2.581.9h0Z" fill="#15284c"/>
    <path id="패스_54" data-name="패스 54" d="M2641.786,458.316a15.991,15.991,0,0,0-2.576-3.543c-.91-1.123-1.918-2.163-2.8-3.306-1.348-1.755-.892-4.044-.99-6.167-.081-1.756-.427-3.746.087-5.455.188-.626.688-1.156.9-1.809.362-1.107.271-2.565-1.158-1.727-1.373.806-2.31,2.917-2.749,4.383a19.615,19.615,0,0,0-.546,7.4,24.816,24.816,0,0,0,1.138,5.694c1.106,3.145,2.98,5.278,5.131,7.706.651.736,1.634,2.223,2.767,2.2,1.5-.028,1.138-1.976,1.29-3.03.134-.935.356-2.744-.843-3.121" fill="#fff"/>
    <path id="패스_55" data-name="패스 55" d="M2640.971,464.431c-1.278,0-2.244-1.18-2.952-2.043-.122-.15-.236-.289-.342-.408-2.113-2.387-4.11-4.641-5.273-7.95a25.639,25.639,0,0,1-1.176-5.862,20.393,20.393,0,0,1,.573-7.687c.327-1.093,1.283-3.749,3.081-4.8.952-.558,1.557-.349,1.9-.076.7.566.632,1.747.332,2.664a5.16,5.16,0,0,1-.522,1.052,3.637,3.637,0,0,0-.375.74,11.216,11.216,0,0,0-.141,3.955c.034.427.066.847.085,1.256.024.513.017,1.037.009,1.56-.024,1.57-.046,3.053.83,4.193.478.623,1.014,1.233,1.532,1.824.424.483.848.966,1.253,1.466.174.216.374.45.584.7a21.424,21.424,0,0,1,1.509,1.915c1.591.691,1.264,2.968,1.138,3.847a6.788,6.788,0,0,0-.044.713c-.031,1.018-.091,2.913-1.959,2.948Zm-5.122-27.6a1.686,1.686,0,0,0-.223.112c-1.1.647-1.971,2.469-2.417,3.96a18.891,18.891,0,0,0-.519,7.116,24.3,24.3,0,0,0,1.1,5.524c1.068,3.037,2.884,5.088,4.987,7.463.117.132.243.285.379.45.494.6,1.233,1.55,1.826,1.505.327-.006.475-.152.518-1.525a8.252,8.252,0,0,1,.058-.876,6.65,6.65,0,0,0,.08-1.524.733.733,0,0,1-.544-.476,10.981,10.981,0,0,0-1.848-2.6c-.218-.257-.426-.5-.607-.724-.392-.485-.8-.953-1.215-1.422-.534-.608-1.086-1.237-1.593-1.9-1.188-1.546-1.161-3.358-1.134-5.11.007-.493.015-.986-.008-1.471-.018-.393-.049-.8-.082-1.208a12.293,12.293,0,0,1,.2-4.493,4.674,4.674,0,0,1,.522-1.072,3.963,3.963,0,0,0,.386-.754A2.44,2.44,0,0,0,2635.849,436.831Z" fill="#15284c"/>
    <path id="패스_56" data-name="패스 56" d="M2641.614,455.508c-1.327.564-1.629,3.083-2.185,4.248-.845,1.774-1.818,3.487-2.551,5.313a41.807,41.807,0,0,0-2.367,7.4c-.179.906-.547,1.73-.718,2.635-.193,1.019-.124,2.068-.281,3.093a23.552,23.552,0,0,1-1.2,4.228c-.673,1.92-2.129,4.2-.684,6.134,1.474,1.97,4.844,2.4,7.1,2.4,1.977.005,3.948-.89,5.922-.466.93.2,1.538.84,2.449,1.04a6.774,6.774,0,0,0,3-.023,6.559,6.559,0,0,0,4.532-3.855,10.017,10.017,0,0,0,.3-5.852c-.581-2.041-2.373-2.617-3.436-4.22-.959-1.446-.541-3.311-.277-4.938.294-1.813.882-3.565,1.269-5.357.551-2.555,3.159-7.251.219-9.323-1.642-1.158-4.1-1.46-6.036-1.879a23.979,23.979,0,0,0-2.788-.381,6.976,6.976,0,0,0-2.248-.21.269.269,0,0,0-.03.012" fill="#bdd9c8"/>
    <path id="패스_57" data-name="패스 57" d="M2648.567,492.425a7.582,7.582,0,0,1-1.62-.174,5.166,5.166,0,0,1-1.405-.589,3.872,3.872,0,0,0-1.04-.45,8.339,8.339,0,0,0-3.233.181,14.072,14.072,0,0,1-2.52.3h-.018c-2.121-.005-5.941-.362-7.689-2.7-1.425-1.9-.548-4.033.157-5.744.152-.367.3-.726.422-1.073a22.858,22.858,0,0,0,1.165-4.1,13.462,13.462,0,0,0,.114-1.359,12.673,12.673,0,0,1,.171-1.759,12.309,12.309,0,0,1,.384-1.422,11.64,11.64,0,0,0,.335-1.219,42.472,42.472,0,0,1,2.406-7.529c.49-1.221,1.087-2.4,1.665-3.536.307-.6.613-1.208.905-1.819a9.791,9.791,0,0,0,.414-1.185c.4-1.288.893-2.891,2.146-3.423h0l.055-.022a4.027,4.027,0,0,1,2.016.069c.218.042.416.082.564.1a24.625,24.625,0,0,1,2.875.394c.342.074.7.144,1.069.217a13.726,13.726,0,0,1,5.235,1.78c2.729,1.924,1.525,5.537.646,8.176a19.723,19.723,0,0,0-.571,1.9c-.161.744-.356,1.484-.545,2.2-.269,1.022-.548,2.077-.717,3.12l-.067.4c-.241,1.437-.49,2.925.231,4.012a7.5,7.5,0,0,0,1.365,1.435,6.163,6.163,0,0,1,2.166,2.99,10.693,10.693,0,0,1-.329,6.328,7.294,7.294,0,0,1-6.752,4.494Zm-5.046-2.78a6.073,6.073,0,0,1,1.289.131,5.136,5.136,0,0,1,1.44.6,3.818,3.818,0,0,0,1.012.441,6.04,6.04,0,0,0,2.67-.019,5.793,5.793,0,0,0,4.025-3.415,9.236,9.236,0,0,0,.278-5.376,4.768,4.768,0,0,0-1.726-2.291,8.706,8.706,0,0,1-1.616-1.725c-1.042-1.571-.731-3.429-.456-5.068l.066-.394c.18-1.112.468-2.2.746-3.259.185-.7.376-1.424.529-2.135a20.981,20.981,0,0,1,.614-2.057c.985-2.955,1.6-5.311-.1-6.51a12.7,12.7,0,0,0-4.672-1.539c-.377-.075-.746-.147-1.1-.224a23.209,23.209,0,0,0-2.7-.366c-.184-.017-.432-.064-.7-.116a4.623,4.623,0,0,0-1.215-.139h0c-.626.266-1.009,1.507-1.316,2.505a10.882,10.882,0,0,1-.493,1.383c-.3.622-.609,1.238-.921,1.853-.563,1.109-1.145,2.256-1.611,3.417a41.244,41.244,0,0,0-2.328,7.265,13,13,0,0,1-.375,1.376,11.112,11.112,0,0,0-.342,1.255,11.675,11.675,0,0,0-.148,1.56,14.954,14.954,0,0,1-.128,1.507,23.966,23.966,0,0,1-1.214,4.309c-.147.422-.3.806-.467,1.2-.65,1.578-1.265,3.068-.34,4.3,1.417,1.894,5.029,2.107,6.517,2.111h.015a12.737,12.737,0,0,0,2.255-.279A14.05,14.05,0,0,1,2643.521,489.645Zm-1.907-34.137h0Z" fill="#15284c"/>
    <path id="패스_58" data-name="패스 58" d="M2646.5,445.122a3.032,3.032,0,0,1,3.077.375c1.739,1.186,2.28,2.953,2.725,4.934.161.722-.2,2.35.329,2.876,1.059,1.052,2.611-.941,3.075-1.715a9.887,9.887,0,0,0,.775-2.023,3.829,3.829,0,0,1,1-1.529c.823-.978,1.1-2.31,1.946-3.271.67-.757,1.546-1.288,2.21-2.06.845-.982,1.491-2.121,2.339-3.112.6-.7,1.751-1.785,1.656-2.828-.1-1.082-1.093-1.373-2-1.188a4.824,4.824,0,0,0-2.672,1.779c-.692.792-1.71,2.5-2.915,2.56-1.092.055-1.748-1.045-1.825-2.021-.117-1.483.948-2.332,1.828-3.343s3.1-4.739,1.4-5.876c-1.843-1.23-3.538,2.616-4.206,3.641-.361.552-.8,1.468-1.55,1.254s-.835-1.225-.716-1.842c.248-1.281,1.8-2.811.277-3.843-1.219-.825-2.325.086-2.928,1.18-.5.916-.859,2.257-1.993,2.653-1.038.362-2.1-.856-3.045-.392-1.126.552-.654,2.489-.716,3.456a2.312,2.312,0,0,1-2.408,2.278c-1.554.08-4.19-1.832-4.111,1.042.049,1.821,1.705,2.939,2.131,4.617a9.839,9.839,0,0,1,.1,3.1c-.056.862-.113,3.822,1.293,3.54.672-.134.817-.959,1.1-1.43a5.234,5.234,0,0,1,1.574-1.541,8.947,8.947,0,0,1,2.248-1.272" fill="#e95019"/>
    <path id="패스_59" data-name="패스 59" d="M2653.318,454.342a1.674,1.674,0,0,1-1.2-.513,3.17,3.17,0,0,1-.511-2.361,4.848,4.848,0,0,0-.018-.876c-.411-1.832-.878-3.435-2.422-4.488a2.317,2.317,0,0,0-2.433-.285h0a8.391,8.391,0,0,0-2.053,1.174,4.517,4.517,0,0,0-1.371,1.324,2.86,2.86,0,0,0-.165.342,2.084,2.084,0,0,1-1.422,1.427,1.477,1.477,0,0,1-1.295-.333c-.933-.817-.949-2.841-.876-3.975l.012-.175a8.655,8.655,0,0,0-.094-2.7,5.911,5.911,0,0,0-.921-1.752,5.665,5.665,0,0,1-1.233-3.026,2.28,2.28,0,0,1,.7-1.986c.769-.606,1.834-.316,2.774-.061a5.029,5.029,0,0,0,1.333.251,1.581,1.581,0,0,0,1.713-1.592,7.148,7.148,0,0,0-.019-.744c-.059-1.071-.148-2.69,1.145-3.324a2.5,2.5,0,0,1,2.11.146,1.726,1.726,0,0,0,1.016.212c.59-.206.908-.888,1.245-1.612.115-.245.227-.484.347-.7a3.554,3.554,0,0,1,2.094-1.817,2.33,2.33,0,0,1,1.889.383c1.6,1.079.863,2.646.425,3.583a4.826,4.826,0,0,0-.392,1.007c-.085.442.013.944.2,1,.162-.031.456-.5.581-.706l.153-.243c.1-.151.221-.369.364-.624.717-1.269,1.8-3.187,3.254-3.534a2,2,0,0,1,1.611.308,2.129,2.129,0,0,1,.924,1.542c.26,1.936-1.5,4.656-2.175,5.427-.144.167-.294.329-.443.49-.793.859-1.276,1.431-1.206,2.313.044.562.4,1.356,1.055,1.345.618-.031,1.389-1.028,1.9-1.687.181-.233.348-.449.5-.623a5.562,5.562,0,0,1,3.078-2.015,2.63,2.63,0,0,1,2.092.372,2,2,0,0,1,.79,1.469c.11,1.21-.849,2.276-1.549,3.055-.1.113-.2.219-.281.317-.4.465-.748.964-1.119,1.493s-.772,1.1-1.221,1.621a10.03,10.03,0,0,1-1.216,1.143,9.443,9.443,0,0,0-1,.925,6.519,6.519,0,0,0-.891,1.5,8.03,8.03,0,0,1-1.043,1.756c-.092.109-.176.2-.254.293a2.336,2.336,0,0,0-.611.994c-.047.14-.091.281-.135.422a7.839,7.839,0,0,1-.708,1.747c-.133.222-1.34,2.176-2.8,2.359A1.878,1.878,0,0,1,2653.318,454.342Zm-5.487-10.206a3.717,3.717,0,0,1,2.164.754c1.983,1.352,2.583,3.4,3.028,5.38a5.332,5.332,0,0,1,.053,1.241,3.815,3.815,0,0,0,.086,1.286.2.2,0,0,0,.2.073c.466-.058,1.281-.919,1.721-1.655a6.658,6.658,0,0,0,.567-1.431c.046-.149.093-.3.142-.446a3.737,3.737,0,0,1,.9-1.5l.234-.27a6.853,6.853,0,0,0,.844-1.448,7.69,7.69,0,0,1,1.113-1.836,10.438,10.438,0,0,1,1.158-1.077,8.936,8.936,0,0,0,1.046-.976c.4-.468.757-.973,1.133-1.508s.761-1.084,1.2-1.6c.092-.107.195-.222.3-.344.49-.545,1.231-1.368,1.179-1.939a.54.54,0,0,0-.2-.424,1.22,1.22,0,0,0-.923-.111,4.181,4.181,0,0,0-2.265,1.542c-.135.155-.283.348-.444.555-.715.925-1.7,2.191-2.987,2.255a2.668,2.668,0,0,1-2.594-2.7,4.395,4.395,0,0,1,1.591-3.425c.14-.15.28-.3.415-.458.706-.81,1.99-3.051,1.827-4.267a.655.655,0,0,0-.284-.515.533.533,0,0,0-.454-.1c-.831.2-1.833,1.974-2.315,2.827-.162.288-.3.533-.414.7l-.134.213c-.365.589-1.044,1.687-2.233,1.346a2.207,2.207,0,0,1-1.235-2.687,5.931,5.931,0,0,1,.5-1.352c.544-1.163.556-1.423.083-1.743a.855.855,0,0,0-.722-.172,2.111,2.111,0,0,0-1.151,1.1c-.1.189-.2.4-.3.613a3.948,3.948,0,0,1-2.093,2.379,2.85,2.85,0,0,1-2.037-.232c-.444-.175-.748-.283-.926-.2-.419.206-.365,1.2-.325,1.924a8.044,8.044,0,0,1,.018.92,3.05,3.05,0,0,1-3.1,2.965,5.993,5.993,0,0,1-1.795-.3c-.483-.131-1.292-.35-1.48-.2-.006.006-.159.133-.141.792a4.34,4.34,0,0,0,.984,2.248,7.114,7.114,0,0,1,1.125,2.208,9.883,9.883,0,0,1,.136,3.158l-.012.172c-.1,1.581.163,2.648.386,2.78.151-.032.293-.353.4-.588a4.733,4.733,0,0,1,.253-.512,5.963,5.963,0,0,1,1.777-1.758,9.523,9.523,0,0,1,2.443-1.371h0A5,5,0,0,1,2647.831,444.136Z" fill="#15284c"/>
    <path id="패스_60" data-name="패스 60" d="M2643.815,444.99a4.548,4.548,0,0,1,6.226-.512c1.279,1.028,1.579,2.417,2.018,3.91.114.386.252.743.382,1.089a6.8,6.8,0,0,1-2.241,7.414c-.106.086-.22.174-.339.261.533,1.892-.625,4.4-1.969,5.613a2.921,2.921,0,0,1-3.872-.118,3.041,3.041,0,0,1-1-3.135,5.831,5.831,0,0,1,.876-2.451,35.12,35.12,0,0,1-1.56-3.459,7.334,7.334,0,0,1,1.477-8.612" fill="#fff"/>
    <path id="패스_61" data-name="패스 61" d="M2646.143,464.179a4.246,4.246,0,0,1-2.572-.95,3.715,3.715,0,0,1-1.275-3.83,6.992,6.992,0,0,1,.746-2.349,17.768,17.768,0,0,1-.856-1.926c-.175-.441-.34-.858-.507-1.2a8.057,8.057,0,0,1,1.6-9.437,5.29,5.29,0,0,1,7.222-.583,6.9,6.9,0,0,1,2.145,3.868l.118.407c.1.339.219.654.334.958l.03.08a7.477,7.477,0,0,1-2.452,8.233,7.17,7.17,0,0,1-2.293,5.86A3.308,3.308,0,0,1,2646.143,464.179Zm1.087-19.959a3.949,3.949,0,0,0-2.879,1.273h0a6.576,6.576,0,0,0-1.353,7.785c.192.393.368.835.554,1.3a13.19,13.19,0,0,0,.968,2.088.734.734,0,0,1-.017.808,5.087,5.087,0,0,0-.755,2.146,2.316,2.316,0,0,0,.721,2.442,2.273,2.273,0,0,0,2.932.152c1.179-1.059,2.189-3.319,1.753-4.866a.736.736,0,0,1,.269-.789c.11-.082.216-.163.315-.243a6.07,6.07,0,0,0,2.015-6.584l-.03-.079c-.127-.338-.258-.687-.368-1.062l-.121-.416a5.6,5.6,0,0,0-1.653-3.129A3.738,3.738,0,0,0,2647.23,444.22Zm-3.415.77h0Z" fill="#15284c"/>
    <path id="패스_62" data-name="패스 62" d="M2651.654,449.727c.667-1.633,2.63.237,2.7,1.372a1.817,1.817,0,0,1-.792,1.753c-.433.284-1.6.7-2,.342" fill="#fff"/>
    <path id="패스_63" data-name="패스 63" d="M2652.043,454.068a1.4,1.4,0,0,1-.97-.33A.734.734,0,0,1,2652,452.6a2.635,2.635,0,0,0,1.161-.361,1.067,1.067,0,0,0,.463-1.1,2,2,0,0,0-.749-1.119.746.746,0,0,0-.43-.2.544.544,0,0,0-.108.184.735.735,0,1,1-1.36-.556,1.564,1.564,0,0,1,1.748-1.075,3.284,3.284,0,0,1,2.366,2.68,2.521,2.521,0,0,1-1.123,2.412A4.144,4.144,0,0,1,2652.043,454.068Zm.016-1.419h0Z" fill="#15284c"/>
    <path id="패스_64" data-name="패스 64" d="M2647.946,449.826a.735.735,0,0,1-.734-.735v-.357a.734.734,0,1,1,1.469,0v.357A.735.735,0,0,1,2647.946,449.826Zm-4.075-1.072a.735.735,0,0,1-.735-.735v-.268a.734.734,0,1,1,1.469,0v.268A.735.735,0,0,1,2643.871,448.754Z" fill="#15284c"/>
    <path id="패스_65" data-name="패스 65" d="M2653.112,459.509a65.938,65.938,0,0,0,6.339-3.047c1.9-.956,2.879-3.465,3.677-5.312a47.778,47.778,0,0,0,1.863-5.306,5.3,5.3,0,0,1,2.361-2.891c.975-.493,4.192-.617,3.163,1.3-.5.928-2,1.161-2.589,2.028a8.927,8.927,0,0,0-.7,2.577,54.583,54.583,0,0,1-2.309,6.4c-1.054,2.688-2.052,5.882-4.745,7.318-2.222,1.186-6.545,4.549-8.9,1.909-1.358-1.52.435-4.228,1.847-4.976" fill="#fff"/>
    <path id="패스_66" data-name="패스 66" d="M2653.494,466.216a3.563,3.563,0,0,1-2.777-1.241,2.77,2.77,0,0,1-.613-2.423,5.794,5.794,0,0,1,2.665-3.692.532.532,0,0,1,.085-.038,44.553,44.553,0,0,0,4.737-2.229c.509-.265,1.019-.53,1.529-.787,1.546-.778,2.455-2.9,3.186-4.605l.147-.342a46.59,46.59,0,0,0,1.834-5.226,6.062,6.062,0,0,1,2.735-3.336c.886-.449,3.084-.69,4.013.261a1.631,1.631,0,0,1,.128,2.044,3.706,3.706,0,0,1-1.624,1.372,3.019,3.019,0,0,0-1.005.722,4.6,4.6,0,0,0-.434,1.522c-.052.293-.1.575-.166.822a41.489,41.489,0,0,1-1.833,5.223c-.169.421-.339.841-.5,1.263l-.3.777c-.987,2.575-2.105,5.493-4.783,6.921-.345.184-.743.423-1.177.684C2657.691,464.894,2655.487,466.216,2653.494,466.216Zm-.075-6.037a4.38,4.38,0,0,0-1.869,2.633,1.324,1.324,0,0,0,.263,1.184c1.457,1.63,4.033.292,6.768-1.349.458-.274.877-.525,1.242-.72,2.193-1.169,3.163-3.7,4.1-6.15l.3-.787c.167-.426.338-.851.509-1.276a40.4,40.4,0,0,0,1.772-5.035c.055-.215.1-.462.143-.718a5.5,5.5,0,0,1,.666-2.091,4.1,4.1,0,0,1,1.51-1.182,2.652,2.652,0,0,0,1.039-.78.649.649,0,0,0,.112-.334,3.1,3.1,0,0,0-2.3.034,4.578,4.578,0,0,0-1.99,2.447,48,48,0,0,1-1.892,5.387l-.145.338c-.825,1.924-1.852,4.32-3.876,5.338-.505.255-1.009.517-1.513.779A46.124,46.124,0,0,1,2653.419,460.179Z" fill="#15284c"/>
    <path id="패스_67" data-name="패스 67" d="M2647.074,487.71a.738.738,0,0,1-.451-.155c-1.983-1.545-4.6-3.958-4.406-7.072a.735.735,0,0,1,1.467.09c-.15,2.421,2.121,4.482,3.842,5.822a.735.735,0,0,1-.452,1.315Zm-6.786-.172a.733.733,0,0,1-.617-.335,9.048,9.048,0,0,1-1.922-5.324.719.719,0,0,1,.758-.71.735.735,0,0,1,.711.758,7.736,7.736,0,0,0,1.685,4.476.734.734,0,0,1-.615,1.135Zm6.452-6.617c-.042,0-.085,0-.127,0a.735.735,0,0,1,.065-1.468,3.429,3.429,0,0,0,2.463-1.384,2.436,2.436,0,0,0,.661-2,.735.735,0,1,1,1.422-.37,3.819,3.819,0,0,1-.94,3.29A4.885,4.885,0,0,1,2646.74,480.921Z" fill="#15284c"/>
    <path id="패스_68" data-name="패스 68" d="M2657.178,485.165c2.066-.019,2.914,5.23,1.833,6.535-1.28,1.544-2.031-.942-1.841-2s.739-1.536.182-2.723c-.167-.358-.81-1.115-.615-1.559.166-.379.548-.361.441-.254" fill="#e95019"/>
    <path id="패스_69" data-name="패스 69" d="M2658.228,492.925a1.327,1.327,0,0,1-.55-.121c-1.1-.511-1.385-2.377-1.231-3.234a6.414,6.414,0,0,1,.247-.91,1.474,1.474,0,0,0-.007-1.371,2.873,2.873,0,0,0-.159-.265,2.09,2.09,0,0,1-.464-1.9,1.254,1.254,0,0,1,1.081-.76.815.815,0,0,1,.349.091,2.849,2.849,0,0,1,1.981,1.79c.845,1.776,1.074,4.751.1,5.924A1.757,1.757,0,0,1,2658.228,492.925Zm-.383-6.566a3.38,3.38,0,0,1,.173.306,2.9,2.9,0,0,1,.071,2.457,5,5,0,0,0-.2.709,2.546,2.546,0,0,0,.357,1.6,1.187,1.187,0,0,0,.2-.2c.425-.512.462-2.76-.3-4.354A3.321,3.321,0,0,0,2657.845,486.359Z" fill="#15284c"/>
    <path id="패스_70" data-name="패스 70" d="M2646.456,456.58a5.7,5.7,0,0,1-4.378-2.232.735.735,0,0,1,1.275-.731,4.207,4.207,0,0,0,3.36,1.471.735.735,0,1,1,.33,1.432A2.68,2.68,0,0,1,2646.456,456.58Zm-1.083-3.732a2.04,2.04,0,0,1-1.309-.516.735.735,0,0,1,.946-1.124c.209.175.377.215.5.117a.735.735,0,0,1,.915,1.15A1.673,1.673,0,0,1,2645.373,452.848Z" fill="#15284c"/>
    <path id="패스_71" data-name="패스 71" d="M2652.469,513.42c.466-5.755,1.45-11.832,5.225-16.2,5.192-6.01,18.757-8.9,24.993-2.853,3.19,3.1,3.819,7.923,4.083,12.362a163.321,163.321,0,0,1-.573,26.426,5.674,5.674,0,0,1-.637,2.44,5.807,5.807,0,0,1-3.277,2.044l-12.769,4.372a10.005,10.005,0,0,1-9.878-.7c-5.7-2.733-7.066-3.151-7.409-9.494a150.559,150.559,0,0,1,.242-18.4" fill="#bfb6af"/>
    <path id="패스_72" data-name="패스 72" d="M2665.119,543.728l-.162,0a14.029,14.029,0,0,1-5.637-1.753l-.606-.29c-5.275-2.519-6.866-3.28-7.221-9.827a151.44,151.44,0,0,1,.243-18.486v-.009c.458-5.659,1.458-12.058,5.4-16.622,3.1-3.587,9.115-6.171,14.968-6.428,4.6-.205,8.538,1.051,11.092,3.529,3.3,3.2,4.021,8.066,4.3,12.845a164.448,164.448,0,0,1-.575,26.545,5.021,5.021,0,0,1-4.408,5.1l-12.769,4.372A14.471,14.471,0,0,1,2665.119,543.728ZM2653.2,513.475a149.858,149.858,0,0,0-.242,18.3c.308,5.676,1.236,6.12,6.387,8.58l.607.29a12.922,12.922,0,0,0,5.035,1.61,12.66,12.66,0,0,0,4.287-.942l12.769-4.371a5.216,5.216,0,0,0,2.89-1.735,5.027,5.027,0,0,0,.532-2.13,163.153,163.153,0,0,0,.57-26.307c-.267-4.482-.92-9.023-3.862-11.877-2.261-2.194-5.815-3.3-10.005-3.116-5.474.241-11.068,2.62-13.92,5.921C2654.584,501.942,2653.641,508.054,2653.2,513.475Z" fill="#15284c"/>
    <path id="패스_73" data-name="패스 73" d="M2664.189,540.278a.734.734,0,0,1-.733-.7,260.774,260.774,0,0,1,.481-29.839,20.744,20.744,0,0,1,1.178-6.379c1.917-4.747,6.809-8.022,14.541-9.734a.735.735,0,1,1,.317,1.435c-4.971,1.1-11.348,3.529-13.5,8.85a19.553,19.553,0,0,0-1.074,5.936,259.445,259.445,0,0,0-.479,29.67.735.735,0,0,1-.7.765Zm-7.406-2.163h-.01a.735.735,0,0,1-.725-.745l.273-20c.1-7.017.473-13.227,4.129-18.157a.734.734,0,1,1,1.18.875c-3.394,4.578-3.747,10.545-3.84,17.3l-.273,20A.735.735,0,0,1,2656.783,538.115Zm9.955-41.5a2.528,2.528,0,0,1-1.111-.271,2.285,2.285,0,0,1-1.432-2.045,3.81,3.81,0,0,1,2.063-3.084c1.2-.625,7.414-2.057,9.663-.366a2.194,2.194,0,0,1,.816,2.306.735.735,0,0,1-.415.522,6.857,6.857,0,0,1-2.235.536c-.358.033-.722.052-1.087.071a8.252,8.252,0,0,0-2.922.5,4.763,4.763,0,0,0-1.01.709A3.783,3.783,0,0,1,2666.738,496.619Zm5.884-5.087a17.176,17.176,0,0,0-5.685.99,2.384,2.384,0,0,0-1.273,1.758c0,.2.069.488.6.745.614.3,1,.054,1.866-.663a5.84,5.84,0,0,1,1.359-.923h0a9.48,9.48,0,0,1,3.435-.618c.344-.018.688-.036,1.026-.067a6.222,6.222,0,0,0,1.37-.258.636.636,0,0,0-.284-.468A4.356,4.356,0,0,0,2672.622,491.532Z" fill="#15284c"/>
    <path id="패스_74" data-name="패스 74" d="M2679.64,499.449a5.21,5.21,0,0,0-3.2,1.617,4.892,4.892,0,0,0-1.169,4.5,4.326,4.326,0,0,0,3.376,3.111,4.492,4.492,0,0,0,4.786-3.232,4.968,4.968,0,0,0-3.675-5.955" fill="#def1fb"/>
    <path id="패스_75" data-name="패스 75" d="M2679.222,509.454a4.432,4.432,0,0,1-.689-.054,5.027,5.027,0,0,1-3.97-3.644,5.655,5.655,0,0,1,1.339-5.19,5.978,5.978,0,0,1,3.655-1.847.719.719,0,0,1,.37.053,5.7,5.7,0,0,1,4.214,6.867A5.265,5.265,0,0,1,2679.222,509.454Zm.351-9.255a4.486,4.486,0,0,0-2.593,1.366,4.156,4.156,0,0,0-1,3.809,3.584,3.584,0,0,0,2.781,2.575,3.739,3.739,0,0,0,3.963-2.7,4.235,4.235,0,0,0-3.109-5.037Z" fill="#15284c"/>
    <path id="패스_76" data-name="패스 76" d="M2666.792,515.6a27.737,27.737,0,0,0,7.387-3.687q.776,4.1,1.244,8.251-4.422,1.6-8.725,3.518a30.37,30.37,0,0,0-1.427-7.316,3.477,3.477,0,0,1,2.693-1.126" fill="#e95019"/>
    <path id="패스_77" data-name="패스 77" d="M2666.7,524.412a.736.736,0,0,1-.733-.683,29.546,29.546,0,0,0-1.393-7.138.738.738,0,0,1,.153-.721,4.208,4.208,0,0,1,2.979-1.37,26.949,26.949,0,0,0,6.053-3.192.734.734,0,0,1,1.144.464c.518,2.741.94,5.535,1.252,8.305a.734.734,0,0,1-.479.773c-2.92,1.059-5.839,2.236-8.677,3.5A.744.744,0,0,1,2666.7,524.412Zm-.588-7.835a31.029,31.029,0,0,1,1.232,6.015c2.393-1.043,4.837-2.024,7.285-2.924-.257-2.176-.582-4.363-.968-6.523a28.4,28.4,0,0,1-5.212,2.645.692.692,0,0,1-.485.181q-.469.169-.944.324a.744.744,0,0,1-.469-.006A2.786,2.786,0,0,0,2666.11,516.577Z" fill="#15284c"/>
    <path id="패스_78" data-name="패스 78" d="M2669.077,531.052c-.072-.991-.127-1.736-.133-1.86a.592.592,0,0,1,.621-.731c.869-.177,11.489-1.122,11.524-.85a27.371,27.371,0,0,1-.034,7.35c-.09.646-10.736,2.166-11.577,2.27.047-.006-.228-3.8-.4-6.179" fill="#def1fb"/>
    <path id="패스_79" data-name="패스 79" d="M2669.477,537.966a.735.735,0,0,1-.728-.643.7.7,0,0,1,0-.183c-.005-.54-.283-4.373-.4-6.034h0c-.074-1-.128-1.75-.135-1.874a1.491,1.491,0,0,1,.154-.835,1.476,1.476,0,0,1,1.054-.656c.1-.02,11.325-1.283,12.09-.739a.768.768,0,0,1,.31.513,28.1,28.1,0,0,1-.035,7.548c-.085.607-.132.941-6.112,1.96-2.823.482-5.726.89-6.1.937A.713.713,0,0,1,2669.477,537.966Zm.2-8.778c.011.188.063.893.13,1.811h0c.087,1.191.2,2.735.283,3.983.037.546.069,1.035.091,1.414a96.075,96.075,0,0,0,10.187-1.86,26.6,26.6,0,0,0,.06-6.242c-2.147.038-10.037.748-10.719.887Zm0-.153Z" fill="#15284c"/>
    <path id="패스_80" data-name="패스 80" d="M2686.071,512.684l-5.8,6.543,5.375,5.3" fill="#def1fb"/>
    <path id="패스_81" data-name="패스 81" d="M2685.647,525.259a.731.731,0,0,1-.515-.212l-5.376-5.3a.734.734,0,0,1-.034-1.01l5.8-6.543a.734.734,0,1,1,1.1.974l-5.336,6.022,4.879,4.808a.735.735,0,0,1-.516,1.258Z" fill="#15284c"/>
    <path id="패스_82" data-name="패스 82" d="M2655.4,543.05a1.475,1.475,0,0,1-.3-.03,1.628,1.628,0,0,1-1.358-1.5,2.394,2.394,0,0,1,1.261-2.358,2.916,2.916,0,0,0,1.146.87,1.615,1.615,0,0,1,.678,2.006A1.525,1.525,0,0,1,2655.4,543.05Zm-.185-1.914a.842.842,0,0,0-.012.235c.016.16.065.185.181.208.039-.006.085-.071.085-.159a.119.119,0,0,0-.063-.124A.743.743,0,0,1,2655.216,541.136Zm27.212.157a1.457,1.457,0,0,1-.5-.092,1.511,1.511,0,0,1-.951-1.423,1.7,1.7,0,0,1,.87-1.633,1.185,1.185,0,0,1,.286-.086.734.734,0,0,1,.91-.4,1.416,1.416,0,0,1,.873,1.148,2.412,2.412,0,0,1-.626,2.168A1.31,1.31,0,0,1,2682.428,541.293Zm-15.775-47.679a.735.735,0,0,1-.734-.734V473.94a2.29,2.29,0,0,1-.832.03.735.735,0,0,1-.627-.8,3.63,3.63,0,0,1,2.157-2.923,11.767,11.767,0,0,1,6.953-.6.759.759,0,0,1,.386-.078,3.79,3.79,0,0,1,2.616,1.1.735.735,0,0,1,.135.77c-.356.877-1.316,1.09-2.4,1.079v19.366a.734.734,0,0,1-1.469,0V472.4l-.609-.085c-.409-.058-.8-.114-1.027-.121a6.073,6.073,0,0,0-3.144.57,5.956,5.956,0,0,0-.663.425l-.009.006V492.88A.735.735,0,0,1,2666.653,493.614Z" fill="#15284c"/>
    <path id="패스_83" data-name="패스 83" d="M2679.938,444.5c-1.418-2.268-4.418-4.041-6.467-5.827,2.064-2.422,2.14-7.11,2.857-10.127.532-2.236,2.254-3.816,3.025-5.951.9-2.5-3.234-10.452-5.184-6.635-.982,1.924.673,3.968.36,5.646-.53,2.849-3.234,5.939-4.3,8.681-1.457,3.767-2.428,9.207-1.665,13.248.513,2.72,3.736,5.609,6.051,7.152,1.772,1.181,4.123,1.728,5.14-.544.89-1.987,1.531-5.6-.651-6.958" fill="#fff"/>
    <path id="패스_84" data-name="패스 84" d="M2677.465,452.443a6.246,6.246,0,0,1-3.252-1.149c-.941-.627-5.671-3.942-6.366-7.627-.811-4.3.271-9.95,1.7-13.649a24.926,24.926,0,0,1,1.948-3.658,16.509,16.509,0,0,0,2.31-4.893,4.736,4.736,0,0,0-.288-1.926,5.143,5.143,0,0,1,0-3.919,2.072,2.072,0,0,1,2.778-1.236c2.255.98,4.568,6.2,3.751,8.455a14.292,14.292,0,0,1-1.487,2.788,10.333,10.333,0,0,0-1.514,3.083c-.193.809-.339,1.756-.494,2.758-.378,2.439-.8,5.172-2.074,7.084.466.379.968.762,1.492,1.162a30.233,30.233,0,0,1,3.268,2.742.713.713,0,0,1,.263.1c2.558,1.6,1.959,5.589.932,7.882a3.2,3.2,0,0,1-2.025,1.874A3.387,3.387,0,0,1,2677.465,452.443Zm-2-36.773c-.172,0-.386.121-.641.62a3.917,3.917,0,0,0,.111,2.858,5.787,5.787,0,0,1,.316,2.588,17.449,17.449,0,0,1-2.5,5.383,23.594,23.594,0,0,0-1.836,3.429c-1.356,3.5-2.385,8.835-1.629,12.846.426,2.256,3.188,4.979,5.738,6.678a3.925,3.925,0,0,0,2.969.83,1.734,1.734,0,0,0,1.092-1.063,7.64,7.64,0,0,0,.612-4.647.737.737,0,0,1-.386-.306,17.412,17.412,0,0,0-4.239-4c-.746-.568-1.45-1.105-2.088-1.661a.736.736,0,0,1-.076-1.031c1.355-1.59,1.8-4.436,2.185-6.947.159-1.032.31-2.007.516-2.873a11.605,11.605,0,0,1,1.7-3.531,12.92,12.92,0,0,0,1.346-2.5c.544-1.506-1.444-5.952-2.954-6.607A.6.6,0,0,0,2675.465,415.67Z" fill="#15284c"/>
    <path id="패스_85" data-name="패스 85" d="M2699.863,508.714a3.56,3.56,0,0,0-1.042,4.208c1.141,3.462,7.109,4.035,9.776,2.354,2.2-1.39,3.733-3.616,5.713-5.31,2.184-1.869,4.836-3.028,7.213-4.608,1.508-1,5.111-3.478,5.227-5.448a2.261,2.261,0,0,0-1.113-2.052,3.317,3.317,0,0,0-2.986.112c-.938.439-1.749,1.106-2.663,1.594-2.245,1.2-4.989,1.252-7.155,2.587-1.4.864-2.462,2.208-3.881,3.042-1.883,1.1-6.74,1.529-9.089,3.521" fill="#fff"/>
    <path id="패스_86" data-name="패스 86" d="M2704.869,516.92a9.788,9.788,0,0,1-3.265-.545,5.353,5.353,0,0,1-3.481-3.223,4.28,4.28,0,0,1,1.265-5h0c1.538-1.3,3.937-1.956,6.053-2.532a15.227,15.227,0,0,0,3.139-1.063,12.331,12.331,0,0,0,1.886-1.473,11,11,0,0,1,5.944-3.048,14.928,14.928,0,0,0,3.232-1.122c.376-.2.736-.436,1.118-.685a13,13,0,0,1,1.579-.927,3.991,3.991,0,0,1,3.661-.085,3.007,3.007,0,0,1,1.484,2.734c-.1,1.649-1.863,3.56-5.554,6.016-.905.6-1.853,1.146-2.769,1.672a27.975,27.975,0,0,0-4.374,2.883,29.014,29.014,0,0,0-2.144,2.115,19.566,19.566,0,0,1-3.654,3.259A7.934,7.934,0,0,1,2704.869,516.92Zm-4.531-7.645a2.859,2.859,0,0,0-.82,3.418,3.973,3.973,0,0,0,2.583,2.3,7.739,7.739,0,0,0,6.1-.337,18.208,18.208,0,0,0,3.371-3.026,30.015,30.015,0,0,1,2.256-2.221,29.464,29.464,0,0,1,4.6-3.041c.9-.515,1.823-1.047,2.687-1.621,4.178-2.78,4.864-4.25,4.9-4.88a1.526,1.526,0,0,0-.743-1.369,2.6,2.6,0,0,0-2.312.138,11.771,11.771,0,0,0-1.4.826c-.391.256-.8.52-1.229.752a16.344,16.344,0,0,1-3.546,1.245,9.656,9.656,0,0,0-5.347,2.726,13.581,13.581,0,0,1-2.117,1.642,15.624,15.624,0,0,1-3.5,1.214c-1.968.535-4.2,1.142-5.488,2.235Z" fill="#15284c"/>
    <path id="패스_87" data-name="패스 87" d="M2688.457,533.814q.174.473.35.944c.505,1.359,1.265,2.925,2.7,3.121a2.693,2.693,0,0,0,2.614-1.627c1.331-2.766-1.292-6.866-1.444-9.875a16.522,16.522,0,0,0-.433-4.209c-.3-.933-.816-1.781-1.148-2.7-1.116-3.1.064-6.2.583-9.274a6.885,6.885,0,0,0-.24-3.858,3.193,3.193,0,0,0-3.041-2.043,4.037,4.037,0,0,0-2.015.953c-5.578,4.367-4.04,11.155-2.012,17.084q1.972,5.767,4.085,11.486" fill="#fff"/>
    <path id="패스_88" data-name="패스 88" d="M2691.769,538.632a2.56,2.56,0,0,1-.36-.025c-1.825-.249-2.718-2.051-3.291-3.593l-.35-.945c-1.4-3.792-2.778-7.662-4.091-11.5-2.153-6.293-3.568-13.342,2.254-17.9a4.822,4.822,0,0,1,2.4-1.106,3.886,3.886,0,0,1,3.788,2.484,7.638,7.638,0,0,1,.29,4.271c-.117.694-.267,1.39-.417,2.086-.512,2.369-1,4.607-.2,6.817.14.388.318.766.507,1.167a9.659,9.659,0,0,1,1.084,5.05c.009.3.018.6.033.906a15.4,15.4,0,0,0,.844,3.542c.73,2.31,1.485,4.7.528,6.688A3.483,3.483,0,0,1,2691.769,538.632Zm-3.139-33.618a1.407,1.407,0,0,0-.159.008,3.261,3.261,0,0,0-1.635.8c-5.083,3.98-3.854,10.171-1.769,16.267,1.31,3.831,2.682,7.689,4.079,11.469h0l.349.943c.431,1.157,1.06,2.505,2.113,2.648a2.008,2.008,0,0,0,1.852-1.218c.705-1.464.039-3.571-.6-5.609a16.617,16.617,0,0,1-.911-3.91c-.015-.312-.024-.624-.033-.937a11.3,11.3,0,0,0-.366-3.087,11.424,11.424,0,0,0-.579-1.38c-.2-.414-.4-.842-.56-1.295-.94-2.607-.388-5.158.144-7.625.146-.674.292-1.348.405-2.021a6.048,6.048,0,0,0-.19-3.444A2.575,2.575,0,0,0,2688.63,505.014Z" fill="#15284c"/>
    <path id="패스_89" data-name="패스 89" d="M2683.065,510.713c-1.642-.87-2.755-2.137-2.089-3.907,1.681-4.468,2.02-9.269,2.742-13.949.476-3.087,1.1-9.956,4.311-11.215,2.355-.923,5.9-.587,8.392-.749,2.322-.151,4.655-.222,6.972-.428.412-.037,1.553-.353,1.933-.166,1.275.629,2.431,4.172,2.7,5.542.52,2.631.118,5.463.277,8.129a36.841,36.841,0,0,0,1.007,7.588c.57,2.038,2,4.185,1.075,6.372a5.835,5.835,0,0,1-2.947,2.664,18.974,18.974,0,0,1-4.415,1.569,5.588,5.588,0,0,1-3.779-.184c-1.572-.823-2.186-2.735-2.511-4.478a36.987,36.987,0,0,1-.511-7.631c.017-.8.294-3.09-1.279-2.344-1.3.618-.889,4.516-.948,5.68a20.428,20.428,0,0,1-.436,3.8,10.173,10.173,0,0,1-2.135,4.167,3.205,3.205,0,0,1-1.232.982,3.348,3.348,0,0,1-1.531.114,16.662,16.662,0,0,1-5.6-1.556" fill="#fff"/>
    <path id="패스_90" data-name="패스 90" d="M2701.156,513.133a4.8,4.8,0,0,1-2.251-.5c-1.949-1.019-2.584-3.338-2.892-4.993a37.154,37.154,0,0,1-.524-7.781l.012-.3a4.944,4.944,0,0,0-.075-1.426.947.947,0,0,0-.165.064c-.406.192-.585,1.542-.533,4.013.009.429.015.793,0,1.041a21.1,21.1,0,0,1-.456,3.936,10.93,10.93,0,0,1-2.29,4.47,3.916,3.916,0,0,1-1.527,1.191,4.01,4.01,0,0,1-1.866.159,17.24,17.24,0,0,1-5.871-1.638h0c-3.08-1.631-2.846-3.716-2.432-4.814a48.726,48.726,0,0,0,2.255-10.636c.143-1.058.286-2.116.448-3.167.048-.314.1-.668.152-1.051.5-3.534,1.336-9.45,4.617-10.736a18.721,18.721,0,0,1,6.315-.742c.826-.006,1.607-.011,2.3-.056.868-.057,1.738-.1,2.609-.148,1.428-.074,2.905-.151,4.345-.279.1-.009.251-.039.423-.071a3.2,3.2,0,0,1,1.9-.022c1.73.853,2.9,5.062,3.1,6.059a24.559,24.559,0,0,1,.271,5.211c-.021,1.048-.04,2.037.018,3.016a36.883,36.883,0,0,0,.981,7.434c.137.49.33.993.534,1.525.616,1.609,1.315,3.433.51,5.331a6.588,6.588,0,0,1-3.293,3.034,19.753,19.753,0,0,1-4.586,1.631A9.5,9.5,0,0,1,2701.156,513.133Zm-5.66-16.489a1.313,1.313,0,0,1,.735.217c.838.557.778,1.882.738,2.758l-.011.267a35.8,35.8,0,0,0,.5,7.481c.4,2.152,1.078,3.411,2.129,3.961a5.045,5.045,0,0,0,3.28.118,18.3,18.3,0,0,0,4.244-1.508,5.039,5.039,0,0,0,2.6-2.3c.573-1.352.037-2.75-.53-4.231-.207-.541-.421-1.1-.577-1.655a37.333,37.333,0,0,1-1.032-7.743c-.062-1.036-.041-2.1-.021-3.132a23.44,23.44,0,0,0-.244-4.9c-.335-1.7-1.476-4.617-2.306-5.026a7.9,7.9,0,0,0-.979.148c-.229.043-.431.079-.564.091-1.467.13-2.957.207-4.4.283-.865.045-1.729.09-2.591.146-.733.048-1.534.053-2.382.06a17.769,17.769,0,0,0-5.79.64c-2.482.973-3.273,6.568-3.7,9.574-.055.389-.106.75-.155,1.069-.161,1.042-.3,2.091-.444,3.139a49.785,49.785,0,0,1-2.336,10.957c-.28.743-.4,1.861,1.745,3h0a15.916,15.916,0,0,0,5.327,1.475,2.78,2.78,0,0,0,1.2-.069,2.6,2.6,0,0,0,.933-.771,9.444,9.444,0,0,0,1.981-3.867,19.883,19.883,0,0,0,.416-3.663c.012-.222,0-.549,0-.935-.052-2.463.014-4.727,1.372-5.371A2.027,2.027,0,0,1,2695.5,496.644Z" fill="#15284c"/>
    <path id="패스_91" data-name="패스 91" d="M2695.049,442.835a8.921,8.921,0,0,1,1.78.105,32.118,32.118,0,0,1,8.737,2.9c2.939,1.407,3.28,5.219,3.332,8.079.057,3.139-.654,6.062-.118,9.2.378,2.215.916,4.419,1.5,6.587.965,3.6,2.159,7.08.745,10.736-.957,2.476-3.65,4.015-5.967,5.007a10.063,10.063,0,0,1-3.613,1.057c-1.216.034-2.524-.18-3.757-.226-3.076-.115-6.143-.485-9.225-.431-2.421.042-4.235.909-4.4-2.328-.238-4.8.45-9.685.263-14.507-.086-2.244.05-4.686-.233-6.916-.276-2.162-1.185-2.611-2.874-3.708-2.229-1.449-6.131-3.367-7.343-5.861-1.32-2.719.94-6.623,1.9-9.133.641-1.673.677-3.18,2.658-2.852,2.019.333,3.748,1.885,5.748,2.331a43.376,43.376,0,0,0,5.226.425c2.072.189,3.719-.4,5.636-.469" fill="#def1fb"/>
    <path id="패스_92" data-name="패스 92" d="M2701.181,487.248c-.681,0-1.375-.062-2.049-.123-.5-.044-.99-.089-1.473-.107-1.167-.043-2.346-.124-3.487-.2-1.871-.128-3.805-.261-5.7-.227-.421.007-.823.041-1.2.072-1.135.1-2.207.183-3-.512a3.471,3.471,0,0,1-.944-2.587c-.124-2.5,0-5.054.122-7.521.114-2.3.231-4.682.141-6.994-.03-.787-.034-1.6-.037-2.415a37.332,37.332,0,0,0-.191-4.436c-.215-1.683-.763-2.036-2.227-2.98l-.318-.2c-.432-.28-.927-.579-1.453-.9-2.264-1.363-5.081-3.06-6.151-5.26-1.224-2.521.15-5.687,1.254-8.231.23-.531.448-1.032.622-1.486.109-.286.2-.567.287-.834.412-1.271.926-2.852,3.177-2.48a10.979,10.979,0,0,1,3.232,1.265,10.835,10.835,0,0,0,2.557,1.074,18.8,18.8,0,0,0,3.242.305c.628.024,1.278.049,1.89.1a12.919,12.919,0,0,0,3.25-.214,19.691,19.691,0,0,1,2.292-.258h0a9.825,9.825,0,0,1,1.924.114,32.866,32.866,0,0,1,8.938,2.965c3.621,1.735,3.71,6.636,3.748,8.729.023,1.237-.07,2.442-.161,3.606A21.845,21.845,0,0,0,2709.5,463c.322,1.887.779,3.9,1.483,6.519l.262.963c.9,3.282,1.834,6.675.46,10.229-.84,2.172-2.922,3.944-6.364,5.418l-.12.051a10.237,10.237,0,0,1-3.763,1.064C2701.369,487.247,2701.275,487.248,2701.181,487.248Zm-12.094-2.134c1.744,0,3.49.119,5.185.235,1.13.078,2.3.158,3.442.2.508.02,1.028.066,1.55.113a19.307,19.307,0,0,0,2.16.114,9.15,9.15,0,0,0,3.223-.947l.121-.051c3.059-1.31,4.882-2.814,5.571-4.6,1.2-3.1.371-6.118-.506-9.31l-.264-.971c-.716-2.667-1.183-4.719-1.513-6.653a23.349,23.349,0,0,1-.05-5.846c.088-1.131.179-2.3.157-3.466-.054-3.01-.444-6.247-2.914-7.431a30.994,30.994,0,0,0-8.537-2.839,8.291,8.291,0,0,0-1.636-.1h0a18.471,18.471,0,0,0-2.124.241,14.291,14.291,0,0,1-3.606.225c-.574-.053-1.175-.075-1.811-.1a19.814,19.814,0,0,1-3.507-.338,12.142,12.142,0,0,1-2.915-1.2,9.724,9.724,0,0,0-2.794-1.119c-.93-.156-1.085.083-1.54,1.484-.094.29-.193.6-.312.906-.181.472-.407.993-.646,1.545-.984,2.268-2.209,5.09-1.28,7,.879,1.808,3.489,3.38,5.587,4.644.542.326,1.051.633,1.5.922l.313.2c1.5.968,2.587,1.667,2.888,4.029a38.261,38.261,0,0,1,.2,4.617c0,.8.006,1.593.036,2.363.092,2.376-.026,4.789-.141,7.123-.12,2.432-.243,4.946-.122,7.376a2.353,2.353,0,0,0,.444,1.555c.324.284,1.059.222,1.91.153.407-.034.84-.069,1.295-.077C2688.662,485.115,2688.875,485.114,2689.087,485.114Zm5.962-42.279h0Z" fill="#15284c"/>
    <path id="패스_93" data-name="패스 93" d="M2698.675,441.6a22.29,22.29,0,0,1-.164,3.492,6.512,6.512,0,0,1-.876,2.826c-.785,1.184-2.539,2.478-4.015,2.25a3.645,3.645,0,0,1-1.5-.688c-2.654-1.864-3.332-4.013-2.855-7.135" fill="#fff"/>
    <path id="패스_94" data-name="패스 94" d="M2693.969,450.927a2.971,2.971,0,0,1-.461-.035,4.353,4.353,0,0,1-1.813-.813c-2.759-1.937-3.7-4.284-3.159-7.847a.735.735,0,0,1,1.453.222c-.461,3.009.254,4.81,2.55,6.423a3.03,3.03,0,0,0,1.193.563c1.073.165,2.6-.883,3.291-1.93a5.923,5.923,0,0,0,.759-2.511,21.637,21.637,0,0,0,.159-3.378.735.735,0,0,1,1.469-.046,23.25,23.25,0,0,1-.17,3.607,7.232,7.232,0,0,1-.992,3.14A5.866,5.866,0,0,1,2693.969,450.927Z" fill="#15284c"/>
    <path id="패스_95" data-name="패스 95" d="M2699.285,431.166c.125.11.246.222.367.337,2.74,2.655,3.551,4.777,1.807,8.319-1.22,2.479-3.208,5.4-5.908,6.415a6.462,6.462,0,0,1-6.671-1.694,9.6,9.6,0,0,1-2.513-6.643,20.752,20.752,0,0,1,.641-5.9,4.793,4.793,0,0,1,1.885-2.714,5.33,5.33,0,0,1,2.151-.709,10.52,10.52,0,0,1,8.241,2.589" fill="#fff"/>
    <path id="패스_96" data-name="패스 96" d="M2693.617,447.316a7.479,7.479,0,0,1-5.26-2.258,10.339,10.339,0,0,1-2.724-7.15,20.845,20.845,0,0,1,.671-6.12,5.53,5.53,0,0,1,2.193-3.121,5.925,5.925,0,0,1,2.446-.818,11.257,11.257,0,0,1,8.827,2.765h0c.133.117.262.236.39.358,2.708,2.624,3.978,5.072,1.958,9.175-1.213,2.462-3.291,5.637-6.307,6.778A6.2,6.2,0,0,1,2693.617,447.316Zm-1.289-18.092a8.668,8.668,0,0,0-1.184.081,4.521,4.521,0,0,0-1.856.6,4.075,4.075,0,0,0-1.577,2.306,19.774,19.774,0,0,0-.609,5.682,8.872,8.872,0,0,0,2.3,6.134,5.745,5.745,0,0,0,5.889,1.523c2.7-1.022,4.611-4.231,5.508-6.052,1.479-3,1.075-4.818-1.659-7.467-.11-.105-.224-.211-.341-.313h0A9.922,9.922,0,0,0,2692.328,429.224Z" fill="#15284c"/>
    <path id="패스_97" data-name="패스 97" d="M2687.862,509.05a.71.71,0,0,1-.234-.039.735.735,0,0,1-.463-.93,22.189,22.189,0,0,0,1.062-5.02.735.735,0,1,1,1.463.135,23.7,23.7,0,0,1-1.132,5.353A.735.735,0,0,1,2687.862,509.05Zm18.979-12.737a.725.725,0,0,1-.16-.017,9.607,9.607,0,0,1-3.64-1.944,13.11,13.11,0,0,1-2.422-2.243,5.872,5.872,0,0,1-1.349-3.252.735.735,0,0,1,1.467-.091,4.492,4.492,0,0,0,1.033,2.429,11.85,11.85,0,0,0,2.163,1.989,9.54,9.54,0,0,0,2.608,1.548.825.825,0,0,1,.766.185.81.81,0,0,1,.1,1.135A.732.732,0,0,1,2706.841,496.313Zm.4-.353v0Zm-20.916-4.514a.735.735,0,0,1-.047-1.468,2.457,2.457,0,0,0,2.2-2.21.734.734,0,0,1,1.466.09,3.935,3.935,0,0,1-3.574,3.586Zm15.035-10.3a.723.723,0,0,1-.172-.021.734.734,0,0,1-.543-.886l.971-4.047a.735.735,0,0,1,1.429.343l-.972,4.047A.733.733,0,0,1,2701.362,481.149Zm-11.423-3.012a.735.735,0,0,1-.7-.514l-1.65-5.23a.735.735,0,0,1-.042-1.347.9.9,0,0,1,.753-.011,1.279,1.279,0,0,1,.65.789l1.69,5.357a.734.734,0,0,1-.7.956Zm4.324-24.967a6.9,6.9,0,0,1-2.855-.611.735.735,0,1,1,.609-1.337,5.482,5.482,0,0,0,4.448.019.734.734,0,1,1,.6,1.341A6.884,6.884,0,0,1,2694.263,453.17Zm.1-16.8a.735.735,0,0,1-.735-.735v-.422a.733.733,0,0,1,.73-.739.717.717,0,0,1,.739.73l0,.431A.735.735,0,0,1,2694.363,436.374Z" fill="#15284c"/>
    <path id="패스_98" data-name="패스 98" d="M2690.886,430.132c-2.84.019-5.108-1.508-3.615-4.573.817-1.678,1.774-2.012,3.483-2.2,2.666-.292,8.719-.967,10.2,1.9.491.946.17,1.519.986,2.38.618.653,1.521,1.014,2.113,1.8,1.433,1.9,1.223,3.976,1.056,6.261a10.507,10.507,0,0,1-3.017,5.615c-2.406,2.334-1.9-1.606-2.309-3.414-.48-2.113.34-4.28-1.189-6.115-2.391-2.868-4.855-1.675-7.712-1.654" fill="#bdd9c8"/>
    <path id="패스_99" data-name="패스 99" d="M2700.9,442.771a1.249,1.249,0,0,1-.443-.081c-.987-.371-1.1-1.728-1.214-3.165a11.733,11.733,0,0,0-.175-1.462,11.086,11.086,0,0,1-.2-2.416,4.9,4.9,0,0,0-.835-3.391c-1.589-1.906-3.163-1.741-5.155-1.531-.636.067-1.294.136-1.988.141-.011-.006-.04,0-.06,0-1.992,0-3.557-.676-4.3-1.859a3.7,3.7,0,0,1,.083-3.771c.939-1.931,2.1-2.394,4.063-2.608,3.018-.331,9.227-1.01,10.936,2.292a4.25,4.25,0,0,1,.394,1.2,1.688,1.688,0,0,0,.473,1.01,5.468,5.468,0,0,0,.81.65,5.8,5.8,0,0,1,1.357,1.212c1.549,2.055,1.389,4.226,1.219,6.523l-.017.234a11.15,11.15,0,0,1-3.238,6.09A2.727,2.727,0,0,1,2700.9,442.771Zm-6.313-13.637a5.5,5.5,0,0,1,4.574,2.181,6.274,6.274,0,0,1,1.176,4.32,9.778,9.778,0,0,0,.164,2.1,12.544,12.544,0,0,1,.207,1.668,8.394,8.394,0,0,0,.278,1.853,2.734,2.734,0,0,0,.6-.471,9.825,9.825,0,0,0,2.795-5.142l.018-.235c.155-2.1.289-3.917-.927-5.53a4.521,4.521,0,0,0-1.035-.9,6.736,6.736,0,0,1-1.026-.839,3.082,3.082,0,0,1-.845-1.727,2.855,2.855,0,0,0-.26-.82c-1.246-2.408-7.2-1.756-9.436-1.511-1.645.18-2.29.463-2.937,1.794a2.377,2.377,0,0,0-.16,2.345,3.661,3.661,0,0,0,3.108,1.172h0c.623-.005,1.244-.07,1.845-.133A17.825,17.825,0,0,1,2694.589,429.134Zm-3.7,1h0Z" fill="#15284c"/>
    <path id="패스_100" data-name="패스 100" d="M2697.856,434.371c1.623-.005,3.674,1.873,3.336,3.459s-1.5,2.973-2.983,2.307" fill="#fff"/>
    <path id="패스_101" data-name="패스 101" d="M2698.96,441.044a2.565,2.565,0,0,1-1.052-.236.735.735,0,0,1,.6-1.341.921.921,0,0,0,.85.006,2.643,2.643,0,0,0,1.113-1.8,1.755,1.755,0,0,0-.485-1.38,3.123,3.123,0,0,0-2.127-1.191h-.006a.735.735,0,0,1,0-1.47h.008a4.494,4.494,0,0,1,3.268,1.735,3.138,3.138,0,0,1,.781,2.612,4,4,0,0,1-1.886,2.8A2.337,2.337,0,0,1,2698.96,441.044Z" fill="#15284c"/>
    <path id="패스_102" data-name="패스 102" d="M2696.876,540.113a4.139,4.139,0,0,1-2.693,1.879c-1.087.3-2.227.392-3.3.755-.727.249-1.408.62-2.135.871a6.957,6.957,0,0,1-1.948.375,3.228,3.228,0,0,1-2.194-.56,1.592,1.592,0,0,1-.428-2.057,2.74,2.74,0,0,1,.72-.616,10.689,10.689,0,0,0,3.145-3.427c.287-.5.626-1.089,1.2-1.151.724-.077,1.2.725,1.851,1.053,2.108,1.069,2.748-2.138,4.49-1.878s1.892,3.573,1.288,4.756" fill="#e95019"/>
    <path id="패스_103" data-name="패스 103" d="M2686.545,544.734a3.724,3.724,0,0,1-2.4-.728,2.318,2.318,0,0,1-.567-3.055,3.1,3.1,0,0,1,.824-.742l.076-.052a9.953,9.953,0,0,0,2.928-3.191c.324-.564.813-1.413,1.758-1.514a2.27,2.27,0,0,1,1.746.744,3.062,3.062,0,0,0,.514.384c.64.324.968.076,1.745-.715a2.948,2.948,0,0,1,2.522-1.234,2.287,2.287,0,0,1,1.718,1.337,5.7,5.7,0,0,1,.116,4.479h0a4.779,4.779,0,0,1-3.152,2.254c-.5.138-1.007.234-1.495.326a12.8,12.8,0,0,0-1.758.416c-.337.115-.669.262-1.021.417s-.723.318-1.11.453a7.7,7.7,0,0,1-2.154.414C2686.74,544.732,2686.641,544.734,2686.545,544.734Zm2.8-7.822h-.015c-.2.021-.466.481-.641.785a11.43,11.43,0,0,1-3.363,3.665l-.08.055a1.953,1.953,0,0,0-.46.383.879.879,0,0,0,.291,1.061,2.5,2.5,0,0,0,1.7.4,6.212,6.212,0,0,0,1.742-.335c.34-.117.669-.264,1-.409.364-.161.741-.327,1.139-.463a14.2,14.2,0,0,1,1.96-.469c.48-.091.934-.176,1.377-.3a3.493,3.493,0,0,0,2.235-1.505,4.372,4.372,0,0,0-.114-3.139c-.259-.5-.537-.542-.628-.556-.383-.06-.727.271-1.258.811-.717.731-1.8,1.833-3.456,1a4.124,4.124,0,0,1-.8-.577C2689.73,537.116,2689.49,536.912,2689.341,536.912Zm7.535,3.2h0Z" fill="#15284c"/>
    <path id="패스_104" data-name="패스 104" d="M2728.6,502.381a2.931,2.931,0,0,1,1.161.232c1.262.628,2.066,3.172,3.671,1.391,1.114-1.235-.128-3.911-.666-5.2a4.089,4.089,0,0,0-1.216-1.783c-.939-.692-2.249-.6-3.3-1.111-.985-.483-1.748-1.5-2.841-1.579a2.935,2.935,0,0,0-2.394,1.421c-.616.84-1.726,1.983-.886,2.949.625.719,2.26-.086,2.589.735.391.976-.942,1.746.239,2.729.7.578,2.816.168,3.64.213" fill="#e95019"/>
    <path id="패스_105" data-name="패스 105" d="M2732.356,505.361a2.928,2.928,0,0,1-2.034-1.278,3.8,3.8,0,0,0-.885-.813,2.373,2.373,0,0,0-.874-.155h0a8.086,8.086,0,0,0-.885.039c-1.154.085-2.462.179-3.184-.421a1.93,1.93,0,0,1-.559-2.414,1.335,1.335,0,0,0,.126-.535,3.671,3.671,0,0,0-.557-.015,2.331,2.331,0,0,1-1.923-.583c-1.13-1.3-.042-2.708.608-3.55.084-.109.165-.215.239-.315a3.542,3.542,0,0,1,3.042-1.719,4.183,4.183,0,0,1,2.194,1.04,5.979,5.979,0,0,0,.915.611,5.785,5.785,0,0,0,1.291.38,5.3,5.3,0,0,1,2.119.8,4.777,4.777,0,0,1,1.458,2.091l.106.25c.668,1.576,1.786,4.215.428,5.722a2.2,2.2,0,0,1-1.624.865Zm-3.713-3.714a3.6,3.6,0,0,1,1.449.308,4.712,4.712,0,0,1,1.32,1.143c.3.335.718.794.944.794.045,0,.216-.028.533-.38.732-.811-.228-3.076-.689-4.165l-.108-.256a3.494,3.494,0,0,0-.976-1.476,4.078,4.078,0,0,0-1.555-.546,6.9,6.9,0,0,1-1.628-.5,7.179,7.179,0,0,1-1.154-.758,2.972,2.972,0,0,0-1.418-.748c-.79-.066-1.486.765-1.748,1.122-.08.111-.169.225-.261.344-.693.9-.953,1.355-.662,1.689.078.09.559.082.788.077.626-.009,1.57-.027,1.928.866a2.2,2.2,0,0,1-.085,1.643c-.174.491-.192.542.112.795a5.581,5.581,0,0,0,2.139.086,9.112,9.112,0,0,1,1.071-.042Z" fill="#15284c"/>
    <path id="패스_106" data-name="패스 106" d="M2692.008,441.434a2.478,2.478,0,0,1-2.148-1.013.735.735,0,0,1,1.209-.836c.419.607,1.525.343,1.981.2a.735.735,0,0,1,.437,1.4A5.021,5.021,0,0,1,2692.008,441.434Z" fill="#15284c"/>
    <path id="패스_107" data-name="패스 107" d="M2702.93,446.132c.61-.708.928-1.575,1.492-2.311.992-1.3,2.129-2.489,3.84-2.577,4.025-.209,7.6,3.4,8.774,7.049a5.582,5.582,0,0,1-.743,4.31c-.789,1.425-2.147,2.22-3.374,3.209a22.205,22.205,0,0,0-2.04,2.142c-.588.613-1.375.858-1.953,1.524a11.615,11.615,0,0,0-2.7,6.167" fill="#def1fb"/>
    <path id="패스_108" data-name="패스 108" d="M2706.224,466.38a.811.811,0,0,1-.084-.005.734.734,0,0,1-.646-.814,12.375,12.375,0,0,1,2.878-6.565,5.189,5.189,0,0,1,1.186-.954,4.314,4.314,0,0,0,.791-.6c.232-.242.445-.488.656-.731a11.306,11.306,0,0,1,1.453-1.473c.272-.22.55-.43.827-.639a7.961,7.961,0,0,0,2.365-2.355,4.959,4.959,0,0,0,.687-3.73c-1.081-3.363-4.386-6.726-8.037-6.539-1.331.069-2.28.965-3.294,2.289a8.346,8.346,0,0,0-.615.978,8.257,8.257,0,0,1-.9,1.366.735.735,0,1,1-1.114-.959,7.06,7.06,0,0,0,.741-1.132,9.694,9.694,0,0,1,.725-1.146c1.092-1.426,2.38-2.76,4.385-2.863,4.531-.242,8.278,3.718,9.512,7.557a6.212,6.212,0,0,1-.8,4.891,9.185,9.185,0,0,1-2.765,2.816c-.264.2-.53.4-.79.609a10.042,10.042,0,0,0-1.265,1.293c-.228.262-.457.525-.706.786a5.619,5.619,0,0,1-1.055.814,3.952,3.952,0,0,0-.873.682,10.889,10.889,0,0,0-2.528,5.769A.734.734,0,0,1,2706.224,466.38Z" fill="#15284c"/>
    <path id="패스_109" data-name="패스 109" d="M2712.463,450.269l.156.019c1.1.113,2.563-.061,3.142-1.091a15.471,15.471,0,0,0,1.333-5.606c.165-1.636.514-3.3.554-4.946a9.989,9.989,0,0,0-.076-3.284c-.808-2.318-3.243-4.37-4.759-6.259a49.209,49.209,0,0,1-3.451-4.407,6.717,6.717,0,0,1-1.259-2.4c-.046-.613.473-1.233.712-1.879.539-1.459.875-4.482-.984-5.3-1.764-.777-2.975,1.778-3.62,2.929a3.92,3.92,0,0,0-.181,4.229,22.067,22.067,0,0,1,1.912,4.728,21.138,21.138,0,0,0,1.45,4.443,25.006,25.006,0,0,0,1.786,3.325c.519.8,1.668,1.757,1.845,2.7.274,1.466-1.359,3.269-2.073,4.421a6.186,6.186,0,0,0-.862,4.756,5.724,5.724,0,0,0,4.375,3.625" fill="#fff"/>
    <path id="패스_110" data-name="패스 110" d="M2713.215,451.054a6.469,6.469,0,0,1-.671-.035l-.185-.023a6.446,6.446,0,0,1-4.975-4.143,6.934,6.934,0,0,1,.942-5.353c.16-.259.366-.55.586-.863.653-.924,1.547-2.19,1.388-3.035a4.246,4.246,0,0,0-.988-1.48,9.073,9.073,0,0,1-.751-.952,25.592,25.592,0,0,1-1.84-3.423,21.85,21.85,0,0,1-1.5-4.594,16.029,16.029,0,0,0-1.423-3.66c-.146-.3-.292-.6-.434-.907a4.614,4.614,0,0,1,.205-4.9l.158-.287c.7-1.28,2.156-3.943,4.4-2.955,2.3,1.017,2.068,4.36,1.377,6.228a6.214,6.214,0,0,1-.35.745,2.092,2.092,0,0,0-.318.825,4.762,4.762,0,0,0,.847,1.61c.111.164.215.316.3.45a28.484,28.484,0,0,0,2.36,3.079c.35.417.7.834,1.043,1.261.425.53.929,1.077,1.462,1.655a15.236,15.236,0,0,1,3.418,4.822,6.935,6.935,0,0,1,.163,2.731c-.02.28-.041.554-.047.812a27.712,27.712,0,0,1-.328,3.211c-.084.6-.169,1.2-.229,1.791a15.83,15.83,0,0,1-1.424,5.892A3.467,3.467,0,0,1,2713.215,451.054Zm-6.016-35.338c-.8,0-1.541,1.216-2.182,2.389l-.165.3a3.218,3.218,0,0,0-.156,3.559c.139.3.282.594.425.889a17.4,17.4,0,0,1,1.54,4,20.351,20.351,0,0,0,1.4,4.292,23.951,23.951,0,0,0,1.733,3.227,8.1,8.1,0,0,0,.631.792,5.09,5.09,0,0,1,1.319,2.168c.272,1.455-.784,2.951-1.632,4.153-.2.286-.391.552-.539.79a5.446,5.446,0,0,0-.781,4.159,5.015,5.015,0,0,0,3.774,3.108h0l.11.013c.9.094,2.063-.042,2.442-.718a15.221,15.221,0,0,0,1.243-5.32c.062-.613.149-1.23.237-1.85a26.634,26.634,0,0,0,.313-3.039c.007-.281.028-.579.05-.884a5.8,5.8,0,0,0-.085-2.14,13.974,13.974,0,0,0-3.111-4.31c-.55-.6-1.07-1.162-1.527-1.732-.335-.417-.679-.827-1.022-1.235a30.068,30.068,0,0,1-2.478-3.239c-.076-.122-.17-.259-.271-.406a5.337,5.337,0,0,1-1.1-2.33,3.008,3.008,0,0,1,.483-1.618,5.045,5.045,0,0,0,.272-.57c.456-1.233.75-3.783-.592-4.375A.837.837,0,0,0,2707.2,415.716Z" fill="#15284c"/>
    <path id="패스_111" data-name="패스 111" d="M2702.633,454.531a.735.735,0,0,1-.692-.488,10.047,10.047,0,0,1-.281-6.447,8.608,8.608,0,0,0-1.218,2.443.735.735,0,1,1-1.421-.373c.26-.991,1.8-4.517,3.8-4.6a.735.735,0,0,1,.687.4.688.688,0,0,1,.086.05.735.735,0,0,1,.2,1.02,7.883,7.883,0,0,0-.462,7.006.734.734,0,0,1-.445.939A.71.71,0,0,1,2702.633,454.531Z" fill="#15284c"/>
    <path id="패스_112" data-name="패스 112" d="M2689.368,435.564l.732-.064-.738-.006-.021-.233a.735.735,0,1,1,1.464-.128l.021.231-.726.136Z" fill="#15284c"/>
  </g>
</svg>
