<svg xmlns="http://www.w3.org/2000/svg" id="prefix__btn_logo" width="160" height="40" viewBox="0 0 160 40">
    <defs>
        <style>
            .logo-prefix__cls-3{fill:#002554}
        </style>
    </defs>
    <path id="prefix__touch_area" d="M0 0H160V40H0z" style="fill:none;opacity:0"/>
    <path id="prefix__패스_2" d="M524.751 457.064a5.368 5.368 0 0 0-10.719 0v5.247a5.368 5.368 0 0 0 10.719 0z" transform="translate(-504.032 -439.987)" style="fill:#ff4d00"/>
    <path id="prefix__패스_3" d="M673.376 451.987a5.472 5.472 0 0 0-4.165 1.884 5.471 5.471 0 0 0-4.164-1.884 5.227 5.227 0 0 0-5.36 5.069v9.892h2.391v-9.892a2.974 2.974 0 0 1 5.938 0v9.892h2.391v-9.892a2.974 2.974 0 0 1 5.938 0v9.892h2.391v-9.892a5.227 5.227 0 0 0-5.36-5.069" class="logo-prefix__cls-3" transform="translate(-550.105 -439.987)"/>
    <path id="prefix__패스_4" d="M644.995 465.124a2.9 2.9 0 0 1-2.968-2.813v-1.275h5.227v-2.265h-5.227v-1.706a2.973 2.973 0 0 1 5.937 0h2.391a5.368 5.368 0 0 0-10.72 0v5.247a5.368 5.368 0 0 0 10.72 0h-2.391a2.9 2.9 0 0 1-2.97 2.813" class="logo-prefix__cls-3" transform="translate(-543.719 -439.987)"/>
    <path id="prefix__사각형_14" d="M0 0H2.391V14.55H0z" class="logo-prefix__cls-3" transform="translate(43.266 12.412)"/>
    <path id="prefix__패스_5" d="M549.662 461.013a2.971 2.971 0 0 1-5.933 0v-3.957a2.973 2.973 0 0 1 5.938 0v3.957zm-2.967-9.026a5.227 5.227 0 0 0-5.36 5.069v9.892h2.391v-1.721a5.6 5.6 0 0 0 5.938 0v1.721h2.391v-9.892a5.227 5.227 0 0 0-5.36-5.069" class="logo-prefix__cls-3" transform="translate(-512.519 -439.987)"/>
    <path id="prefix__사각형_15" d="M0 0H2.391V14.55H0z" class="logo-prefix__cls-3" transform="translate(132.674 12.412)"/>
    <path id="prefix__패스_6" d="M711.355 461.013a2.971 2.971 0 0 1-5.932 0v-3.957a2.974 2.974 0 0 1 5.938 0v3.957zm-2.966-9.026a5.227 5.227 0 0 0-5.36 5.069v9.892h2.391v-1.721a5.6 5.6 0 0 0 5.938 0v1.721h2.391v-9.892a5.227 5.227 0 0 0-5.36-5.069" class="logo-prefix__cls-3" transform="translate(-563.749 -439.987)"/>
    <path id="prefix__패스_7" d="M604.889 459.859h-2.966v-2.8a2.971 2.971 0 1 1 2.966 2.8m5.363-2.8a5.227 5.227 0 0 0-5.36-5.068 5.224 5.224 0 0 0-5.357 5.066v9.895h2.391v-4.828h2.966a5.225 5.225 0 0 0 5.358-5.064z" class="logo-prefix__cls-3" transform="translate(-531.047 -439.987)"/>
    <path id="prefix__패스_8" d="M574.619 459.859v-2.8a2.971 2.971 0 1 1 2.966 2.8zm6.333 1.131a4.959 4.959 0 0 0 1.99-3.934h.006a5.227 5.227 0 0 0-5.36-5.069 5.224 5.224 0 0 0-5.357 5.067v9.895h2.391v-4.828h2.966a2.892 2.892 0 0 1 2.966 2.805v2.022h2.391v-2.022a4.959 4.959 0 0 0-1.991-3.936" class="logo-prefix__cls-3" transform="translate(-522.42 -439.987)"/>
    <path id="prefix__패스_9" d="M621.975 459.859v-2.8a2.971 2.971 0 1 1 2.966 2.8zm6.333 1.131a4.962 4.962 0 0 0 1.991-3.934 5.226 5.226 0 0 0-5.36-5.069 5.224 5.224 0 0 0-5.357 5.067v9.895h2.391v-4.828h2.966a2.893 2.893 0 0 1 2.967 2.805v2.022h2.394v-2.022a4.959 4.959 0 0 0-1.991-3.936" class="logo-prefix__cls-3" transform="translate(-537.383 -439.987)"/>
</svg>
