<svg id="btn_logo" xmlns="http://www.w3.org/2000/svg" width="240" height="60" viewBox="0 0 240 60">
  <rect id="touch_area" width="240" height="60" fill="none" opacity="0"/>
  <path id="패스_2" data-name="패스 2" d="M530.111,459.6a8.051,8.051,0,0,0-16.079,0v7.87a8.051,8.051,0,0,0,16.079,0Z" transform="translate(-499.032 -433.987)" fill="#ff4d00"/>
  <path id="패스_3" data-name="패스 3" d="M680.22,451.987a8.207,8.207,0,0,0-6.247,2.826,8.206,8.206,0,0,0-6.246-2.826,7.84,7.84,0,0,0-8.04,7.6v14.839h3.586V459.591a4.46,4.46,0,0,1,8.907,0v14.839h3.586V459.591a4.461,4.461,0,0,1,8.907,0v14.839h3.586V459.591a7.84,7.84,0,0,0-8.04-7.6" transform="translate(-495.315 -433.987)" fill="#002554"/>
  <path id="패스_4" data-name="패스 4" d="M647.675,471.691a4.345,4.345,0,0,1-4.452-4.219V465.56h7.84v-3.4h-7.84V459.6a4.46,4.46,0,0,1,8.906,0h3.586a8.052,8.052,0,0,0-16.08,0v7.87a8.052,8.052,0,0,0,16.08,0h-3.586a4.348,4.348,0,0,1-4.454,4.219" transform="translate(-495.76 -433.987)" fill="#002554"/>
  <rect id="사각형_14" data-name="사각형 14" width="3.586" height="21.825" transform="translate(64.9 18.618)" fill="#002554"/>
  <path id="패스_5" data-name="패스 5" d="M553.825,465.526a4.457,4.457,0,0,1-8.9,0h0v-5.935a4.46,4.46,0,0,1,8.906,0v5.935Zm-4.45-13.539a7.84,7.84,0,0,0-8.04,7.6v14.839h3.587v-2.581a8.4,8.4,0,0,0,8.906,0v2.581h3.586V459.591a7.84,7.84,0,0,0-8.039-7.6" transform="translate(-498.11 -433.987)" fill="#002554"/>
  <rect id="사각형_15" data-name="사각형 15" width="3.586" height="21.825" transform="translate(199.011 18.618)" fill="#002554"/>
  <path id="패스_6" data-name="패스 6" d="M715.518,465.526a4.456,4.456,0,0,1-8.9,0h0v-5.935a4.46,4.46,0,0,1,8.907,0v5.935Zm-4.449-13.539a7.84,7.84,0,0,0-8.04,7.6v14.839h3.586v-2.582a8.395,8.395,0,0,0,8.907,0v2.582h3.586V459.591a7.84,7.84,0,0,0-8.04-7.6" transform="translate(-494.109 -433.987)" fill="#002554"/>
  <path id="패스_7" data-name="패스 7" d="M607.568,463.795h-4.449v-4.2a4.457,4.457,0,1,1,4.449,4.2m8.044-4.2a7.84,7.84,0,0,0-8.039-7.6h0a7.835,7.835,0,0,0-8.035,7.6v14.842h3.586v-7.242h4.449a7.837,7.837,0,0,0,8.036-7.6Z" transform="translate(-496.805 -433.987)" fill="#002554"/>
  <path id="패스_8" data-name="패스 8" d="M575.814,463.795v-4.2a4.456,4.456,0,1,1,4.449,4.2Zm9.5,1.7a7.439,7.439,0,0,0,2.985-5.9h.008a7.84,7.84,0,0,0-8.04-7.6h0a7.835,7.835,0,0,0-8.035,7.6v14.842h3.586v-7.242h4.449a4.338,4.338,0,0,1,4.45,4.208v3.033H588.3V471.4a7.438,7.438,0,0,0-2.986-5.9" transform="translate(-497.516 -433.987)" fill="#002554"/>
  <path id="패스_9" data-name="패스 9" d="M623.17,463.795v-4.2a4.457,4.457,0,1,1,4.449,4.2Zm9.5,1.7a7.442,7.442,0,0,0,2.987-5.9h.007a7.84,7.84,0,0,0-8.039-7.6h0a7.836,7.836,0,0,0-8.035,7.6v14.842h3.586v-7.242h4.449a4.34,4.34,0,0,1,4.451,4.208v3.033h3.586V471.4a7.438,7.438,0,0,0-2.987-5.9" transform="translate(-496.283 -433.987)" fill="#002554"/>
</svg>
