<svg xmlns="http://www.w3.org/2000/svg" id="prefix__ico_apple" width="14" height="14" viewBox="0 0 14 14">
    <defs>
        <style>
            .prefix__cls-1{fill:#222}
        </style>
    </defs>
    <g id="prefix__그룹_1964" transform="translate(54.639 -49.475)">
        <path id="prefix__패스_1678" d="M-44.287 56.866a2.8 2.8 0 0 1 1.33-2.344 2.856 2.856 0 0 0-2.252-1.217c-.948-.1-1.867.567-2.35.567s-1.236-.558-2.037-.541a3 3 0 0 0-2.525 1.54c-1.091 1.89-.277 4.667.769 6.2.523.748 1.134 1.584 1.934 1.554.783-.032 1.076-.5 2.021-.5s1.21.5 2.027.48c.84-.013 1.369-.751 1.874-1.506a6.191 6.191 0 0 0 .857-1.746 2.7 2.7 0 0 1-1.648-2.487z" class="prefix__cls-1" />
        <path id="prefix__패스_1679" d="M-45.829 52.3a2.755 2.755 0 0 0 .63-1.97 2.8 2.8 0 0 0-1.811.936 2.622 2.622 0 0 0-.646 1.9 2.317 2.317 0 0 0 1.827-.866z" class="prefix__cls-1" />
    </g>
    <path id="prefix__사각형_1448" d="M0 0H14V14H0z" style="fill:none"/>
</svg>
