<svg id="btn_google" xmlns="http://www.w3.org/2000/svg" xmlns:xlink="http://www.w3.org/1999/xlink" width="14" height="14" viewBox="0 0 14 14">
  <defs>
    <linearGradient id="linear-gradient" x1="0.296" y1="-0.06" x2="0.552" y2="0.928" gradientUnits="objectBoundingBox">
      <stop offset="0" stop-color="#006884"/>
      <stop offset="1" stop-color="#8ad1d0"/>
    </linearGradient>
    <linearGradient id="linear-gradient-2" x1="-0.077" y1="0.161" x2="0.917" y2="0.865" gradientUnits="objectBoundingBox">
      <stop offset="0" stop-color="#24bbb6"/>
      <stop offset="1" stop-color="#dbe692"/>
    </linearGradient>
    <linearGradient id="linear-gradient-3" x1="0.5" y1="1.051" x2="0.5" y2="-0.046" gradientUnits="objectBoundingBox">
      <stop offset="0" stop-color="#fcc072"/>
      <stop offset="1" stop-color="#f58a5b"/>
    </linearGradient>
    <linearGradient id="linear-gradient-4" x1="0.109" y1="1.176" x2="0.905" y2="0.115" gradientUnits="objectBoundingBox">
      <stop offset="0" stop-color="#712b8f"/>
      <stop offset="1" stop-color="#ea1d27"/>
    </linearGradient>
  </defs>
  <g id="ico_googleplay" transform="translate(71.866 -72.723)">
    <rect id="사각형_1451" width="14" height="14" transform="translate(-71.866 72.723)" fill="none"/>
    <g id="그룹_1967">
      <path id="패스_1684" d="M-69.866,79.723V74.918a.515.515,0,0,1,.472-.507.811.811,0,0,1,.434.121l8.811,4.817a.456.456,0,0,1,.283.374.457.457,0,0,1-.283.375l-8.811,4.817a.811.811,0,0,1-.434.121.516.516,0,0,1-.472-.508Z" fill-rule="evenodd" fill="url(#linear-gradient)"/>
      <path id="패스_1685" d="M-64.143,79.755l-5.334-5.335a.384.384,0,0,1,.083-.009.811.811,0,0,1,.434.121l6.491,3.548Z" fill-rule="evenodd" fill="url(#linear-gradient-2)"/>
      <path id="패스_1686" d="M-62.509,81.388l-1.634-1.633,1.674-1.675,2.32,1.269a.456.456,0,0,1,.283.374.457.457,0,0,1-.283.375Z" fill-rule="evenodd" fill="url(#linear-gradient-3)"/>
      <path id="패스_1687" d="M-69.423,85.035l0-.005,5.275-5.275,1.634,1.633-6.451,3.527a.811.811,0,0,1-.434.121Z" fill-rule="evenodd" fill="url(#linear-gradient-4)"/>
    </g>
  </g>
</svg>
