<svg xmlns="http://www.w3.org/2000/svg" width="34.1" height="34.1" viewBox="0 0 34.1 34.1">
    <defs>
        <style>
            .prefix__cls-2{fill:none;stroke-miterlimit:10;stroke:#222;stroke-width:2.5px}
        </style>
    </defs>
    <g id="prefix__ico_oxygentank" transform="translate(.05 .05)">
        <path id="prefix__사각형_1588" d="M0 0H34V34H0z" style="stroke:red;stroke-width:.1px;opacity:0;fill:none;stroke-miterlimit:10"/>
        <g id="prefix__그룹_2330" transform="translate(5.219 3.299)">
            <rect id="prefix__사각형_1589" width="9.161" height="23.515" class="prefix__cls-2" rx="4.58" transform="translate(0 3.886)"/>
            <rect id="prefix__사각형_1590" width="9.161" height="23.515" class="prefix__cls-2" rx="4.58" transform="translate(14.402 3.886)"/>
            <path id="prefix__선_390" d="M0 2.613L0 0" class="prefix__cls-2" transform="translate(4.58 1.274)"/>
            <path id="prefix__선_391" d="M0 0L6.548 0" class="prefix__cls-2" transform="translate(1.306 .201)"/>
            <path id="prefix__선_392" d="M0 2.613L0 0" class="prefix__cls-2" transform="translate(18.983 1.274)"/>
            <path id="prefix__선_393" d="M0 0L6.548 0" class="prefix__cls-2" transform="translate(15.709 .201)"/>
            <path id="prefix__선_394" d="M0 0L9.161 0" class="prefix__cls-2" transform="translate(0 11.723)"/>
            <path id="prefix__선_395" d="M0 0L9.161 0" class="prefix__cls-2" transform="translate(14.402 11.723)"/>
            <path id="prefix__선_396" d="M0 0L5.292 0" class="prefix__cls-2" transform="translate(9.111 16.643)"/>
        </g>
    </g>
</svg>
