<svg xmlns="http://www.w3.org/2000/svg" id="prefix__ico_bed" width="34" height="34" viewBox="0 0 34 34">
    <defs>
        <style>
            .prefix__cls-2{fill:none;stroke:#222;stroke-miterlimit:10;stroke-width:2.5px}
        </style>
    </defs>
    <path id="prefix__area" d="M0 0H34V34H0z" style="fill:#fff;opacity:0"/>
    <g id="prefix__그룹_2283" transform="translate(1.307 5.23)">
        <path id="prefix__선_385" d="M0 0L0 20.893" class="prefix__cls-2" transform="translate(29.401 3.926)"/>
        <path id="prefix__선_386" d="M0 0L0 20.893" class="prefix__cls-2" transform="translate(1.962 3.926)"/>
        <g id="prefix__그룹_2282" transform="translate(1.961 7.993)">
            <path id="prefix__패스_1538" d="M256.2 281.338h-14.021a6.709 6.709 0 0 1-6.708-6.707v-5.062h27.441v5.062a6.709 6.709 0 0 1-6.712 6.707z" class="prefix__cls-2" transform="translate(-235.471 -269.569)"/>
            <path id="prefix__선_387" d="M0 0L0 11.307" class="prefix__cls-2" transform="translate(6.52)"/>
            <path id="prefix__선_389" d="M0 0L0 11.307" class="prefix__cls-2" transform="translate(13.908)"/>
            <path id="prefix__선_388" d="M0 0L0 11.307" class="prefix__cls-2" transform="translate(20.912)"/>
        </g>
        <circle id="prefix__타원_249" cx="1.962" cy="1.962" r="1.962" class="prefix__cls-2" transform="translate(27.44)"/>
        <circle id="prefix__타원_250" cx="1.962" cy="1.962" r="1.962" class="prefix__cls-2" />
    </g>
</svg>
