<svg xmlns="http://www.w3.org/2000/svg" width="14.002" height="9.802" viewBox="0 0 14.002 9.802">
    <g id="ico_sns_youtube" transform="translate(-84.55 -85.039)">
        <path id="패스_1745" d="M98.26 86.57a1.754 1.754 0 0 0-1.238-1.238 41.838 41.838 0 0 0-5.471-.293 41.839 41.839 0 0 0-5.471.293 1.754 1.754 0 0 0-1.238 1.238 19.562 19.562 0 0 0 0 6.741 1.754 1.754 0 0 0 1.238 1.238 41.837 41.837 0 0 0 5.471.293 41.837 41.837 0 0 0 5.471-.293 1.754 1.754 0 0 0 1.238-1.239 19.562 19.562 0 0 0 0-6.741z" />
        <path id="패스_1746" fill="#fff" d="M133.144 113.537l3.638-2.1-3.638-2.1z" transform="translate(-42.993 -21.497)"/>
    </g>
</svg>
