<svg xmlns="http://www.w3.org/2000/svg" width="20.1" height="20.1" viewBox="0 0 20.1 20.1">
    <defs>
        <style>
            .prefix__cls-1_ico_reservation_change,.prefix__cls-2_ico_reservation_change{fill:none;stroke-miterlimit:10}.prefix__cls-1_ico_reservation_change{stroke:#222;stroke-width:2px}.prefix__cls-2_ico_reservation_change{stroke:red;stroke-width:.1px;opacity:0}
        </style>
    </defs>
    <g id="prefix__ico_reservation_change" transform="translate(.05 .05)">
        <path id="prefix__패스_1288" d="M678.088 55.856V40.484a2.308 2.308 0 0 1 2.308-2.308h7.692a2.308 2.308 0 0 1 2.308 2.308v1.539" class="prefix__cls-1_ico_reservation_change" transform="translate(-674.242 -36.629)"/>
        <path id="prefix__사각형_1265" d="M0 0H20V20H0z" class="prefix__cls-2_ico_reservation_change" />
        <path id="prefix__사각형_1266" d="M0 0H20V20H0z" class="prefix__cls-2_ico_reservation_change" />
        <path id="prefix__패스_1289" d="M693.64 46.271a1.92 1.92 0 0 0-2.717 0l-7.831 7.829v2.717h2.718l7.83-7.832a1.921 1.921 0 0 0 0-2.714z" class="prefix__cls-1_ico_reservation_change" transform="translate(-675.396 -38.367)"/>
        <path id="prefix__선_376" d="M0 0L2.718 2.718" class="prefix__cls-1_ico_reservation_change" transform="translate(14.171 9.259)"/>
    </g>
</svg>
