<svg xmlns="http://www.w3.org/2000/svg" width="34.1" height="34.1" viewBox="0 0 34.1 34.1">
    <defs>
        <style>
            .prefix__cls-2{fill:none;stroke:#222;stroke-width:2.5px;stroke-linejoin:round}
        </style>
    </defs>
    <g id="prefix__ico_animal" transform="translate(.05 .05)">
        <path id="prefix__사각형_1132" d="M0 0H34V34H0z" style="stroke-miterlimit:10;stroke:red;stroke-width:.1px;opacity:0;fill:none"/>
        <g id="prefix__그룹_2328" transform="translate(-590.22 -41.451)">
            <path id="prefix__패스_1102" d="M615.041 47.063v13.622a8.706 8.706 0 0 1-8.707 8.707 8.706 8.706 0 0 1-8.707-8.707V47.063" class="prefix__cls-2" transform="translate(.886 2.776)"/>
            <path id="prefix__패스_1103" d="M594.632 55.287v-5.438a3.272 3.272 0 0 1 3.271-3.272h17.444a3.276 3.276 0 0 1 3.276 3.275v5.434" class="prefix__cls-2" transform="translate(.618 -.535)"/>
            <path id="prefix__선_357" d="M0 6.531L0 0" transform="translate(607.221 65.637)" style="stroke:#222;stroke-width:2.5px;stroke-miterlimit:10;fill:none"/>
            <path id="prefix__사각형_1133" d="M.5 0h2.813a.5.5 0 0 1 .5.5v.473a1.75 1.75 0 0 1-1.75 1.75H1.75A1.75 1.75 0 0 1 0 .974V.5A.5.5 0 0 1 .5 0z" transform="translate(605.314 63.46)" style="fill:#222"/>
            <path id="prefix__선_358" d="M0 0L0 4.354" class="prefix__cls-2" transform="translate(603.957 56.932)"/>
            <path id="prefix__선_359" d="M0 0L0 4.354" class="prefix__cls-2" transform="translate(610.484 56.932)"/>
        </g>
    </g>
</svg>
