<svg xmlns="http://www.w3.org/2000/svg" id="prefix__ico_print" width="20" height="20" viewBox="0 0 20 20">
    <defs>
        <style>
            .prefix__cls-1_print{fill:none;stroke:#222;stroke-miterlimit:10;stroke-width:1.5px}
        </style>
    </defs>
    <g id="prefix__그룹_2381" transform="translate(-354.693 -284.74)">
        <path id="prefix__패스_1695" d="M362.689 291.614v-2.952a.922.922 0 0 1 .922-.923h5.956a.922.922 0 0 1 .922.923v2.952" class="prefix__cls-1_print" transform="translate(-1.396)"/>
        <rect id="prefix__사각형_1588" width="7.8" height="5.89" class="prefix__cls-1_print" rx="1.409" transform="translate(361.293 296.149)"/>
        <path id="prefix__패스_1696" d="M361.034 300.745h-1.244a1.1 1.1 0 0 1-1.1-1.1v-5.161a1.1 1.1 0 0 1 1.1-1.1h10.81a1.1 1.1 0 0 1 1.1 1.1v5.161a1.1 1.1 0 0 1-1.1 1.1h-1.34" class="prefix__cls-1_print" transform="translate(0 -1.974)"/>
        <path id="prefix__선_381" d="M2.117 0L0 0" transform="translate(366.976 293.589)" style="fill:none;stroke:#222;stroke-miterlimit:10"/>
    </g>
    <path id="prefix__asset_area" d="M0 0H20V20H0z" style="fill:#fff;opacity:.004"/>
</svg>
