<svg xmlns="http://www.w3.org/2000/svg" width="26" height="26" viewBox="0 0 26 26">
    <g id="img_c025" transform="translate(-35 -388)">
        <g id="box" fill="#fff" stroke="#e5e5e5" transform="translate(35 388)">
            <rect width="26" height="26" stroke="none" rx="13"/>
            <rect width="25" height="25" x=".5" y=".5" fill="none" rx="12.5"/>
        </g>
        <g id="그룹_3311" transform="translate(-195.556 149.449)">
            <g id="그룹_3312" transform="translate(236.507 244.051)">
                <g id="그룹_3311-2" >
                    <path id="패스_3138" fill="#fff" d="M240.157 244.231a1.68 1.68 0 0 0-.85.98l-2.712 8.152a1.7 1.7 0 0 0 1.073 2.144l8.9 2.986a1.694 1.694 0 0 0 2.145-1.074l2.713-8.149a1.7 1.7 0 0 0-1.074-2.147l-8.894-2.986a1.684 1.684 0 0 0-1.3.093" transform="translate(-236.507 -244.051)"/>
                    <path id="패스_3139" fill="#007ec0" d="M248.142 255.8a4.646 4.646 0 0 1-1.784 1.244l-.4.155v-3.777l.4.154a4.658 4.658 0 0 1 1.789 1.239 4.087 4.087 0 0 0-1.978-5.954l-1.285-.427a1.1 1.1 0 0 0-1.389.7l-2.72 8.156a1.113 1.113 0 0 0 .713 1.4l6.173 2.061a4.086 4.086 0 0 0 .486-4.957m-3.568 1.632h-.613V253.2h.613z" transform="translate(-240.144 -247.792)"/>
                    <path id="패스_3140" fill="#e43e00" d="M284.946 293.167a4.119 4.119 0 0 0-1.242-.992v1.99a4.1 4.1 0 0 0 1.242-1" transform="translate(-277.305 -285.65)"/>
                    <path id="패스_3141" fill="#004187" d="M301.014 258.66l-5.665-1.893a4.666 4.666 0 0 1 .411 5.793 4.667 4.667 0 0 1-.271 5.654l2.127.71a1.1 1.1 0 0 0 1.389-.706l2.722-8.156a1.116 1.116 0 0 0-.714-1.4m-1.5 6.011h-.765l-1.574-2.118 1.6-2.117h.772l-1.6 2.123z" transform="translate(-287.371 -255.043)"/>
                </g>
            </g>
        </g>
    </g>
</svg>
