<svg xmlns="http://www.w3.org/2000/svg" width="168" height="196.168" viewBox="0 0 168 196.168">
    <defs>
        <clipPath id="clip-path">
            <path id="mask" fill="#fff" stroke="gray" d="M0 0H168V196.168H0z" transform="translate(220.012 391.819)"/>
        </clipPath>
        <style>
            .cls-5_mobileCheckin{fill:#fff}.cls-3_mobileCheckin{fill:#d7effc}.cls-4_mobileCheckin{fill:none;stroke:#0a1f3c;stroke-linecap:round;stroke-linejoin:round;stroke-width:2px}.cls-6_mobileCheckin{fill:#72697f}.cls-8_mobileCheckin{fill:#b3a9a0}
        </style>
    </defs>
    <g id="img_mobilecheck" clip-path="url(#clip-path)" transform="translate(-220.012 -391.819)">
        <g id="그룹_3173" transform="translate(-4118.383 1112.281)">
            <path id="패스_2999" d="M4347.4-616.885v-53.949c0-7.341 6.012-15.1 13.36-17.242l30.3-8.83c7.35-2.141 13.362 2.115 13.362 9.457v53.949c0 7.343-6.012 15.1-13.362 17.243l-30.3 8.828c-7.348 2.142-13.36-2.113-13.36-9.456" class="cls-3_mobileCheckin"/>
            <path id="패스_3000" d="M4347.4-616.885v-53.949c0-7.341 6.012-15.1 13.36-17.242l30.3-8.83c7.35-2.141 13.362 2.115 13.362 9.457v53.949c0 7.343-6.012 15.1-13.362 17.243l-30.3 8.828c-7.353 2.142-13.36-2.114-13.36-9.456z" class="cls-4_mobileCheckin"/>
            <g id="그룹_3173-2" transform="translate(4355.637 -675.315)">
                <path id="패스_3001" d="M4393.956-657.745l-15.591-5.949a2.525 2.525 0 0 0-.324-.032l.674-15.129a2.56 2.56 0 0 0-3.528-2.5 5.1 5.1 0 0 0-3.53 4.556l.667 14.573a4.269 4.269 0 0 0-1.427.708l-15.59 15.04c-1.68 1.247-2.434 3.462-1.676 4.92s1.635-1 3.313-2.246l15.691-11.655.534 11.677-5.628 7.455a3.2 3.2 0 0 0-.682 2.968c.31.959.666-.52 1.351-1.193l6.8-2.808a2.42 2.42 0 0 0 .4-.545 1 1 0 0 0 .4.312l6.8-1.157c.684.275 1.042 1.544 1.35.406s0-2.295-.681-2.568l-6.053-4.487.495-11.05 14.6 2.332c1.68.268 2.557 2.214 3.314.312s0-3.674-1.675-3.942" class="cls-3_mobileCheckin" transform="translate(-4353.335 681.5)"/>
                <path id="패스_3002" d="M4379.7-638.254l2.905-.5c.684.275 1.042 1.544 1.35.406s0-2.295-.681-2.568l-6.053-4.487.495-11.05 14.6 2.332c1.68.268 2.557 2.214 3.314.312s0-3.674-1.675-3.942l-15.591-5.949a2.525 2.525 0 0 0-.324-.032l.674-15.129a2.56 2.56 0 0 0-3.528-2.5 5.1 5.1 0 0 0-3.53 4.556l.667 14.573a4.269 4.269 0 0 0-1.427.708l-15.59 15.04c-1.68 1.247-2.434 3.462-1.676 4.92s1.635-1 3.313-2.246l15.691-11.655.534 11.677-5.628 7.455a3.2 3.2 0 0 0-.682 2.968c.31.959.666-.52 1.351-1.193l3.929-1.573a37.069 37.069 0 0 1 7.562-2.123z" class="cls-4_mobileCheckin" transform="translate(-4353.335 681.5)"/>
            </g>
            <path id="패스_3003" d="M4373.7-629.086c-.724-1.981-1.607-2.592-2.718-4.538-1.161-2.037-1.954-4.1-1.242-6.416.965-3.14 4.957-4.441 4.365-8.262-.171-1.1-4.166-7.374-3.9-7.653 9.118-9.492 15.487 23.437 15.907 27.841.468 4.916-6.814 10.4-10.732 5.632-1.083-1.321-.983-4.361-1.468-5.957-.071-.232-.141-.445-.215-.646" class="cls-5_mobileCheckin" transform="translate(8.554 15.419)"/>
            <path id="패스_3004" d="M4373.7-628.985c-.724-1.981-1.607-2.592-2.718-4.538-1.161-2.037-1.954-4.1-1.242-6.416.965-3.14 4.677-2.929 4.084-6.75-.171-1.1-5.44-8.633-2.985-10.331 9.48-6.566 14.855 24.6 15.275 29.006.468 4.916-6.814 10.4-10.732 5.632-1.083-1.321-.983-4.361-1.468-5.956-.069-.232-.139-.446-.214-.647z" class="cls-4_mobileCheckin" transform="translate(8.554 15.319)"/>
            <path id="패스_3005" d="M4412.027-591.04c-7.864-3.5-15.471-9.435-24.362-9.318-7.607.1-13.495 6.381-14.754 14.255-.513 3.2 1.06 5.8 1.719 8.652.44 1.909-.326 4.87.652 6.543 1.516 2.592 4.417 2.779 7.176 3.249 5.49.932 13.119 3.938 18.688 2.636 9.284-2.17 20.292-20.426 10.881-26.018" class="cls-6_mobileCheckin" transform="translate(9.848 37.623)"/>
            <path id="패스_3006" d="M4412.027-591.04c-7.864-3.5-15.471-9.435-24.362-9.318-7.607.1-13.495 6.381-14.754 14.255-.513 3.2 1.06 5.8 1.719 8.652.44 1.909-.326 4.87.652 6.543 1.516 2.592 4.417 2.779 7.176 3.249 5.49.932 13.119 3.938 18.688 2.636 9.284-2.169 20.292-20.426 10.881-26.017z" class="cls-4_mobileCheckin" transform="translate(9.848 37.623)"/>
            <path id="패스_3007" d="M4399.486-591.852c-3.863-.7-7.716-1.2-11.609-1.737-7.187-.995-16.762-3.231-21.987 3.1-6.331 7.677-5.276 19.531-3.931 28.66 1.765 11.977 4.05 23.83 5.184 35.838.62 6.574-.307 13.077 7.573 15.105 8.615 2.216 14.7-2.135 14.3-11-.387-8.8-4.018-17.724-5.518-26.406-.437-2.531-3.49-11.408-1.871-13.728 2.476-3.545 12.074 4.2 14.128 5.573 6.755 4.515 11.634 7.273 19.686 8.77 9.07 1.686 18.549.2 25.539-6.264 4.667-4.315 8.722-13.225 7.1-19.573-1.972-7.732-11.723-10.209-18.476-11.537-9.124-1.793-17.546-4.164-26.7-6.133q-1.716-.366-3.425-.674" class="cls-6_mobileCheckin" transform="translate(5.248 39.779)"/>
            <path id="패스_3008" d="M4399.486-591.852c-3.863-.7-7.716-1.2-11.609-1.737-7.187-.995-16.762-3.231-21.987 3.1-6.331 7.677-5.276 19.531-3.931 28.66 1.765 11.977 4.05 23.83 5.184 35.838.62 6.574-.307 13.077 7.573 15.105 8.615 2.216 14.7-2.135 14.3-11-.387-8.8-4.018-17.724-5.518-26.406-.437-2.531-3.49-11.408-1.871-13.728 2.476-3.545 12.074 4.2 14.128 5.573 6.755 4.515 11.634 7.273 19.686 8.77 9.07 1.686 18.549.2 25.539-6.264 4.667-4.315 8.722-13.225 7.1-19.573-1.972-7.732-11.723-10.209-18.476-11.537-9.124-1.793-17.546-4.164-26.7-6.133q-1.704-.36-3.418-.668z" class="cls-4_mobileCheckin" transform="translate(5.248 39.779)"/>
            <path id="패스_3009" d="M4409.646-671.6c-4.59 3.576-6.868 11.305-7.954 18.854-.8 5.573.352 14.27 4.694 18.088 7.412 6.518 25.653 1.672 27.677-7.789 2.092-9.789-.171-22.617-9.4-28.173-6.678-4.018-11.518-3.706-15.016-.981" class="cls-5_mobileCheckin" transform="translate(20.946 9.229)"/>
            <path id="패스_3010" d="M4409.646-671.6c-4.59 3.576-6.868 11.305-7.954 18.854-.8 5.573.352 14.27 4.694 18.088 7.412 6.518 25.653 1.672 27.677-7.789 2.092-9.789-.171-22.617-9.4-28.173-6.68-4.015-11.519-3.703-15.017-.98z" class="cls-4_mobileCheckin" transform="translate(20.946 9.229)"/>
            <path id="패스_3011" fill="#e33710" d="M4437.684-674.179c-5.113-6.951-19.667-7.721-26.977-4.941-4.986 1.9-10.383 5.877-7.291 11.5 2.721 4.945 9.8 3.164 12.25 7.791 1.649 3.116-1.876 6.16-.921 8.787 1.068 2.939 6.981 2.038 9.135 4.043 3.694 3.44.812 10.616 4.358 13.726 3.445 3.023 10.337-.945 12.7-3.725 3.595-4.229 3.283-8.144 2.925-13.311-.362-5.247 2.125-11.166 1.027-16.442-1.021-4.895-4.035-5.723-7.207-7.429" transform="translate(21.355 6.524)"/>
            <path id="패스_3012" d="M4437.684-674.179c-5.113-6.951-19.667-7.721-26.977-4.941-4.986 1.9-10.383 5.877-7.291 11.5 2.721 4.945 9.8 3.164 12.25 7.791 1.649 3.116-1.876 6.16-.921 8.787 1.068 2.939 6.981 2.038 9.135 4.043 3.694 3.44.812 10.616 4.358 13.726 3.445 3.023 10.337-.945 12.7-3.725 3.595-4.229 3.283-8.144 2.925-13.311-.362-5.247 2.125-11.166 1.027-16.442-1.02-4.894-4.034-5.723-7.206-7.428z" class="cls-4_mobileCheckin" transform="translate(21.355 6.524)"/>
            <path id="패스_3013" d="M4396.8-661.836l19.153 3.177m-11.166-6.565c-5.447-2.1-11.062 4.526-7.908 10.41 3.527 6.584 7.649-1.021 8.359-4.981" class="cls-4_mobileCheckin" transform="translate(18.819 12.337)"/>
            <path id="패스_3014" d="M4403.444-637.687c6.424-4.25 15.308-10.929 24.195-10.862 3.5.026 10.886 1.63 9.052 7.01-1.762 5.178-17.687 3.753-22.433 4.344-2.033.254-13.4 4.257-11.252-.753.008 0-.051.067-.042.049.589-.169 1.635-.687.48.214" class="cls-8_mobileCheckin" transform="translate(21.444 18.951)"/>
            <path id="패스_3015" d="M4403.444-637.687c6.424-4.25 15.308-10.929 24.195-10.862 3.5.026 10.886 1.63 9.052 7.01-1.762 5.178-17.687 3.753-22.433 4.344-2.033.254-13.4 4.257-11.252-.753.008 0-.051.067-.042.049.589-.171 1.636-.689.48.212z" class="cls-4_mobileCheckin" transform="translate(21.444 18.951)"/>
            <path id="패스_3016" d="M4445.028-644.591c-5.747-2.048-12.367-.384-18.358.488-8.824 1.286-18.337 4.183-24.24 11.293-4.853 5.843-7.221 16.347-6.678 23.586.861 11.53 2.434 20.952-4.078 31.285a34.108 34.108 0 0 0-4.5 21.75c3.426 21.327 29.231 21.072 45.286 13.744 19.02-8.681 13.853-37.648 16.774-54.139 1.157-6.535 3.5-12.73 4.284-19.3 1.1-9.167 3.79-20.536-4.949-26.848a14.083 14.083 0 0 0-3.544-1.859" class="cls-8_mobileCheckin" transform="translate(15.291 20.106)"/>
            <path id="패스_3017" d="M4445.028-644.591c-5.747-2.048-12.367-.384-18.358.488-8.824 1.286-18.337 4.183-24.24 11.293-4.853 5.843-7.221 16.347-6.678 23.586.861 11.53 2.434 20.952-4.078 31.285a34.108 34.108 0 0 0-4.5 21.75c3.426 21.327 29.231 21.072 45.286 13.744 19.02-8.681 13.853-37.648 16.774-54.139 1.157-6.535 3.5-12.73 4.284-19.3 1.1-9.167 3.79-20.536-4.949-26.848a14.083 14.083 0 0 0-3.541-1.859z" class="cls-4_mobileCheckin" transform="translate(15.291 20.106)"/>
            <path id="패스_3018" d="M4419.087-618.518c-1.621 7.848-4.7 9.267-10.594 13.718-6.957 5.252-12.891 16.519-23.6 12.189-10.138-4.1-11.529-18.329-11.991-27.69-.182-3.656-1.8-9.264-.351-12.419 1.739-3.778 8.03-6.089 11.6-3.671 3.742 2.538 4.963 10.843 6.059 14.949.786 2.946.409 5.794 3.727 4.91 2.4-.638 4.025-5.159 4.862-7.119 2.285-5.356 3.189-11.821 8.831-14.854s7.727-2.536 11 2.921" class="cls-8_mobileCheckin" transform="translate(9.516 22.126)"/>
            <path id="패스_3019" d="M4419.087-618.518c-1.621 7.848-4.7 9.267-10.594 13.718-6.957 5.252-12.891 16.519-23.6 12.189-10.138-4.1-11.529-18.329-11.991-27.69-.182-3.656-1.8-9.264-.351-12.419 1.739-3.778 8.03-6.089 11.6-3.671 3.742 2.538 4.963 10.843 6.059 14.949.786 2.946.409 5.794 3.727 4.91 2.4-.638 4.025-5.159 4.862-7.119 2.285-5.356 3.189-11.821 8.831-14.854s7.727-2.536 11 2.921" class="cls-4_mobileCheckin" transform="translate(9.516 22.126)"/>
            <path id="패스_3020" d="M4374.513-629.451c2.426-1.811 8.108-2.3 8.988-3.6m24.711 25.664c3.081 1.533 6.728-.738 9.436-2.25" class="cls-4_mobileCheckin" transform="translate(10.508 24.956)"/>
            <path id="패스_3021" d="M4441-641.694c9.753-2.688 21.406-3.177 30.233-3.918 7.716-.647 10.62 4.433 10.635 10.316.066 23.439-3.748 46.6-4.224 69.611-.242 11.85-.161 22.557-6.916 32.852-13.9 21.185-52.552 25.786-75.056 17.278-5.122-1.937-12.367-6.577-11.893-13.077.489-6.733 5.537-6.653 10.438-5.791 3.424.6 7.409 2.993 10.921 2.561 5.084-.623 5.184-5.926 6.492-10.317 3.185-10.7 5.955-21.546 7.246-32.65 1.885-16.181 2.079-32.346 3.156-48.517.69-10.355 8.8-15.545 18.967-18.348" class="cls-5_mobileCheckin" transform="translate(14.088 20.068)"/>
            <path id="패스_3022" d="M4441-641.694c9.753-2.688 21.406-3.177 30.233-3.918 7.716-.647 10.62 4.433 10.635 10.316.066 23.439-3.748 46.6-4.224 69.611-.242 11.85-.161 22.557-6.916 32.852-13.9 21.185-52.552 25.786-75.056 17.278-5.122-1.937-12.367-6.577-11.893-13.077.489-6.733 5.537-6.653 10.438-5.791 3.424.6 7.409 2.993 10.921 2.561 5.084-.623 5.184-5.926 6.492-10.317 3.185-10.7 5.955-21.546 7.246-32.65 1.885-16.181 2.079-32.346 3.156-48.517.689-10.354 8.794-15.546 18.968-18.348z" class="cls-4_mobileCheckin" transform="translate(14.088 20.068)"/>
            <path id="패스_3023" d="M4427.282-635.228a2.067 2.067 0 0 1-2.084-2.038v-8.6a2.067 2.067 0 0 1 2.084-2.037 2.069 2.069 0 0 1 2.084 2.037v8.6a2.069 2.069 0 0 1-2.084 2.038" class="cls-5_mobileCheckin" transform="translate(30.146 19.201)"/>
            <path id="패스_3024" d="M4427.282-635.228a2.067 2.067 0 0 1-2.084-2.038v-8.6a2.067 2.067 0 0 1 2.084-2.037 2.069 2.069 0 0 1 2.084 2.037v8.6a2.069 2.069 0 0 1-2.084 2.038z" class="cls-4_mobileCheckin" transform="translate(30.146 19.201)"/>
            <path id="패스_3025" d="M4438.742-637.165a2.067 2.067 0 0 1-2.084-2.038v-8.6a2.067 2.067 0 0 1 2.084-2.037 2.066 2.066 0 0 1 2.083 2.037v8.6a2.067 2.067 0 0 1-2.083 2.038" class="cls-5_mobileCheckin" transform="translate(34.587 18.451)"/>
            <path id="패스_3026" d="M4438.742-637.165a2.067 2.067 0 0 1-2.084-2.038v-8.6a2.067 2.067 0 0 1 2.084-2.037 2.066 2.066 0 0 1 2.083 2.037v8.6a2.067 2.067 0 0 1-2.083 2.038z" class="cls-4_mobileCheckin" transform="translate(34.587 18.451)"/>
            <path id="패스_3027" d="M4453.719-644.084l-27.081 4.212a9.016 9.016 0 0 1-10.256-7.526 9.036 9.036 0 0 1 7.5-10.288l27.082-4.211a9.014 9.014 0 0 1 10.255 7.526 9.035 9.035 0 0 1-7.5 10.287" class="cls-5_mobileCheckin" transform="translate(26.689 13.739)"/>
            <path id="패스_3028" d="M4453.719-644.084l-27.081 4.212a9.016 9.016 0 0 1-10.256-7.526 9.036 9.036 0 0 1 7.5-10.288l27.082-4.211a9.014 9.014 0 0 1 10.255 7.526 9.035 9.035 0 0 1-7.5 10.287z" class="cls-4_mobileCheckin" transform="translate(26.689 13.739)"/>
            <path id="패스_3029" d="M4426.911-655.976a7.2 7.2 0 0 1 3.144 8.52m-9.882 38.565c1.2 23.876-3.082 49.347-8.534 72.648m14.374-85.651c.246-.685 3.145-1.783 5.1-2.5 9.042-3.329 19.028-5.221 28.591-6.467" class="cls-4_mobileCheckin" transform="translate(24.893 16.074)"/>
        </g>
    </g>
</svg>
