<svg xmlns="http://www.w3.org/2000/svg" width="26" height="26" viewBox="0 0 26 26">
    <g id="img_c021" transform="translate(-35 -388)">
        <g id="box" fill="#fff" stroke="#e5e5e5" transform="translate(35 388)">
            <rect width="26" height="26" stroke="none" rx="13"/>
            <rect width="25" height="25" x=".5" y=".5" fill="none" rx="12.5"/>
        </g>
        <path id="패스_3137" fill="#9f8336" d="M144.068 240.83a3.79 3.79 0 0 1-1.774 2.114 6.248 6.248 0 0 0 1.272-7.129c-.483-.855.132-1.228.132-1.228a1.129 1.129 0 0 0-.965 1.514 5.815 5.815 0 0 1 .324 3.889l-.463-.259.007-.011a4.875 4.875 0 0 0-3.374-5.834v-.813h-.943v5.352l4.387 2.5c-.08.162-.165.315-.253.46l-4.406-2.553-4.425 2.553c-.088-.145-.173-.3-.253-.46l4.387-2.5v-5.352h-.943v.813a4.875 4.875 0 0 0-3.374 5.834l.007.011-.463.259a5.815 5.815 0 0 1 .324-3.889 1.129 1.129 0 0 0-.965-1.514s.614.373.132 1.228a6.248 6.248 0 0 0 1.272 7.129 3.79 3.79 0 0 1-1.774-2.114 1.288 1.288 0 0 0-1.429-.628 1.442 1.442 0 0 1 .631.908 5.483 5.483 0 0 0 4.612 3.479v1.667h1.8V243.8a4.994 4.994 0 0 1-3.365-1.618l.452-.264a5.478 5.478 0 0 0 3.359 1.4h.022a5.478 5.478 0 0 0 3.359-1.4l.452.264a4.994 4.994 0 0 1-3.365 1.618v2.457h1.8v-1.667a5.483 5.483 0 0 0 4.612-3.479 1.442 1.442 0 0 1 .631-.908 1.288 1.288 0 0 0-1.44.627zm-2.344-1.593l-2.475-1.386-.014-2.961h.014a3.693 3.693 0 0 1 2.475 4.347zm-4.972-4.343h.014l-.014 2.961-2.475 1.386a3.693 3.693 0 0 1 2.475-4.347zm1.254 5.058l2.468 1.443-.022-.013a3.706 3.706 0 0 1-4.906 0l-.022.013 2.482-1.443z" transform="translate(-89.997 161.247)"/>    </g>
</svg>
