<svg xmlns="http://www.w3.org/2000/svg" width="26" height="26" viewBox="0 0 26 26">
    <defs>
        <style>
            .c102-cls-6{fill:#f79e1b}
        </style>
    </defs>
    <g id="img_c102" transform="translate(-35 -384)">
        <g id="box" fill="#fff" stroke="#e5e5e5" transform="translate(35 384)">
            <rect width="26" height="26" stroke="none" rx="13"/>
            <rect width="25" height="25" x=".5" y=".5" fill="none" rx="12.5"/>
        </g>
        <g id="그룹_3271" transform="translate(39.526 391.378)">
            <path id="사각형_30021" fill="#ff5f00" d="M0 0H4.484V7.323H0z" transform="translate(6.257 1.958)"/>
            <path id="패스_3107" fill="#eb001b" d="M13.2 12.11a4.649 4.649 0 0 1 1.779-3.661 4.657 4.657 0 1 0 0 7.323A4.649 4.649 0 0 1 13.2 12.11z" transform="translate(-6.481 -6.489)"/>
            <path id="패스_3108" d="M119.9 64.541v-.15h.065v-.031h-.154v.031h.061v.15zm.3 0v-.181h-.047l-.054.129-.054-.129H120v.181h.034V64.4l.05.118h.035l.05-.118v.137z" class="c102-cls-6" transform="translate(-104.311 -56.034)"/>
            <path id="패스_3109" d="M73.225 12.1a4.657 4.657 0 0 1-7.535 3.661 4.657 4.657 0 0 0 0-7.323 4.657 4.657 0 0 1 7.535 3.662z" class="c102-cls-6" transform="translate(-57.192 -6.477)"/>
        </g>
    </g>
</svg>
