<svg xmlns="http://www.w3.org/2000/svg" width="96" height="60" viewBox="0 0 96 60">
    <defs>
        <style>
            .prefix__cls-6{fill:none;stroke-miterlimit:10;stroke:#fff;stroke-width:2px}
        </style>
    </defs>
    <g id="prefix__img_bookflight_wifi_10" transform="translate(-65 -455)">
        <rect id="prefix__사각형_1146" width="96" height="60" rx="8" transform="translate(65 455)" style="fill:#c1b8af"/>
        <text id="prefix___10mb" transform="translate(153 503)" class="font-premia-bold" style="font-size:22px;font-family:PremiaOTF-Medium,PremiaOTF;font-weight:500;letter-spacing:-.02em;fill:#fff">
            <tspan x="-41.404" y="0">10mb</tspan>
        </text>
        <g id="prefix__그룹_1407" transform="translate(-540.361 526.993)" style="opacity:.2">
            <path id="prefix__사각형_658" d="M0 0H23.244V23.244H0z" transform="translate(609.361 -67.993)" style="stroke:transparent;stroke-width:.1px;fill:none;stroke-miterlimit:10"/>
            <path id="prefix__사각형_659" d="M614.152-62.619a1.317 1.317 0 0 1-1.865 0 1.318 1.318 0 0 1 0-1.866 1.319 1.319 0 0 1 1.865 0 1.318 1.318 0 0 1 0 1.866z" transform="translate(.961 1.378)" style="fill:#fff"/>
            <path id="prefix__패스_1056" d="M612.906-51.943a11.919 11.919 0 0 0 11.922-11.919" class="prefix__cls-6" transform="translate(.862 1.004)"/>
            <path id="prefix__패스_1057" d="M612.567-57.157a7.044 7.044 0 0 0 7.046-7.043" class="prefix__cls-6" transform="translate(.78 .922)"/>
        </g>
    </g>
</svg>
