<svg xmlns="http://www.w3.org/2000/svg" width="26" height="26" viewBox="0 0 26 26">
    <defs>
        <style>
            .c010-cls-3{fill:#003375}
        </style>
    </defs>
    <g id="img_c010" transform="translate(-35 -384)">
        <g id="box" fill="#fff" stroke="#e5e5e5" transform="translate(35 384)">
            <rect width="26" height="26" stroke="none" rx="13"/>
            <rect width="25" height="25" x=".5" y=".5" fill="none" rx="12.5"/>
        </g>
        <g id="그룹_3081" transform="translate(-84.153 149.613)">
            <g id="그룹_3087" >
                <path id="패스_3062" fill="#dc000c" fill-rule="evenodd" d="M185.5 243.976a6.081 6.081 0 0 0-9.957 0l-.059.083h1.442l.015-.017a4.913 4.913 0 0 1 7.16 0l.016.017h1.44l-.058-.083z" transform="translate(-46.087)"/>
                <path id="패스_3063" d="M128.827 280.737l-.027.027a2.085 2.085 0 0 1-1.483.69 1.968 1.968 0 0 1 0-3.933 2.084 2.084 0 0 1 1.483.692l.027.028.708-.857-.019-.023a2.7 2.7 0 0 0-2.166-1.035 3.286 3.286 0 0 0-2.244.823 3.346 3.346 0 0 0 0 4.68 3.277 3.277 0 0 0 2.244.824 2.7 2.7 0 0 0 2.166-1.035l.019-.022z" class="c010-cls-3" transform="translate(0 -31.368)"/>
                <path id="사각형_30008" d="M0 0H1.251V6.11H0z" class="c010-cls-3" transform="translate(130.252 245.056)"/>
                <path id="패스_3064" d="M210.706 265.419a1.811 1.811 0 0 1-.924.306c-.4 0-.587-.213-.587-.689v-3.243h1.275v-1.15h-1.27v-1.9l-1.227.657v1.245h-1.063v1.15h1.059v3.45a1.441 1.441 0 0 0 1.388 1.6 1.962 1.962 0 0 0 1.111-.28l.012-.009.3-1.178z" class="c010-cls-3" transform="translate(-74.3 -15.581)"/>
                <path id="사각형_30009" d="M0 0H1.252V6.11H0z" class="c010-cls-3" transform="translate(137.444 245.056)"/>
            </g>
            <path id="패스_3065" d="M282.257 264.022a.558.558 0 1 1-.558-.559.547.547 0 0 1 .558.559m.107 0a.665.665 0 1 0-.665.665.653.653 0 0 0 .665-.665m-.361-.157a.212.212 0 0 0-.237-.219h-.319v.726h.123v-.28h.14l.142.28H282l-.149-.293a.206.206 0 0 0 .155-.213m-.125 0c0 .072-.05.1-.116.1h-.192v-.207h.192a.1.1 0 0 1 .116.1" class="c010-cls-3" transform="translate(-140.848 -19.725)"/>
        </g>
    </g>
</svg>
