<svg xmlns="http://www.w3.org/2000/svg" width="26" height="26" viewBox="0 0 26 26">
    <defs>
        <style>
            .c018-cls-2{fill:#de040a}.c018-cls-5{fill:none}
        </style>
    </defs>
    <g id="img_c018" transform="translate(-35 -388)">
        <g id="box" fill="#fff" stroke="#e5e5e5" transform="translate(35 388)">
            <rect width="26" height="26" stroke="none" rx="13"/>
            <rect width="25" height="25" x=".5" y=".5" class="c018-cls-5" rx="12.5"/>
        </g>
        <g id="그룹_3301" transform="translate(1.489 -208.687)">
            <path id="패스_3115" d="M39.133 611.214c-.03.015-.031.042 0 .06l2.487 1.642.712-3.351z" class="c018-cls-2" transform="translate(0 -1.876)"/>
            <path id="패스_3116" fill="#ed6b00" d="M63.112 609.563h-.629a.312.312 0 0 0-.112.027l-3.151 1.624a.032.032 0 0 0 0 .06l2.446 1.609a.235.235 0 0 0 .108.032h.626c.033 0 .037-.014.01-.032l-2.5-1.641 3.205-1.652c.032-.014.029-.027-.003-.027z" transform="translate(-9.257 -1.875)"/>
            <path id="패스_3117" d="M59.607 609.563h-4.38l-.712 3.352h4.38c.033 0 .037-.014.01-.032l-2.491-1.641 3.2-1.652c.029-.014.026-.027-.007-.027z" class="c018-cls-2" transform="translate(-7.099 -1.875)"/>
            <path id="패스_3118" fill="#ffaf00" d="M65.606 609.563h-.629a.306.306 0 0 0-.112.027l-3.152 1.624a.032.032 0 0 0 0 .06l2.445 1.609a.243.243 0 0 0 .109.032h.629c.032 0 .037-.014.009-.032l-2.5-1.641 3.205-1.652c.032-.014.029-.027-.004-.027z" transform="translate(-10.406 -1.875)"/>
            <path id="패스_3120" d="M53.856 605.495H43.545a1.051 1.051 0 0 0-1.073.81.6.6 0 0 0 .23.614l3.705 2.446 7.453-3.843c.033-.014.03-.027-.004-.027z" class="c018-cls-2" transform="translate(-1.542)"/>
            <path id="패스_3121" d="M51.1 616.509l-5.811-3.837-4.745 2.447a.988.988 0 0 0-.491.614c-.1.447.153.809.729.809h10.313c.032 0 .037-.015.005-.033z" class="c018-cls-2" transform="translate(-.426 -3.307)"/>
        </g>
    </g>
</svg>
