<svg xmlns="http://www.w3.org/2000/svg" width="26" height="26" viewBox="0 0 26 26">
    <defs>
        <clipPath id="clip-path">
            <rect id="box" width="26" height="26" class="c103-cls-1" rx="13" transform="translate(35 388)"/>
        </clipPath>
        <style>
            .c103-cls-1{fill:#fff}
        </style>
    </defs>
    <g id="img_c103" transform="translate(-35 -388)">
        <rect id="box-2" width="26" height="26" fill="#016fd0" rx="13" transform="translate(35 388)"/>
        <g id="layer1" transform="translate(38.197 45.186)">
            <path id="path3046" d="M1.163 352.584l-.97 2.255h.632l.175-.451h1.04l.178.452h.645l-.963-2.256zm.359.525l.317.789H1.2z" class="c103-cls-1" transform="translate(0 -.02)"/>
            <path id="path3048" d="M142.723 354.819v-2.255h.9l.522 1.454.51-1.457h.89v2.255h-.564v-1.662l-.6 1.662h-.494l-.6-1.662v1.662z" class="c103-cls-1" transform="translate(-139.789)"/>
            <path id="path3050" d="M309.361 354.819v-2.255h1.84v.5h-1.27v.386h1.24v.475h-1.24v.4h1.27v.49z" class="c103-cls-1" transform="translate(-303.222)"/>
            <path id="path3052" d="M422 352.584v2.255h.564v-.8h.237l.676.8h.689l-.742-.831a.687.687 0 0 0 .619-.693.73.73 0 0 0-.788-.732zm.564.5h.645a.259.259 0 0 1 .267.237.255.255 0 0 1-.259.237h-.653v-.475z" class="c103-cls-1" transform="translate(-413.691 -.02)"/>
            <path id="path3054" d="M540.763 354.819h-.576v-2.255h.576z" class="c103-cls-1" transform="translate(-529.608)"/>
            <path id="path3056" d="M585.483 354.819h-.124a.994.994 0 0 1-.966-1.118 1.033 1.033 0 0 1 1.12-1.137h.623v.534h-.646a.542.542 0 0 0-.526.608.552.552 0 0 0 .608.62h.148z" class="c103-cls-1" transform="translate(-572.963)"/>
            <path id="path3058" d="M655.422 352.584l-.97 2.255h.632l.179-.452h1.037l.178.452h.645l-.969-2.255zm.359.525l.317.789h-.635l.318-.789z" class="c103-cls-1" transform="translate(-641.676 -.02)"/>
            <path id="path3060" d="M796.933 354.819v-2.255h.717l.915 1.417v-1.417h.564v2.255h-.694l-.938-1.454v1.454z" class="c103-cls-1" transform="translate(-781.416)"/>
            <path id="path3062" d="M213.7 560.031v-2.255h1.84v.5h-1.27v.386h1.24v.475h-1.24v.4h1.27v.49z" class="c103-cls-1" transform="translate(-209.399 -201.265)"/>
            <path id="path3064" d="M682.447 560.031v-2.255h1.84v.5h-1.27v.386h1.234v.475h-1.234v.4h1.27v.49z" class="c103-cls-1" transform="translate(-669.132 -201.265)"/>
            <path id="path3066" d="M311.986 560.031l.9-1.114-.917-1.142h.71l.546.706.548-.706h.683l-.905 1.128.9 1.128h-.71l-.53-.695-.517.695z" class="c103-cls-1" transform="translate(-305.776 -201.265)"/>
            <path id="path3068" d="M444.369 557.8v2.255h.579v-.712h.594a.78.78 0 0 0 .883-.785.742.742 0 0 0-.81-.759h-1.245zm.579.51h.625a.255.255 0 0 1 .278.26.26.26 0 0 1-.28.26h-.623v-.519z" class="c103-cls-1" transform="translate(-435.633 -201.285)"/>
            <path id="path3072" d="M563.948 557.776v2.255h.564v-.8h.237l.676.8h.689l-.742-.831a.687.687 0 0 0 .619-.693.73.73 0 0 0-.788-.732zm.564.5h.645a.259.259 0 0 1 .267.237.255.255 0 0 1-.259.237h-.653z" class="c103-cls-1" transform="translate(-552.912 -201.265)"/>
            <path id="path3074" d="M788.037 560.031v-.49h1.128c.167 0 .239-.09.239-.189s-.072-.191-.239-.191h-.51a.631.631 0 0 1-.69-.675c0-.362.226-.71.885-.71h1.1l-.237.507h-.95c-.182 0-.237.1-.237.186a.2.2 0 0 0 .208.2h.534a.619.619 0 0 1 .708.647.676.676 0 0 1-.735.718z" class="c103-cls-1" transform="translate(-772.621 -201.265)"/>
            <path id="path3076" d="M895.634 560.031v-.49h1.128c.167 0 .239-.09.239-.189s-.072-.191-.239-.191h-.51a.63.63 0 0 1-.69-.675c0-.362.226-.71.885-.71h1.1l-.237.507h-.95c-.182 0-.237.1-.237.186a.2.2 0 0 0 .208.2h.534a.619.619 0 0 1 .709.647.676.676 0 0 1-.735.718z" class="c103-cls-1" transform="translate(-878.148 -201.265)"/>
        </g>
    </g>
</svg>
