<svg xmlns="http://www.w3.org/2000/svg" width="26" height="26" viewBox="0 0 26 26">
    <defs>
        <style>
            .prefix__cls-2{fill:#00857e}
        </style>
    </defs>
    <g id="prefix__img_hn" transform="translate(-35 -388)">
        <g id="prefix__box" transform="translate(35 388)" style="fill:#fff;stroke:#e5e5e5">
            <rect width="26" height="26" rx="13" style="stroke:none"/>
            <rect width="25" height="25" x=".5" y=".5" rx="12.5" style="fill:none"/>
        </g>
        <g id="prefix__그룹_3064" transform="translate(-363.568 205.037)">
            <path id="prefix__패스_2992" d="M422.607 208.2a2.588 2.588 0 0 0-.188-.641 3.158 3.158 0 0 0-1.271-1.472 2.855 2.855 0 0 0-2.944.02 2.568 2.568 0 0 0-.97 1.037 2.913 2.913 0 0 0-.184.456 3.191 3.191 0 0 0 .2 2.484 1.239 1.239 0 0 0 .595.518.866.866 0 0 0 .77-.058.819.819 0 0 0 .288-.863 2.241 2.241 0 0 1 .03-1.2.881.881 0 0 1 .212-.342.8.8 0 0 1 .2-.141.845.845 0 0 1 .508-.082.97.97 0 0 1 .682.557 2.267 2.267 0 0 1 .185.89 13.362 13.362 0 0 1-.593 3.984c-.034.132-.07.263-.108.392-.029.1-.08.23-.016.328a.264.264 0 0 0 .118.091.447.447 0 0 0 .489-.174 7.087 7.087 0 0 0 1.622-2.838 8.687 8.687 0 0 0 .31-1.184 5.174 5.174 0 0 0 .06-1.763" class="prefix__cls-2" transform="translate(-8.268 -10.537)"/>
            <path id="prefix__패스_2993" d="M419.92 195.322a.337.337 0 0 0-.366-.326 1.818 1.818 0 0 0-.549.174 22.163 22.163 0 0 1-10.905 1.03c-.618-.089-1.244-.215-1.865-.311-.389-.061-.774-.149-1.166-.179a1.416 1.416 0 0 0-1.021.2 1.079 1.079 0 0 0-.129 1.277 2.872 2.872 0 0 0 1.11 1.071 2.675 2.675 0 0 0 1.454.5q2.072-.132 4.131-.4a27.442 27.442 0 0 0 6.993-1.5 8.753 8.753 0 0 0 2.044-1.146c.111-.084.273-.224.273-.386" class="prefix__cls-2" transform="translate(0 -3.8)"/>
            <path id="prefix__패스_2994" d="M420.845 190.345a1.348 1.348 0 1 0 2.7 0 .788.788 0 0 0-.073-.323c-.114-.245-.246-.364-.233-.658.017-.4-.491-.4-.764-.4a1.992 1.992 0 0 0-.883.176 1.374 1.374 0 0 0-.53.477 1.343 1.343 0 0 0-.214.7v.03" transform="translate(-10.758)" style="fill:#e4003f"/>
        </g>
    </g>
</svg>
