<svg xmlns="http://www.w3.org/2000/svg" width="26" height="26" viewBox="0 0 26 26">
    <g id="prefix__img_kb" transform="translate(-35 -384)">
        <rect id="prefix__box" width="26" height="26" rx="13" transform="translate(35 384)" style="fill:#776c61"/>
        <path id="prefix__symbol_kb" d="M65.892 283.4l-.113-.07a2.036 2.036 0 0 0-1.631-.5 3.112 3.112 0 0 0-1.425.483v-.015a5.383 5.383 0 0 1 .042-.574 5.741 5.741 0 0 0 .042-.583 1.341 1.341 0 0 0-.09-.531.106.106 0 0 0-.1-.064 1.576 1.576 0 0 0-.657.212l-.05.106a4.152 4.152 0 0 1-.1.864l-.025.07a10.342 10.342 0 0 0-.008 2.195c.009.063.132.157.227.192a1.471 1.471 0 0 0 .619-.118l.071-.011a.108.108 0 0 0 .092-.123v-.181a1.82 1.82 0 0 1 1.337-1.288.933.933 0 0 1 .888.281 1.174 1.174 0 0 1-.144.884 1.856 1.856 0 0 1-1.016.788 3.949 3.949 0 0 1-1.554.214l-.572-.379a8.3 8.3 0 0 0-1.625-.952 1.981 1.981 0 0 1-.371-.26l-.056-.046c-.315-.248-.913-.64-1.394-.955l-.259-.17v-.053c.014-.015.316-.193.316-.193a3.181 3.181 0 0 0 .659-.425c-.009.01.056-.032.056-.032l1.049-.583a12.894 12.894 0 0 0 2.746-1.77l.029-.093.013-.083a.559.559 0 0 0 .009-.346.11.11 0 0 0-.081-.079 2.3 2.3 0 0 0-1.62.736 1.454 1.454 0 0 1-.338.228l-.084.046c-.606.339-1.969 1.17-2.683 1.619a23.068 23.068 0 0 1 .364-2.722l-.02-.107-.074-.136-.056-.1h-.016a.459.459 0 0 0-.344-.022l-.142.052-.19.068a.1.1 0 0 0-.079.067 11.2 11.2 0 0 0-.693 3.207 16.449 16.449 0 0 0-1.619-.88h-.009l-.037-.008a1.148 1.148 0 0 1-.377-.172l-.259-.165-.4-.249-.1-.024a1.24 1.24 0 0 0-.593.392.116.116 0 0 0-.018.063.362.362 0 0 0 .018.092l.018.08.019.047a5.7 5.7 0 0 0 1.138.758l.545.284.833.447.142.111.1.055.018.011-1.515.995-.8.519a4.62 4.62 0 0 1-.459.217.654.654 0 0 0-.358.29l-.022.045.022.031.061.045.081.053.088.059.083.013a2.134 2.134 0 0 0 .735-.24c.356-.155 1.324-.728 1.738-.974l.177-.1a.394.394 0 0 0 .225-.107 2.17 2.17 0 0 1 .373-.222l.126-.068v.046a16.242 16.242 0 0 0 .229 2.845v.012l.013.028a3.076 3.076 0 0 1 .215.653l.158.519c0 .007.044.049.044.049a1.06 1.06 0 0 0 .547.142l.046-.005.029-.063a1.179 1.179 0 0 0 .021-.237c0-.1-.007-.2-.016-.328l-.012-.186c-.058-.868-.116-2.122-.116-2.956v-.067l.807.5a19.179 19.179 0 0 0 3.825 2.073.151.151 0 0 0 .148-.033l.157-.1.029-.011a.277.277 0 0 0 .105-.229 3.858 3.858 0 0 0 2.7-1.161 1.633 1.633 0 0 0 .36-1.006.843.843 0 0 0-.21-.617" transform="translate(-11.602 113.721)" style="fill:#fc0"/>
    </g>
</svg>
