<svg xmlns="http://www.w3.org/2000/svg" width="26" height="26" viewBox="0 0 26 26">
    <g id="prefix__img_ss" transform="translate(-35 -384)">
        <g id="prefix__box" transform="translate(35 384)" style="fill:#fff;stroke:#e5e5e5">
            <rect width="26" height="26" rx="13" style="stroke:none"/>
            <rect width="25" height="25" x=".5" y=".5" rx="12.5" style="fill:none"/>
        </g>
        <path id="prefix__symbol_ss" d="M326.152 181.163c-.265-1.518-4.827-1.992-10.189-1.058a28.838 28.838 0 0 0-5.868 1.622.77.77 0 0 1 .534.17.479.479 0 0 1 .128.35v.15h-.525v-.133a.166.166 0 0 0-.184-.178.163.163 0 0 0-.18.132.276.276 0 0 0 0 .1c.056.23.837.373.922.8a1.018 1.018 0 0 1 0 .338c-.05.343-.35.475-.732.475-.535 0-.752-.253-.752-.6v-.164h.564v.206a.177.177 0 0 0 .2.179.173.173 0 0 0 .194-.133.265.265 0 0 0 0-.148c-.1-.261-.833-.384-.923-.806a.709.709 0 0 1-.005-.279.517.517 0 0 1 .046-.146c-1.756.821-2.784 1.725-2.648 2.505.266 1.518 4.826 1.992 10.188 1.059a28.408 28.408 0 0 0 6.089-1.714h-.07c-.367 0-.7-.138-.728-.512-.007-.068-.007-.1-.008-.136v-.863c0-.036 0-.1.008-.135.044-.363.33-.512.728-.512.307 0 .684.088.726.513.006.053.006.11.006.128v.081h-.532v-.121a.662.662 0 0 0-.006-.076.208.208 0 0 0-.4 0 .526.526 0 0 0-.008.1v.937a.442.442 0 0 0 0 .077.185.185 0 0 0 .2.144.183.183 0 0 0 .2-.144.38.38 0 0 0 .005-.077V183h-.21v-.313h.739v.556a1.255 1.255 0 0 1-.006.136.539.539 0 0 1-.089.253c1.723-.811 2.719-1.701 2.586-2.469zm-13.906 2.69l-.269-1.828h-.01l-.276 1.828h-.568l.381-2.065h.926l.378 2.065zm2.728 0l-.013-1.793h-.008l-.334 1.793h-.532l-.332-1.793h-.009l-.013 1.793h-.527l.046-2.065h.848l.247 1.534h.012l.247-1.534h.848l.044 2.065zm2.482-.4c-.057.4-.449.47-.725.47-.459 0-.744-.2-.744-.6v-.164h.556v.2a.176.176 0 0 0 .2.177.17.17 0 0 0 .191-.131.255.255 0 0 0 0-.147c-.1-.256-.826-.382-.914-.8a.7.7 0 0 1 0-.277c.06-.377.423-.456.714-.456a.78.78 0 0 1 .565.171.469.469 0 0 1 .128.346v.15h-.52v-.132a.166.166 0 0 0-.182-.177.162.162 0 0 0-.179.132.246.246 0 0 0 0 .1c.057.229.83.369.914.79a1.033 1.033 0 0 1-.003.347zm1.929-.187v.136c-.032.339-.275.513-.722.513s-.692-.173-.723-.513c0-.02-.005-.1 0-.136v-1.478h.532v1.525a.317.317 0 0 0 .006.076.177.177 0 0 0 .19.144.181.181 0 0 0 .192-.144.574.574 0 0 0 0-.076v-1.525h.531zm2.3.566h-.74l-.5-1.635h-.008l.027 1.635h-.517v-2.043h.772l.461 1.571h.011l-.027-1.571h.52z" transform="translate(-268.69 214.389)" style="fill:#003487"/>
    </g>
</svg>
