<svg xmlns="http://www.w3.org/2000/svg" width="106" height="65" viewBox="0 0 106 65">
    <defs>
        <clipPath id="prefix__clip-path">
            <path id="prefix__area" d="M0 0H31V34H0z" transform="translate(15271 718)" style="fill:#fff"/>
        </clipPath>
        <style>
            .prefix__cls-4,.prefix__cls-5{fill:none;stroke:#e5e5e5;stroke-width:2px}.prefix__cls-4{stroke-miterlimit:10}.prefix__cls-5{stroke-linejoin:round}
        </style>
    </defs>
    <g id="prefix__img_bookflight_toilet" transform="translate(-15234 -706)">
        <g id="prefix__사각형_1576" style="stroke:#f2f2f2;fill:#fff">
            <path d="M8 0h90a8 8 0 0 1 8 8v53a4 4 0 0 1-4 4H4a4 4 0 0 1-4-4V8a8 8 0 0 1 8-8z" style="stroke:none" transform="translate(15234 706)"/>
            <path d="M8 .5h90a7.5 7.5 0 0 1 7.5 7.5v53a3.5 3.5 0 0 1-3.5 3.5H4A3.5 3.5 0 0 1 .5 61V8A7.5 7.5 0 0 1 8 .5z" style="fill:none" transform="translate(15234 706)"/>
        </g>
        <g id="prefix__ico_toilet" transform="translate(1 4)">
            <g id="prefix__마스크_그룹_1" >
                <rect id="prefix__사각형_1139" width="4.527" height="4.527" class="prefix__cls-4" rx="1.709" transform="translate(15274.488 719)"/>
                <path id="prefix__패스_1114" d="M1024.332 264.6v7.181a4.752 4.752 0 0 1-4.752 4.752 4.753 4.753 0 0 1-4.752-4.752V264.6" class="prefix__cls-5" transform="translate(14257.172 463.749)"/>
                <rect id="prefix__사각형_1140" width="4.527" height="4.527" class="prefix__cls-4" rx="1.709" transform="translate(15292.335 719)"/>
                <path id="prefix__패스_1115" d="M1026.3 280.873h2.654v-11.741a4.752 4.752 0 0 1 4.752-4.752 4.753 4.753 0 0 1 4.752 4.752v11.741h2.649" class="prefix__cls-5" transform="translate(14260.894 463.677)"/>
                <path id="prefix__선_364" d="M0 0L0 8.894" class="prefix__cls-5" transform="translate(15294.599 743.227)"/>
                <path id="prefix__선_363" d="M0 0L0 12.13" class="prefix__cls-5" transform="translate(15276.752 739.99)"/>
            </g>
        </g>
    </g>
</svg>
