<svg xmlns="http://www.w3.org/2000/svg" width="144.013" height="175.776" viewBox="0 0 144.013 175.776">
  <g id="그룹_1" data-name="그룹 1" transform="translate(-505.922 -342.146)">
    <path id="패스_1" data-name="패스 1" d="M508.965,472.094c-.451,1.325-3.8,4.643-.823,5.11,2.287.359,4.384-2.288,5.68-3.808,1.488-1.749.639-3.148-1.459-1.795-1.17.755-1.869,1.161-3.4.493" fill="#e95019"/>
    <path id="패스_2" data-name="패스 2" d="M508.965,472.094c-.451,1.325-3.8,4.643-.823,5.11,2.287.359,4.384-2.288,5.68-3.808,1.488-1.749.639-3.148-1.459-1.795C511.193,472.356,510.494,472.762,508.965,472.094Z" fill="none" stroke="#15284c" stroke-linecap="round" stroke-linejoin="round" stroke-width="2"/>
    <path id="패스_3" data-name="패스 3" d="M541.789,440.81c-1.462,1.506-4.988,7.311-7.241,5.562-1.2-.928-1.44-3.344-1.742-4.7-.732-3.3-1.574-7.416-5.934-6.292-5.8,1.495-2.153,10.06-.368,13.3,1.112,2.019,2.824,5.112,5,6.187,5.854,2.888,9.458-7.723,13.13-9.975.95-.584,2.049-.3,2.7-1.218.913-1.291-.018-4.241-1.434-4.926-1.749-.845-3.059.978-4.108,2.058" fill="#fff"/>
    <path id="패스_4" data-name="패스 4" d="M541.789,440.81c-1.462,1.506-4.988,7.311-7.241,5.562-1.2-.928-1.44-3.344-1.742-4.7-.732-3.3-1.574-7.416-5.934-6.292-5.8,1.495-2.153,10.06-.368,13.3,1.112,2.019,2.824,5.112,5,6.187,5.854,2.888,9.458-7.723,13.13-9.975.95-.584,2.049-.3,2.7-1.218.913-1.291-.018-4.241-1.434-4.926C544.148,437.907,542.838,439.73,541.789,440.81Z" fill="none" stroke="#15284c" stroke-linecap="round" stroke-linejoin="round" stroke-width="2"/>
    <path id="패스_5" data-name="패스 5" d="M514.121,436.419c1.551-3.608,6.287-2.133,8.534-.209,1.671,1.432,1.435,2.919.807,5.03-1.422,4.772-5.143,8.83-6.316,13.605-.694,2.822-.608,5.668-1.061,8.534-.358,2.259-.5,5.151-1.691,7.156-.569.959-4.49,4.629-5.275,2.706-.652-1.6,1.257-2.841,1.451-4.317.191-1.457-.461-3.562-.6-5.069a38.7,38.7,0,0,1-.25-7.246c.317-3.168,1.106-6.357,1.7-9.485.662-3.515,1.277-7.388,2.7-10.7" fill="#fff"/>
    <path id="패스_6" data-name="패스 6" d="M514.121,436.419c1.551-3.608,6.287-2.133,8.534-.209,1.671,1.432,1.435,2.919.807,5.03-1.422,4.772-5.143,8.83-6.316,13.605-.694,2.822-.608,5.668-1.061,8.534-.358,2.259-.5,5.151-1.691,7.156-.569.959-4.49,4.629-5.275,2.706-.652-1.6,1.257-2.841,1.451-4.317.191-1.457-.461-3.562-.6-5.069a38.7,38.7,0,0,1-.25-7.246c.317-3.168,1.106-6.357,1.7-9.485C512.08,443.609,512.7,439.736,514.121,436.419Z" fill="none" stroke="#15284c" stroke-linecap="round" stroke-linejoin="round" stroke-width="2"/>
    <path id="패스_7" data-name="패스 7" d="M525.02,401.572c-.522-1.481-2.364-3.406-3.468-4.77-1.225-1.512-2.583-2.911-3.766-4.45-1.815-2.363-1.2-5.444-1.332-8.3-.109-2.365-.576-5.043.116-7.344.253-.843.927-1.557,1.215-2.436.487-1.49.365-3.452-1.559-2.324-1.848,1.085-3.11,3.926-3.7,5.9a26.408,26.408,0,0,0-.735,9.964,33.386,33.386,0,0,0,1.532,7.665c1.489,4.234,4.012,7.1,6.907,10.374.877.991,2.2,2.993,3.726,2.965,2.018-.038,1.532-2.661,1.736-4.08.181-1.259.479-3.694-1.134-4.2" fill="#fff"/>
    <path id="패스_8" data-name="패스 8" d="M525.02,401.572c-.522-1.481-2.364-3.406-3.468-4.77-1.225-1.512-2.583-2.911-3.766-4.45-1.815-2.363-1.2-5.444-1.332-8.3-.109-2.365-.576-5.043.116-7.344.253-.843.927-1.557,1.215-2.436.487-1.49.365-3.452-1.559-2.324-1.848,1.085-3.11,3.926-3.7,5.9a26.408,26.408,0,0,0-.735,9.964,33.386,33.386,0,0,0,1.532,7.665c1.489,4.234,4.012,7.1,6.907,10.374.877.991,2.2,2.993,3.726,2.965,2.018-.038,1.532-2.661,1.736-4.08.181-1.259.479-3.694-1.134-4.2" fill="none" stroke="#15284c" stroke-linecap="round" stroke-linejoin="round" stroke-width="2"/>
    <path id="패스_9" data-name="패스 9" d="M524.787,397.791c-1.786.759-2.193,4.15-2.941,5.719-1.138,2.388-2.448,4.694-3.434,7.152a56.327,56.327,0,0,0-3.187,9.958c-.24,1.22-.736,2.329-.966,3.548-.26,1.372-.167,2.784-.378,4.163a31.764,31.764,0,0,1-1.613,5.692c-.906,2.585-2.867,5.659-.921,8.258,1.984,2.652,6.521,3.23,9.562,3.237,2.661.007,5.315-1.2,7.973-.628,1.251.268,2.07,1.131,3.3,1.4a9.111,9.111,0,0,0,4.041-.031,8.829,8.829,0,0,0,6.1-5.189,13.488,13.488,0,0,0,.408-7.878c-.782-2.748-3.2-3.524-4.626-5.681-1.291-1.947-.728-4.458-.373-6.648.4-2.441,1.187-4.8,1.708-7.212.742-3.44,4.254-9.761.3-12.551-2.211-1.559-5.525-1.965-8.126-2.53a32.215,32.215,0,0,0-3.754-.512c-.744-.07-2.337-.549-3.026-.283l-.041.016" fill="#bdd9c8"/>
    <path id="패스_10" data-name="패스 10" d="M524.787,397.791c-1.786.759-2.193,4.15-2.941,5.719-1.138,2.388-2.448,4.694-3.434,7.152a56.327,56.327,0,0,0-3.187,9.958c-.24,1.22-.736,2.329-.966,3.548-.26,1.372-.167,2.784-.378,4.163a31.764,31.764,0,0,1-1.613,5.692c-.906,2.585-2.867,5.659-.921,8.258,1.984,2.652,6.521,3.23,9.562,3.237,2.661.007,5.315-1.2,7.973-.628,1.251.268,2.07,1.131,3.3,1.4a9.111,9.111,0,0,0,4.041-.031,8.829,8.829,0,0,0,6.1-5.189,13.488,13.488,0,0,0,.408-7.878c-.782-2.748-3.2-3.524-4.626-5.681-1.291-1.947-.728-4.458-.373-6.648.4-2.441,1.187-4.8,1.708-7.212.742-3.44,4.254-9.761.3-12.551-2.211-1.559-5.525-1.965-8.126-2.53a32.215,32.215,0,0,0-3.754-.512c-.744-.07-2.337-.549-3.026-.283Z" fill="none" stroke="#15284c" stroke-linecap="round" stroke-linejoin="round" stroke-width="2"/>
    <path id="패스_11" data-name="패스 11" d="M531.371,383.809a4.082,4.082,0,0,1,4.142.505c2.342,1.6,3.07,3.976,3.669,6.643.217.972-.273,3.163.443,3.872,1.426,1.415,3.515-1.267,4.139-2.31a13.292,13.292,0,0,0,1.044-2.723,5.143,5.143,0,0,1,1.347-2.058c1.108-1.317,1.477-3.11,2.62-4.4.9-1.019,2.081-1.734,2.975-2.773,1.138-1.322,2.008-2.855,3.149-4.19.807-.943,2.358-2.4,2.23-3.806-.135-1.457-1.472-1.849-2.7-1.6a6.493,6.493,0,0,0-3.6,2.395c-.932,1.066-2.3,3.365-3.924,3.446-1.47.075-2.354-1.406-2.457-2.721-.158-2,1.276-3.139,2.461-4.5,1.168-1.342,4.175-6.379,1.88-7.91-2.481-1.656-4.763,3.521-5.662,4.9-.486.743-1.075,1.977-2.087,1.688s-1.123-1.649-.963-2.479c.333-1.725,2.429-3.784.373-5.174-1.641-1.11-3.131.116-3.942,1.589-.679,1.233-1.156,3.038-2.683,3.571-1.4.488-2.828-1.152-4.1-.528-1.517.744-.881,3.351-.965,4.653a3.111,3.111,0,0,1-3.241,3.067c-2.092.108-5.641-2.466-5.535,1.4.066,2.451,2.3,3.956,2.869,6.215a13.268,13.268,0,0,1,.139,4.175c-.075,1.16-.152,5.145,1.741,4.766.9-.181,1.1-1.291,1.486-1.926a7.034,7.034,0,0,1,2.119-2.074,12.055,12.055,0,0,1,3.026-1.713" fill="#e95019"/>
    <path id="패스_12" data-name="패스 12" d="M531.371,383.809a4.082,4.082,0,0,1,4.142.505c2.342,1.6,3.07,3.976,3.669,6.643.217.972-.273,3.163.443,3.872,1.426,1.415,3.515-1.267,4.139-2.31a13.292,13.292,0,0,0,1.044-2.723,5.143,5.143,0,0,1,1.347-2.058c1.108-1.317,1.477-3.11,2.62-4.4.9-1.019,2.081-1.734,2.975-2.773,1.138-1.322,2.008-2.855,3.149-4.19.807-.943,2.358-2.4,2.23-3.806-.135-1.457-1.472-1.849-2.7-1.6a6.493,6.493,0,0,0-3.6,2.395c-.932,1.066-2.3,3.365-3.924,3.446-1.47.075-2.354-1.406-2.457-2.721-.158-2,1.276-3.139,2.461-4.5,1.168-1.342,4.175-6.379,1.88-7.91-2.481-1.656-4.763,3.521-5.662,4.9-.486.743-1.075,1.977-2.087,1.688s-1.123-1.649-.963-2.479c.333-1.725,2.429-3.784.373-5.174-1.641-1.11-3.131.116-3.942,1.589-.679,1.233-1.156,3.038-2.683,3.571-1.4.488-2.828-1.152-4.1-.528-1.517.744-.881,3.351-.965,4.653a3.111,3.111,0,0,1-3.241,3.067c-2.092.108-5.641-2.466-5.535,1.4.066,2.451,2.3,3.956,2.869,6.215a13.268,13.268,0,0,1,.139,4.175c-.075,1.16-.152,5.145,1.741,4.766.9-.181,1.1-1.291,1.486-1.926a7.034,7.034,0,0,1,2.119-2.074A12.055,12.055,0,0,1,531.371,383.809Z" fill="none" stroke="#15284c" stroke-linecap="round" stroke-linejoin="round" stroke-width="2"/>
    <path id="패스_13" data-name="패스 13" d="M527.751,383.632a6.124,6.124,0,0,1,8.382-.69c1.722,1.385,2.125,3.255,2.717,5.264.153.52.338,1,.513,1.466,1.331,3.529-.17,7.649-3.016,9.981-.143.116-.3.234-.456.352.717,2.547-.842,5.93-2.651,7.556-1.557,1.4-3.6,1.082-5.213-.159a4.1,4.1,0,0,1-1.344-4.22,7.857,7.857,0,0,1,1.18-3.3,47.136,47.136,0,0,1-2.1-4.657c-2.018-4.115-1.112-8.288,1.988-11.593" fill="#fff"/>
    <path id="패스_14" data-name="패스 14" d="M527.751,383.632a6.124,6.124,0,0,1,8.382-.69c1.722,1.385,2.125,3.255,2.717,5.264.153.52.338,1,.513,1.466,1.331,3.529-.17,7.649-3.016,9.981-.143.116-.3.234-.456.352.717,2.547-.842,5.93-2.651,7.556-1.557,1.4-3.6,1.082-5.213-.159a4.1,4.1,0,0,1-1.344-4.22,7.857,7.857,0,0,1,1.18-3.3,47.136,47.136,0,0,1-2.1-4.657C523.745,391.11,524.651,386.937,527.751,383.632Z" fill="none" stroke="#15284c" stroke-linecap="round" stroke-linejoin="round" stroke-width="2"/>
    <path id="패스_15" data-name="패스 15" d="M538.3,390.008c.9-2.2,3.541.32,3.635,1.848a2.447,2.447,0,0,1-1.067,2.359c-.582.383-2.15.946-2.686.461" fill="#fff"/>
    <path id="패스_16" data-name="패스 16" d="M538.3,390.008c.9-2.2,3.541.32,3.635,1.848a2.447,2.447,0,0,1-1.067,2.359c-.582.383-2.15.946-2.686.461" fill="none" stroke="#15284c" stroke-linecap="round" stroke-linejoin="round" stroke-width="2"/>
    <path id="패스_17" data-name="패스 17" d="M527.826,387.71v-.361m5.487,1.8v-.481" fill="none" stroke="#15284c" stroke-linecap="round" stroke-linejoin="round" stroke-width="2"/>
    <path id="패스_18" data-name="패스 18" d="M540.267,403.178a88.934,88.934,0,0,0,8.533-4.1c2.556-1.287,3.876-4.665,4.95-7.151a64.268,64.268,0,0,0,2.508-7.143,7.135,7.135,0,0,1,3.179-3.893c1.312-.663,5.643-.83,4.258,1.753-.669,1.249-2.692,1.563-3.485,2.731-.592.871-.683,2.421-.948,3.469a73.375,73.375,0,0,1-3.109,8.613c-1.419,3.618-2.762,7.918-6.387,9.851-2.992,1.6-8.811,6.124-11.986,2.571-1.828-2.047.585-5.693,2.487-6.7" fill="#fff"/>
    <path id="패스_19" data-name="패스 19" d="M540.267,403.178a88.934,88.934,0,0,0,8.533-4.1c2.556-1.287,3.877-4.665,4.95-7.151a64.268,64.268,0,0,0,2.508-7.143,7.135,7.135,0,0,1,3.179-3.893c1.312-.663,5.643-.83,4.258,1.753-.669,1.249-2.692,1.563-3.485,2.731-.592.871-.683,2.421-.948,3.469a73.375,73.375,0,0,1-3.109,8.613c-1.419,3.618-2.762,7.918-6.387,9.851-2.992,1.6-8.811,6.124-11.986,2.571C535.953,407.83,538.365,404.184,540.267,403.178Z" fill="none" stroke="#15284c" stroke-linecap="round" stroke-linejoin="round" stroke-width="2"/>
    <path id="패스_20" data-name="패스 20" d="M531.561,431.011c2.63.117,5.87-3.239,5.206-5.787M523,439.922c-1.339-2.062-2.511-4.087-2.428-6.6m11.566,6.828c-2.57-2-5.778-5.018-5.552-8.679" fill="none" stroke="#15284c" stroke-linecap="round" stroke-linejoin="round" stroke-width="2"/>
    <path id="패스_21" data-name="패스 21" d="M545.74,437.717c2.781-.026,3.923,7.041,2.468,8.8-1.723,2.079-2.735-1.268-2.478-2.691s.994-2.067.245-3.666c-.226-.482-1.091-1.5-.829-2.1.224-.511.738-.486.594-.342" fill="#e95019"/>
    <path id="패스_22" data-name="패스 22" d="M545.74,437.717c2.781-.026,3.923,7.041,2.468,8.8-1.723,2.079-2.735-1.268-2.478-2.691s.994-2.067.245-3.666c-.226-.482-1.091-1.5-.829-2.1C545.37,437.548,545.884,437.573,545.74,437.717Z" fill="none" stroke="#15284c" stroke-linecap="round" stroke-linejoin="round" stroke-width="2"/>
    <path id="패스_23" data-name="패스 23" d="M531.875,398.189c-1.5.346-4.691-.858-5.6-2.451m2.452-2.978a1.459,1.459,0,0,0,1.926.174" fill="none" stroke="#15284c" stroke-linecap="round" stroke-linejoin="round" stroke-width="2"/>
    <path id="패스_24" data-name="패스 24" d="M539.4,475.754c.627-7.747,1.952-15.928,7.034-21.809,6.99-8.09,25.251-11.984,33.646-3.84,4.295,4.167,5.141,10.666,5.5,16.641a219.916,219.916,0,0,1-.771,35.576,7.661,7.661,0,0,1-.858,3.285c-.932,1.506-2.737,2.18-4.412,2.752q-8.595,2.944-17.19,5.885a17.947,17.947,0,0,1-6.113,1.32c-2.53-.056-4.9-1.172-7.184-2.264-7.679-3.679-9.513-4.241-9.975-12.78a202.829,202.829,0,0,1,.326-24.766" fill="#bfb6af"/>
    <path id="패스_25" data-name="패스 25" d="M539.4,475.754c.627-7.747,1.952-15.928,7.034-21.809,6.99-8.09,25.251-11.984,33.646-3.84,4.295,4.167,5.141,10.666,5.5,16.641a219.916,219.916,0,0,1-.771,35.576,7.661,7.661,0,0,1-.858,3.285c-.932,1.506-2.737,2.18-4.412,2.752q-8.595,2.944-17.19,5.885a17.947,17.947,0,0,1-6.113,1.32c-2.53-.056-4.9-1.172-7.184-2.264-7.679-3.679-9.513-4.241-9.975-12.78A202.829,202.829,0,0,1,539.4,475.754Z" fill="none" stroke="#15284c" stroke-linecap="round" stroke-linejoin="round" stroke-width="2"/>
    <path id="패스_26" data-name="패스 26" d="M545.208,508.01q.183-13.461.367-26.921c.114-8.3.423-17.2,5.364-23.869m11.772-7.458c-1.739.761-2.973,3.178-5.167,2.119-2.678-1.293-.9-4.21.877-5.137,1.882-.982,13.676-3.373,12.681,1.538a8.227,8.227,0,0,1-2.69.636C566.529,449.093,564.543,448.961,562.711,449.762Zm13.5.306c-7.675,1.7-15.929,5.22-18.872,12.509a27.346,27.346,0,0,0-1.516,8.289,349,349,0,0,0-.646,40.057" fill="none" stroke="#15284c" stroke-linecap="round" stroke-linejoin="round" stroke-width="2"/>
    <path id="패스_27" data-name="패스 27" d="M575.98,456.946a7.014,7.014,0,0,0-4.307,2.177,6.587,6.587,0,0,0-1.573,6.056,5.817,5.817,0,0,0,4.544,4.187,6.045,6.045,0,0,0,6.443-4.351A6.686,6.686,0,0,0,576.14,457" fill="#def1fb"/>
    <path id="패스_28" data-name="패스 28" d="M575.98,456.946a7.014,7.014,0,0,0-4.307,2.177,6.587,6.587,0,0,0-1.573,6.056,5.817,5.817,0,0,0,4.544,4.187,6.045,6.045,0,0,0,6.443-4.351A6.686,6.686,0,0,0,576.14,457" fill="none" stroke="#15284c" stroke-linecap="round" stroke-linejoin="round" stroke-width="2"/>
    <path id="패스_29" data-name="패스 29" d="M558.683,478.683a37.321,37.321,0,0,0,9.945-4.963q1.044,5.518,1.675,11.107-5.953,2.16-11.746,4.736a40.822,40.822,0,0,0-1.922-9.848,4.677,4.677,0,0,1,3.626-1.516" fill="#e95019"/>
    <path id="패스_30" data-name="패스 30" d="M558.683,478.683a37.321,37.321,0,0,0,9.945-4.963q1.044,5.518,1.675,11.107-5.953,2.16-11.746,4.736a40.822,40.822,0,0,0-1.922-9.848,4.677,4.677,0,0,1,3.626-1.516" fill="none" stroke="#15284c" stroke-linecap="round" stroke-linejoin="round" stroke-width="2"/>
    <path id="패스_31" data-name="패스 31" d="M561.76,499.492c-.1-1.335-.171-2.338-.18-2.5a1.066,1.066,0,0,1,.081-.584,1.047,1.047,0,0,1,.755-.4c1.17-.239,15.467-1.511,15.515-1.146a36.89,36.89,0,0,1-.046,9.9c-.122.869-14.454,2.916-15.586,3.056.064-.008-.306-5.116-.539-8.318" fill="#def1fb"/>
    <path id="패스_32" data-name="패스 32" d="M561.76,499.492c-.1-1.335-.171-2.338-.18-2.5a1.068,1.068,0,0,1,.081-.584,1.054,1.054,0,0,1,.755-.4c1.17-.239,15.467-1.511,15.515-1.145a36.883,36.883,0,0,1-.046,9.895c-.122.869-14.454,2.916-15.586,3.056C562.363,507.8,561.993,502.7,561.76,499.492Z" fill="none" stroke="#15284c" stroke-linecap="round" stroke-linejoin="round" stroke-width="2"/>
    <path id="패스_33" data-name="패스 33" d="M584.637,474.764l-7.806,8.808,7.236,7.131" fill="#def1fb"/>
    <path id="패스_34" data-name="패스 34" d="M584.637,474.764l-7.806,8.808,7.236,7.131" fill="none" stroke="#15284c" stroke-linecap="round" stroke-linejoin="round" stroke-width="2"/>
    <path id="패스_35" data-name="패스 35" d="M558.5,448.1V420.591h-.222m9.983-2.883a4.211,4.211,0,0,1,2.858,1.163c-.644,1.584-4.946.437-6.462.39a9.07,9.07,0,0,0-4.715.876c-1.168.6-2.045,1.726-3.41,1.53.518-5.285,10.987-4.736,14.169-2.85m-2.884-.223v27.951m-24.623,64.773c-1.084.448-1.784,2.973-.056,3.315a1.188,1.188,0,0,0,.721-2.205m36.38-2.219c-1.309-1.251-2.1,1.559-.842,2.016,1.5.549,1.829-2.566.842-2.9" fill="none" stroke="#15284c" stroke-linecap="round" stroke-linejoin="round" stroke-width="2"/>
    <path id="패스_36" data-name="패스 36" d="M576.381,382.967c-1.909-3.054-5.948-5.441-8.706-7.845,2.778-3.26,2.881-9.572,3.846-13.633.716-3.01,3.034-5.137,4.072-8.011,1.216-3.362-4.354-14.071-6.978-8.933-1.322,2.591.905,5.342.484,7.6-.714,3.835-4.354,7.995-5.782,11.687-1.962,5.071-3.268,12.394-2.242,17.834.691,3.663,5.03,7.552,8.147,9.629,2.385,1.59,5.55,2.326,6.919-.732,1.2-2.675,2.061-7.533-.876-9.367" fill="#fff"/>
    <path id="패스_37" data-name="패스 37" d="M576.381,382.967c-1.909-3.054-5.948-5.441-8.706-7.845,2.778-3.26,2.881-9.572,3.846-13.633.716-3.01,3.034-5.137,4.072-8.011,1.216-3.362-4.354-14.071-6.978-8.933-1.322,2.591.905,5.342.484,7.6-.714,3.835-4.354,7.995-5.782,11.687-1.962,5.071-3.268,12.394-2.242,17.834.691,3.663,5.03,7.552,8.147,9.629,2.385,1.59,5.55,2.326,6.919-.732,1.2-2.675,2.061-7.533-.876-9.367" fill="none" stroke="#15284c" stroke-linecap="round" stroke-linejoin="round" stroke-width="2"/>
    <path id="패스_38" data-name="패스 38" d="M603.2,469.42a4.793,4.793,0,0,0-1.4,5.665c1.536,4.659,9.571,5.431,13.161,3.169,2.967-1.872,5.026-4.87,7.691-7.15,2.94-2.515,6.51-4.075,9.71-6.2,2.031-1.351,6.881-4.681,7.038-7.334a3.043,3.043,0,0,0-1.5-2.761,4.468,4.468,0,0,0-4.02.149c-1.262.593-2.355,1.491-3.585,2.148-3.022,1.611-6.716,1.684-9.632,3.482-1.886,1.162-3.314,2.973-5.225,4.094-2.535,1.488-9.073,2.06-12.236,4.742" fill="#fff"/>
    <path id="패스_39" data-name="패스 39" d="M603.2,469.42a4.793,4.793,0,0,0-1.4,5.665c1.536,4.66,9.571,5.431,13.161,3.169,2.967-1.872,5.026-4.869,7.691-7.149,2.94-2.516,6.51-4.076,9.71-6.2,2.031-1.351,6.881-4.681,7.038-7.334a3.045,3.045,0,0,0-1.5-2.762,4.465,4.465,0,0,0-4.02.15c-1.262.592-2.355,1.49-3.585,2.147-3.022,1.611-6.716,1.685-9.632,3.482-1.886,1.163-3.314,2.973-5.225,4.095C612.905,466.166,606.367,466.738,603.2,469.42Z" fill="none" stroke="#15284c" stroke-linecap="round" stroke-linejoin="round" stroke-width="2"/>
    <path id="패스_40" data-name="패스 40" d="M587.849,503.209c.156.424.314.847.471,1.271.68,1.829,1.7,3.938,3.637,4.2a3.626,3.626,0,0,0,3.519-2.191c1.792-3.724-1.74-9.243-1.944-13.294a22.276,22.276,0,0,0-.583-5.666c-.4-1.256-1.1-2.4-1.546-3.638-1.5-4.168.087-8.346.785-12.485a9.26,9.26,0,0,0-.323-5.193,4.3,4.3,0,0,0-4.094-2.751,5.438,5.438,0,0,0-2.712,1.283c-7.51,5.88-5.439,15.018-2.709,23q2.655,7.764,5.5,15.462" fill="#fff"/>
    <path id="패스_41" data-name="패스 41" d="M587.849,503.209c.156.424.314.847.471,1.271.68,1.829,1.7,3.938,3.637,4.2a3.626,3.626,0,0,0,3.519-2.191c1.792-3.724-1.74-9.243-1.944-13.294a22.276,22.276,0,0,0-.583-5.666c-.4-1.256-1.1-2.4-1.546-3.638-1.5-4.168.087-8.346.785-12.485a9.26,9.26,0,0,0-.323-5.193,4.3,4.3,0,0,0-4.094-2.751,5.438,5.438,0,0,0-2.712,1.283c-7.51,5.88-5.439,15.018-2.709,23Q585.005,495.511,587.849,503.209Z" fill="none" stroke="#15284c" stroke-linecap="round" stroke-linejoin="round" stroke-width="2"/>
    <path id="패스_42" data-name="패스 42" d="M580.59,472.11c-2.21-1.171-3.709-2.877-2.812-5.259,2.263-6.015,2.719-12.479,3.691-18.779.641-4.156,1.481-13.4,5.8-15.1,3.17-1.243,7.939-.79,11.3-1.009,3.125-.2,6.266-.3,9.385-.576.555-.049,2.091-.475,2.6-.223,1.716.846,3.272,5.616,3.637,7.461.7,3.542.159,7.354.373,10.943a49.59,49.59,0,0,0,1.355,10.215c.768,2.744,2.7,5.635,1.448,8.578a7.854,7.854,0,0,1-3.968,3.587,25.554,25.554,0,0,1-5.943,2.112,7.518,7.518,0,0,1-5.088-.248c-2.116-1.107-2.943-3.681-3.38-6.028a49.86,49.86,0,0,1-.688-10.273c.023-1.084.4-4.16-1.721-3.155-1.754.831-1.2,6.079-1.277,7.646a27.475,27.475,0,0,1-.587,5.115,13.7,13.7,0,0,1-2.874,5.611,4.318,4.318,0,0,1-1.658,1.322,4.533,4.533,0,0,1-2.061.153,22.445,22.445,0,0,1-7.537-2.1" fill="#fff"/>
    <path id="패스_43" data-name="패스 43" d="M580.59,472.11c-2.21-1.171-3.709-2.877-2.812-5.259,2.263-6.015,2.719-12.479,3.691-18.779.641-4.156,1.481-13.4,5.8-15.1,3.17-1.243,7.939-.79,11.3-1.009,3.125-.2,6.266-.3,9.385-.576.555-.049,2.091-.475,2.6-.223,1.716.846,3.272,5.616,3.637,7.461.7,3.542.159,7.354.373,10.943a49.59,49.59,0,0,0,1.355,10.215c.768,2.744,2.7,5.635,1.448,8.578a7.854,7.854,0,0,1-3.968,3.587,25.554,25.554,0,0,1-5.943,2.112,7.518,7.518,0,0,1-5.088-.248c-2.116-1.107-2.943-3.681-3.38-6.028a49.86,49.86,0,0,1-.688-10.273c.023-1.084.4-4.16-1.721-3.155-1.754.831-1.2,6.079-1.277,7.646a27.475,27.475,0,0,1-.587,5.115,13.7,13.7,0,0,1-2.874,5.611,4.318,4.318,0,0,1-1.658,1.322,4.533,4.533,0,0,1-2.061.153A22.445,22.445,0,0,1,580.59,472.11Z" fill="none" stroke="#15284c" stroke-linecap="round" stroke-linejoin="round" stroke-width="2"/>
    <path id="패스_44" data-name="패스 44" d="M596.723,380.73a11.988,11.988,0,0,1,2.4.142,43.287,43.287,0,0,1,11.762,3.907c3.956,1.9,4.415,7.026,4.485,10.877.077,4.226-.88,8.16-.158,12.388.509,2.981,1.233,5.948,2.017,8.867,1.3,4.847,2.907,9.532,1,14.452-1.289,3.334-4.915,5.407-8.034,6.741a13.555,13.555,0,0,1-4.864,1.424c-1.636.045-3.4-.243-5.057-.305-4.141-.154-8.27-.653-12.419-.579-3.259.056-5.7,1.223-5.917-3.136-.321-6.459.606-13.037.354-19.529-.116-3.021.068-6.308-.314-9.31-.371-2.911-1.6-3.515-3.868-4.993-3-1.949-8.254-4.533-9.886-7.89-1.777-3.66,1.265-8.916,2.559-12.294.863-2.252.911-4.282,3.578-3.84,2.718.448,5.046,2.537,7.739,3.138a58.4,58.4,0,0,0,7.035.571c2.79.256,5.006-.535,7.587-.631" fill="#def1fb"/>
    <path id="패스_45" data-name="패스 45" d="M596.723,380.73a12.061,12.061,0,0,1,2.4.142,43.287,43.287,0,0,1,11.762,3.907c3.956,1.9,4.415,7.026,4.485,10.877.077,4.226-.88,8.16-.158,12.388.509,2.982,1.233,5.948,2.017,8.867,1.3,4.847,2.907,9.532,1,14.453-1.289,3.334-4.915,5.406-8.034,6.74a13.555,13.555,0,0,1-4.864,1.424c-1.636.045-3.4-.243-5.057-.305-4.141-.154-8.27-.653-12.419-.579-3.259.056-5.7,1.223-5.917-3.136-.321-6.459.606-13.037.354-19.529-.116-3.02.068-6.308-.314-9.31-.371-2.911-1.6-3.515-3.868-4.993-3-1.949-8.254-4.532-9.886-7.89-1.777-3.66,1.265-8.915,2.559-12.294.863-2.252.911-4.281,3.578-3.84,2.718.449,5.046,2.538,7.739,3.139a58.4,58.4,0,0,0,7.035.571C591.926,381.617,594.142,380.826,596.723,380.73Z" fill="none" stroke="#15284c" stroke-linecap="round" stroke-linejoin="round" stroke-width="2"/>
    <path id="패스_46" data-name="패스 46" d="M601.606,379.065a30.15,30.15,0,0,1-.221,4.7,8.78,8.78,0,0,1-1.179,3.805c-1.057,1.594-3.419,3.336-5.406,3.029a4.916,4.916,0,0,1-2.023-.927c-3.573-2.509-4.486-5.4-3.843-9.605" fill="#fff"/>
    <path id="패스_47" data-name="패스 47" d="M601.606,379.065a30.15,30.15,0,0,1-.221,4.7,8.78,8.78,0,0,1-1.179,3.805c-1.057,1.594-3.419,3.336-5.406,3.029a4.916,4.916,0,0,1-2.023-.927c-3.573-2.509-4.486-5.4-3.843-9.605" fill="none" stroke="#15284c" stroke-linecap="round" stroke-linejoin="round" stroke-width="2"/>
    <path id="패스_48" data-name="패스 48" d="M602.426,365.021c.168.148.332.3.494.454,3.689,3.574,4.781,6.431,2.433,11.2-1.643,3.336-4.319,7.262-7.953,8.636a8.7,8.7,0,0,1-8.981-2.281,12.911,12.911,0,0,1-3.383-8.943,27.947,27.947,0,0,1,.862-7.943,6.463,6.463,0,0,1,2.538-3.654,7.169,7.169,0,0,1,2.9-.954,14.164,14.164,0,0,1,11.094,3.485" fill="#fff"/>
    <path id="패스_49" data-name="패스 49" d="M602.426,365.021c.168.148.332.3.494.454,3.689,3.574,4.781,6.431,2.433,11.2-1.643,3.336-4.319,7.262-7.953,8.636a8.7,8.7,0,0,1-8.981-2.281,12.911,12.911,0,0,1-3.383-8.943,27.947,27.947,0,0,1,.862-7.943,6.463,6.463,0,0,1,2.538-3.654,7.169,7.169,0,0,1,2.9-.954A14.164,14.164,0,0,1,602.426,365.021Z" fill="none" stroke="#15284c" stroke-linecap="round" stroke-linejoin="round" stroke-width="2"/>
    <path id="패스_50" data-name="패스 50" d="M595.8,371.044c0-.191,0-.384,0-.575m-10.816,74.714a4.311,4.311,0,0,0,3.889-3.9m23.545,10.293c.086-.092.263.065.182.161a12,12,0,0,1-4.515-2.437A17.043,17.043,0,0,1,605,446.45a6.964,6.964,0,0,1-1.6-3.824m-16.345,26.256a30.913,30.913,0,0,0,1.476-6.982m16.7-30.579q.654-2.726,1.308-5.449m-16.685,1.394q-1.138-3.6-2.276-7.212c-.079-.25-.286-.562-.523-.45m5.187-26.682a8.384,8.384,0,0,0,6.8.028" fill="none" stroke="#15284c" stroke-linecap="round" stroke-linejoin="round" stroke-width="2"/>
    <path id="패스_51" data-name="패스 51" d="M591.119,363.629c-3.823.026-6.876-2.029-4.866-6.156,1.1-2.259,2.388-2.709,4.688-2.961,3.59-.393,11.739-1.3,13.737,2.557.661,1.274.23,2.045,1.328,3.2.832.88,2.048,1.366,2.845,2.423,1.928,2.557,1.646,5.353,1.421,8.429-.183,2.5-2.275,5.828-4.061,7.56-3.239,3.142-2.557-2.163-3.109-4.6-.646-2.844.458-5.762-1.6-8.232-3.22-3.861-6.536-2.255-10.383-2.227" fill="#bdd9c8"/>
    <path id="패스_52" data-name="패스 52" d="M591.119,363.629c-3.823.026-6.876-2.029-4.866-6.156,1.1-2.259,2.388-2.709,4.688-2.961,3.59-.393,11.739-1.3,13.737,2.557.661,1.274.23,2.045,1.328,3.2.832.88,2.048,1.366,2.845,2.423,1.928,2.557,1.646,5.353,1.421,8.429-.183,2.5-2.275,5.828-4.061,7.56-3.239,3.142-2.557-2.163-3.109-4.6-.646-2.844.458-5.762-1.6-8.232C598.282,361.995,594.966,363.6,591.119,363.629Z" fill="none" stroke="#15284c" stroke-linecap="round" stroke-linejoin="round" stroke-width="2"/>
    <path id="패스_53" data-name="패스 53" d="M600.5,369.336c2.184-.006,4.946,2.521,4.491,4.657s-2.024,4-4.016,3.106" fill="#fff"/>
    <path id="패스_54" data-name="패스 54" d="M600.5,369.336c2.184-.006,4.946,2.521,4.491,4.657s-2.024,4-4.016,3.106" fill="none" stroke="#15284c" stroke-linecap="round" stroke-linejoin="round" stroke-width="2"/>
    <path id="패스_55" data-name="패스 55" d="M599.183,511.689a5.574,5.574,0,0,1-3.626,2.53c-1.463.405-3,.527-4.435,1.016-.979.335-1.9.834-2.874,1.173a9.386,9.386,0,0,1-2.623.505,4.352,4.352,0,0,1-2.953-.754,2.145,2.145,0,0,1-.577-2.77,3.725,3.725,0,0,1,.969-.829,14.368,14.368,0,0,0,4.234-4.614c.387-.673.843-1.466,1.615-1.549.974-.1,1.617.976,2.492,1.418,2.838,1.439,3.7-2.878,6.044-2.528s2.547,4.81,1.734,6.4" fill="#e95019"/>
    <path id="패스_56" data-name="패스 56" d="M599.183,511.689a5.574,5.574,0,0,1-3.626,2.53c-1.463.405-3,.527-4.435,1.016-.979.335-1.9.834-2.874,1.173a9.386,9.386,0,0,1-2.623.505,4.352,4.352,0,0,1-2.953-.754,2.145,2.145,0,0,1-.577-2.77,3.725,3.725,0,0,1,.969-.829,14.368,14.368,0,0,0,4.234-4.614c.387-.673.843-1.466,1.615-1.549.974-.1,1.617.976,2.492,1.418,2.838,1.439,3.7-2.878,6.044-2.528S600,510.1,599.183,511.689Z" fill="none" stroke="#15284c" stroke-linecap="round" stroke-linejoin="round" stroke-width="2"/>
    <path id="패스_57" data-name="패스 57" d="M641.9,460.893a3.945,3.945,0,0,1,1.563.312c1.7.846,2.781,4.271,4.942,1.873,1.5-1.663-.172-5.265-.9-7a5.511,5.511,0,0,0-1.638-2.4c-1.264-.932-3.027-.806-4.438-1.5-1.326-.649-2.353-2.017-3.825-2.125a3.952,3.952,0,0,0-3.223,1.913c-.829,1.131-2.323,2.67-1.192,3.97.841.968,3.042-.116,3.485.989.526,1.314-1.268,2.351.322,3.674.938.779,3.79.226,4.9.287" fill="#e95019"/>
    <path id="패스_58" data-name="패스 58" d="M641.9,460.893a3.945,3.945,0,0,1,1.563.312c1.7.846,2.781,4.271,4.942,1.873,1.5-1.663-.172-5.265-.9-7a5.511,5.511,0,0,0-1.638-2.4c-1.264-.932-3.027-.806-4.438-1.5-1.326-.649-2.353-2.017-3.825-2.125a3.952,3.952,0,0,0-3.223,1.913c-.829,1.131-2.323,2.67-1.192,3.97.841.968,3.042-.116,3.485.989.526,1.314-1.268,2.351.322,3.674C637.933,461.385,640.785,460.832,641.9,460.893Z" fill="none" stroke="#15284c" stroke-linecap="round" stroke-linejoin="round" stroke-width="2"/>
    <path id="패스_59" data-name="패스 59" d="M594.327,377.57c-1.231.383-2.934.566-3.775-.652" fill="none" stroke="#15284c" stroke-linecap="round" stroke-linejoin="round" stroke-width="2"/>
    <path id="패스_60" data-name="패스 60" d="M607.333,385.169c.821-.953,1.249-2.12,2.009-3.111,1.335-1.743,2.866-3.35,5.169-3.469,5.418-.281,10.236,4.582,11.812,9.489a7.518,7.518,0,0,1-1,5.8c-1.062,1.918-2.89,2.989-4.541,4.32a29.91,29.91,0,0,0-2.747,2.883c-.792.826-1.851,1.156-2.629,2.052a15.651,15.651,0,0,0-3.638,8.3" fill="#def1fb"/>
    <path id="패스_61" data-name="패스 61" d="M607.333,385.169c.821-.953,1.249-2.12,2.009-3.111,1.335-1.743,2.866-3.35,5.169-3.469,5.418-.281,10.236,4.582,11.812,9.489a7.518,7.518,0,0,1-1,5.8c-1.062,1.918-2.89,2.989-4.541,4.32a29.91,29.91,0,0,0-2.747,2.883c-.792.826-1.851,1.156-2.629,2.052a15.651,15.651,0,0,0-3.638,8.3" fill="none" stroke="#15284c" stroke-linecap="round" stroke-linejoin="round" stroke-width="2"/>
    <path id="패스_62" data-name="패스 62" d="M620.167,390.738c.07.01.14.018.21.026,1.483.152,3.451-.083,4.23-1.469,1.173-2.088,1.553-5.177,1.794-7.547.223-2.2.693-4.445.746-6.658.033-1.39.352-3.12-.1-4.421-1.088-3.121-4.366-5.883-6.407-8.426a66.416,66.416,0,0,1-4.646-5.933c-.524-.83-1.617-2.188-1.694-3.227-.062-.826.636-1.66.958-2.53.726-1.964,1.178-6.033-1.325-7.137-2.374-1.046-4.005,2.393-4.873,3.942a5.279,5.279,0,0,0-.243,5.694,29.69,29.69,0,0,1,2.573,6.365,28.488,28.488,0,0,0,1.952,5.981,33.682,33.682,0,0,0,2.4,4.477c.7,1.081,2.246,2.364,2.483,3.629.37,1.974-1.829,4.4-2.79,5.951a8.322,8.322,0,0,0-1.16,6.4,7.7,7.7,0,0,0,5.889,4.88" fill="#fff"/>
    <path id="패스_63" data-name="패스 63" d="M620.167,390.738c.07.01.14.018.21.026,1.483.152,3.451-.083,4.23-1.469,1.173-2.088,1.553-5.177,1.794-7.547.223-2.2.693-4.445.746-6.658.033-1.39.352-3.12-.1-4.421-1.088-3.121-4.366-5.883-6.407-8.426a66.416,66.416,0,0,1-4.646-5.933c-.524-.83-1.617-2.188-1.694-3.227-.062-.826.636-1.66.958-2.53.726-1.964,1.178-6.033-1.325-7.137-2.374-1.046-4.005,2.393-4.873,3.942a5.279,5.279,0,0,0-.243,5.694,29.69,29.69,0,0,1,2.573,6.365,28.488,28.488,0,0,0,1.952,5.981,33.682,33.682,0,0,0,2.4,4.477c.7,1.081,2.246,2.364,2.483,3.629.37,1.974-1.829,4.4-2.79,5.951a8.322,8.322,0,0,0-1.16,6.4A7.7,7.7,0,0,0,620.167,390.738Z" fill="none" stroke="#15284c" stroke-linecap="round" stroke-linejoin="round" stroke-width="2"/>
    <path id="패스_64" data-name="패스 64" d="M603.028,390.178c.372-1.419,2.3-5.376,4.194-5.453m-.288,10.762c-1.192-3.333-1.308-7.3.734-10.319" fill="none" stroke="#15284c" stroke-linecap="round" stroke-linejoin="round" stroke-width="2"/>
    <path id="패스_65" data-name="패스 65" d="M590.061,370.855l-.036-.407" fill="none" stroke="#15284c" stroke-linecap="round" stroke-linejoin="round" stroke-width="2"/>
  </g>
</svg>
