<svg xmlns="http://www.w3.org/2000/svg" width="44" height="44.441" viewBox="0 0 44 44.441">
  <g id="ico_nav_4-5" transform="translate(0 0.3)">
    <rect id="사각형_30145" data-name="사각형 30145" width="44" height="44" fill="#fff"/>
    <g id="그룹_3265" data-name="그룹 3265" transform="translate(-1452 -155)">
      <g id="그룹_3266" data-name="그룹 3266" transform="translate(2)">
        <path id="사각형_30146" data-name="사각형 30146" d="M7.5,0h0A7.5,7.5,0,0,1,15,7.5V20a0,0,0,0,1,0,0H0a0,0,0,0,1,0,0V7.5A7.5,7.5,0,0,1,7.5,0Z" transform="translate(1452 165)" fill="#ff4d1d"/>
        <circle id="타원_274" data-name="타원 274" cx="2.703" cy="2.703" r="2.703" transform="translate(1456.719 155.7)" fill="none" stroke="#1f1f1f" stroke-miterlimit="10" stroke-width="2"/>
        <line id="선_430" data-name="선 430" y1="13.829" transform="translate(1463.115 185.171)" fill="none" stroke="#1f1f1f" stroke-miterlimit="10" stroke-width="2"/>
        <line id="선_431" data-name="선 431" y1="13.829" transform="translate(1455.715 185.171)" fill="none" stroke="#1f1f1f" stroke-miterlimit="10" stroke-width="2"/>
        <path id="사각형_30147" data-name="사각형 30147" d="M7.5,0h0A7.5,7.5,0,0,1,15,7.5V20a0,0,0,0,1,0,0H0a0,0,0,0,1,0,0V7.5A7.5,7.5,0,0,1,7.5,0Z" transform="translate(1452 165)" fill="none" stroke="#1f1f1f" stroke-miterlimit="10" stroke-width="2"/>
      </g>
      <g id="그룹_3267" data-name="그룹 3267" transform="translate(7)">
        <path id="패스_3166" data-name="패스 3166" d="M5,0a5,5,0,0,1,5,5v8H0V5A5,5,0,0,1,5,0Z" transform="translate(1477.199 179)" fill="#ff4d1d"/>
        <circle id="타원_275" data-name="타원 275" cx="2.703" cy="2.703" r="2.703" transform="translate(1479.816 170.887)" fill="none" stroke="#1f1f1f" stroke-miterlimit="10" stroke-width="2"/>
        <line id="선_433" data-name="선 433" y1="6.914" transform="translate(1482.199 192.086)" fill="none" stroke="#1f1f1f" stroke-miterlimit="10" stroke-width="2"/>
        <path id="패스_3167" data-name="패스 3167" d="M5,0a5,5,0,0,1,5,5v8H0V5A5,5,0,0,1,5,0Z" transform="translate(1477.199 179)" fill="none" stroke="#1f1f1f" stroke-miterlimit="10" stroke-width="2"/>
      </g>
      <g id="그룹_3273" data-name="그룹 3273" transform="translate(1079.807 -160.115)">
        <g id="그룹_3268" data-name="그룹 3268" transform="translate(393.192 351.814)">
          <path id="사각형_30148" data-name="사각형 30148" d="M3,0h.784a3,3,0,0,1,3,3V7.441a1,1,0,0,1-1,1H1a1,1,0,0,1-1-1V3A3,3,0,0,1,3,0Z" transform="translate(0 -2)" fill="none" stroke="#262626" stroke-miterlimit="10" stroke-width="2"/>
        </g>
        <path id="패스_3168" data-name="패스 3168" d="M394.144,343.829l-.062,1.28a3.019,3.019,0,0,0,2.847,3.059,2.938,2.938,0,0,0,3.028-2.936l-.062-1.4-.1-3.4a.222.222,0,0,0-.43-.072l-.637,1.686a2.924,2.924,0,0,0-3.419,0l-.637-1.686a.222.222,0,0,0-.43.072Z" transform="translate(-0.435 -1)" fill="none" stroke="#262626" stroke-miterlimit="10" stroke-width="2"/>
      </g>
    </g>
  </g>
</svg>
