<svg xmlns="http://www.w3.org/2000/svg" width="100.1" height="100.1" viewBox="0 0 100.1 100.1">
  <g id="ico_nav_1-3" transform="translate(0.05 0.05)">
    <rect id="사각형_30123" data-name="사각형 30123" width="100" height="100" transform="translate(0 100) rotate(-90)" fill="none" stroke="red" stroke-miterlimit="10" stroke-width="0.1" opacity="0"/>
    <path id="패스_3088" data-name="패스 3088" d="M76.223,85.1" transform="translate(-26.99 -33.828)" fill="none" stroke="#222" stroke-miterlimit="10" stroke-width="2"/>
    <g id="그룹_3158" data-name="그룹 3158" transform="translate(21.668 32.168)">
      <path id="패스_3090" data-name="패스 3090" d="M76.223,85.1" transform="translate(-48.658 -65.996)" fill="none" stroke="#111" stroke-miterlimit="10" stroke-width="4"/>
      <path id="패스_3091" data-name="패스 3091" d="M76.223,85.1" transform="translate(-48.658 -65.996)" fill="none" stroke="#111" stroke-miterlimit="10" stroke-width="4"/>
    </g>
    <path id="패스_3132" data-name="패스 3132" d="M-116.8-213.1l-5.268,2.807a3.324,3.324,0,0,0-1.426,1.478l-2.6,5.35a3.338,3.338,0,0,1-3.454,1.841l-5.922-.808a3.349,3.349,0,0,0-2.028.363l-5.268,2.807a3.348,3.348,0,0,1-3.882-.529l-4.313-4.114a3.343,3.343,0,0,0-1.855-.892l-5.921-.808a3.325,3.325,0,0,1-2.828-2.7l-1.057-5.848a3.309,3.309,0,0,0-.973-1.805l-4.313-4.114a3.3,3.3,0,0,1-.694-3.835l2.6-5.349a3.3,3.3,0,0,0,.28-2.029l-1.057-5.848a3.308,3.308,0,0,1,1.706-3.508l5.268-2.807a3.324,3.324,0,0,0,1.426-1.478l2.6-5.35a3.338,3.338,0,0,1,3.454-1.84l5.922.807a3.346,3.346,0,0,0,2.027-.362l5.268-2.807a3.347,3.347,0,0,1,3.882.529l4.314,4.113a3.339,3.339,0,0,0,1.855.892l5.921.808a3.325,3.325,0,0,1,2.828,2.7l1.057,5.848a3.31,3.31,0,0,0,.973,1.805l4.313,4.114a3.3,3.3,0,0,1,.694,3.835l-2.6,5.349a3.3,3.3,0,0,0-.28,2.029l1.057,5.848A3.308,3.308,0,0,1-116.8-213.1Z" transform="translate(190.936 276.869)" fill="#ff4d1d" stroke="#222" stroke-linejoin="round" stroke-width="2"/>
    <g id="그룹_3285" data-name="그룹 3285" transform="translate(12.807 20.307)">
      <g id="그룹_3160" data-name="그룹 3160" transform="translate(25.938 17.696)">
        <line id="선_399" data-name="선 399" y1="18" x2="18" transform="translate(2.756 3.497)" fill="none" stroke="#fff" stroke-miterlimit="10" stroke-width="3"/>
        <circle id="타원_271" data-name="타원 271" cx="2.5" cy="2.5" r="2.5" transform="translate(2.256 1.997)" fill="#fff"/>
        <circle id="타원_272" data-name="타원 272" cx="2.5" cy="2.5" r="2.5" transform="translate(16.256 16.997)" fill="#fff"/>
      </g>
    </g>
  </g>
</svg>
