<svg xmlns="http://www.w3.org/2000/svg" width="100.1" height="100.1" viewBox="0 0 100.1 100.1">
  <g id="ico_nav_2-4" transform="translate(0.05 0.05)">
    <rect id="사각형_30123" data-name="사각형 30123" width="100" height="100" transform="translate(0 100) rotate(-90)" fill="none" stroke="red" stroke-miterlimit="10" stroke-width="0.1" opacity="0"/>
    <path id="패스_3088" data-name="패스 3088" d="M76.223,85.1" transform="translate(-26.492 -33.328)" fill="none" stroke="#222" stroke-miterlimit="10" stroke-width="2"/>
    <g id="그룹_3173" data-name="그룹 3173" transform="translate(-630.188 -228.584)">
      <path id="사각형_30126" data-name="사각형 30126" d="M2,0H55.73a2,2,0,0,1,2,2V45.817a2.04,2.04,0,0,1-2.04,2.04H2.04A2.04,2.04,0,0,1,0,45.817V2A2,2,0,0,1,2,0Z" transform="translate(652.452 254.692)" fill="#ff4d1d" stroke="#222" stroke-miterlimit="10" stroke-width="2"/>
      <line id="선_411" data-name="선 411" y1="10" transform="translate(667.187 249.584)" fill="none" stroke="#222" stroke-miterlimit="10" stroke-width="2"/>
      <line id="선_412" data-name="선 412" y1="10" transform="translate(696.187 249.584)" fill="none" stroke="#222" stroke-miterlimit="10" stroke-width="2"/>
      <g id="그룹_3286" data-name="그룹 3286" transform="translate(-637.813 54.584)">
        <rect id="사각형_30149" data-name="사각형 30149" width="4" height="4" transform="translate(1301 214)" fill="#fff"/>
        <rect id="사각형_30150" data-name="사각형 30150" width="4" height="4" transform="translate(1309 214)" fill="#fff"/>
        <rect id="사각형_30151" data-name="사각형 30151" width="4" height="4" transform="translate(1318 214)" fill="#fff"/>
        <rect id="사각형_30152" data-name="사각형 30152" width="4" height="4" transform="translate(1326 214)" fill="#fff"/>
        <rect id="사각형_30153" data-name="사각형 30153" width="4" height="4" transform="translate(1334 214)" fill="#fff"/>
      </g>
      <g id="그룹_3287" data-name="그룹 3287" transform="translate(-637.813 63.584)">
        <rect id="사각형_30149-2" data-name="사각형 30149" width="4" height="4" transform="translate(1301 214)" fill="#fff"/>
        <rect id="사각형_30150-2" data-name="사각형 30150" width="4" height="4" transform="translate(1309 214)" fill="#fff"/>
        <rect id="사각형_30151-2" data-name="사각형 30151" width="4" height="4" transform="translate(1318 214)" fill="#fff"/>
        <rect id="사각형_30152-2" data-name="사각형 30152" width="4" height="4" transform="translate(1326 214)" fill="#fff"/>
        <rect id="사각형_30153-2" data-name="사각형 30153" width="4" height="4" transform="translate(1334 214)" fill="#fff"/>
      </g>
      <g id="그룹_3288" data-name="그룹 3288" transform="translate(-637.813 72.584)">
        <rect id="사각형_30149-3" data-name="사각형 30149" width="4" height="4" transform="translate(1301 214)" fill="#fff"/>
        <rect id="사각형_30150-3" data-name="사각형 30150" width="4" height="4" transform="translate(1309 214)" fill="#fff"/>
        <rect id="사각형_30151-3" data-name="사각형 30151" width="4" height="4" transform="translate(1318 214)" fill="#fff"/>
      </g>
    </g>
  </g>
</svg>
