<svg xmlns="http://www.w3.org/2000/svg" width="100.1" height="100.1" viewBox="0 0 100.1 100.1">
  <g id="ico_nav_3-2" transform="translate(0.05 0.05)">
    <rect id="사각형_30123" data-name="사각형 30123" width="100" height="100" transform="translate(0 100) rotate(-90)" fill="none" stroke="red" stroke-miterlimit="10" stroke-width="0.1" opacity="0"/>
    <path id="패스_3088" data-name="패스 3088" d="M76.223,85.1" transform="translate(-27.004 -33.814)" fill="none" stroke="#222" stroke-miterlimit="10" stroke-width="2"/>
    <path id="패스_3122" data-name="패스 3122" d="M1374.742,494.148l2.955,4.822a3.5,3.5,0,0,0,2.21,1.586l5.106,1.163a3.5,3.5,0,0,1,1.893,5.687l-3.849,4.527a3.51,3.51,0,0,0-.812,2.659l.5,4.513a3.5,3.5,0,0,1-4.922,3.584l-4.633-2.088a3.506,3.506,0,0,0-2.88,0l-4.723,2.128a3.5,3.5,0,0,1-4.928-3.535l.6-6.18a3.5,3.5,0,0,0-1.046-2.853l-2.737-2.661a3.5,3.5,0,0,1,1.666-5.929l4.45-1.014a3.5,3.5,0,0,0,2.21-1.586l2.956-4.822A3.5,3.5,0,0,1,1374.742,494.148Z" transform="translate(-1321.238 -473.369)" fill="#ff4d1d" stroke="#1f1f1f" stroke-linejoin="round" stroke-width="2"/>
    <g id="그룹_3223" data-name="그룹 3223" transform="translate(-1443.834 -480.828)">
      <path id="패스_3123" data-name="패스 3123" d="M1499.945,544.9l21.329-12.739a3.7,3.7,0,0,1,4.672.737h0a3.7,3.7,0,0,1-.159,5.038l-21.951,22.09h-29.331V540.516h0a17.331,17.331,0,0,1,14.965-1.49l10.056,2.571v7.388h-16.409" transform="translate(-2.028 0)" fill="none" stroke="#1f1f1f" stroke-linejoin="round" stroke-width="2"/>
      <rect id="사각형_30143" data-name="사각형 30143" width="8.819" height="22.338" transform="translate(1463.59 539.103)" fill="#ff4d1d" stroke="#1f1f1f" stroke-linejoin="round" stroke-width="2"/>
    </g>
  </g>
</svg>
