<svg xmlns="http://www.w3.org/2000/svg" width="100.1" height="100.1" viewBox="0 0 100.1 100.1">
  <g id="ico_nav_3-1" transform="translate(0.05 0.05)">
    <rect id="사각형_30123" data-name="사각형 30123" width="100" height="100" transform="translate(0 100) rotate(-90)" fill="none" stroke="red" stroke-miterlimit="10" stroke-width="0.1" opacity="0"/>
    <g id="그룹_3230" data-name="그룹 3230" transform="translate(-107.225 119.408)">
      <g id="그룹_3229" data-name="그룹 3229" transform="translate(136.661 -99.42)">
        <path id="패스_3130" data-name="패스 3130" d="M136.661-44.163V-64.752a18.014,18.014,0,0,1,18.014-18.015h0a18.015,18.015,0,0,1,18.016,18.015V-58.3" transform="translate(-136.661 101.2)" fill="none" stroke="#222" stroke-miterlimit="10" stroke-width="2"/>
        <circle id="타원_270" data-name="타원 270" cx="6.305" cy="6.305" r="6.305" transform="translate(11.71)" fill="none" stroke="#222" stroke-miterlimit="10" stroke-width="2"/>
      </g>
      <g id="그룹_3231" data-name="그룹 3231" transform="translate(153.005 -70.901)">
        <g id="그룹_3227" data-name="그룹 3227" transform="translate(0 14.201)">
          <path id="패스_3128" data-name="패스 3128" d="M156.32-43.454l-1.884-5.023-5.023-1.884,10.663-10.663,6.907,6.907Z" transform="translate(-149.413 63.024)" fill="#fff" stroke="#222" stroke-miterlimit="10" stroke-width="2"/>
          <path id="패스_3129" data-name="패스 3129" d="M177.338-43.454l1.884-5.023,5.023-1.884L173.582-61.024l-6.907,6.907Z" transform="translate(-149.753 63.024)" fill="#fff" stroke="#222" stroke-miterlimit="10" stroke-width="2"/>
        </g>
        <circle id="타원_268" data-name="타원 268" cx="13.678" cy="13.678" r="13.678" transform="translate(3.567)" fill="#ff4d1d" stroke="#1f1f1f" stroke-linejoin="round" stroke-width="2"/>
        <circle id="타원_269" data-name="타원 269" cx="8.999" cy="8.999" r="8.999" transform="translate(8.247 4.68)" fill="none" stroke="#222" stroke-miterlimit="10" stroke-width="2"/>
      </g>
    </g>
  </g>
</svg>
