<svg xmlns="http://www.w3.org/2000/svg" width="100.098" height="100.098" viewBox="0 0 100.098 100.098">
  <g id="ico_nav_1-1" transform="translate(0.05 0.05)">
    <rect id="사각형_30123" data-name="사각형 30123" width="99.999" height="99.999" transform="translate(0 99.999) rotate(-90)" fill="none" stroke="red" stroke-miterlimit="10" stroke-width="0.1" opacity="0"/>
    <path id="패스_3088" data-name="패스 3088" d="M76.223,85.1" transform="translate(-26.576 -30.996)" fill="none" stroke="#222" stroke-miterlimit="10" stroke-width="2"/>
    <g id="그룹_3243" data-name="그룹 3243" transform="translate(-669.853 -121.695)">
      <path id="패스_3145" data-name="패스 3145" d="M679.707-5.2h-9.479A2.007,2.007,0,0,0,668.353-4a3.128,3.128,0,0,1-2.89,1.931A3.125,3.125,0,0,1,662.574-4,2.01,2.01,0,0,0,660.7-5.2H603.2A6.076,6.076,0,0,0,597.121.878V34.087a6.077,6.077,0,0,0,6.076,6.076h57.5a2.012,2.012,0,0,0,1.876-1.193,3.126,3.126,0,0,1,5.778,0,2.012,2.012,0,0,0,1.876,1.193h9.479a6.077,6.077,0,0,0,6.076-6.076V.878A6.076,6.076,0,0,0,679.707-5.2Z" transform="translate(78.879 157.724)" fill="#fff"/>
      <path id="패스_3144" data-name="패스 3144" d="M4,5.032,8.166,1H19.323a4.032,4.032,0,0,1,4.032,4.032V40.414a4.032,4.032,0,0,1-4.032,4.032H7.4L4,41.882Z" transform="translate(740.342 151.98)" fill="#ff4d1d"/>
      <path id="패스_3142" data-name="패스 3142" d="M679.707-4.2h-9.479A2.007,2.007,0,0,0,668.353-3a3.128,3.128,0,0,1-2.89,1.931A3.125,3.125,0,0,1,662.574-3,2.01,2.01,0,0,0,660.7-4.2H603.2a6.076,6.076,0,0,0-6.076,6.075V33.173a6.077,6.077,0,0,0,6.076,6.076h57.5a2.012,2.012,0,0,0,1.876-1.193,3.126,3.126,0,0,1,5.778,0,2.012,2.012,0,0,0,1.876,1.193h9.479a6.077,6.077,0,0,0,6.076-6.076V1.878A6.076,6.076,0,0,0,679.707-4.2Z" transform="translate(78.879 157.681)" fill="none" stroke="#222" stroke-linejoin="bevel" stroke-miterlimit="10" stroke-width="2"/>
      <g id="그룹_898" data-name="그룹 898" transform="translate(728.737 163.111) rotate(90)">
        <path id="패스_821" data-name="패스 821" d="M8.945,0V7.049L0,10.487V5.73Z" transform="translate(0 13.454)" fill="#fff" stroke="#222" stroke-miterlimit="10" stroke-width="2"/>
        <path id="패스_822" data-name="패스 822" d="M7.118,31.258V20.5l8.947,3.438V19.184L7.118,13.455V3.56A3.56,3.56,0,0,0,3.559,0h0A3.56,3.56,0,0,0,0,3.56V34.7" transform="translate(8.939)" fill="#fff" stroke="#222" stroke-miterlimit="10" stroke-width="2"/>
      </g>
      <line id="선_425" data-name="선 425" y2="39.313" transform="translate(744.342 155.551)" fill="none" stroke="#222" stroke-width="2"/>
    </g>
  </g>
</svg>
