<svg xmlns="http://www.w3.org/2000/svg" width="100.1" height="100.1" viewBox="0 0 100.1 100.1">
  <g id="ico_nav_5-3" transform="translate(0.05 0.05)">
    <rect id="사각형_30123" data-name="사각형 30123" width="100" height="100" transform="translate(0 100) rotate(-90)" fill="none" stroke="red" stroke-miterlimit="10" stroke-width="0.1" opacity="0"/>
    <path id="패스_3088" data-name="패스 3088" d="M76.223,85.1" transform="translate(-26.99 -37.328)" fill="none" stroke="#222" stroke-miterlimit="10" stroke-width="2"/>
    <g id="그룹_3219" data-name="그룹 3219" transform="translate(-46.232 -56.512)">
      <g id="그룹_3221" data-name="그룹 3221" transform="translate(65.45 73.229)">
        <g id="그룹_3182" data-name="그룹 3182" transform="translate(16.354 9.954)">
          <path id="패스_3101" data-name="패스 3101" d="M294.638,66.128V63.447a2.528,2.528,0,0,1,1.621-2.36,4.329,4.329,0,0,0,2.707-4.014v-1.13a4.328,4.328,0,0,0-4.329-4.329h0a4.328,4.328,0,0,0-4.327,4.329V57.8" transform="translate(-289.618 -50.451)" fill="none" stroke="#fff" stroke-miterlimit="10" stroke-width="2"/>
          <ellipse id="타원_265" data-name="타원 265" cx="1.719" cy="1.731" rx="1.719" ry="1.731" transform="translate(3.338 19.332)" fill="#fff"/>
        </g>
      </g>
      <g id="그룹_3238" data-name="그룹 3238" transform="translate(2.123 3.123)">
        <g id="그룹_3217" data-name="그룹 3217" transform="translate(94.076 102.855)">
          <path id="사각형_30127" data-name="사각형 30127" d="M15.909,0h0A15.909,15.909,0,0,1,31.817,15.909V31.817a0,0,0,0,1,0,0H15.909A15.909,15.909,0,0,1,0,15.909v0A15.909,15.909,0,0,1,15.909,0Z" transform="translate(0 0)" fill="#ff4d1d" stroke="#222" stroke-miterlimit="10" stroke-width="2"/>
          <g id="그룹_3187" data-name="그룹 3187" transform="translate(9.858 14.248)">
            <line id="선_414" data-name="선 414" y2="3.109" transform="translate(7 7)" fill="none" stroke="#fff" stroke-miterlimit="10" stroke-width="3"/>
            <line id="선_436" data-name="선 436" y2="10.786" transform="translate(7 -7)" fill="none" stroke="#fff" stroke-miterlimit="10" stroke-width="3"/>
          </g>
        </g>
      </g>
    </g>
    <g id="그룹_3239" data-name="그룹 3239" transform="translate(19.221 18.375)">
      <path id="사각형_30127-2" data-name="사각형 30127" d="M0,0H18.775A18.774,18.774,0,0,1,37.549,18.774v0A18.774,18.774,0,0,1,18.775,37.548h0A18.774,18.774,0,0,1,0,18.774V0A0,0,0,0,1,0,0Z" fill="#fff" stroke="#222" stroke-miterlimit="10" stroke-width="2"/>
      <g id="그룹_3182-2" data-name="그룹 3182" transform="translate(13.973 8.597)">
        <path id="패스_3101-2" data-name="패스 3101" d="M295.039,66.443V64.313a2.624,2.624,0,0,1,1.771-2.441,4.488,4.488,0,0,0,2.958-4.153v.374a4.608,4.608,0,0,0-4.729-4.479h0a4.608,4.608,0,0,0-4.728,4.479v.375" transform="translate(-290.311 -53.614)" fill="none" stroke="#222" stroke-miterlimit="10" stroke-width="3"/>
        <ellipse id="타원_265-2" data-name="타원 265" cx="1.719" cy="1.731" rx="1.719" ry="1.731" transform="translate(3.042 17.157)" fill="#222"/>
      </g>
    </g>
  </g>
</svg>
