<svg xmlns="http://www.w3.org/2000/svg" width="100.1" height="100.1" viewBox="0 0 100.1 100.1">
  <g id="ico_nav_2-3" transform="translate(0.05 0.05)">
    <rect id="사각형_30123" data-name="사각형 30123" width="100" height="100" transform="translate(0 100) rotate(-90)" fill="none" stroke="red" stroke-miterlimit="10" stroke-width="0.1" opacity="0"/>
    <path id="패스_3088" data-name="패스 3088" d="M76.223,85.1" transform="translate(-26.49 -33.328)" fill="none" stroke="#222" stroke-miterlimit="10" stroke-width="2"/>
    <g id="그룹_898" data-name="그룹 898" transform="translate(73.326 42.409) rotate(90)">
      <path id="패스_821" data-name="패스 821" d="M81.521,135.024v11.849l-15.037,5.78v-8Z" transform="translate(-66.484 -112.407)" fill="none" stroke="#222" stroke-miterlimit="10" stroke-width="2"/>
      <path id="패스_822" data-name="패스 822" d="M84.885,177.888V159.8l15.042,5.78v-7.994l-15.042-9.631V131.324a5.985,5.985,0,0,0-5.983-5.985h0a5.985,5.985,0,0,0-5.983,5.985v52.341" transform="translate(-57.891 -125.339)" fill="none" stroke="#222" stroke-miterlimit="10" stroke-width="2"/>
    </g>
    <g id="그룹_3327" data-name="그룹 3327" transform="translate(17.684 23.594)">
      <path id="패스_3114" data-name="패스 3114" d="M236,46.839a13.928,13.928,0,1,0-7.6-2.159l-1.779,1.151a.553.553,0,0,0,.3,1.017Z" transform="translate(-180.188 -21.752)" fill="#ff4d1d" stroke="#222" stroke-miterlimit="10" stroke-width="2"/>
      <g id="그룹_3187" data-name="그룹 3187" transform="translate(48.73 9.271)">
        <line id="선_436" data-name="선 436" x2="4.086" y2="13.5" transform="translate(-1 -3.864)" fill="none" stroke="#fff" stroke-miterlimit="10" stroke-width="2.5"/>
        <line id="선_440" data-name="선 440" x2="4.086" y2="13.5" transform="translate(7.086 -3.864)" fill="none" stroke="#fff" stroke-miterlimit="10" stroke-width="2.5"/>
        <line id="선_438" data-name="선 438" x1="4.086" y2="13.5" transform="translate(3 -3.864)" fill="none" stroke="#fff" stroke-miterlimit="10" stroke-width="2.5"/>
        <line id="선_439" data-name="선 439" x1="4.086" y2="13.5" transform="translate(11.086 -3.864)" fill="none" stroke="#fff" stroke-miterlimit="10" stroke-width="2.5"/>
        <line id="선_441" data-name="선 441" x1="22.138" transform="translate(-4.052 -0.094)" fill="none" stroke="#fff" stroke-miterlimit="10" stroke-width="2.5"/>
      </g>
    </g>
  </g>
</svg>
