<svg xmlns="http://www.w3.org/2000/svg" width="100.1" height="100.1" viewBox="0 0 100.1 100.1">
  <g id="ico_nav_3-2" transform="translate(0.05 0.05)">
    <g id="그룹_3330" data-name="그룹 3330" transform="translate(0)">
      <rect id="사각형_30157" data-name="사각형 30157" width="100" height="100" transform="translate(0 100) rotate(-90)" fill="none" stroke="red" stroke-miterlimit="10" stroke-width="0.1" opacity="0"/>
      <g id="그룹_3331" data-name="그룹 3331" transform="translate(-1182.645 -1720.884)">
        <g id="그룹_3329" data-name="그룹 3329" transform="translate(1205.873 1775.444)">
          <path id="패스_3128" data-name="패스 3128" d="M10.733,27.3,7.806,19.5,0,16.57,16.57,0,27.3,10.733Z" transform="translate(0 0)" fill="#fff" stroke="#222" stroke-miterlimit="10" stroke-width="2"/>
          <path id="패스_3129" data-name="패스 3129" d="M16.57,27.3,19.5,19.5,27.3,16.57,10.733,0,0,10.733Z" transform="translate(26.297 0)" fill="#fff" stroke="#222" stroke-miterlimit="10" stroke-width="2"/>
        </g>
        <g id="그룹_3328" data-name="그룹 3328" transform="translate(1204.616 1740.923)">
          <path id="패스_3182" data-name="패스 3182" d="M45.563,36.5l-4.6,2.453a2.9,2.9,0,0,0-1.246,1.292l-2.274,4.675a2.917,2.917,0,0,1-3.018,1.608l-5.175-.706a2.927,2.927,0,0,0-1.772.317L22.87,48.6a2.926,2.926,0,0,1-3.393-.463l-3.769-3.595a2.922,2.922,0,0,0-1.621-.779l-5.175-.706A2.906,2.906,0,0,1,6.441,40.7l-.924-5.111a2.892,2.892,0,0,0-.851-1.578L.9,30.412a2.884,2.884,0,0,1-.606-3.351l2.274-4.675a2.882,2.882,0,0,0,.245-1.774L1.885,15.5a2.891,2.891,0,0,1,1.491-3.065l4.6-2.453A2.9,2.9,0,0,0,9.226,8.692L11.5,4.016a2.917,2.917,0,0,1,3.018-1.608l5.175.705A2.924,2.924,0,0,0,21.465,2.8l4.6-2.453a2.925,2.925,0,0,1,3.393.462L33.231,4.4a2.918,2.918,0,0,0,1.621.779l5.175.706A2.906,2.906,0,0,1,42.5,8.243l.924,5.111a2.893,2.893,0,0,0,.851,1.578l3.769,3.6a2.884,2.884,0,0,1,.606,3.351l-2.274,4.675a2.883,2.883,0,0,0-.245,1.774l.924,5.111A2.891,2.891,0,0,1,45.563,36.5Z" transform="matrix(0.985, 0.174, -0.174, 0.985, 8.498, 0)" fill="#ff4d1d" stroke="#222" stroke-linejoin="round" stroke-width="2"/>
          <text id="P" transform="translate(28.461 41.812)" fill="#fff" font-size="32" font-family="NotoSansCJKkr-Black, Noto Sans CJK KR" font-weight="800" letter-spacing="-0.02em"><tspan x="-10.992" y="0">P</tspan></text>
        </g>
      </g>
    </g>
  </g>
</svg>
