<svg id="ico_nav_4-4" xmlns="http://www.w3.org/2000/svg" width="44" height="44" viewBox="0 0 44 44">
  <rect id="사각형_30145" data-name="사각형 30145" width="44" height="44" fill="#fff"/>
  <g id="그룹_3259" data-name="그룹 3259" transform="translate(-436.523 -212.625)">
    <path id="패스_3154" data-name="패스 3154" d="M465.721,244.688" transform="translate(-8.896 -12.454)" fill="none"/>
  </g>
  <g id="그룹_3299" data-name="그룹 3299" transform="translate(1.541)">
    <path id="패스_3155" data-name="패스 3155" d="M930.639,202.019c0,9.98-8.585,20.072-12.136,23.82a2.078,2.078,0,0,1-3.019,0c-3.551-3.747-12.137-13.84-12.137-23.821a13.646,13.646,0,0,1,27.293,0Z" transform="translate(-893.846 -185.873)" fill="#ff4d1d" stroke="#222" stroke-miterlimit="10" stroke-width="2"/>
    <path id="패스_3173" data-name="패스 3173" d="M801.194,681.833H797.6l-5.627-6.249-.355.394-1.538,1.708,3.735,4.147H790.88l-2.272-2.513-1.893,2.1,2.668,2.95a1.273,1.273,0,0,0,.944.433h10.867a1.495,1.495,0,0,0,0-2.973Z" transform="translate(-771.334 -664.445)" fill="#fff"/>
  </g>
</svg>
