<svg xmlns="http://www.w3.org/2000/svg" width="100.1" height="100.1" viewBox="0 0 100.1 100.1">
  <g id="ico_nav_3-3" transform="translate(0.05 0.05)">
    <rect id="사각형_30123" data-name="사각형 30123" width="100" height="100" transform="translate(0 100) rotate(-90)" fill="none" stroke="red" stroke-miterlimit="10" stroke-width="0.1" opacity="0"/>
    <path id="패스_3088" data-name="패스 3088" d="M76.223,85.1" transform="translate(-26.99 -33.828)" fill="none" stroke="#222" stroke-miterlimit="10" stroke-width="2"/>
    <g id="그룹_3222" data-name="그룹 3222" transform="translate(-393.523 13.647)">
      <rect id="사각형_30140" data-name="사각형 30140" width="50.946" height="43.438" transform="translate(418.055 21.144)" fill="#ff4d1d" stroke="#222" stroke-miterlimit="10" stroke-width="2"/>
      <path id="사각형_30138" data-name="사각형 30138" d="M6.38,0h0a6.38,6.38,0,0,1,6.38,6.38v0a6.38,6.38,0,0,1-6.38,6.38H0a0,0,0,0,1,0,0V6.38A6.38,6.38,0,0,1,6.38,0Z" transform="translate(443.546 8.385)" fill="none" stroke="#222" stroke-miterlimit="10" stroke-width="2"/>
      <rect id="사각형_30142" data-name="사각형 30142" width="55.4" height="8.444" transform="translate(415.828 21.145)" fill="#ff4d1d" stroke="#222" stroke-miterlimit="10" stroke-width="2"/>
      <rect id="사각형_30141" data-name="사각형 30141" width="42.842" height="5.932" transform="translate(440.562 64.368) rotate(-90)" fill="#fff" stroke="#222" stroke-miterlimit="10" stroke-width="2"/>
      <path id="사각형_30139" data-name="사각형 30139" d="M6.38,0h0a6.38,6.38,0,0,1,6.38,6.38v6.38a0,0,0,0,1,0,0H6.38A6.38,6.38,0,0,1,0,6.38v0A6.38,6.38,0,0,1,6.38,0Z" transform="translate(430.638 8.385)" fill="none" stroke="#222" stroke-miterlimit="10" stroke-width="2"/>
    </g>
  </g>
</svg>
