<svg xmlns="http://www.w3.org/2000/svg" width="100.1" height="100.1" viewBox="0 0 100.1 100.1">
  <g id="ico_nav_1-2" transform="translate(0.05 0.05)">
    <rect id="사각형_30123" data-name="사각형 30123" width="100" height="100" transform="translate(0 100) rotate(-90)" fill="none" stroke="red" stroke-miterlimit="10" stroke-width="0.1" opacity="0"/>
    <path id="패스_3088" data-name="패스 3088" d="M76.223,85.1" transform="translate(-27.006 -33.813)" fill="none" stroke="#222" stroke-miterlimit="10" stroke-width="2"/>
    <g id="그룹_3314" data-name="그룹 3314" transform="translate(0)">
      <path id="패스_3125" data-name="패스 3125" d="M67.223,93.027V83.806a6.439,6.439,0,0,1,6.418-6.462h69.842a6.439,6.439,0,0,1,6.418,6.462v32.314a6.441,6.441,0,0,1-6.418,6.464H73.641a6.441,6.441,0,0,1-6.418-6.464V106.9a2.932,2.932,0,0,1,1.724-2.73,4.563,4.563,0,0,0,0-8.41A2.932,2.932,0,0,1,67.223,93.027Z" transform="translate(-59.223 -46.343)" fill="#fff" stroke="#222" stroke-miterlimit="10" stroke-width="2"/>
      <g id="그룹_3158" data-name="그룹 3158" transform="translate(18.074 32.512)">
        <path id="패스_3090" data-name="패스 3090" d="M76.223,85.1" transform="translate(-48.199 -63.768)" fill="none" stroke="#111" stroke-miterlimit="10" stroke-width="4"/>
        <path id="패스_3091" data-name="패스 3091" d="M76.223,85.1" transform="translate(-48.199 -63.768)" fill="none" stroke="#111" stroke-miterlimit="10" stroke-width="4"/>
        <path id="패스_3092" data-name="패스 3092" d="M1370.447,493.788l2.262,3.782a2.685,2.685,0,0,0,1.692,1.244l3.908.912a2.771,2.771,0,0,1,1.45,4.461l-2.947,3.551a2.8,2.8,0,0,0-.622,2.086l.386,3.54a2.7,2.7,0,0,1-3.768,2.811l-3.546-1.638a2.626,2.626,0,0,0-2.2,0l-3.615,1.67a2.7,2.7,0,0,1-3.772-2.773l.462-4.848a2.788,2.788,0,0,0-.8-2.238l-2.1-2.087a2.772,2.772,0,0,1,1.275-4.651l3.407-.8a2.685,2.685,0,0,0,1.692-1.244l2.263-3.782A2.649,2.649,0,0,1,1370.447,493.788Z" transform="translate(-1336.204 -483.693)" fill="#ff4d1d" stroke="#222" stroke-linejoin="round" stroke-width="2"/>
      </g>
    </g>
  </g>
</svg>
