<svg xmlns="http://www.w3.org/2000/svg" width="100.1" height="100.1" viewBox="0 0 100.1 100.1">
  <g id="ico_nav_5-4" transform="translate(0.05 0.05)">
    <rect id="사각형_30123" data-name="사각형 30123" width="100" height="100" transform="translate(0 100) rotate(-90)" fill="none" stroke="red" stroke-miterlimit="10" stroke-width="0.1" opacity="0"/>
    <path id="패스_3088" data-name="패스 3088" d="M76.223,85.1" transform="translate(-26.99 -33.328)" fill="none" stroke="#222" stroke-miterlimit="10" stroke-width="2"/>
    <g id="그룹_3191" data-name="그룹 3191" transform="translate(-251.52 -107.949)">
      <path id="패스_3105" data-name="패스 3105" d="M272.778,174.829h37.6v-28.2a18.789,18.789,0,0,0-18.8-18.776h0a18.788,18.788,0,0,0-18.8,18.776Z" transform="translate(8.941 8.385)" fill="#ff4d1d" stroke="#222" stroke-miterlimit="10" stroke-width="2"/>
      <line id="선_418" data-name="선 418" y2="8.386" transform="translate(306.396 129.352)" fill="none" stroke="#222" stroke-miterlimit="10" stroke-width="2"/>
      <line id="선_419" data-name="선 419" y2="8.386" transform="translate(294.645 129.352)" fill="none" stroke="#222" stroke-miterlimit="10" stroke-width="2"/>
      <rect id="사각형_30128" data-name="사각형 30128" width="17.151" height="3.663" rx="1" transform="translate(291.944 125.949)" fill="none" stroke="#222" stroke-miterlimit="10" stroke-width="2"/>
      <g id="타원_261" data-name="타원 261" transform="translate(286.02 185.949)" fill="none" stroke="#222" stroke-miterlimit="10" stroke-width="2">
        <circle cx="3" cy="3" r="3" stroke="none"/>
        <circle cx="3" cy="3" r="2" fill="none"/>
      </g>
      <g id="타원_262" data-name="타원 262" transform="translate(309.02 185.949)" fill="none" stroke="#222" stroke-miterlimit="10" stroke-width="2">
        <circle cx="3" cy="3" r="3" stroke="none"/>
        <circle cx="3" cy="3" r="2" fill="none"/>
      </g>
    </g>
    <g id="그룹_3176" data-name="그룹 3176" transform="translate(-79.914 -95.517)">
      <path id="패스_3094" data-name="패스 3094" d="M145.079,146.58,137.3,138.8l-.071-.071" transform="translate(14.904 14.924)" fill="none" stroke="#222" stroke-miterlimit="10" stroke-width="2"/>
      <circle id="타원_258" data-name="타원 258" cx="14.5" cy="14.5" r="14.5" transform="translate(127.415 128.516)" fill="#fff" stroke="#222" stroke-miterlimit="10" stroke-width="1.974"/>
      <path id="패스_3093" data-name="패스 3093" d="M131.914,131.707a8.768,8.768,0,0,1,7.869,1.714" transform="translate(7.173 4.269)" fill="none" stroke="#222" stroke-miterlimit="10" stroke-width="1.5"/>
    </g>
  </g>
</svg>
