<svg xmlns="http://www.w3.org/2000/svg" width="25.1" height="25.1" viewBox="0 0 25.1 25.1">
  <g id="ico_seat" transform="translate(0.05 0.05)">
    <rect id="area" width="25" height="25" fill="none" stroke="red" stroke-miterlimit="10" stroke-width="0.1" opacity="0"/>
    <g id="ico_seat-2" data-name="ico_seat" transform="translate(1.982 2.958)">
      <path id="패스_1070" data-name="패스 1070" d="M196.015,159.169l-4.429-7.705a2.8,2.8,0,0,0-3.829-1.03h0a2.822,2.822,0,0,0-1.026,3.845l7.231,12.59h9.6a3.843,3.843,0,0,0,3.834-3.852h0a3.842,3.842,0,0,0-3.836-3.851Z" transform="translate(-186.356 -150.055)" fill="none" stroke="#222" stroke-miterlimit="10" stroke-width="2"/>
      <path id="패스_1071" data-name="패스 1071" d="M203.879,167.474l1.861,3.625a.164.164,0,0,1-.146.239H193.307" transform="translate(-186.694 -150.757)" fill="none" stroke="#222" stroke-miterlimit="10" stroke-width="2"/>
      <line id="선_336" data-name="선 336" x2="12.585" transform="translate(3.16 9.112)" fill="none" stroke="#222" stroke-miterlimit="10" stroke-width="2"/>
    </g>
  </g>
</svg>
