<svg xmlns="http://www.w3.org/2000/svg" width="16.918" height="22.952" viewBox="0 0 16.918 22.952">
  <g id="그룹_3655" data-name="그룹 3655" transform="translate(-374.094 -308.175)">
    <path id="패스_1119" data-name="패스 1119" d="M391.012,331.127h-2.058V310.461a.229.229,0,0,0-.229-.229H376.38a.229.229,0,0,0-.229.229v20.666h-2.058V310.461a2.289,2.289,0,0,1,2.286-2.286h12.346a2.289,2.289,0,0,1,2.286,2.286Z"/>
    <rect id="사각형_30113" data-name="사각형 30113" width="14.689" height="1.939" transform="translate(375.294 314.328)"/>
    <rect id="사각형_30114" data-name="사각형 30114" width="1.506" height="1.292" transform="translate(380.627 311.658)"/>
    <rect id="사각형_30115" data-name="사각형 30115" width="1.507" height="1.292" transform="translate(377.655 311.658)"/>
    <path id="패스_1120" data-name="패스 1120" d="M436.112,393.472a1.662,1.662,0,1,1,1.662-1.662A1.664,1.664,0,0,1,436.112,393.472Zm0-2.065a.4.4,0,1,0,.4.4A.4.4,0,0,0,436.112,391.408Z" transform="translate(-53.457 -72.603)"/>
    <path id="패스_1121" data-name="패스 1121" d="M418.914,429a.629.629,0,0,1-.629-.629v-3.655c0-1.814-1.051-3.29-2.342-3.29H414.46c-1.292,0-2.342,1.476-2.342,3.29v3.655a.629.629,0,0,1-1.259,0v-3.655c0-2.508,1.615-4.549,3.6-4.549h1.482c1.985,0,3.6,2.041,3.6,4.549v3.655A.629.629,0,0,1,418.914,429Z" transform="translate(-32.562 -99.187)"/>
  </g>
</svg>
